<svg width="74" height="74" viewBox="0 0 74 74" fill="none" xmlns="http://www.w3.org/2000/svg">
<g filter="url(#filter0_d_1397_3615)">
<rect x="4" width="65.5717" height="65.5717" rx="32.7859" fill="#E9892C"/>
<rect x="5.5" y="1.5" width="62.5717" height="62.5717" rx="31.2859" stroke="white" stroke-width="3"/>
<g clip-path="url(#clip0_1397_3615)">
<g clip-path="url(#clip1_1397_3615)">
<g clip-path="url(#clip2_1397_3615)">
<path d="M26.3158 45.7511C25.8345 42.1582 25.3303 38.436 24.8261 34.5328C27.3701 33.1628 29.7307 31.3017 32.733 31.4568C34.8186 31.5861 36.9271 31.4568 39.0356 31.4568C39.3335 31.4568 39.7231 31.3276 39.9294 31.5085C40.4565 31.9221 41.1441 32.3874 41.3274 33.0336C41.6024 34.0158 40.9607 34.7138 40.1815 34.9205C38.8064 35.3083 37.4084 35.5409 36.0333 35.8769C35.5061 36.0062 34.979 36.1871 34.4519 36.3681C34.5206 36.6524 34.5436 36.8075 34.5665 36.8075C38.5772 37.6605 42.5192 37.919 46.0945 34.8947C46.8508 34.2485 47.6071 33.6281 48.3863 33.0336C48.7759 32.7493 49.1885 32.4908 49.6239 32.3615C50.5177 32.0772 51.4115 32.1547 51.9387 33.2404C52.4429 34.3002 52.0533 35.3083 51.4115 36.0062C50.0823 37.4537 48.753 38.9529 47.2633 40.1678C45.6132 41.512 43.8485 42.6234 42.0379 43.6315C41.2357 44.071 40.2732 44.1744 39.3793 44.2261C36.4458 44.3553 33.4893 44.2778 30.5787 44.5104C29.1806 44.6396 27.8284 45.2859 26.3158 45.7511Z" fill="white"/>
<path d="M61.404 26.416C60.9456 28.8716 59.7539 30.2675 58.1267 30.2675C46.4153 30.2675 34.704 30.2675 22.9926 30.2675C21.3196 30.2675 20.1049 28.8458 19.7382 26.416C33.6268 26.416 47.4696 26.416 61.404 26.416Z" fill="white"/>
<path d="M54.8722 24.3478C54.1618 24.3478 53.7492 24.3478 53.3367 24.3478C46.4612 24.3478 39.6085 24.2961 32.733 24.3995C31.3579 24.4254 30.5557 23.7792 29.7307 22.5901C27.8743 19.876 25.9033 17.2395 23.7948 14.3186C25.697 14.5512 27.5763 13.4656 28.9285 15.8695C29.6161 17.0585 30.487 18.1183 31.3808 19.1006C31.7704 19.54 32.4121 19.8502 32.9622 19.876C37.798 19.9277 42.6567 19.9794 47.4925 19.876C50.151 19.8243 52.397 20.7549 54.1618 23.2105C54.3909 23.4431 54.5285 23.7533 54.8722 24.3478Z" fill="white"/>
<path d="M25.9491 49.3439C22.901 49.9126 20.1049 50.4554 17.263 50.9982C17.1713 50.688 17.0797 50.5071 17.0797 50.352C17.0797 45.8285 17.0568 41.3308 17.1026 36.8073C17.1026 36.4196 17.538 35.7992 17.836 35.7217C19.807 35.2305 21.8009 34.8945 23.9323 34.4551C24.6199 39.418 25.2616 44.3034 25.9491 49.3439Z" fill="white"/>
</g>
</g>
</g>
</g>
<defs>
<filter id="filter0_d_1397_3615" x="0" y="0" width="73.5717" height="73.5723" filterUnits="userSpaceOnUse" color-interpolation-filters="sRGB">
<feFlood flood-opacity="0" result="BackgroundImageFix"/>
<feColorMatrix in="SourceAlpha" type="matrix" values="0 0 0 0 0 0 0 0 0 0 0 0 0 0 0 0 0 0 127 0" result="hardAlpha"/>
<feOffset dy="4"/>
<feGaussianBlur stdDeviation="2"/>
<feComposite in2="hardAlpha" operator="out"/>
<feColorMatrix type="matrix" values="0 0 0 0 0 0 0 0 0 0 0 0 0 0 0 0 0 0 0.16 0"/>
<feBlend mode="normal" in2="BackgroundImageFix" result="effect1_dropShadow_1397_3615"/>
<feBlend mode="normal" in="SourceGraphic" in2="effect1_dropShadow_1397_3615" result="shape"/>
</filter>
<clipPath id="clip0_1397_3615">
<rect width="41" height="41" fill="white" transform="translate(16.2859 12.2871)"/>
</clipPath>
<clipPath id="clip1_1397_3615">
<rect width="40" height="40" fill="white" transform="translate(19.1161 11)"/>
</clipPath>
<clipPath id="clip2_1397_3615">
<rect width="44.3243" height="36.7568" fill="white" transform="translate(17.0797 14.2402)"/>
</clipPath>
</defs>
</svg>
