<svg width="71" height="73" viewBox="0 0 71 73" fill="none" xmlns="http://www.w3.org/2000/svg">
<g filter="url(#filter0_d_1397_3636)">
<rect x="4" width="63" height="65" rx="31.5" fill="#E9892C"/>
<rect x="5.5" y="1.5" width="60" height="62" rx="30" stroke="white" stroke-width="3"/>
<g clip-path="url(#clip0_1397_3636)">
<path d="M15 30.7233C15 30.6396 15 30.5559 15 30.4932C15.0634 30.263 15.1268 30.0329 15.1691 29.8028C15.3593 28.7358 15.5495 27.648 15.7397 26.5392C15.9299 26.5392 16.099 26.5392 16.2469 26.5392C17.3881 26.5183 18.5505 26.4973 19.6918 26.4973C20.0088 26.4973 20.1567 26.4137 20.2835 26.0999C20.8541 24.6145 21.6361 23.2547 22.6294 22.0204C22.7985 21.7902 22.7985 21.6438 22.6716 21.3927C22.0376 20.284 21.4036 19.1542 20.7696 18.0245C21.8686 17.125 22.9464 16.2254 24.0454 15.3049C25.0809 16.1208 26.0742 16.9158 27.0675 17.7317C27.2789 17.899 27.4268 17.899 27.6593 17.7735C28.9696 17.0413 30.3644 16.5183 31.8227 16.2045C32.6258 16.0162 32.6258 16.0162 32.7737 15.2421C32.9851 14.1542 33.1964 13.0664 33.4289 11.9785C34.8026 11.9785 36.1552 11.9785 37.5077 11.9994C37.5923 11.9994 37.7191 12.1668 37.7402 12.2714C37.9727 13.422 38.2052 14.5727 38.4376 15.7233C38.4799 15.9743 38.5856 16.0999 38.8603 16.1417C40.4454 16.4555 41.967 16.9994 43.383 17.7944C43.7 17.9827 43.8902 17.9618 44.1861 17.7317C45.1371 16.9367 46.1093 16.1835 47.0814 15.3886C48.1804 16.3091 49.2582 17.2086 50.3572 18.1082C49.7021 19.2589 49.0892 20.3886 48.434 21.5183C48.3072 21.7275 48.2861 21.8739 48.4552 22.0831C49.4696 23.3593 50.2727 24.7819 50.8433 26.33C50.9278 26.5601 51.0546 26.6229 51.2871 26.6229C52.0902 26.6229 52.8933 26.6438 53.6964 26.6647C54.2247 26.6647 54.7531 26.6647 55.3026 26.6647C55.5562 28.0873 55.8098 29.4681 56.0423 30.8488C54.7531 31.33 53.5062 31.8321 52.2381 32.2923C51.9634 32.3969 51.8577 32.5434 51.8366 32.8363C51.7732 34.1542 51.5619 35.4513 51.1392 36.7275C50.8433 37.6689 50.8433 37.648 51.6041 38.3174C52.4706 39.0706 53.3582 39.8237 54.2459 40.5978C53.5485 41.7693 52.8933 42.9409 52.1959 44.0706C52.1536 44.1542 51.9211 44.1752 51.8155 44.1333C50.5897 43.7358 49.3639 43.3174 48.1593 42.8781C47.8423 42.7526 47.6521 42.8363 47.4407 43.0664C46.4897 44.0915 45.4119 44.9911 44.2072 45.7024C43.8268 45.9325 43.7211 46.1626 43.8057 46.581C44.0381 47.7944 44.2284 49.0287 44.3974 50.263C44.4186 50.3886 44.334 50.5978 44.2495 50.6396C43.0026 51.1208 41.7345 51.5601 40.4454 52.0204C40.3608 51.8739 40.2763 51.7693 40.1918 51.6438C39.5155 50.535 38.8392 49.4262 38.184 48.3174C38.0784 48.1501 37.9938 48.0245 37.7613 48.0455C36.2397 48.2756 34.718 48.2547 33.2175 48.0245C32.9428 47.9827 32.816 48.0873 32.6892 48.3174C32.0129 49.4471 31.3366 50.5559 30.6603 51.6856C30.5335 51.9158 30.4067 51.9576 30.1531 51.8739C29.0541 51.4555 27.9552 51.058 26.8562 50.6814C26.518 50.5768 26.4758 50.4095 26.5392 50.1166C26.7505 48.8195 26.9407 47.5434 27.1732 46.2463C27.2155 46.0371 27.1732 45.9116 26.983 45.786C25.6727 44.9911 24.4892 44.0078 23.4536 42.8781C23.2845 42.6898 23.1366 42.6898 22.9253 42.7735C22.4603 42.9409 21.9742 43.1082 21.4881 43.2756C20.6216 43.5685 19.7552 43.8614 18.8675 44.1542C18.149 42.9199 17.4515 41.7065 16.733 40.4932C17.7897 39.5727 18.8253 38.6731 19.882 37.7944C20.1144 37.6061 20.1778 37.4597 20.0722 37.1668C19.5438 35.7024 19.2902 34.1961 19.2479 32.6689C19.2479 32.4178 19.1423 32.3132 18.9098 32.2086C17.5572 31.7065 16.2892 31.2045 15 30.7233ZM37.233 33.1082C37.3175 33.2547 37.3809 33.3802 37.4443 33.4848C38.8814 36.058 40.2974 38.6103 41.7345 41.1835C42.0093 41.6856 42.284 41.7275 42.7067 41.33C43.1716 40.8906 43.5943 40.4304 44.0804 39.9911C44.2918 39.8028 44.3129 39.6354 44.2284 39.3635C43.2562 36.1626 42.284 32.9618 41.3119 29.7819C41.2273 29.5099 41.2696 29.3425 41.5021 29.1333C42.4954 28.2547 43.4675 27.3342 44.4397 26.4346C44.6088 26.2672 44.7778 26.0999 44.9258 25.9116C45.8345 24.7191 45.433 23.0245 44.0804 22.4388C43.1505 22.0413 42.0938 22.2923 41.3119 23.1082C40.3397 24.1124 39.3887 25.1166 38.4376 26.1417C38.2263 26.3718 38.0361 26.3927 37.7613 26.3091C34.5701 25.3467 31.3789 24.4262 28.1876 23.4639C27.8918 23.3802 27.7227 23.422 27.5325 23.6312C27.1098 24.0706 26.666 24.489 26.2433 24.9283C25.7995 25.3676 25.8418 25.6396 26.3912 25.9325C28.9273 27.3132 31.4845 28.7149 34.0206 30.0957C34.1686 30.1794 34.2954 30.263 34.4644 30.3467C33.6402 31.2463 32.816 32.104 32.0129 32.9827C31.5268 33.5266 31.083 34.0915 30.5969 34.6354C30.5335 34.7191 30.3433 34.7609 30.2376 34.7191C29.5825 34.5727 28.9273 34.3844 28.251 34.217C26.9619 33.8823 26.9619 33.8823 26.032 34.8446C25.7149 35.1794 25.7361 35.3886 26.1588 35.5978C27.2577 36.1626 28.3778 36.6856 29.4768 37.2714C29.7938 37.4388 30.0897 37.7526 30.2588 38.0664C30.8716 39.1542 31.4 40.263 31.9706 41.3718C32.1608 41.7275 32.351 41.7693 32.668 41.4973C33.7247 40.5768 33.7247 40.5768 33.3655 39.2379C33.3443 39.1752 33.3232 39.1124 33.3232 39.0496C33.133 38.3593 32.9639 37.648 32.816 37.0831C34.2742 35.7651 35.7325 34.4471 37.233 33.1082Z" fill="white"/>
</g>
</g>
<defs>
<filter id="filter0_d_1397_3636" x="0" y="0" width="71" height="73" filterUnits="userSpaceOnUse" color-interpolation-filters="sRGB">
<feFlood flood-opacity="0" result="BackgroundImageFix"/>
<feColorMatrix in="SourceAlpha" type="matrix" values="0 0 0 0 0 0 0 0 0 0 0 0 0 0 0 0 0 0 127 0" result="hardAlpha"/>
<feOffset dy="4"/>
<feGaussianBlur stdDeviation="2"/>
<feComposite in2="hardAlpha" operator="out"/>
<feColorMatrix type="matrix" values="0 0 0 0 0 0 0 0 0 0 0 0 0 0 0 0 0 0 0.16 0"/>
<feBlend mode="normal" in2="BackgroundImageFix" result="effect1_dropShadow_1397_3636"/>
<feBlend mode="normal" in="SourceGraphic" in2="effect1_dropShadow_1397_3636" result="shape"/>
</filter>
<clipPath id="clip0_1397_3636">
<rect width="41" height="40" fill="white" transform="translate(15 12)"/>
</clipPath>
</defs>
</svg>
