<svg width="72" height="71" viewBox="0 0 72 71" fill="none" xmlns="http://www.w3.org/2000/svg">
<g filter="url(#filter0_d_1397_3657)">
<rect x="4" width="63.5717" height="62.5717" rx="31.2859" fill="#E9892C"/>
<rect x="5.5" y="1.5" width="60.5717" height="59.5717" rx="29.7859" stroke="white" stroke-width="3"/>
<g clip-path="url(#clip0_1397_3657)">
<path d="M31.9086 29.4865C30.3955 31.1914 29.185 32.5174 28.0123 33.8814C26.4992 35.662 26.9153 37.1017 29.185 37.8594C31.2277 38.5414 33.0056 37.8973 34.7078 36.7607C37.734 34.7527 37.8096 34.7906 40.4197 37.3669C42.0085 38.9581 43.635 40.5872 45.2616 42.1785C46.0938 42.9741 46.5099 43.8455 45.5264 44.7926C44.6185 45.664 43.8242 45.1715 43.0676 44.4138C41.6302 42.9741 40.2306 41.5344 38.7931 40.1326C38.4149 39.7537 37.9988 39.0718 37.4314 39.7159C36.9774 40.2463 37.5448 40.6251 37.8853 40.9661C39.1714 42.2542 40.4575 43.5424 41.7437 44.8305C42.5759 45.664 43.7485 46.5354 42.4624 47.8235C41.2519 49.0359 40.4197 47.9372 39.6253 47.1416C38.1501 45.664 36.6748 44.1864 35.1995 42.7468C34.8591 42.4058 34.4052 41.9511 33.9512 42.4816C33.6108 42.8983 33.9891 43.2772 34.2917 43.6181C35.1617 44.5274 36.0696 45.3988 36.9774 46.3081C37.8096 47.1416 38.7553 48.013 37.5827 49.1496C36.41 50.2861 35.54 49.2632 34.7456 48.4297C33.9512 47.6341 33.1947 46.7627 32.3247 46.0429C31.8329 45.6261 31.379 44.4138 30.5846 45.2094C29.9037 45.8913 31.0007 46.346 31.379 46.8385C31.6438 47.1795 32.0599 47.4447 32.249 47.8235C32.6651 48.5434 32.6651 49.3011 31.9842 49.8694C31.379 50.3998 30.6603 50.4377 30.0928 49.8694C27.5206 47.3689 24.9862 44.8305 22.4139 42.2921C21.9978 41.8754 22.1113 41.345 22.2248 40.8524C23.0191 37.4806 23.8513 34.1087 24.6079 30.7368C24.8348 29.7517 25.2509 29.3729 26.2723 29.4108C27.9367 29.5244 29.6389 29.4865 31.9086 29.4865Z" fill="white"/>
<path d="M37.4692 34.0726C36.1074 34.0726 35.1239 34.944 34.1026 35.6638C32.7408 36.611 31.3034 37.1414 29.6768 36.6868C28.4663 36.3458 28.0502 35.7396 29.0337 34.6788C29.8281 33.8074 30.6981 32.936 31.4169 31.9889C32.4004 30.625 33.346 29.9051 35.0861 30.9659C36.4101 31.7994 37.6584 30.7007 38.6797 29.943C39.7767 29.1474 40.6467 29.2232 41.7437 29.8672C43.1055 30.7007 44.5808 31.3069 46.2452 30.8523C46.9261 30.6628 47.153 30.928 47.3043 31.5342C48.0609 34.7167 48.7796 37.937 49.5362 41.1195C49.6496 41.612 49.6875 41.9909 49.1957 42.2182C48.3257 42.597 47.4557 42.5592 46.7369 41.8772C44.9212 40.1344 43.1433 38.3159 41.3654 36.5352C40.8359 36.0048 40.3063 35.4744 39.7389 34.944C39.058 34.3378 38.3014 34.0726 37.4692 34.0726Z" fill="white"/>
<path d="M19.6147 42.8994C18.7825 42.71 18.2151 42.4827 17.6855 42.4448C16.3237 42.2932 16.1346 41.6492 16.4372 40.3989C17.4964 36.2693 18.5177 32.1018 19.3499 27.9343C19.8417 25.5854 21.2035 26.7977 22.3383 26.9114C23.6622 27.0251 24.1162 27.5555 23.7379 29.033C22.6409 33.2384 21.733 37.4438 20.7495 41.6871C20.5604 42.4069 20.4091 43.1646 19.6147 42.8994Z" fill="white"/>
<path d="M52.2219 42.8613C51.314 43.0508 51.1627 42.4446 51.0114 41.8005C49.9901 37.3678 48.9309 32.973 47.9096 28.5403C47.7204 27.7447 47.9096 27.29 48.7796 27.0248C51.768 26.0019 51.9571 26.0777 52.6758 29.1465C53.4702 32.5184 54.2646 35.8902 55.0589 39.2621C55.6642 42.1415 55.2102 42.7477 52.2219 42.8613Z" fill="white"/>
<path d="M27.6719 16.228C27.2937 14.9398 28.2772 14.4852 29.7146 13.7653C34.3296 11.3785 38.6419 12.1741 43.0298 14.1821C43.5973 14.4473 44.0512 14.5988 44.0512 15.3187C43.9755 20.0545 43.1433 24.6008 39.3606 27.8591C36.2588 30.549 35.54 30.5869 32.2491 27.7833C28.9202 24.9039 27.9746 20.888 27.6719 16.228ZM42.6894 17.0236C43.0299 15.8491 42.2355 15.1671 40.798 14.7883C39.4741 14.4473 38.1501 13.9548 36.864 13.5001C36.2588 13.2728 35.6913 13.197 35.0483 13.4244C33.4595 14.0305 31.833 14.5231 30.2442 15.0535C29.639 15.2429 29.1472 15.4702 29.0337 16.2658C28.4663 20.0545 31.2655 25.889 34.5565 27.8969C35.5779 28.5031 36.4101 28.4274 37.3179 27.8212C40.9872 25.3207 42.2355 21.6078 42.6894 17.0236Z" fill="white"/>
<path d="M32.3247 24.1444C32.2869 23.6898 32.2112 23.2352 32.1734 22.7805C32.1734 22.4395 32.0221 22.2501 31.7573 22.0607C31.379 21.8334 31.0386 21.5303 30.6981 21.2651C31.1142 20.8104 31.4547 20.6968 32.0221 20.9999C32.3625 21.1893 32.5895 21.1135 32.8543 20.9241C34.9348 19.5981 36.9775 18.3099 39.058 17.0218C39.6254 16.6429 40.2684 16.4535 40.9493 16.605C41.5167 16.7187 41.7815 17.1733 41.5167 17.7038C41.252 18.3099 40.7602 18.7646 40.155 19.0677C37.961 20.2043 35.767 21.3408 33.5352 22.4774C33.2704 22.5911 33.1569 22.7426 33.1569 23.0457C33.2326 23.6519 32.9678 23.9929 32.3247 24.1444Z" fill="white"/>
<path d="M39.0201 20.2805C38.7175 21.6822 38.3771 23.1219 38.0744 24.5237C38.0366 24.6374 37.8475 24.7889 37.734 24.7889C37.507 24.8268 37.2422 24.8268 36.9396 24.8268C36.8261 23.6902 36.7127 22.5536 36.5992 21.4549C36.5992 21.3792 36.637 21.2655 36.7127 21.2276C37.4314 20.8487 38.1123 20.5078 38.831 20.1289C38.9066 20.2047 38.9445 20.2426 39.0201 20.2805Z" fill="white"/>
<path d="M32.4382 16.909C32.9678 15.9997 32.9678 15.9997 33.9134 16.3407C34.9726 16.7195 36.0318 17.0984 37.0909 17.4773C37.2044 17.5152 37.3179 17.553 37.4314 17.6288C36.7127 18.0835 36.0696 18.5381 35.3887 18.9548C35.3509 18.9927 35.1996 18.9927 35.1617 18.9548C34.2539 18.235 33.346 17.5909 32.4382 16.909Z" fill="white"/>
</g>
</g>
<defs>
<filter id="filter0_d_1397_3657" x="0" y="0" width="71.5718" height="70.5723" filterUnits="userSpaceOnUse" color-interpolation-filters="sRGB">
<feFlood flood-opacity="0" result="BackgroundImageFix"/>
<feColorMatrix in="SourceAlpha" type="matrix" values="0 0 0 0 0 0 0 0 0 0 0 0 0 0 0 0 0 0 127 0" result="hardAlpha"/>
<feOffset dy="4"/>
<feGaussianBlur stdDeviation="2"/>
<feComposite in2="hardAlpha" operator="out"/>
<feColorMatrix type="matrix" values="0 0 0 0 0 0 0 0 0 0 0 0 0 0 0 0 0 0 0.16 0"/>
<feBlend mode="normal" in2="BackgroundImageFix" result="effect1_dropShadow_1397_3657"/>
<feBlend mode="normal" in="SourceGraphic" in2="effect1_dropShadow_1397_3657" result="shape"/>
</filter>
<clipPath id="clip0_1397_3657">
<rect width="39" height="38" fill="white" transform="translate(16.2859 12.2871)"/>
</clipPath>
</defs>
</svg>
