<svg width="25" height="25" viewBox="0 0 25 25" fill="none" xmlns="http://www.w3.org/2000/svg">
<g clip-path="url(#clip0_751_3229)">
<path d="M5.25 8C2.36475 8 0 10.3575 0 13.235C0 14.35 0.356 15.3863 0.95875 16.238L4.6095 22.549C5.12075 23.217 5.46075 23.0903 5.886 22.514L9.9125 15.6615C9.99375 15.514 10.0575 15.3575 10.1132 15.1975C10.3686 14.5747 10.4999 13.9081 10.5 13.235C10.5 10.3575 8.136 8 5.25 8ZM5.25 10.453C6.804 10.453 8.04 11.6858 8.04 13.2353C8.04 14.7847 6.80375 16.017 5.25 16.017C3.69625 16.017 2.46 14.7845 2.46 13.2353C2.46 11.686 3.6965 10.453 5.25 10.453ZM21.9375 0C20.2545 0 18.875 1.37525 18.875 3.054C18.875 3.70425 19.0825 4.30875 19.4342 4.8055L21.564 8.487C21.8622 8.8765 22.0605 8.8025 22.3085 8.4665L24.6572 4.469C24.7048 4.38325 24.742 4.292 24.7743 4.1985C24.9237 3.83545 25.0004 3.4466 25 3.054C25 1.375 23.621 0 21.9375 0ZM21.9375 1.431C22.844 1.431 23.565 2.15 23.565 3.054C23.565 3.958 22.844 4.6765 21.9375 4.6765C21.031 4.6765 20.31 3.95775 20.31 3.054C20.31 2.15025 21.0312 1.431 21.9375 1.431Z" fill="#285D80"/>
<path fill-rule="evenodd" clip-rule="evenodd" d="M22.0533 9.35352C21.4916 9.36602 20.9283 9.38977 20.3641 9.43152L20.4511 10.8145C20.9931 10.7752 21.536 10.75 22.0793 10.7388L22.0533 9.35352ZM19.0596 9.55852C18.1921 9.66627 17.3171 9.81977 16.4521 10.0665L16.7778 11.4068C17.5638 11.1828 18.3783 11.038 19.2056 10.9353L19.0596 9.55852ZM15.1568 10.5305C14.8977 10.6449 14.6467 10.7771 14.4058 10.9263L14.4048 10.9275L14.4033 10.928C14.0596 11.1445 13.6973 11.4193 13.4016 11.8185C13.1873 12.1078 13.0121 12.4735 12.9711 12.906L14.2448 13.0473C14.2543 12.9458 14.3063 12.8118 14.3998 12.6858H14.4003V12.6853C14.5511 12.4813 14.7771 12.296 15.0458 12.1265L15.0468 12.126C15.2385 12.008 15.438 11.9031 15.6438 11.812L15.1568 10.5305ZM14.5011 13.6643L13.6753 14.723C13.8711 14.902 14.0763 15.0395 14.2746 15.1545L14.2771 15.1558L14.2796 15.1573C14.9376 15.5315 15.6161 15.7428 16.2451 15.9433L16.6066 14.6138C15.9778 14.4133 15.3851 14.2198 14.8771 13.9313C14.7316 13.8468 14.6041 13.7585 14.5011 13.6643ZM17.8348 14.9878L17.4818 16.3195L17.6488 16.3715L17.8538 16.437C18.5323 16.6578 19.1823 16.8935 19.7633 17.2198L20.3528 15.9898C19.6503 15.595 18.9211 15.337 18.2183 15.1085L18.2163 15.108L18.0058 15.0408L17.8348 14.9878ZM21.5516 16.9128L20.6458 17.8928C20.8598 18.1245 21.0201 18.4033 21.0981 18.6913L21.0986 18.6928L21.0991 18.695C21.1921 19.0313 21.1923 19.4268 21.1196 19.8263L22.3756 20.0943C22.4781 19.5303 22.4946 18.911 22.3261 18.2998C22.1793 17.7593 21.8993 17.2898 21.5516 16.9128ZM20.6811 20.6613C20.5425 20.8072 20.3896 20.9389 20.2246 21.0543H20.2241C19.7741 21.3708 19.2521 21.6093 18.6976 21.8143L19.1111 23.1253C19.7176 22.901 20.3403 22.626 20.9223 22.2165L20.9238 22.2153L20.9246 22.2148C21.1636 22.0473 21.3846 21.8557 21.5843 21.643L20.6811 20.6613ZM17.5211 22.1835C16.7178 22.3995 15.8968 22.564 15.0658 22.7035L15.2618 24.0733C16.1171 23.9295 16.9758 23.7578 17.8293 23.5283L17.5211 22.1835ZM13.8156 22.8925C12.9791 23.0068 12.1381 23.1 11.2946 23.1795L11.4051 24.56C12.2616 24.4795 13.1196 24.3848 13.9763 24.2675L13.8156 22.8925ZM10.0268 23.2883C9.18159 23.3553 8.33434 23.4098 7.48634 23.4558L7.55034 24.8398C8.40659 24.7935 9.26359 24.7383 10.1203 24.6703L10.0268 23.2883ZM6.21209 23.5183C5.70384 23.542 5.19434 23.5615 4.68359 23.5795L4.72559 24.9648C5.23954 24.9471 5.75338 24.9266 6.26709 24.9033L6.21209 23.5183Z" fill="#EF8F40"/>
</g>
<defs>
<clipPath id="clip0_751_3229">
<rect width="25" height="25" fill="white"/>
</clipPath>
</defs>
</svg>
