<svg width="25" height="25" viewBox="0 0 25 25" fill="none" xmlns="http://www.w3.org/2000/svg">
<g clip-path="url(#clip0_751_3256)">
<path d="M12.4867 0C5.5885 0.0075 0 5.6015 0 12.5C0.00352034 14.458 0.466967 16.3878 1.35299 18.1339C2.23902 19.88 3.52284 21.3935 5.101 22.5525C5.03475 22.0448 5.04775 21.5205 5.13025 21.002C4.30539 20.2861 3.58869 19.4543 3.0025 18.5327H6.11375C6.40925 18.0715 6.71375 17.6152 7.245 17.2827C6.93375 16.0077 6.7435 14.6038 6.7085 13.125H7.045C7.14498 12.6873 7.30748 12.2663 7.5275 11.875H6.71675C6.76975 10.3912 6.9775 8.9865 7.3075 7.7175H11.875V9.9395C12.317 10.0074 12.7415 10.1606 13.125 10.3905V7.7175H17.9237C17.9888 7.96675 18.0475 8.2225 18.1025 8.48175C18.5231 8.41741 18.9503 8.40758 19.3735 8.4525C19.3251 8.20647 19.2718 7.96142 19.2138 7.7175H22.6863C23.2059 8.82454 23.5408 10.0092 23.6775 11.2245C23.8225 12.4867 23.8252 13.9682 23.366 15.4172C23.217 15.9709 23.026 16.5123 22.7945 17.0368C23.0765 17.3335 23.418 17.614 23.7612 17.9002C24.5729 16.2155 24.9962 14.3701 25 12.5C25 5.5965 19.4035 0 12.5 0H12.4867ZM13.125 1.4205C14.442 1.6445 15.7005 2.7295 16.692 4.52975C17.0115 5.11 17.297 5.7615 17.544 6.46725H13.125V1.4205ZM11.875 1.46975V6.46725H7.6875C7.9345 5.7615 8.22 5.11 8.5395 4.52975C9.4725 2.83525 10.6427 1.77525 11.875 1.46975ZM8.995 1.808C8.414 2.396 7.8925 3.113 7.44425 3.92675C7.02425 4.68925 6.663 5.5435 6.36625 6.46725H3.0025C4.38625 4.29075 6.49625 2.62475 8.995 1.808ZM16.3475 1.92375C18.697 2.777 20.6775 4.39075 21.9975 6.46725H18.8638C18.5678 5.5435 18.207 4.68925 17.787 3.92675C17.368 3.1655 16.8835 2.4895 16.3475 1.92375ZM2.31425 7.7175H6.01625C5.705 9.008 5.51425 10.4075 5.4655 11.8752H1.268C1.34571 10.435 1.70088 9.0233 2.314 7.71775M1.268 13.125H5.4585C5.49075 14.589 5.6635 15.9885 5.957 17.2825H2.314C1.70088 15.9769 1.34571 14.5653 1.268 13.125Z" fill="#EF8F40"/>
<path d="M19 9.44141C16.9287 9.44141 15.25 11.1204 15.25 13.1914C15.25 15.2624 16.9287 16.9414 19 16.9414C21.0707 16.9414 22.75 15.2624 22.75 13.1914C22.75 11.1204 21.0707 9.44141 19 9.44141ZM19 17.4972C14.8575 17.4972 13 19.3549 13 23.4972V23.9972C13.0187 24.9822 13.4542 25.0112 14.375 24.9972H23.625C24.7987 24.9962 25.008 24.9984 25 23.9972V23.4972C25 19.3549 23.142 17.4972 19 17.4972ZM11 10.8467C9.30323 10.8467 7.92723 12.2227 7.92723 13.9197C7.92723 15.6164 9.30323 16.9919 11 16.9919C12.6967 16.9919 14.0725 15.6164 14.0725 13.9194C14.0725 12.2224 12.6967 10.8467 11 10.8467ZM11 17.4472C7.60623 17.4472 6.08398 18.9697 6.08398 22.3632V22.7729C6.09948 23.5799 6.45623 23.6037 7.21048 23.5922H11.9912C11.8692 21.5702 12.4665 19.4227 13.954 18.0574C13.201 17.6459 12.2227 17.4472 11 17.4472Z" fill="#285D80"/>
</g>
<defs>
<clipPath id="clip0_751_3256">
<rect width="25" height="25" fill="white"/>
</clipPath>
</defs>
</svg>
