<svg width="30" height="30" viewBox="0 0 30 30" fill="none" xmlns="http://www.w3.org/2000/svg">
<g clip-path="url(#clip0_751_3243)">
<rect width="30" height="14" transform="translate(0 16)" fill="white"/>
<path d="M14.4727 2V7.21484H15C15.873 7.21484 16.3477 7.90039 16.3945 8.59766C16.418 8.94922 16.3242 9.27148 16.1191 9.5C15.9141 9.73438 15.5859 9.91016 15 9.91016C14.707 9.91016 14.3496 9.74609 14.0859 9.47656C13.8164 9.21289 13.6523 8.85547 13.6523 8.5625H12.5977C12.5977 9.20703 12.9023 9.78711 13.3359 10.2266C13.7754 10.6602 14.3555 10.9648 15 10.9648C15.8203 10.9648 16.4883 10.6719 16.9043 10.2031C17.3262 9.72852 17.4902 9.11328 17.4492 8.52734C17.3789 7.50195 16.6641 6.46602 15.5273 6.21758V2H14.4727ZM11.666 10.2324L3.59414 15.5352H5.51016L12.2402 11.1113L11.666 10.2324ZM18.334 10.2324L17.7598 11.1113L24.4922 15.5352H26.4023L18.334 10.2324ZM2.40234 16.5898V29.5977H27.5977V16.5898H2.40234ZM4.62891 17.9375H5.68359V28.25H4.62891V17.9375ZM7.44141 17.9375H8.49609V28.25H7.44141V17.9375ZM10.2539 17.9375H11.3086V28.25H10.2539V17.9375ZM13.0664 17.9375H14.1211V28.25H13.0664V17.9375ZM15.8789 17.9375H16.9336V28.25H15.8789V17.9375ZM18.6914 17.9375H19.7461V28.25H18.6914V17.9375ZM21.5039 17.9375H22.5586V28.25H21.5039V17.9375ZM24.3164 17.9375H25.3711V28.25H24.3164V17.9375Z" fill="#285D80"/>
</g>
<g clip-path="url(#clip1_751_3243)">
<rect width="30" height="14" transform="translate(0 2)" fill="white"/>
<path d="M14.4727 2V7.21484H15C15.873 7.21484 16.3477 7.90039 16.3945 8.59766C16.418 8.94922 16.3242 9.27148 16.1191 9.5C15.9141 9.73438 15.5859 9.91016 15 9.91016C14.707 9.91016 14.3496 9.74609 14.0859 9.47656C13.8164 9.21289 13.6523 8.85547 13.6523 8.5625H12.5977C12.5977 9.20703 12.9023 9.78711 13.3359 10.2266C13.7754 10.6602 14.3555 10.9648 15 10.9648C15.8203 10.9648 16.4883 10.6719 16.9043 10.2031C17.3262 9.72852 17.4902 9.11328 17.4492 8.52734C17.3789 7.50195 16.6641 6.46602 15.5273 6.21758V2H14.4727ZM11.666 10.2324L3.59414 15.5352H5.51016L12.2402 11.1113L11.666 10.2324ZM18.334 10.2324L17.7598 11.1113L24.4922 15.5352H26.4023L18.334 10.2324ZM2.40234 16.5898V29.5977H27.5977V16.5898H2.40234ZM4.62891 17.9375H5.68359V28.25H4.62891V17.9375ZM7.44141 17.9375H8.49609V28.25H7.44141V17.9375ZM10.2539 17.9375H11.3086V28.25H10.2539V17.9375ZM13.0664 17.9375H14.1211V28.25H13.0664V17.9375ZM15.8789 17.9375H16.9336V28.25H15.8789V17.9375ZM18.6914 17.9375H19.7461V28.25H18.6914V17.9375ZM21.5039 17.9375H22.5586V28.25H21.5039V17.9375ZM24.3164 17.9375H25.3711V28.25H24.3164V17.9375Z" fill="#EF8F40"/>
</g>
<defs>
<clipPath id="clip0_751_3243">
<rect width="30" height="14" fill="white" transform="translate(0 16)"/>
</clipPath>
<clipPath id="clip1_751_3243">
<rect width="30" height="14" fill="white" transform="translate(0 2)"/>
</clipPath>
</defs>
</svg>
