<svg width="74" height="74" viewBox="0 0 74 74" fill="none" xmlns="http://www.w3.org/2000/svg">
<g filter="url(#filter0_d_1_146)">
<rect x="4" width="65.5717" height="65.5717" rx="32.7859" fill="#E9892C"/>
<rect x="5.5" y="1.5" width="62.5717" height="62.5717" rx="31.2859" stroke="white" stroke-width="3"/>
<path d="M40.8599 13.7449C40.8222 13.7447 40.785 13.746 40.7473 13.7473C40.7346 13.7477 40.7222 13.7492 40.7097 13.7497C40.5814 13.7539 40.4535 13.7665 40.3269 13.7873C40.0378 13.8351 39.7655 13.9234 39.5134 14.0452L20.2574 21.9002C20.1839 21.9338 20.1126 21.9704 20.0421 22.0077C19.9942 22.0332 19.946 22.0582 19.8996 22.0854C18.8028 22.6996 18.0644 23.834 17.9627 25.1007C17.958 25.1516 17.9551 25.2024 17.9526 25.2535C17.9223 25.8547 18.0364 26.4546 18.2855 27.0027C19.1589 28.9292 21.4457 29.7724 23.4305 28.8771L23.4379 28.8747L42.021 19.5704L42.0335 19.5628L42.0462 19.5577C43.6225 18.843 44.3124 17.0404 43.6202 15.5138C43.1173 14.4047 42.025 13.7465 40.8599 13.7446V13.7449ZM40.8823 15.2438C41.5969 15.2684 42.2069 15.7859 42.3288 16.5225C42.4679 17.3641 41.9118 18.1424 41.07 18.2818C40.2282 18.421 39.4524 17.8646 39.3132 17.0229C39.1741 16.1813 39.7303 15.403 40.5721 15.2638C40.6772 15.2463 40.7803 15.2402 40.8823 15.2438ZM44.6336 19.2251C44.1721 19.9341 43.512 20.5277 42.6893 20.9067C42.6806 20.9107 42.6728 20.9154 42.6641 20.9192L41.3452 21.5799L45.9524 29.4201C46.5201 28.4777 47.5249 27.89 48.5997 27.8309C48.7271 27.824 48.8544 27.8253 48.9828 27.8333L44.6336 19.2251ZM21.7237 23.0988C21.7624 23.0984 21.8006 23.1 21.8388 23.1014C22.9113 23.1396 23.8309 23.9195 24.0134 25.0232C24.2221 26.2845 23.383 27.4597 22.1216 27.6684C20.8602 27.8771 19.6851 27.0353 19.4766 25.774C19.2679 24.5128 20.1095 23.3401 21.3709 23.1315C21.4875 23.1118 21.6054 23.1009 21.7237 23.0989V23.0988ZM26.5434 28.9921L25.1971 29.6678L25.8228 31.3995L21.7564 30.7413L21.7513 30.7263C21.1732 30.7212 20.5996 30.6241 20.0521 30.4386L24.8167 43.5189L24.7843 43.5816L24.8443 43.5966L26.1981 47.3127C26.5675 46.9291 26.9752 46.5819 27.4169 46.2817L26.5937 44.0221L30.7277 45.028H30.7301C31.0473 44.9877 31.3707 44.9656 31.6986 44.9656C31.9112 44.9656 32.1208 44.9758 32.3292 44.993L26.5435 28.9924L26.5434 28.9921ZM48.7601 29.32C48.7308 29.32 48.7017 29.3208 48.6726 29.3224C47.9743 29.3571 47.3385 29.8015 47.0835 30.5059C46.7437 31.4455 47.2202 32.461 48.1596 32.8007C49.0991 33.1406 50.1171 32.6642 50.457 31.7247C50.7968 30.7851 50.3203 29.7699 49.3808 29.43C49.1819 29.3575 48.9718 29.3202 48.7601 29.3199L48.7601 29.32ZM51.8958 30.1056C52.1142 30.7778 52.1205 31.5241 51.8632 32.2352C51.8264 32.3356 51.7847 32.4342 51.7382 32.5306L53.9753 32.9309L53.625 37.035L52.0711 37.9608L52.8368 39.2471L54.7211 38.1235L55.0515 37.9283L55.084 37.5453L55.5895 31.6246L55.6646 30.7613L55.502 30.7712L51.8958 30.1056ZM45.482 31.0966L41.9585 33.2411L41.951 33.2437V33.2461L41.946 33.2485L41.9585 33.2612L42.3165 34.0219L44.8388 39.4021L45.0015 39.75L45.3795 39.82L47.534 40.2204L47.8091 38.7489L46.0298 38.4185L44.3108 34.7499L46.4602 33.4538C45.838 32.8341 45.4794 31.9809 45.4818 31.0964L45.482 31.0966ZM22.3443 32.3529L25.1595 32.8083L23.6706 35.9991L22.3442 32.3531L22.3443 32.3529ZM26.5409 33.3864L28.0098 37.4528L24.9819 36.7273L26.541 33.3864H26.5409ZM24.4514 38.1386L27.2789 38.8168L25.7551 41.7245L24.4514 38.1386ZM28.693 39.3422L30.1418 43.3437L26.9964 42.5805L28.693 39.3422ZM31.6983 46.4617C28.552 46.4617 25.9747 48.81 25.6074 51.8545H27.4092C27.7663 49.8125 29.5577 48.2486 31.6984 48.2486C33.8389 48.2486 35.6281 49.8125 35.985 51.8545H37.7867C37.4194 48.81 34.8447 46.4618 31.6984 46.4618L31.6983 46.4617ZM31.6983 49.7449C30.3726 49.7449 29.2783 50.6373 28.9507 51.8545H34.4435C34.1159 50.6373 33.0242 49.745 31.6985 49.745L31.6983 49.7449Z" fill="white"/>
</g>
<defs>
<filter id="filter0_d_1_146" x="0" y="0" width="73.5717" height="73.5718" filterUnits="userSpaceOnUse" color-interpolation-filters="sRGB">
<feFlood flood-opacity="0" result="BackgroundImageFix"/>
<feColorMatrix in="SourceAlpha" type="matrix" values="0 0 0 0 0 0 0 0 0 0 0 0 0 0 0 0 0 0 127 0" result="hardAlpha"/>
<feOffset dy="4"/>
<feGaussianBlur stdDeviation="2"/>
<feComposite in2="hardAlpha" operator="out"/>
<feColorMatrix type="matrix" values="0 0 0 0 0 0 0 0 0 0 0 0 0 0 0 0 0 0 0.16 0"/>
<feBlend mode="normal" in2="BackgroundImageFix" result="effect1_dropShadow_1_146"/>
<feBlend mode="normal" in="SourceGraphic" in2="effect1_dropShadow_1_146" result="shape"/>
</filter>
</defs>
</svg>
