<svg width="71" height="73" viewBox="0 0 71 73" fill="none" xmlns="http://www.w3.org/2000/svg">
<g filter="url(#filter0_d_1_167)">
<rect x="4" width="63" height="65" rx="31.5" fill="#E9892C"/>
<rect x="5.5" y="1.5" width="60" height="62" rx="30" stroke="white" stroke-width="3"/>
<g clip-path="url(#clip0_1_167)">
<path d="M27.4375 15C25.3816 15 23.675 18.6324 23.675 20.7176V27.7898L14.5241 33.2152C14.1948 33.4078 14 33.7531 14 34.125V38.375C14 38.7137 14.1613 39.0258 14.43 39.225C14.6988 39.4242 15.0548 39.484 15.3773 39.391L23.6683 36.934V42.3262L20.3089 44.9824C20.0536 45.1816 19.9058 45.4871 19.9058 45.8125V47.9375C19.9058 48.2762 20.0738 48.6016 20.3492 48.8008C20.6247 49 20.9875 49.0531 21.3167 48.9469L27.4375 46.9348L33.5112 48.9336C33.4038 48.6215 33.35 48.2828 33.35 47.9375V45.7727C32.1272 45.0754 31.2873 43.8004 31.2067 42.3328L31.2 42.3262V20.7109C31.2 18.6324 29.5539 15 27.4375 15ZM33.35 26.6875V41.5625C33.35 42.9504 34.2503 44.1324 35.5 44.5707V47.4062C35.5 48.2895 36.2189 49 37.1125 49H38.1875C39.0811 49 39.8 48.2895 39.8 47.4062V44.75H50.55V47.4062C50.55 48.2895 51.2689 49 52.1625 49H53.2375C54.1311 49 54.85 48.2895 54.85 47.4062V44.5707C56.0997 44.1324 57 42.9504 57 41.5625V26.6875C57 24.9277 55.5555 23.5 53.775 23.5H36.575C34.7945 23.5 33.35 24.9277 33.35 26.6875ZM38.7116 31.9137C38.9333 31.3359 39.4641 30.9375 40.0889 30.9375H50.2611C50.8792 30.9375 51.4167 31.3359 51.6384 31.9137L52.7 35.1875H37.65L38.7116 31.9137ZM52.1625 38.375C52.3743 38.375 52.5839 38.4162 52.7796 38.4963C52.9752 38.5764 53.153 38.6938 53.3027 38.8418C53.4524 38.9898 53.5712 39.1655 53.6523 39.3588C53.7333 39.5522 53.775 39.7595 53.775 39.9688C53.775 40.178 53.7333 40.3853 53.6523 40.5787C53.5712 40.772 53.4524 40.9477 53.3027 41.0957C53.153 41.2437 52.9752 41.3611 52.7796 41.4412C52.5839 41.5213 52.3743 41.5625 52.1625 41.5625C51.9507 41.5625 51.7411 41.5213 51.5454 41.4412C51.3498 41.3611 51.172 41.2437 51.0223 41.0957C50.8726 40.9477 50.7538 40.772 50.6727 40.5787C50.5917 40.3853 50.55 40.178 50.55 39.9688C50.55 39.7595 50.5917 39.5522 50.6727 39.3588C50.7538 39.1655 50.8726 38.9898 51.0223 38.8418C51.172 38.6938 51.3498 38.5764 51.5454 38.4963C51.7411 38.4162 51.9507 38.375 52.1625 38.375ZM36.575 39.9688C36.575 39.5461 36.7449 39.1407 37.0473 38.8418C37.3497 38.5429 37.7598 38.375 38.1875 38.375C38.6152 38.375 39.0253 38.5429 39.3277 38.8418C39.6301 39.1407 39.8 39.5461 39.8 39.9688C39.8 40.3914 39.6301 40.7968 39.3277 41.0957C39.0253 41.3946 38.6152 41.5625 38.1875 41.5625C37.7598 41.5625 37.3497 41.3946 37.0473 41.0957C36.7449 40.7968 36.575 40.3914 36.575 39.9688Z" fill="white"/>
</g>
</g>
<defs>
<filter id="filter0_d_1_167" x="0" y="0" width="71" height="73" filterUnits="userSpaceOnUse" color-interpolation-filters="sRGB">
<feFlood flood-opacity="0" result="BackgroundImageFix"/>
<feColorMatrix in="SourceAlpha" type="matrix" values="0 0 0 0 0 0 0 0 0 0 0 0 0 0 0 0 0 0 127 0" result="hardAlpha"/>
<feOffset dy="4"/>
<feGaussianBlur stdDeviation="2"/>
<feComposite in2="hardAlpha" operator="out"/>
<feColorMatrix type="matrix" values="0 0 0 0 0 0 0 0 0 0 0 0 0 0 0 0 0 0 0.16 0"/>
<feBlend mode="normal" in2="BackgroundImageFix" result="effect1_dropShadow_1_167"/>
<feBlend mode="normal" in="SourceGraphic" in2="effect1_dropShadow_1_167" result="shape"/>
</filter>
<clipPath id="clip0_1_167">
<rect width="43" height="34" fill="white" transform="translate(14 15)"/>
</clipPath>
</defs>
</svg>
