<svg width="74" height="74" viewBox="0 0 74 74" fill="none" xmlns="http://www.w3.org/2000/svg">
<g filter="url(#filter0_d_1_188)">
<rect x="4" width="65.5717" height="65.5717" rx="32.7859" fill="#E9892C"/>
<rect x="5.5" y="1.5" width="62.5717" height="62.5717" rx="31.2859" stroke="white" stroke-width="3"/>
<g clip-path="url(#clip0_1_188)">
<path d="M21.8827 39.3933C21.8827 40.4319 22.2952 41.4279 23.0296 42.1622C23.7639 42.8966 24.76 43.3092 25.7985 43.3092C26.837 43.3092 27.833 42.8966 28.5674 42.1622C29.3018 41.4279 29.7143 40.4319 29.7143 39.3933C29.7143 38.3548 29.3018 37.3588 28.5674 36.6244C27.833 35.8901 26.837 35.4775 25.7985 35.4775C24.76 35.4775 23.7639 35.8901 23.0296 36.6244C22.2952 37.3588 21.8827 38.3548 21.8827 39.3933ZM25.7985 44.2342C24.3673 44.1729 22.9572 44.5962 21.7962 45.4354C20.6352 46.2747 19.7912 47.4809 19.4006 48.8592C19.3732 49.0022 19.3862 49.15 19.4379 49.2861C19.4896 49.4222 19.5781 49.5412 19.6935 49.63C19.9728 49.8688 20.3281 50 20.6956 50H30.9168C31.2751 50.0051 31.624 49.8851 31.9035 49.6608C32.0189 49.5721 32.1074 49.453 32.1591 49.3169C32.2108 49.1808 32.2237 49.033 32.1964 48.89C31.814 47.5046 30.9731 46.2898 29.811 45.4441C28.6489 44.5985 27.2344 44.1719 25.7985 44.2342ZM45.2852 39.3933C45.2821 40.1685 45.5092 40.9271 45.9376 41.573C46.366 42.219 46.9765 42.7233 47.6918 43.0221C48.407 43.3208 49.1948 43.4006 49.9554 43.2512C50.7161 43.1019 51.4152 42.7301 51.9644 42.1831C52.5136 41.6361 52.8881 40.9384 53.0404 40.1784C53.1928 39.4184 53.1161 38.6302 52.8202 37.9138C52.5243 37.1974 52.0224 36.5849 51.3781 36.1539C50.7338 35.723 49.9761 35.4929 49.201 35.4929C48.1651 35.4929 47.1714 35.9034 46.4375 36.6344C45.7036 37.3654 45.2892 38.3575 45.2852 39.3933ZM49.201 44.2342C47.7692 44.1702 46.3578 44.5923 45.1962 45.432C44.0347 46.2716 43.1913 47.4795 42.8031 48.8592C42.7757 49.0022 42.7887 49.15 42.8404 49.2861C42.8921 49.4222 42.9806 49.5412 43.096 49.63C43.3755 49.8543 43.7244 49.9742 44.0827 49.9692H54.3039C54.6675 49.9778 55.0224 49.8577 55.306 49.63C55.4214 49.5412 55.5099 49.4222 55.5616 49.2861C55.6133 49.15 55.6262 49.0022 55.5989 48.8592C55.2083 47.4809 54.3642 46.2747 53.2033 45.4354C52.0423 44.5962 50.6322 44.1729 49.201 44.2342ZM37.4997 13C35.0604 13 32.6759 13.7233 30.6477 15.0785C28.6195 16.4337 27.0387 18.3599 26.1052 20.6136C25.1717 22.8672 24.9275 25.347 25.4034 27.7394C25.8793 30.1319 27.0539 32.3295 28.7788 34.0543C30.5036 35.7792 32.7012 36.9538 35.0936 37.4297C37.4861 37.9056 39.9659 37.6613 42.2195 36.7278C44.4731 35.7944 46.3993 34.2136 47.7545 32.1854C49.1097 30.1572 49.8331 27.7726 49.8331 25.3333C49.8331 22.0623 48.5337 18.9253 46.2207 16.6123C43.9078 14.2994 40.7707 13 37.4997 13ZM46.981 23.9613H42.726C42.5547 21.2048 41.7246 18.5297 40.3056 16.1604C42.0423 16.6959 43.5915 17.7132 44.7731 19.094C45.9548 20.4748 46.7204 22.1626 46.981 23.9613ZM37.4997 33.7971C36.043 31.7028 35.1849 29.251 35.0177 26.7054H39.9818C39.8146 29.251 38.9565 31.7028 37.4997 33.7971ZM35.0177 23.9613C35.1849 21.4157 36.043 18.9638 37.4997 16.8696C38.9565 18.9638 39.8146 21.4157 39.9818 23.9613H35.0177ZM34.6939 16.1604C33.2749 18.5297 32.4448 21.2048 32.2735 23.9613H28.0185C28.2791 22.1626 29.0447 20.4748 30.2264 19.094C31.408 17.7132 32.9572 16.6959 34.6939 16.1604ZM28.0185 26.7054H32.2735C32.4326 29.4883 33.2631 32.1912 34.6939 34.5833C32.9465 34.0422 31.39 33.0133 30.2075 31.6178C29.0249 30.2222 28.2655 28.5179 28.0185 26.7054ZM40.3518 34.5062C41.7709 32.137 42.6009 29.4618 42.7722 26.7054H47.0272C46.7766 28.5235 46.0103 30.2317 44.8191 31.6279C43.6279 33.024 42.0616 34.0496 40.3056 34.5833L40.3518 34.5062Z" fill="white"/>
</g>
</g>
<defs>
<filter id="filter0_d_1_188" x="0" y="0" width="73.5718" height="73.5718" filterUnits="userSpaceOnUse" color-interpolation-filters="sRGB">
<feFlood flood-opacity="0" result="BackgroundImageFix"/>
<feColorMatrix in="SourceAlpha" type="matrix" values="0 0 0 0 0 0 0 0 0 0 0 0 0 0 0 0 0 0 127 0" result="hardAlpha"/>
<feOffset dy="4"/>
<feGaussianBlur stdDeviation="2"/>
<feComposite in2="hardAlpha" operator="out"/>
<feColorMatrix type="matrix" values="0 0 0 0 0 0 0 0 0 0 0 0 0 0 0 0 0 0 0.16 0"/>
<feBlend mode="normal" in2="BackgroundImageFix" result="effect1_dropShadow_1_188"/>
<feBlend mode="normal" in="SourceGraphic" in2="effect1_dropShadow_1_188" result="shape"/>
</filter>
<clipPath id="clip0_1_188">
<rect width="37" height="37" fill="white" transform="translate(18.9998 13)"/>
</clipPath>
</defs>
</svg>
