<svg width="52" height="52" viewBox="0 0 52 52" fill="none" xmlns="http://www.w3.org/2000/svg">
<path d="M22.6349 17.3461C22.7108 17.8646 22.6866 18.3949 22.564 18.9024C22.4414 19.41 22.223 19.8835 21.923 20.2923C23.7791 23.7788 26.3325 26.7557 29.3901 28.9976C29.9051 29.3804 30.4352 29.7133 30.9047 30.0462C31.3858 29.4617 32.0205 29.0564 32.7208 28.8863C33.4211 28.7163 34.1521 28.7901 34.8125 29.0974C37.1734 25.661 38.785 21.6748 39.523 17.446C34.0639 15.3272 28.1144 15.292 22.6349 17.3461Z" fill="#E9892C"/>
<path d="M26.9947 5C21.1614 5 15.5669 7.31785 11.4421 11.4437C7.3173 15.5695 5 21.1652 5 27C5 27.7071 5 28.3986 5.10997 29.09C5.51482 33.3333 7.14333 37.3675 9.79755 40.7023C12.4518 44.0372 16.0174 46.5289 20.0609 47.8747C24.1045 49.2205 28.4518 49.3624 32.5745 48.2831C36.6971 47.2038 40.4175 44.9498 43.2834 41.7951C46.1493 38.6404 48.0372 34.7209 48.7178 30.5131C49.3983 26.3052 48.842 21.9903 47.1166 18.0927C45.3912 14.1952 42.571 10.8829 38.9988 8.55859C35.4266 6.23426 31.2563 4.99797 26.9947 5ZM43.2551 34.9986C40.9649 34.9906 38.6848 34.695 36.4682 34.1186C35.9416 34.8345 35.1687 35.3302 34.2985 35.5101C33.4282 35.6899 32.5222 35.5413 31.755 35.0929C28.5252 37.6925 24.7748 39.5682 20.7577 40.5929C20.6358 41.2396 20.3427 41.8418 19.9088 42.3365C19.4749 42.8313 18.9163 43.2005 18.2911 43.4057L17.8355 43.5C15.803 42.376 13.9971 40.8841 12.5096 39.1H13.5465C13.6968 38.3517 14.077 37.6691 14.6342 37.1476C15.1913 36.6261 15.8974 36.2918 16.6538 36.1914C17.4102 36.091 18.1791 36.2295 18.8529 36.5876C19.5267 36.9457 20.0718 37.5054 20.412 38.1886C23.9735 37.2483 27.301 35.5788 30.184 33.2857C29.9324 32.7076 29.8349 32.0742 29.9012 31.4471C29.2414 31.07 28.5815 30.6771 27.9374 30.2529C24.5148 27.983 21.643 24.9763 19.5322 21.4529C18.9014 21.6261 18.2355 21.6255 17.6049 21.4513C16.9744 21.277 16.4027 20.9355 15.9502 20.4629C13.028 22.6041 10.3885 25.1068 8.09497 27.9114C8.09497 27.5971 8.09497 27.2986 8.09497 27.0157C8.10259 26.1054 8.1761 25.1968 8.31492 24.2971C10.1994 21.984 12.4243 19.9705 14.9133 18.3257C14.825 17.632 14.9415 16.9275 15.2486 16.2993C15.5557 15.671 16.0399 15.1463 16.6415 14.79C16.453 14.1143 16.2645 13.4386 16.1231 12.7471C16.1231 12.5271 16.1231 12.2914 15.9502 11.7414C16.636 11.2377 17.3551 10.7809 18.1026 10.3743C18.2597 11.3014 18.3225 11.7886 18.4325 12.2757C18.5425 12.7629 18.7467 13.6114 18.9352 14.2714H19.328C20.0013 14.4272 20.6168 14.7704 21.1033 15.2614C27.2534 13.092 33.954 13.0533 40.1287 15.1514C40.1287 14.6486 40.1287 14.13 40.1287 13.58C41.8826 15.3085 43.281 17.3638 44.2449 19.63C43.4803 19.1795 42.7053 18.771 41.9198 18.4043C41.028 22.613 39.2085 26.5696 36.5939 29.9857C36.9317 30.5511 37.1108 31.1971 37.1123 31.8557C39.6952 32.3905 42.3308 32.6277 44.9676 32.5629C44.7041 33.3855 44.3839 34.1889 44.0093 34.9671L43.2551 34.9986Z" fill="#285D80"/>
</svg>
