<svg width="50" height="50" viewBox="0 0 50 50" fill="none" xmlns="http://www.w3.org/2000/svg">
<g filter="url(#filter0_d_1_66)">
<rect x="2.32678" y="1" width="45.0999" height="44.4366" rx="22.2183" stroke="#E69C24" stroke-width="2" shape-rendering="crispEdges"/>
<g clip-path="url(#clip0_1_66)">
<path d="M37.8123 21.0623C37.8123 18.2033 36.6765 15.4613 34.6549 13.4397C32.6333 11.4181 29.8914 10.2823 27.0324 10.2823C24.1733 10.2823 21.4314 11.4181 19.4098 13.4397C17.3882 15.4613 16.2524 18.2033 16.2524 21.0623C16.2513 22.4249 16.5111 23.7751 17.0178 25.0401C17.057 25.1393 17.1254 25.2244 17.2139 25.2841C17.3024 25.3437 17.407 25.3752 17.5137 25.3742H20.3057C21.0955 25.374 21.8681 25.6058 22.5273 26.0409C23.1866 26.4759 23.7035 27.095 24.014 27.8213C24.188 28.2252 24.2584 28.6661 24.2188 29.1041C24.2128 29.1784 24.2224 29.2532 24.2468 29.3236C24.2712 29.3941 24.3099 29.4587 24.3606 29.5134C24.4112 29.5681 24.4727 29.6117 24.5411 29.6415C24.6094 29.6712 24.6832 29.6864 24.7578 29.6862H28.6493C29.0677 29.6862 29.4804 29.7836 29.8546 29.9707C30.2288 30.1578 30.5543 30.4295 30.8053 30.7642C30.8805 30.8583 30.9846 30.9251 31.1014 30.9543C31.2183 30.9835 31.3415 30.9735 31.4521 30.9259C33.3518 30.0719 34.9635 28.6859 36.0922 26.9355C37.2209 25.185 37.8183 23.1451 37.8123 21.0623ZM25.9544 21.6013V15.1333C25.9544 14.8474 26.0679 14.5732 26.2701 14.3711C26.4723 14.1689 26.7465 14.0553 27.0324 14.0553C27.3183 14.0553 27.5925 14.1689 27.7946 14.3711C27.9968 14.5732 28.1104 14.8474 28.1104 15.1333V19.9843C28.1104 20.1272 28.1671 20.2643 28.2682 20.3654C28.3693 20.4665 28.5064 20.5233 28.6493 20.5233H31.3443C31.6302 20.5233 31.9044 20.6368 32.1066 20.839C32.3087 21.0412 32.4223 21.3154 32.4223 21.6013C32.4223 21.8872 32.3087 22.1614 32.1066 22.3635C31.9044 22.5657 31.6302 22.6793 31.3443 22.6793H27.0324C26.7465 22.6793 26.4723 22.5657 26.2701 22.3635C26.0679 22.1614 25.9544 21.8872 25.9544 21.6013Z" fill="#E69C24"/>
<path d="M18.8185 31.3031C18.7229 31.3153 18.6258 31.3069 18.5336 31.2786C18.4415 31.2503 18.3564 31.2026 18.2841 31.1389C18.2118 31.0752 18.1539 30.9968 18.1142 30.9089C18.0745 30.8211 18.054 30.7258 18.054 30.6294C18.054 30.533 18.0745 30.4377 18.1142 30.3499C18.1539 30.262 18.2118 30.1836 18.2841 30.1199C18.3564 30.0561 18.4415 30.0085 18.5336 29.9802C18.6258 29.9519 18.7229 29.9435 18.8185 29.9556H21.535C21.713 29.9555 21.8881 29.9113 22.0448 29.827C22.2015 29.7428 22.3349 29.621 22.4331 29.4726C22.5313 29.3243 22.5912 29.1539 22.6076 28.9767C22.6239 28.7995 22.5962 28.6211 22.5268 28.4572C22.3421 28.0214 22.0329 27.6497 21.6378 27.3889C21.2428 27.1281 20.7795 26.9897 20.3061 26.9912H15.7139C15.5709 26.9912 15.4338 27.048 15.3328 27.149C15.2317 27.2501 15.1749 27.3872 15.1749 27.5302V34.5371C15.1749 34.6801 15.2317 34.8172 15.3328 34.9182C15.4338 35.0193 15.5709 35.0761 15.7139 35.0761H27.3131C27.6302 35.0761 27.9442 35.0137 28.2371 34.8923C28.5301 34.771 28.7963 34.5931 29.0205 34.3689C29.2448 34.1446 29.4226 33.8784 29.544 33.5855C29.6653 33.2925 29.7278 32.9785 29.7278 32.6614V32.3811C29.7278 32.0952 29.6142 31.821 29.412 31.6189C29.2099 31.4167 28.9357 31.3031 28.6498 31.3031H18.8185ZM14.0969 27.2607C14.0933 26.9921 13.9895 26.7345 13.8058 26.5384C13.7063 26.4281 13.585 26.3395 13.4496 26.2783C13.3141 26.2171 13.1675 26.1845 13.0189 26.1827C12.733 26.1827 12.4588 26.2963 12.2567 26.4984C12.0545 26.7006 11.9409 26.9748 11.9409 27.2607V35.0761C11.9409 35.362 12.0545 35.6362 12.2567 35.8384C12.4588 36.0405 12.733 36.1541 13.0189 36.1541C13.1918 36.1509 13.3614 36.1061 13.5134 36.0236C13.6654 35.941 13.7953 35.8231 13.8921 35.6798C14.0197 35.5038 14.091 35.2934 14.0969 35.0761V27.2607Z" fill="#E69C24"/>
</g>
</g>
<defs>
<filter id="filter0_d_1_66" x="2.3365e-05" y="0" width="49.7534" height="49.0901" filterUnits="userSpaceOnUse" color-interpolation-filters="sRGB">
<feFlood flood-opacity="0" result="BackgroundImageFix"/>
<feColorMatrix in="SourceAlpha" type="matrix" values="0 0 0 0 0 0 0 0 0 0 0 0 0 0 0 0 0 0 127 0" result="hardAlpha"/>
<feOffset dy="1.32676"/>
<feGaussianBlur stdDeviation="0.663379"/>
<feComposite in2="hardAlpha" operator="out"/>
<feColorMatrix type="matrix" values="0 0 0 0 0 0 0 0 0 0 0 0 0 0 0 0 0 0 0.1 0"/>
<feBlend mode="normal" in2="BackgroundImageFix" result="effect1_dropShadow_1_66"/>
<feBlend mode="normal" in="SourceGraphic" in2="effect1_dropShadow_1_66" result="shape"/>
</filter>
<clipPath id="clip0_1_66">
<rect width="25.8718" height="25.8718" fill="white" transform="translate(11.9409 10.2823)"/>
</clipPath>
</defs>
</svg>
