<svg width="30" height="29" viewBox="0 0 30 29" fill="none" xmlns="http://www.w3.org/2000/svg">
<g filter="url(#filter0_d_1_32)">
<rect x="2" width="25.129" height="24.6613" rx="12.3306" fill="white" shape-rendering="crispEdges"/>
<path d="M7.7481 13.0156H11.5C11.6173 15.185 12.3088 17.2844 13.5038 19.0987C12.0068 18.8638 10.6299 18.1393 9.58838 17.0387C8.54687 15.938 7.90015 14.5233 7.7481 13.0156ZM7.74741 11.6456C7.89929 10.1379 8.54653 8.72305 9.58792 7.62229C10.6293 6.52153 12.0061 5.79692 13.5031 5.56177C12.3081 7.37616 11.6166 9.47547 11.4994 11.6449L7.74741 11.6456ZM21.3796 11.6456H17.6277C17.5106 9.47592 16.8191 7.37636 15.6239 5.56177C17.1209 5.79675 18.4978 6.5212 19.5393 7.62183C20.5808 8.72247 21.2282 10.1372 21.3803 11.6449M21.3803 13.0149C21.2283 14.5225 20.581 15.9372 19.5396 17.0378C18.4982 18.1384 17.1215 18.8629 15.6246 19.0981C16.8195 17.2839 17.511 15.1848 17.6284 13.0156L21.3803 13.0149ZM12.8722 13.0156H16.2562C16.1437 14.8649 15.5614 16.6549 14.5642 18.2164C13.567 16.6549 12.9847 14.8649 12.8722 13.0156ZM12.8722 11.6456C12.9847 9.79628 13.567 8.00625 14.5642 6.44478C15.5614 8.00625 16.1437 9.79628 16.2562 11.6456H12.8722Z" fill="#285D80"/>
</g>
<defs>
<filter id="filter0_d_1_32" x="0" y="0" width="29.129" height="28.6613" filterUnits="userSpaceOnUse" color-interpolation-filters="sRGB">
<feFlood flood-opacity="0" result="BackgroundImageFix"/>
<feColorMatrix in="SourceAlpha" type="matrix" values="0 0 0 0 0 0 0 0 0 0 0 0 0 0 0 0 0 0 127 0" result="hardAlpha"/>
<feOffset dy="2"/>
<feGaussianBlur stdDeviation="1"/>
<feComposite in2="hardAlpha" operator="out"/>
<feColorMatrix type="matrix" values="0 0 0 0 0 0 0 0 0 0 0 0 0 0 0 0 0 0 0.1 0"/>
<feBlend mode="normal" in2="BackgroundImageFix" result="effect1_dropShadow_1_32"/>
<feBlend mode="normal" in="SourceGraphic" in2="effect1_dropShadow_1_32" result="shape"/>
</filter>
</defs>
</svg>
