<svg width="50" height="50" viewBox="0 0 50 50" fill="none" xmlns="http://www.w3.org/2000/svg">
<g filter="url(#filter0_d_1_50)">
<rect x="2.32675" y="1" width="45.0999" height="44.4366" rx="22.2183" stroke="#E69C24" stroke-width="2" shape-rendering="crispEdges"/>
<g clip-path="url(#clip0_1_50)">
<path d="M19.8642 12.6274C20.05 12.6042 20.2556 12.6042 20.4944 12.6042H29.259C29.4978 12.6042 29.7035 12.6042 29.8892 12.6274C30.5486 12.7118 31.1617 13.02 31.6315 13.5032C32.1013 13.9865 32.401 14.6171 32.483 15.2953L32.487 15.3335H33.5564C33.8376 15.3308 34.4546 15.3253 34.9641 15.6761C35.6235 16.1278 35.8225 16.9043 35.8225 17.7217C35.8225 21.4418 33.8947 23.9255 31.4336 25.3051C30.0604 27.8762 27.5236 29.6625 24.8767 29.6625C22.8614 29.6625 20.9495 28.5408 19.5737 26.9891C19.1165 26.4761 18.7152 25.9133 18.3769 25.3106C15.9171 23.9377 13.931 21.4568 13.931 17.7217C13.931 16.9029 14.13 16.1278 14.788 15.6761C15.2988 15.3253 15.9158 15.3308 16.1971 15.3335H17.2664L17.2704 15.2953C17.3524 14.6171 17.6521 13.9865 18.1219 13.5032C18.5917 13.02 19.2049 12.7118 19.8642 12.6274ZM33.8085 17.3873C33.706 17.381 33.6033 17.3787 33.5006 17.3805H32.5016L32.4591 21.8703C33.3056 20.8222 33.8323 19.4548 33.8323 17.7217C33.8323 17.5607 33.8204 17.4542 33.8085 17.3873ZM15.9211 17.7217C15.9211 19.4098 16.4359 20.7512 17.2611 21.7911C17.1736 20.7731 17.1974 19.7387 17.2213 18.7097C17.2337 18.2639 17.2412 17.8209 17.2439 17.3805H16.2528C16.1082 17.3805 16.0166 17.3805 15.9463 17.3873C15.9277 17.4977 15.9192 17.6097 15.9211 17.7217ZM25.1819 17.1144C25.1564 17.0529 25.1139 17.0004 25.0596 16.9635C25.0054 16.9266 24.9418 16.907 24.8767 16.907C24.8117 16.907 24.7481 16.9266 24.6938 16.9635C24.6396 17.0004 24.597 17.0529 24.5716 17.1144L23.9015 18.7684C23.8782 18.8261 23.8398 18.8761 23.7907 18.9129C23.7415 18.9498 23.6835 18.972 23.6229 18.9772L21.8862 19.1205C21.8209 19.1258 21.7585 19.1509 21.7071 19.1926C21.6556 19.2343 21.6173 19.2908 21.597 19.3549C21.5767 19.419 21.5753 19.4878 21.593 19.5527C21.6107 19.6176 21.6467 19.6757 21.6965 19.7196L23.0193 20.885C23.0655 20.9259 23.0999 20.9791 23.1186 21.0389C23.1373 21.0986 23.1397 21.1624 23.1254 21.2234L22.7221 22.9647C22.7065 23.0304 22.7103 23.0994 22.7329 23.1629C22.7556 23.2264 22.7961 23.2816 22.8492 23.3213C22.9024 23.3611 22.9659 23.3837 23.0316 23.3863C23.0973 23.3889 23.1623 23.3714 23.2183 23.3359L24.7042 22.4025C24.7562 22.3699 24.8159 22.3527 24.8767 22.3527C24.9376 22.3527 24.9972 22.3699 25.0492 22.4025L26.5352 23.3359C26.5912 23.3714 26.6561 23.3889 26.7218 23.3863C26.7875 23.3837 26.851 23.3611 26.9042 23.3213C26.9574 23.2816 26.9978 23.2264 27.0205 23.1629C27.0431 23.0994 27.0469 23.0304 27.0314 22.9647L26.6267 21.2234C26.6124 21.1624 26.6148 21.0986 26.6335 21.0389C26.6522 20.9791 26.6866 20.9259 26.7329 20.885L28.057 19.7196C28.1072 19.6758 28.1436 19.6176 28.1615 19.5525C28.1795 19.4874 28.1783 19.4182 28.1579 19.3539C28.1376 19.2895 28.0991 19.2328 28.0473 19.191C27.9955 19.1492 27.9329 19.1242 27.8672 19.1191L26.1318 18.9772C26.071 18.9722 26.0127 18.9501 25.9633 18.9133C25.9139 18.8764 25.8754 18.8263 25.8519 18.7684L25.1819 17.1144ZM24.8767 30.3448C25.1406 30.3448 25.3937 30.4527 25.5803 30.6446C25.7669 30.8366 25.8718 31.0969 25.8718 31.3683V34.4388H30.1838C30.4477 34.4388 30.7008 34.5467 30.8874 34.7386C31.074 34.9306 31.1788 35.1909 31.1788 35.4623C31.1788 35.7338 31.074 35.9941 30.8874 36.1861C30.7008 36.378 30.4477 36.4858 30.1838 36.4858H19.5697C19.3058 36.4858 19.0527 36.378 18.8661 36.1861C18.6794 35.9941 18.5746 35.7338 18.5746 35.4623C18.5746 35.1909 18.6794 34.9306 18.8661 34.7386C19.0527 34.5467 19.3058 34.4388 19.5697 34.4388H23.8816V31.3683C23.8816 31.0969 23.9865 30.8366 24.1731 30.6446C24.3597 30.4527 24.6128 30.3448 24.8767 30.3448Z" fill="#E69C24"/>
</g>
</g>
<defs>
<filter id="filter0_d_1_50" x="-7.15256e-06" y="0" width="49.7535" height="49.0901" filterUnits="userSpaceOnUse" color-interpolation-filters="sRGB">
<feFlood flood-opacity="0" result="BackgroundImageFix"/>
<feColorMatrix in="SourceAlpha" type="matrix" values="0 0 0 0 0 0 0 0 0 0 0 0 0 0 0 0 0 0 127 0" result="hardAlpha"/>
<feOffset dy="1.32676"/>
<feGaussianBlur stdDeviation="0.663379"/>
<feComposite in2="hardAlpha" operator="out"/>
<feColorMatrix type="matrix" values="0 0 0 0 0 0 0 0 0 0 0 0 0 0 0 0 0 0 0.1 0"/>
<feBlend mode="normal" in2="BackgroundImageFix" result="effect1_dropShadow_1_50"/>
<feBlend mode="normal" in="SourceGraphic" in2="effect1_dropShadow_1_50" result="shape"/>
</filter>
<clipPath id="clip0_1_50">
<rect width="25.8718" height="25.8718" fill="white" transform="translate(11.9408 10.2823)"/>
</clipPath>
</defs>
</svg>
