<svg width="50" height="50" viewBox="0 0 50 50" fill="none" xmlns="http://www.w3.org/2000/svg">
<g filter="url(#filter0_d_1_58)">
<rect x="2.32675" y="1" width="45.0999" height="44.4366" rx="22.2183" stroke="#E69C24" stroke-width="2" shape-rendering="crispEdges"/>
<path d="M21.9781 15.1134C21.5422 16.2038 21.2156 17.3348 21.003 18.4897H28.8093C28.5968 17.3348 28.2701 16.2038 27.8343 15.1134C27.3962 14.0466 26.8912 13.2302 26.3673 12.6932C25.8463 12.1576 25.3529 11.9408 24.9062 11.9408C24.4594 11.9408 23.966 12.1576 23.445 12.6932C22.9211 13.2317 22.4176 14.0466 21.9781 15.1134ZM21.8354 12.3497C21.3785 12.9697 20.9768 13.7192 20.6304 14.5589C20.1647 15.6941 19.7863 17.0242 19.5215 18.4897H14.4337C15.1606 16.9991 16.1969 15.6804 17.4734 14.6217C18.75 13.563 20.2361 12.7885 21.8354 12.3497ZM29.1804 14.5589C28.8694 13.7769 28.4653 13.0351 27.9769 12.3497C29.576 12.7886 31.0632 13.5632 32.3395 14.622C33.6158 15.6807 34.6518 16.9992 35.3786 18.4897H30.2894C30.0245 17.0242 29.649 15.6912 29.1804 14.5589ZM35.9695 19.945H30.5091C30.6518 21.102 30.7274 22.323 30.7274 23.5833C30.7274 24.8437 30.6518 26.0647 30.5091 27.2216H35.9695C36.3544 26.0473 36.5499 24.8192 36.5487 23.5833C36.5499 22.3475 36.3544 21.1194 35.9695 19.945ZM30.2894 28.677H35.3786C34.6518 30.1675 33.6158 31.486 32.3395 32.5447C31.0632 33.6034 29.576 34.3781 27.9769 34.8169C28.4653 34.1316 28.8694 33.3898 29.1804 32.6078C29.6476 31.4726 30.0245 30.1425 30.2894 28.677ZM24.2687 29.3173C24.3677 29.1087 24.456 28.8953 24.5336 28.677H28.8093C28.5968 29.8319 28.2701 30.9629 27.8343 32.0533C27.744 32.2745 27.6469 32.4929 27.5432 32.7082C27.4442 32.532 27.3213 32.3703 27.1779 32.2279L24.2687 29.3173ZM24.8654 27.2216H29.0422C29.1906 26.0778 29.2721 24.8567 29.2721 23.5833C29.2721 22.3099 29.1906 21.0875 29.0422 19.945H20.7701L20.7163 20.3816C22.0668 20.9027 23.2066 21.8566 23.9575 23.0941C24.7085 24.3317 25.0268 25.7831 24.8654 27.2216ZM19.3046 19.945L19.2959 20.012C18.985 19.9672 18.6713 19.9448 18.3572 19.945H19.3046ZM13.8443 19.945H18.3572C17.3995 19.9443 16.4534 20.154 15.5858 20.5594C14.7181 20.9648 13.9502 21.556 13.3364 22.291C13.4251 21.4819 13.5983 20.696 13.8457 19.945M18.3601 31.5876C19.504 31.5876 20.5606 31.2092 21.4105 30.5732L25.1215 34.2843C25.1891 34.352 25.2693 34.4056 25.3576 34.4423C25.4459 34.4789 25.5406 34.4978 25.6362 34.4979C25.7318 34.498 25.8265 34.4792 25.9149 34.4427C26.0032 34.4062 26.0835 34.3526 26.1512 34.285C26.2188 34.2175 26.2725 34.1372 26.3092 34.0489C26.3458 33.9606 26.3647 33.866 26.3648 33.7704C26.3649 33.6748 26.3461 33.5801 26.3096 33.4917C26.273 33.4033 26.2195 33.323 26.1519 33.2554L22.4408 29.5443C23.1277 28.6258 23.4844 27.5023 23.4533 26.3558C23.4222 25.2093 23.0051 24.1068 22.2694 23.2269C21.5338 22.347 20.5227 21.7411 19.3998 21.5073C18.277 21.2735 17.1081 21.4255 16.0824 21.9388C15.0567 22.452 14.2342 23.2964 13.7481 24.3352C13.262 25.374 13.1407 26.5465 13.4039 27.6628C13.6671 28.7792 14.2993 29.774 15.1983 30.4863C16.0972 31.1986 17.2103 31.5866 18.3572 31.5876M18.3572 30.1323C17.3923 30.1323 16.4669 29.749 15.7846 29.0666C15.1022 28.3843 14.7189 27.4589 14.7189 26.494C14.7189 25.529 15.1022 24.6036 15.7846 23.9213C16.4669 23.239 17.3923 22.8557 18.3572 22.8557C19.3222 22.8557 20.2476 23.239 20.9299 23.9213C21.6122 24.6036 21.9955 25.529 21.9955 26.494C21.9955 27.4589 21.6122 28.3843 20.9299 29.0666C20.2476 29.749 19.3222 30.1323 18.3572 30.1323Z" fill="#E69C24"/>
</g>
<defs>
<filter id="filter0_d_1_58" x="-7.15256e-06" y="0" width="49.7535" height="49.0901" filterUnits="userSpaceOnUse" color-interpolation-filters="sRGB">
<feFlood flood-opacity="0" result="BackgroundImageFix"/>
<feColorMatrix in="SourceAlpha" type="matrix" values="0 0 0 0 0 0 0 0 0 0 0 0 0 0 0 0 0 0 127 0" result="hardAlpha"/>
<feOffset dy="1.32676"/>
<feGaussianBlur stdDeviation="0.663379"/>
<feComposite in2="hardAlpha" operator="out"/>
<feColorMatrix type="matrix" values="0 0 0 0 0 0 0 0 0 0 0 0 0 0 0 0 0 0 0.1 0"/>
<feBlend mode="normal" in2="BackgroundImageFix" result="effect1_dropShadow_1_58"/>
<feBlend mode="normal" in="SourceGraphic" in2="effect1_dropShadow_1_58" result="shape"/>
</filter>
</defs>
</svg>
