<svg width="30" height="29" viewBox="0 0 30 29" fill="none" xmlns="http://www.w3.org/2000/svg">
<g filter="url(#filter0_d_1_38)">
<rect x="2" width="25.129" height="24.6343" rx="12.3171" fill="white" shape-rendering="crispEdges"/>
<path d="M10.5796 19.6229H8.58708C8.22179 19.6229 7.90919 19.4929 7.64928 19.233C7.38938 18.9731 7.2592 18.6603 7.25876 18.2945V16.3021H8.58708V18.2945H10.5796V19.6229ZM18.5495 19.6229V18.2945H20.542V16.3021H21.8703V18.2945C21.8703 18.6598 21.7403 18.9727 21.4804 19.233C21.2205 19.4934 20.9077 19.6233 20.542 19.6229H18.5495ZM14.5645 16.6341C13.2362 16.6341 12.0325 16.2412 10.9535 15.4553C9.87444 14.6693 9.08564 13.6233 8.58708 12.3171C9.0852 11.0109 9.874 9.96488 10.9535 9.17896C12.033 8.39303 13.2366 8.00007 14.5645 8.00007C15.8924 8.00007 17.0963 8.39303 18.1762 9.17896C19.2561 9.96488 20.0447 11.0109 20.542 12.3171C20.0438 13.6233 19.2553 14.6693 18.1762 15.4553C17.0972 16.2412 15.8933 16.6341 14.5645 16.6341ZM14.5645 14.6417C15.2065 14.6417 15.7545 14.4147 16.2083 13.9609C16.6622 13.5071 16.8891 12.9591 16.8891 12.3171C16.8891 11.6751 16.6622 11.1272 16.2083 10.6733C15.7545 10.2195 15.2065 9.99255 14.5645 9.99255C13.9225 9.99255 13.3746 10.2195 12.9207 10.6733C12.4669 11.1272 12.24 11.6751 12.24 12.3171C12.24 12.9591 12.4669 13.5071 12.9207 13.9609C13.3746 14.4147 13.9225 14.6417 14.5645 14.6417ZM14.5645 13.3134C14.2878 13.3134 14.0527 13.2166 13.8592 13.0231C13.6657 12.8296 13.5687 12.5943 13.5683 12.3171C13.5678 12.0399 13.6648 11.8048 13.8592 11.6118C14.0536 11.4187 14.2887 11.3218 14.5645 11.3209C14.8404 11.32 15.0757 11.417 15.2705 11.6118C15.4653 11.8066 15.5621 12.0417 15.5608 12.3171C15.5594 12.5925 15.4627 12.8278 15.2705 13.0231C15.0784 13.2184 14.843 13.3151 14.5645 13.3134ZM7.25876 8.33215V6.33967C7.25876 5.97438 7.38893 5.66179 7.64928 5.40188C7.90964 5.14197 8.22223 5.0118 8.58708 5.01135H10.5796V6.33967H8.58708V8.33215H7.25876ZM20.542 8.33215V6.33967H18.5495V5.01135H20.542C20.9072 5.01135 21.2201 5.14153 21.4804 5.40188C21.7408 5.66223 21.8707 5.97483 21.8703 6.33967V8.33215H20.542Z" fill="#285D80"/>
</g>
<defs>
<filter id="filter0_d_1_38" x="0" y="0" width="29.129" height="28.6343" filterUnits="userSpaceOnUse" color-interpolation-filters="sRGB">
<feFlood flood-opacity="0" result="BackgroundImageFix"/>
<feColorMatrix in="SourceAlpha" type="matrix" values="0 0 0 0 0 0 0 0 0 0 0 0 0 0 0 0 0 0 127 0" result="hardAlpha"/>
<feOffset dy="2"/>
<feGaussianBlur stdDeviation="1"/>
<feComposite in2="hardAlpha" operator="out"/>
<feColorMatrix type="matrix" values="0 0 0 0 0 0 0 0 0 0 0 0 0 0 0 0 0 0 0.08 0"/>
<feBlend mode="normal" in2="BackgroundImageFix" result="effect1_dropShadow_1_38"/>
<feBlend mode="normal" in="SourceGraphic" in2="effect1_dropShadow_1_38" result="shape"/>
</filter>
</defs>
</svg>
