<svg width="40" height="46" viewBox="0 0 40 46" fill="none" xmlns="http://www.w3.org/2000/svg">
<path d="M37.7749 27.5318C37.6448 27.4561 37.5122 27.3889 37.3782 27.3283V17.4818C37.5122 17.4212 37.6448 17.3538 37.7749 17.2784C39.9026 16.0501 40.6315 13.3301 39.403 11.2023C38.1753 9.07515 35.4545 8.34615 33.3273 9.57455C33.1967 9.64955 33.0721 9.73065 32.9527 9.81655L24.4256 4.89313C24.4402 4.74663 24.4481 4.59823 24.4481 4.44792C24.4481 1.99151 22.4567 0 19.9999 0C17.5434 0 15.5519 1.99141 15.5519 4.44792C15.5519 4.59823 15.5595 4.74663 15.5744 4.89313L7.04729 9.81655C6.92739 9.73065 6.80299 9.64955 6.67249 9.57455C4.54538 8.34625 1.82476 9.07515 0.596858 11.2027C-0.631849 13.33 0.0974552 16.0501 2.22497 17.2784C2.35507 17.3538 2.48767 17.4213 2.62147 17.4818V27.3283C2.48767 27.3889 2.35507 27.4561 2.22497 27.5318C0.0974552 28.76 -0.631449 31.4799 0.596858 33.6079C1.30976 34.843 2.52597 35.6054 3.83668 35.7884C4.33318 34.4813 5.03528 33.513 6.05799 33.1059L10.5715 31.3061H8.8957C8.8836 30.5753 8.692 29.8375 8.3008 29.1598C7.9096 28.4824 7.36659 27.9473 6.73949 27.5713L8.8936 23.8412L12.7106 30.4529L13.3915 30.1814L13.9435 29.7166L9.72281 22.4051L10.9941 20.203C10.9586 19.7217 10.9369 19.2277 10.9314 18.7199C10.9265 18.2358 10.9513 17.7683 11.0021 17.3168L8.8937 20.969L6.73959 17.2391C7.36669 16.8633 7.9097 16.3283 8.3009 15.6507C8.6919 14.9729 8.8837 14.2351 8.8956 13.5043H12.3181C12.6642 12.9738 13.0718 12.4939 13.537 12.0681H8.6839C8.548 11.6447 8.3482 11.2412 8.0901 10.8727L15.9676 6.32474C16.1572 6.73264 16.4067 7.10734 16.7061 7.43654L14.4428 11.3561C15.1186 10.9015 15.8821 10.5373 16.7268 10.2728L17.8437 8.33825C18.483 8.69295 19.2177 8.89565 19.9998 8.89565C20.7822 8.89565 21.5168 8.69295 22.1561 8.33815L23.2738 10.2741C24.1191 10.5388 24.883 10.9039 25.559 11.3593L23.2939 7.43644C23.5933 7.10724 23.8428 6.73254 24.0326 6.32464L31.9097 10.8726C31.6517 11.2412 31.4521 11.6446 31.3161 12.068H26.4601C26.9253 12.4938 27.333 12.9738 27.6792 13.5042H31.1044C31.1161 14.2349 31.3079 14.9727 31.6991 15.6503C32.0901 16.328 32.6333 16.863 33.2601 17.2389L31.106 20.9689L28.9933 17.3091C29.045 17.7628 29.0698 18.2326 29.0644 18.7193C29.0591 19.2253 29.0376 19.7174 29.0026 20.197L30.2774 22.405L26.0552 29.7184L26.6048 30.1815L27.2884 30.4543L31.106 23.8414L33.2601 27.5714C32.6331 27.947 32.0903 28.482 31.6993 29.1597C31.3081 29.8374 31.1165 30.5755 31.1044 31.3063H29.4257L33.939 33.1057C34.962 33.5125 35.6644 34.4809 36.1615 35.7887C37.4729 35.6063 38.6901 34.8436 39.4035 33.6078C40.6316 31.4802 39.9027 28.7602 37.7749 27.5318ZM8.0636 22.405L5.39018 27.0364C4.95538 26.9423 4.50638 26.9134 4.05798 26.9527V17.8571C4.50638 17.8963 4.95548 17.8676 5.39018 17.7735L8.0636 22.405ZM35.9418 26.9526C35.4934 26.9133 35.0441 26.9422 34.6098 27.0364L31.9365 22.4051L34.6098 17.7737C35.0447 17.8678 35.4934 17.8965 35.9418 17.8573V26.9526Z" fill="#E9892C"/>
<path d="M20.0019 29.8722C20.0019 29.8722 27.6539 30.1826 27.6539 19.045C27.6539 14.0919 25.0686 11.5215 20.0019 11.5215C15.0414 11.5215 12.2961 14.092 12.3461 19.045C12.4189 25.8287 15.3017 29.9441 20.0019 29.8722Z" fill="#285D80"/>
<path d="M33.5369 35.021L25.8912 31.9728L24.1008 30.4638C23.6279 30.0643 22.9293 30.0938 22.4908 30.5297L20.0017 33.0053L17.505 30.5291C17.0663 30.0937 16.3687 30.0654 15.8962 30.4638L14.1055 31.9728L6.4596 35.0214C3.99769 36.0021 3.99939 44.7212 3.78809 45.5216H36.2122C36.0012 44.7232 36.0001 36.0006 33.5369 35.021Z" fill="#285D80"/>
</svg>
