<svg width="51" height="28" viewBox="0 0 51 28" fill="none" xmlns="http://www.w3.org/2000/svg">
<path d="M10.7565 14.0796C14.6444 14.0796 17.7961 10.9277 17.7961 7.03978C17.7961 3.15182 14.6444 0 10.7565 0C6.86857 0 3.7168 3.15182 3.7168 7.03978C3.7168 10.9277 6.86857 14.0796 10.7565 14.0796Z" fill="white"/>
<path fill-rule="evenodd" clip-rule="evenodd" d="M17.44 18.7524C18.241 18.3379 19.0956 18.0116 19.9663 17.7586C19.111 16.9897 18.419 16.0431 17.9482 14.9766C17.0977 14.5667 16.1193 14.228 15.0487 13.9795C13.8019 14.7523 12.3317 15.1988 10.7569 15.1988C9.18219 15.1988 7.71197 14.7523 6.46518 13.9795C5.27732 14.2553 4.20276 14.642 3.29068 15.1141C1.68633 15.9444 0 17.3755 0 19.3424V22.7987C0 23.1078 0.250583 23.3584 0.559672 23.3584H13.5821C13.8738 21.253 15.6097 19.6998 17.44 18.7524Z" fill="white"/>
<path fill-rule="evenodd" clip-rule="evenodd" d="M40.0805 14.0796C43.9684 14.0796 47.1202 10.9276 47.1202 7.03968C47.1202 3.15174 43.9684 0 40.0805 0C36.1927 0 33.041 3.15178 33.041 7.03968C33.041 10.9276 36.1927 14.0796 40.0805 14.0796Z" fill="white"/>
<path fill-rule="evenodd" clip-rule="evenodd" d="M47.5468 15.1141C46.6347 14.642 45.5602 14.2553 44.3723 13.9795C43.1255 14.7523 41.6552 15.1988 40.0805 15.1988C38.5058 15.1988 37.0357 14.7523 35.7888 13.9795C34.7266 14.2262 33.7549 14.5614 32.9091 14.967C32.4383 16.0373 31.7446 16.9874 30.8867 17.7587C31.7573 18.0116 32.6121 18.338 33.4132 18.7525C35.2433 19.6998 36.9792 21.253 37.2709 23.3585H50.2778C50.5869 23.3585 50.8375 23.1078 50.8375 22.7987V19.3424C50.8375 17.3755 49.1512 15.9444 47.5468 15.1141Z" fill="white"/>
<path fill-rule="evenodd" clip-rule="evenodd" d="M25.4245 18.7209C29.3018 18.7209 32.4641 15.5585 32.4641 11.6811C32.4641 7.8037 29.3018 4.64136 25.4245 4.64136C21.5471 4.64136 18.3848 7.8037 18.3848 11.6811C18.3848 15.5585 21.5472 18.7209 25.4245 18.7209Z" fill="white"/>
<path fill-rule="evenodd" clip-rule="evenodd" d="M32.8933 19.7557C31.9811 19.2836 30.9065 18.897 29.7186 18.6211C28.4718 19.3939 27.0017 19.8406 25.4269 19.8406C23.8522 19.8406 22.3819 19.3939 21.1351 18.6211C19.9472 18.897 18.8727 19.2836 17.9606 19.7557C16.3562 20.5861 14.6699 22.0173 14.6699 23.984V27.4404C14.6699 27.7496 14.9205 28.0001 15.2296 28.0001H35.6242C35.9333 28.0001 36.1838 27.7496 36.1838 27.4404V23.984C36.1838 22.0173 34.4975 20.586 32.8933 19.7557Z" fill="white"/>
</svg>
