<svg width="47" height="42" viewBox="0 0 47 42" fill="none" xmlns="http://www.w3.org/2000/svg">
<path d="M45.6995 11.0037H37.2716L33.9941 11.0505L21.0244 25.0974L23.7869 25.8466C23.9274 25.8934 24.0678 25.8466 24.1615 25.7061L35.4924 13.1107H45.6527C46.2146 13.1107 46.6828 12.6425 46.7296 12.0338C46.7296 11.4719 46.2614 11.0037 45.6995 11.0037Z" fill="white"/>
<path d="M4.0735 33.8994C1.82605 33.8994 0 35.7255 0 37.9262C0 40.1737 1.82605 41.9998 4.0735 41.9998C6.32095 41.9998 8.147 40.1737 8.147 37.9262C8.10018 35.7255 6.32095 33.8994 4.0735 33.8994Z" fill="white"/>
<path d="M23.412 29.9203C23.6461 29.9203 23.7866 29.733 23.8334 29.5457L24.0207 27.8601C24.0675 27.626 23.9271 27.4387 23.6929 27.3918L19.7599 26.3617L15.5928 12.1275C15.4055 11.6593 14.8904 11.2847 14.3754 11.2847H4.07458C3.32543 11.2379 2.90404 11.9402 2.90404 12.6894V24.3483H0.984342C0.375658 24.3483 0.0947266 25.0039 0.0947266 25.6126V34.1812C1.03116 33.1043 2.52946 32.4019 4.12141 32.4019C7.21165 32.4019 9.64638 34.6962 9.64638 37.9739H17.0911C16.9974 37.5056 16.9974 37.1779 16.9974 36.7565C16.9974 33.0574 19.8535 30.1076 23.412 29.9203ZM14.7968 27.626L13.2985 24.3483H8.99088V14.0473H13.5326L16.9506 27.626H14.7968Z" fill="white"/>
<path d="M23.785 31.418C20.8821 31.418 18.4941 33.8059 18.4941 36.709C18.4941 39.612 20.8821 42 23.785 42C26.688 42 29.0759 39.612 29.0759 36.709C29.0759 33.8059 26.688 31.418 23.785 31.418Z" fill="white"/>
<path d="M46.4471 1.35787C46.4471 0.608701 45.8384 0 45.0893 0H35.6313C34.8821 0 34.2734 0.608701 34.2734 1.35787V8.05358C34.2734 8.80275 34.8821 9.41145 35.6313 9.41145H45.1361C45.8853 9.41145 46.4939 8.80275 46.4939 8.05358V1.35787H46.4471Z" fill="white"/>
</svg>
