<svg width="33" height="42" viewBox="0 0 33 42" fill="none" xmlns="http://www.w3.org/2000/svg">
<path fill-rule="evenodd" clip-rule="evenodd" d="M2.69871 28.5561L9.04573 20.5442L6.35267 18.3949L2.76434 22.8703C2.75703 22.8812 2.74972 22.8903 2.74058 22.8994L0 26.3193L2.69871 28.5561ZM23.9544 20.442L30.3015 28.4539L33 26.2171L30.4202 22.9978V22.996C30.4056 22.9796 30.391 22.9614 30.3782 22.9431L26.6474 18.2928L23.9544 20.442ZM22.3978 20.061C23.5726 18.6063 24.1554 16.7615 24.0276 14.8949C23.8997 13.03 23.072 11.2818 21.709 9.99857C20.346 8.71521 18.5483 7.99149 16.6735 7.97329C14.8008 7.95506 12.9884 8.64232 11.5996 9.89833C10.2111 11.1543 9.34873 12.8861 9.18427 14.7494C9.01984 16.6125 9.56613 18.4683 10.7135 19.9468L9.83834 20.0015L6.56974 17.391L6.56791 17.3928C6.47291 17.3162 6.3505 17.2816 6.22991 17.2944C6.10932 17.3089 5.99788 17.3691 5.92114 17.4639L2.4552 21.7879L2.00393 21.0077C1.64583 20.3806 1.85959 19.5858 2.48442 19.223L2.50817 19.2084L4.52341 18.0472C4.6915 17.9506 4.78102 17.7592 4.74631 17.5678C4.68236 17.2142 4.63303 16.8569 4.60014 16.4941C4.56908 16.1495 4.55264 15.7886 4.55264 15.4094C4.55264 15.0303 4.56908 14.6675 4.60014 14.3248C4.6312 13.9638 4.68053 13.6065 4.74631 13.2511C4.78285 13.0542 4.68601 12.8573 4.50879 12.7625L2.48443 11.5958H2.48261C1.8596 11.233 1.6458 10.4364 2.00394 9.81114L4.4449 5.59464C4.44855 5.58735 4.45403 5.58006 4.45769 5.57276H4.45586C4.82675 4.96571 5.61423 4.76336 6.23359 5.1152L8.27623 6.29099V6.29281C8.44432 6.38943 8.65443 6.36938 8.80242 6.24542C9.35602 5.77692 9.95162 5.35766 10.5801 4.99487C11.205 4.63392 11.8627 4.3313 12.5442 4.08887C12.7287 4.02324 12.8512 3.84824 12.8512 3.65318V1.30706C12.853 0.585164 13.4395 0.00182003 14.1612 0H19.0414C19.7631 0.00182283 20.3478 0.586984 20.3514 1.30706V3.65687C20.3514 3.85739 20.4811 4.03604 20.673 4.0962C22.0341 4.58476 23.2966 5.31394 24.3983 6.24912C24.5554 6.38219 24.7838 6.39495 24.9537 6.27828L26.9671 5.11887H26.969C27.5956 4.76158 28.3941 4.97486 28.7595 5.59647L31.2004 9.81297L31.2132 9.83303H31.2114C31.5512 10.4565 31.3338 11.2385 30.7199 11.5976L28.6791 12.7734C28.511 12.87 28.4215 13.0614 28.4543 13.2528C28.5183 13.6065 28.5676 13.9638 28.6005 14.3266C28.6316 14.6711 28.648 15.032 28.648 15.413C28.648 15.794 28.6316 16.1549 28.6005 16.4977C28.5694 16.8586 28.5201 17.2159 28.4543 17.5714C28.4196 17.7683 28.5165 17.9651 28.6919 18.0581L30.718 19.2248C31.341 19.5876 31.5567 20.3842 31.1985 21.0095L30.6961 21.8772L27.0785 17.3599C27.0018 17.2652 26.8903 17.205 26.7698 17.1904C26.6492 17.1776 26.5268 17.2123 26.4318 17.2888L23.1175 19.934L22.3976 20.0597L22.3978 20.061ZM18.8077 20.6918L20.8631 20.3308H20.8612C22.8801 18.5954 23.6347 15.8081 22.7705 13.2924C21.9063 10.7786 19.5951 9.04131 16.9333 8.90644C14.2731 8.77154 11.7958 10.2646 10.6812 12.6799C9.5649 15.0935 10.0326 17.9426 11.8633 19.8751L16.5883 19.5816C16.6723 19.5762 16.7582 19.5944 16.8331 19.6345L18.8077 20.6918ZM6.79462 30.3991L6.78914 30.3936V30.3955C6.27025 29.8832 5.43531 29.885 4.91824 30.3973L3.74893 31.564C3.23551 32.0817 3.23551 32.9148 3.74893 33.4307C4.266 33.9429 5.10094 33.9429 5.61983 33.4307L6.78914 32.264C7.30256 31.7481 7.30256 30.915 6.78914 30.3973L6.79462 30.3991ZM9.31959 32.9166C9.35795 32.9549 9.38719 32.9859 9.40546 33.0095C9.42373 33.0351 9.45296 33.0697 9.48037 33.1116H9.47854C9.65211 33.3668 9.73067 33.6749 9.69961 33.9812C9.67221 34.2856 9.537 34.57 9.31959 34.7869L8.15028 35.9536C7.62956 36.4404 6.81469 36.4258 6.31044 35.9226C5.80436 35.4195 5.79154 34.6065 6.27938 34.0869L7.44869 32.9202C7.69717 32.6723 8.03334 32.5338 8.38414 32.5338C8.73493 32.532 9.07113 32.6705 9.31958 32.9184L9.31959 32.9166ZM11.8445 35.4359V35.4377C11.3275 34.9236 10.4925 34.9236 9.97365 35.4377L8.80434 36.6044C8.55586 36.8505 8.41701 37.1877 8.41701 37.5377C8.41518 37.8859 8.55404 38.2232 8.80069 38.4711L8.80617 38.4766C9.32506 38.9851 10.1582 38.9833 10.6752 38.4729L11.8446 37.3062C12.358 36.7885 12.358 35.9554 11.8446 35.4395L11.8445 35.4359ZM14.3713 37.957C14.8848 38.4747 14.8848 39.306 14.3713 39.8237L13.202 40.9904C12.6831 41.5027 11.8482 41.5027 11.3311 40.9904C10.8177 40.4745 10.8177 39.6396 11.3311 39.1237L12.5004 37.957C13.0175 37.4447 13.8524 37.4447 14.3713 37.957ZM14.4956 25.8436V25.8454C13.7099 26.0003 12.8951 25.8709 12.1971 25.4808C11.9962 25.3586 11.8189 25.2001 11.6764 25.0141C11.5577 24.861 11.4791 24.6842 11.4444 24.4946C11.4097 24.2794 11.4407 24.0589 11.5339 23.862L13.4523 23.5229H13.4505C13.4834 23.5156 13.5144 23.5083 13.5437 23.4956L17.6691 21.8294L23.1172 20.8723L29.5723 29.0172L26.3713 31.3105L20.3732 25.9913L20.375 25.9877C20.3238 25.9421 20.2635 25.9093 20.1978 25.8893C19.3975 25.6432 18.5625 25.5247 17.7257 25.5356C16.646 25.5429 15.5698 25.6432 14.5065 25.8382L14.4937 25.84L14.4956 25.8436ZM14.6637 26.7496C15.674 26.5636 16.6972 26.467 17.724 26.4579C18.4383 26.4488 19.1491 26.5454 19.836 26.7441L26.6821 32.8146C27.2997 33.3651 27.3618 34.3076 26.8228 34.9347C26.5323 35.2373 26.1413 35.4233 25.7229 35.4579C25.3337 35.4779 24.9537 35.3394 24.6705 35.0751L22.1912 32.8748C21.9994 32.7144 21.7144 32.7344 21.5481 32.9204C21.3818 33.1081 21.3946 33.3925 21.5773 33.5639L23.5414 35.3066V35.3048C24.1589 35.8553 24.221 36.7996 23.6821 37.4249C23.6729 37.434 23.6638 37.4431 23.6565 37.4541C23.0956 38.0629 22.151 38.1122 21.5298 37.5653L19.2442 35.5381C19.1528 35.4579 19.0322 35.416 18.9098 35.4215C18.7874 35.4287 18.6741 35.4834 18.5919 35.5764C18.5097 35.6676 18.4677 35.7879 18.475 35.91C18.4823 36.0321 18.5389 36.1452 18.6303 36.2272L19.8855 37.3392C20.503 37.8897 20.5651 38.8322 20.0243 39.4593C20.0152 39.4684 20.0079 39.4775 19.9988 39.4866L20.0006 39.4885C19.4452 40.0919 18.5097 40.1466 17.8885 39.6106C17.8776 39.6015 17.8684 39.5924 17.8575 39.5851L16.8398 38.6864C16.6498 38.5187 16.3575 38.5351 16.1875 38.7246C16.0176 38.9161 16.0359 39.2059 16.2259 39.3754C16.8435 39.926 16.9056 40.8684 16.3666 41.4937C16.0743 41.789 15.6833 41.9695 15.2685 41.9968C14.8812 42.0224 14.503 41.8929 14.2143 41.6359L14.028 41.4682L15.0255 40.4728L15.0237 40.4747C15.6686 39.833 15.8605 38.8687 15.5134 38.0301C15.1644 37.1915 14.3422 36.6446 13.4324 36.6465C13.3337 36.6465 13.2332 36.6538 13.1345 36.6665C13.1473 36.5681 13.1528 36.4678 13.1528 36.3676C13.1546 35.7733 12.919 35.2027 12.4969 34.7834C12.0767 34.3623 11.5048 34.1272 10.9092 34.129C10.8069 34.129 10.7064 34.1345 10.6078 34.1491C10.6114 34.1217 10.6151 34.0926 10.6169 34.0652V34.0634C10.6681 33.5457 10.5347 33.0243 10.2424 32.5923C10.2076 32.5413 10.1656 32.4847 10.1145 32.4228C10.0633 32.3608 10.014 32.3061 9.97196 32.2623L9.97013 32.2642C9.5499 31.8431 8.97621 31.6079 8.38061 31.6097C8.28013 31.6097 8.17964 31.617 8.08098 31.6298C8.17416 30.9371 7.9403 30.2407 7.44698 29.7449C6.56817 28.8717 5.14489 28.8717 4.26608 29.7449L4.02674 29.9837L3.34526 29.2217L9.921 20.9219L16.5094 20.5117L17.3553 20.9656L13.2444 22.6263L11.1542 22.9964L11.1561 22.9946C11.0117 23.0201 10.8875 23.1112 10.8217 23.2406C10.5605 23.6599 10.4581 24.1594 10.5349 24.648C10.5933 24.9797 10.7304 25.2951 10.935 25.5649C11.1469 25.8438 11.4118 26.079 11.7115 26.2594C12.5976 26.768 13.6372 26.9412 14.6403 26.7498L14.6637 26.7496Z" fill="white"/>
</svg>
