<svg width="42" height="42" viewBox="0 0 42 42" fill="none" xmlns="http://www.w3.org/2000/svg">
<path fill-rule="evenodd" clip-rule="evenodd" d="M7.69061 10.3919L5.95951 10.0507V7.17985L7.69061 6.83864L8.45166 5.00394L7.46556 3.53727L9.49498 1.50784L10.9599 2.49216L12.7946 1.73111L13.1411 0H16.0066L16.3478 1.73111L18.1825 2.49216L19.6474 1.50784L21.6768 3.53727L20.6925 5.00216L21.4536 6.83685L23.1847 7.17807V10.0489L21.4536 10.3901L20.6925 12.2248L21.6768 13.6897L19.6474 15.7156L18.6577 15.0528V14.156H16.2728V13.0198C16.2728 12.6839 16.1835 12.3713 16.0298 12.0998C17.3929 11.5299 18.3486 10.1865 18.3486 8.61437C18.3486 6.52778 16.6587 4.83422 14.5685 4.83422C12.4783 4.83422 10.7883 6.52421 10.7883 8.61437C10.7883 9.59513 11.1617 10.4866 11.7727 11.1619H8.00144L7.69061 10.3919ZM15.0455 13.0198C15.0455 12.675 14.765 12.3945 14.4202 12.3945H4.55C4.20521 12.3945 3.92473 12.675 3.92473 13.0198V14.1578H15.0508L15.049 13.0198H15.0455ZM10.4291 38.6448H1.53946V15.3902H17.43V20.2585L10.4255 24.044V38.6449L10.4291 38.6448ZM11.1616 21.443H14.438V18.1666H11.1616V21.443ZM7.80664 30.6968H4.53025V33.9732H7.80664V30.6968ZM7.80664 24.4299H4.53025V27.7063H7.80664V24.4299ZM7.80664 18.163H4.53025V21.4394H7.80664V18.163ZM30.3464 24.8964L30.827 25.0732L33.2727 25.979L32.2829 13.6076H25.8766L25.3067 20.7196L30.3465 17.9988L30.3464 24.8964ZM26.25 12.3768H31.9114C32.1168 12.3768 32.2848 12.2089 32.2848 12.0034V10.2116C32.2848 10.0061 32.1168 9.8382 31.9114 9.8382H26.25C26.0446 9.8382 25.882 10.0061 25.882 10.2116V12.0034C25.8767 12.2089 26.0446 12.3768 26.25 12.3768ZM20.3888 20.0623V24.7752L29.1157 20.0623V24.4392L25.9376 23.2583V38.6454H11.6619V24.7753L20.3888 20.0623ZM18.1343 28.4567H14.6954V31.8957H18.1343V28.4567ZM20.8872 31.8974H24.3262V28.4585H20.8872V31.8974ZM40.4598 38.645H27.1687V25.0319L40.4598 29.9643V38.645ZM38.0481 31.6958H29.5769V34.5094H38.0467L38.0481 31.6958ZM0.41446 42H41.5838C41.8142 42 42 41.8142 42 41.5855V40.2886C42 40.0653 41.8142 39.8741 41.5855 39.8741H0.416248C0.185792 39.8777 0 40.0688 0 40.2922V41.5891C0 41.8142 0.185792 42 0.41446 42Z" fill="white"/>
</svg>
