<svg width="52" height="46" viewBox="0 0 52 46" fill="none" xmlns="http://www.w3.org/2000/svg">
<path d="M45.9187 30.4972C43.7819 31.069 42.5163 30.2877 41.8332 28.28H45.8061C45.5016 23.1194 43.6853 18.8434 40.4616 15.1325C39.3827 15.9166 38.3527 16.6097 37.3981 17.402C37.1704 17.5908 37.0659 18.1324 37.1215 18.4727C37.5186 20.9201 37.9767 23.355 38.399 25.7982C38.4506 26.0972 38.4056 26.4155 38.4056 26.8014H36.3973C35.9353 24.2121 35.4626 21.5622 35.0072 19.0129C32.1648 19.7253 29.5594 20.3785 26.7766 21.0758C26.7541 21.5664 26.7237 22.2609 26.6892 23.0077H24.5379C24.5035 22.3022 24.4704 21.6353 24.4426 21.0648C21.7326 20.3909 19.0941 19.735 16.216 19.0184C15.7672 21.5195 15.2985 24.1391 14.8219 26.7986H12.5356C13.0413 24.0977 13.4411 21.503 14.0461 18.9606C14.2884 17.9436 14.115 17.4558 13.2809 16.9652C12.4482 16.476 11.7068 15.8173 10.7788 15.1228C7.52602 18.7938 5.75731 23.1042 5.41045 28.2386H9.38475C8.73737 30.3084 7.43202 31.0291 5.27276 30.5178C5.57593 32.1935 5.75863 33.6156 6.10814 34.9908C6.33717 35.892 6.44176 36.6582 5.8566 37.4616C5.54151 37.8943 5.40648 38.4703 5.18142 38.998C1.84523 32.3354 1.877 20.4047 10.2466 12.3324C18.3289 4.53704 30.4332 3.86595 39.1338 10.7119C48.5784 18.1434 49.9539 30.5592 46.112 38.9801C45.2355 37.4671 44.5326 36.0133 45.2964 34.1434C45.7042 33.1471 45.6857 31.962 45.9187 30.4958V30.4972ZM24.4347 8.61316C21.5565 9.12991 17.9476 13.2529 17.3439 16.6276C19.5747 17.679 21.8955 18.3336 24.4347 18.379V8.61316ZM34.1639 16.7819C32.4429 12.9773 30.6966 9.80375 26.8428 8.4726V18.6822C29.3304 18.0359 31.6445 17.4351 34.1639 16.7806V16.7819ZM33.2676 9.7693C33.22 9.85611 33.1736 9.94431 33.126 10.0311C34.1321 11.7908 35.1396 13.5519 36.2 15.4067C37.0341 14.7632 37.8469 14.1376 38.9325 13.2997C36.8792 12.021 35.0734 10.8951 33.2676 9.7693ZM12.2801 13.3232C13.4001 14.1651 14.2196 14.7797 15.0311 15.3902C16.1008 13.5188 17.1004 11.7688 18.0999 10.0187C18.0416 9.93328 17.9821 9.84785 17.9238 9.76241C16.1194 10.9006 14.3149 12.0389 12.2801 13.3232Z" fill="#E9892C"/>
<path d="M25.0416 44.9874C23.0123 44.986 20.9817 45.0153 18.9524 44.9754C17.5057 44.9462 16.997 44.295 17.1296 42.8838C17.2759 41.345 17.3922 39.8035 17.5029 38.2621C17.6178 36.6701 18.3672 35.401 19.5404 34.3273C19.9848 33.9207 20.3417 33.8861 20.886 34.2489C24.0324 36.3498 26.2408 36.3193 29.3326 34.2848C29.6156 34.0988 30.2638 34.0974 30.5318 34.2888C31.7721 35.1765 32.4763 36.4402 32.6554 37.9152C32.866 39.6401 32.9781 41.3769 33.1012 43.111C33.186 44.303 32.6103 44.9276 31.3687 44.9754C30.2952 45.0166 29.2204 44.9887 28.1456 44.99C27.1105 44.99 26.0767 44.99 25.0416 44.99V44.9874Z" fill="#285D80"/>
<path d="M34.6261 44.8781C34.4466 42.0254 34.2735 39.2831 34.1094 36.6917C35.0269 36.8964 36.0311 37.3369 37.0084 37.2789C38.0227 37.2183 39.0968 36.8331 39.9864 36.2957C40.7169 35.8539 41.2272 35.8768 41.5441 36.5476C42.0773 37.6722 42.5597 38.8561 42.8447 40.0724C43.0891 41.1189 43.0254 42.2449 43.1005 43.3372C43.1603 44.2275 42.9313 44.9629 41.9641 44.9791C39.5995 45.0181 37.2337 44.9872 34.8679 44.9723C34.7342 44.9723 34.6006 44.8686 34.6261 44.8794V44.8781Z" fill="#285D80"/>
<path d="M15.4775 44.9956C14.7696 44.9956 13.8853 44.9956 12.9996 44.9956C11.2339 44.9932 9.46815 45.0101 7.70243 44.9788C6.48955 44.9571 6.04953 44.5416 6.11581 43.5527C6.18774 42.4688 6.26672 41.3848 6.38095 40.3044C6.50788 39.1169 6.97329 38.0317 8.0536 37.2368C8.31592 37.0441 8.97454 36.9176 9.18891 37.0573C11.42 38.5014 13.7175 38.4785 16.1094 37.3572C15.9006 39.8757 15.6976 42.3267 15.4761 44.9956H15.4775Z" fill="#285D80"/>
<path d="M25.103 25.9982C27.5391 26.0175 29.1435 27.6652 29.1088 30.1104C29.078 32.3433 27.318 34.0335 25.0657 33.9975C22.7465 33.9602 21.0727 32.2276 21.11 29.9072C21.1473 27.6086 22.8108 25.9802 25.103 25.9982Z" fill="#285D80"/>
<path d="M41.1094 32.5055C41.1162 34.4645 39.631 35.9676 37.659 35.9977C35.78 36.0263 34.1554 34.4495 34.1103 32.5546C34.0651 30.6406 35.7267 28.9764 37.6645 28.9983C39.6064 29.0187 41.1039 30.5437 41.1094 32.5055Z" fill="#285D80"/>
<path d="M10.1105 32.5613C10.1035 30.5496 11.4203 28.9872 13.1151 28.9981C14.73 29.0077 16.1337 30.6479 16.1091 32.4958C16.0832 34.4242 14.7688 35.9634 13.1174 35.9975C11.4767 36.0316 10.1164 34.4788 10.1094 32.5627L10.1105 32.5613Z" fill="#285D80"/>
</svg>
