<svg width="39" height="46" viewBox="0 0 39 46" fill="none" xmlns="http://www.w3.org/2000/svg">
<g clip-path="url(#clip0_1397_3801)">
<path d="M31.7906 26.4121C33.1645 26.6809 34.5516 26.5027 35.9322 26.5239C38.2451 26.5576 38.2451 26.5335 38.2451 28.8403C38.2451 33.9376 38.2461 39.0358 38.2451 44.133C38.2451 45.378 38.0068 45.6256 36.801 45.6256C25.0151 45.6266 13.2292 45.6266 1.44334 45.6256C0.240353 45.6256 0.00108454 45.376 0.000135059 44.1311C-0.0017639 38.7804 -0.000814419 33.4288 0.000135059 28.0781C0.000135059 26.7783 0.233707 26.5364 1.48607 26.5335C2.84477 26.5306 4.20347 26.5335 5.56218 26.5335C5.86696 26.5335 6.17364 26.5566 6.45943 26.4131C7.66432 26.6694 8.8825 26.4747 10.0931 26.52C16.1147 26.52 22.1372 26.521 28.1588 26.522C29.3694 26.4738 30.5866 26.6723 31.7906 26.4131V26.4121ZM6.52305 36.1643C6.52305 34.6467 6.5278 33.1301 6.52115 31.6125C6.51735 30.751 6.16794 30.2538 5.57452 30.3155C4.84532 30.3926 4.65638 30.912 4.65827 31.5807C4.66682 34.587 4.66682 37.5933 4.65827 40.5996C4.65638 41.2722 4.85861 41.8272 5.58497 41.8426C6.32461 41.859 6.5297 41.3069 6.52495 40.6314C6.51355 39.1427 6.52115 37.6531 6.5221 36.1643H6.52305ZM15.4814 35.9871C15.4814 37.5326 15.488 39.0772 15.4785 40.6228C15.4747 41.3001 15.6969 41.8436 16.4261 41.8417C17.1686 41.8407 17.3471 41.277 17.3452 40.6073C17.3367 37.601 17.3348 34.5947 17.3461 31.5884C17.349 30.9226 17.1914 30.3945 16.4508 30.3165C15.8545 30.2538 15.4871 30.7568 15.4823 31.6028C15.4747 33.0636 15.4804 34.5244 15.4823 35.9861L15.4814 35.9871ZM10.094 36.0449C10.094 37.5336 10.1064 39.0232 10.0883 40.512C10.0798 41.199 10.2032 41.7771 11.0008 41.8513C11.5914 41.9062 11.9493 41.3975 11.9503 40.5466C11.955 37.5683 11.955 34.5908 11.9503 31.6125C11.9484 30.7616 11.5876 30.2567 10.9941 30.3155C10.2564 30.3878 10.0807 30.9071 10.0883 31.5778C10.1054 33.0665 10.0931 34.5562 10.094 36.0449ZM20.9152 36.0728C20.9152 37.6174 20.9219 39.163 20.9124 40.7076C20.9076 41.3705 21.1716 41.8484 21.8476 41.8407C22.5237 41.833 22.7734 41.3358 22.7724 40.6854C22.7686 37.6232 22.7677 34.561 22.7724 31.4997C22.7734 30.8532 22.5398 30.3396 21.8657 30.3242C21.1374 30.3078 20.9029 30.831 20.9105 31.5219C20.9257 33.0385 20.9152 34.5562 20.9152 36.0728ZM28.1588 36.068C28.1588 34.5513 28.1493 33.0337 28.1636 31.5171C28.1702 30.8262 27.9281 30.3068 27.2008 30.3261C26.5276 30.3444 26.2969 30.857 26.2978 31.5045C26.3045 34.5388 26.3045 37.5731 26.2978 40.6064C26.2959 41.279 26.5001 41.834 27.2302 41.8388C27.9642 41.8446 28.1702 41.2992 28.1636 40.6189C28.1484 39.1023 28.1588 37.5846 28.1598 36.068H28.1588ZM33.5889 36.1403C33.5889 34.5957 33.5832 33.0501 33.5917 31.5055C33.5946 30.859 33.3638 30.3454 32.6888 30.3271C31.9577 30.3068 31.726 30.8281 31.7288 31.518C31.7393 34.5523 31.7393 37.5856 31.7288 40.6199C31.726 41.3001 31.9282 41.8455 32.6612 41.8407C33.3914 41.8359 33.5974 41.2799 33.5927 40.6073C33.5822 39.1186 33.5898 37.6299 33.5898 36.1412L33.5889 36.1403Z" fill="#285D80"/>
<path d="M31.7911 26.4123C30.5871 26.6715 29.3699 26.473 28.1593 26.5212C28.128 26.4769 28.1062 26.4152 28.0634 26.3892C25.2122 24.6605 22.3552 22.9406 19.5105 21.1994C19.1469 20.9768 18.8981 21.1108 18.6038 21.289C16.8691 22.3412 15.123 23.3742 13.3959 24.4389C12.2888 25.1211 11.1153 25.6973 10.0936 26.5193C8.88303 26.4749 7.66485 26.6696 6.45996 26.4123C9.76984 24.41 13.074 22.3981 16.3962 20.417C16.9042 20.1144 17.021 19.9381 16.6564 19.3686C15.7667 17.9763 16.2177 16.212 17.6534 15.3477C18.092 15.0837 18.2525 14.7956 18.1585 14.3417C18.0512 13.8224 17.6163 14.0604 17.3362 14.0575C15.1733 14.0353 15.235 14.281 14.7764 11.9415C14.4299 10.1753 14.0396 8.41773 13.6769 6.65441C13.4272 5.43839 13.7444 5.05489 14.9806 5.04622C15.8288 5.04044 16.2529 4.60908 16.2529 3.75215C16.2529 2.85122 16.2529 1.94932 16.2567 1.04839C16.2605 0.419183 16.5491 -0.0076765 17.191 -0.00189511C17.8252 0.00388627 18.1205 0.426891 18.1224 1.05706C18.1262 2.15553 18.1528 3.25495 18.112 4.35149C18.0911 4.91229 18.2715 5.12523 18.8136 5.04911C19.0045 5.02213 19.2048 5.02117 19.3947 5.04911C19.9701 5.13391 20.1685 4.91807 20.1419 4.31295C20.0935 3.24532 20.1277 2.17287 20.1296 1.10235C20.1296 0.441345 20.4125 -0.0163486 21.1009 -0.000931549C21.7447 0.0135219 22.001 0.463507 22.0001 1.08501C21.9991 2.18347 22.0229 3.2829 21.9906 4.3804C21.9754 4.89012 22.1264 5.04911 22.6429 5.05778C24.8153 5.09344 24.8703 5.18016 24.4279 7.34914C24.0452 9.22327 23.6427 11.0926 23.2781 12.9706C23.1299 13.7328 22.7473 14.1211 21.9649 14.044C21.9374 14.0411 21.9099 14.043 21.8814 14.044C21.3297 14.0584 20.6547 13.8802 20.2587 14.1394C19.802 14.439 20.123 15.1781 20.0812 15.7225C20.0337 16.345 19.7612 16.7343 19.1421 16.8162C18.4538 16.9077 18.0664 17.2748 18.1281 17.9936C18.1756 18.5409 18.5345 18.8734 19.0662 18.8907C19.7223 18.911 20.0745 18.5294 20.1562 17.8664C20.2321 17.2459 20.5834 16.8499 21.213 16.9366C21.8909 17.0291 22.0903 17.5398 22.0153 18.1873C21.9697 18.5843 21.9146 19.0073 21.6545 19.2954C21.0762 19.9371 21.4608 20.1732 22.001 20.496C25.2739 22.4511 28.5296 24.436 31.792 26.4104L31.7911 26.4123Z" fill="#E9892C"/>
</g>
<defs>
<clipPath id="clip0_1397_3801">
<rect width="38.2459" height="45.6267" fill="white"/>
</clipPath>
</defs>
</svg>
