<svg width="43" height="45" viewBox="0 0 43 45" fill="none" xmlns="http://www.w3.org/2000/svg">
<path d="M14.7393 28.1289C14.788 29.5955 14.2439 30.8893 13.6444 32.1721C13.1513 33.2283 12.6958 34.3021 12.2004 35.3572C11.6696 36.4881 11.0679 37.5861 10.5537 38.727C9.81123 40.3729 9.02443 41.9979 8.25425 43.6305C8.17667 43.7956 8.09467 43.9595 7.99826 44.1135C7.70016 44.591 7.04745 44.5855 6.78814 44.0794C5.83732 42.2278 4.94746 40.3476 4.09971 38.4476C3.49797 37.0998 2.91064 35.7422 2.25904 34.422C1.55867 33.0028 0.799572 31.6088 0.314193 30.1049C-0.234352 28.404 -0.0326649 26.7262 0.671025 25.0847C2.27898 21.3309 7.45304 19.6575 11.1843 21.8821C13.6322 23.3409 14.5531 25.494 14.7404 28.1289H14.7393ZM10.5238 28.0827C10.5216 26.4039 9.11862 25.0209 7.42644 25.0319C5.66667 25.0429 4.24931 26.3907 4.23491 28.0662C4.21939 29.8694 5.60572 31.2579 7.43531 31.2711C9.14743 31.2832 10.5249 29.8606 10.5238 28.0827Z" fill="#285D80"/>
<path d="M36.7234 0.00110018C39.2987 0.154026 42.078 2.07055 42.4183 4.97833C42.5656 6.23365 42.4404 7.40094 41.8885 8.54403C41.4054 9.5452 41.0075 10.5871 40.5388 11.5948C40.2961 12.1163 39.947 12.5839 39.7077 13.1153C38.8909 14.9284 38.1008 16.7547 37.1888 18.5238C37.0647 18.7636 36.9461 18.9914 36.6391 18.9837C36.3499 18.976 36.1992 18.779 36.0684 18.5359C34.5159 15.6611 33.2492 12.6543 31.8973 9.68602C31.4518 8.70906 31.0273 7.7266 30.7204 6.70012C30.573 6.20724 30.5918 5.66815 30.7071 5.17857C31.2656 2.80767 32.5489 1.06388 35.0046 0.302551C35.5908 0.12102 36.1582 0.00990166 36.7234 0V0.00110018ZM39.1037 6.01361C39.1403 4.41504 37.959 3.46008 36.6292 3.44358C35.1852 3.42487 34.0826 4.55476 34.0903 5.9762C34.0981 7.43505 35.1531 8.379 36.7001 8.42851C38.0022 8.47032 39.1081 7.31073 39.1026 6.01361H39.1037Z" fill="#E9892C"/>
<path d="M35.5512 42.1242C35.3561 42.1572 35.3052 42.0538 35.2619 41.9526C34.8752 41.0669 34.4929 40.1802 34.1061 39.2945C34.0208 39.0987 34.0407 38.9601 34.2679 38.8809C34.853 38.6751 35.2808 38.2328 35.7462 37.8555C35.9279 37.7081 36.0399 37.7026 36.2172 37.7994C37.0361 38.2461 37.8562 38.6905 38.6795 39.1295C38.8646 39.2285 38.9887 39.3165 38.8314 39.5432C38.0146 40.7193 36.9131 41.54 35.6077 42.111C35.5755 42.1253 35.5368 42.1275 35.5523 42.1242H35.5512Z" fill="#285D80"/>
<path d="M32.7297 19.8813C32.8217 20.252 32.7053 20.4017 32.2986 20.4292C31.4764 20.4842 30.6552 20.5799 29.8418 20.7119C29.5005 20.768 29.424 20.6404 29.3797 20.3687C29.2312 19.4533 29.0816 18.5391 28.9198 17.627C28.8788 17.3971 28.9863 17.341 29.1769 17.3156C30.1765 17.1869 31.1749 17.0571 32.1734 16.9218C32.4582 16.8833 32.5092 17.0417 32.5258 17.2738C32.5879 18.1452 32.6599 19.0165 32.7286 19.8802L32.7297 19.8813Z" fill="#E9892C"/>
<path d="M17.8265 42.6141C17.8842 42.151 17.575 41.4061 17.9529 41.0915C18.2809 40.8175 19.0056 41.0101 19.5553 40.9969C19.9775 40.9859 20.4008 40.9892 20.823 40.9595C21.058 40.943 21.1544 40.9991 21.1511 41.2499C21.1366 42.1543 21.4093 43.0344 21.376 43.9454C21.3638 44.2864 21.2951 44.447 20.9327 44.4459C20.013 44.4426 19.0932 44.4492 18.1734 44.4668C17.9163 44.4723 17.8121 44.3997 17.8221 44.1302C17.8398 43.656 17.8276 43.1807 17.8276 42.6152L17.8265 42.6141Z" fill="#285D80"/>
<path d="M27.4218 20.9419C27.465 21.0838 27.2866 21.1223 27.1592 21.1598C26.2992 21.415 25.4249 21.6284 24.6037 21.9981C24.35 22.1125 24.3189 21.898 24.2602 21.7682C23.8712 20.9045 23.5011 20.0321 23.111 19.1684C23.0279 18.9847 23.0811 18.8956 23.2451 18.834C24.2912 18.4434 25.3329 18.0396 26.4411 17.8416C26.6239 17.8086 26.6638 17.8603 26.6993 18.0077C26.9309 18.9616 27.168 19.9143 27.4218 20.9419Z" fill="#E9892C"/>
<path d="M21.2458 24.5814C20.3482 24.5098 19.5437 24.4339 18.7391 24.3888C18.4432 24.3723 18.3657 24.2722 18.41 23.9884C18.6239 22.5944 19.3098 21.4678 20.3537 20.5349C20.5454 20.3632 20.6851 20.3753 20.858 20.5657C21.4708 21.2401 22.0382 21.9497 22.5945 22.6703C22.7662 22.8926 22.7729 23.0378 22.5546 23.2127C22.262 23.4471 22.0304 23.7485 21.9384 24.1017C21.8221 24.5494 21.5816 24.687 21.2469 24.5824L21.2458 24.5814Z" fill="#E9892C"/>
<path d="M26.2365 27.705C27.2095 27.9635 28.0772 28.199 28.9482 28.4212C29.1521 28.4729 29.2219 28.5675 29.1743 28.77C28.9582 29.6919 28.7421 30.6139 28.536 31.538C28.4861 31.7603 28.4019 31.8417 28.1592 31.7779C27.2715 31.5446 26.3794 31.3323 25.4896 31.1068C25.2945 31.0572 25.105 31.0319 25.1948 30.7173C25.4397 29.8581 25.6458 28.9889 25.8653 28.1231C25.9284 27.8766 26.0248 27.6753 26.2365 27.7039V27.705Z" fill="#E9892C"/>
<path d="M22.0543 25.8477C22.123 25.9049 22.2095 25.9676 22.2837 26.0413C22.6915 26.4451 23.1625 26.7564 23.7077 26.9401C23.9726 27.0293 23.9859 27.1547 23.8895 27.3879C23.5437 28.2285 23.2135 29.0756 22.8888 29.9249C22.8179 30.1087 22.7658 30.1912 22.5408 30.101C21.3019 29.6015 20.2524 28.8391 19.3393 27.8819C19.2119 27.7488 19.2263 27.6267 19.377 27.5155C20.1882 26.9181 21.0537 26.4044 21.9214 25.8939C21.9513 25.8763 21.989 25.8708 22.0554 25.8477H22.0543Z" fill="#E9892C"/>
<path d="M24.0557 44.1324C23.6047 44.2798 23.4739 43.9938 23.4761 43.4646C23.4783 42.7176 23.4218 41.9694 23.3697 41.2224C23.3509 40.9551 23.3997 40.8352 23.7066 40.8208C24.6242 40.779 25.5418 40.7053 26.4582 40.636C26.6765 40.6195 26.7862 40.6602 26.8095 40.9122C26.8915 41.8022 26.9968 42.689 27.1021 43.5768C27.132 43.8288 27.0566 43.9267 26.7829 43.9399C25.9196 43.9839 25.0586 44.0576 24.0568 44.1302L24.0557 44.1324Z" fill="#285D80"/>
<path d="M29.6403 43.6555C29.4109 43.7094 29.3665 43.5752 29.3388 43.386C29.2081 42.486 29.0695 41.5872 28.9244 40.6883C28.8823 40.4298 28.982 40.3341 29.2347 40.2923C30.0846 40.1525 30.9346 40.0095 31.7746 39.8236C32.0206 39.7686 32.117 39.8181 32.1724 40.0238C32.4196 40.9359 32.6501 41.8523 32.9149 42.7589C32.9836 42.9954 32.9094 43.0185 32.7132 43.0713C31.7026 43.3409 30.6709 43.4993 29.638 43.6555H29.6403Z" fill="#285D80"/>
<path d="M39.2659 35.925C39.2936 36.1263 39.1939 36.1945 38.9867 36.2165C38.0935 36.3133 37.2025 36.43 36.3104 36.5367C36.132 36.5576 36.0034 36.5389 35.9658 36.3056C35.8804 35.7797 35.6422 35.3188 35.2543 34.9436C34.9695 34.6686 34.9762 34.3946 35.2854 34.1669C35.9979 33.6432 36.5653 32.971 37.1981 32.3659C37.3466 32.2239 37.4396 32.2041 37.6059 32.3527C38.2708 32.9468 39.2393 34.9986 39.2659 35.9239V35.925Z" fill="#285D80"/>
<path d="M35.072 30.5951C35.02 30.6886 34.9834 30.7502 34.949 30.8151C34.5457 31.5918 34.1412 32.3686 33.7411 33.1475C33.6159 33.3906 33.4929 33.504 33.1915 33.3433C32.4789 32.9627 31.7243 32.6722 30.9485 32.439C30.8034 32.395 30.5984 32.3851 30.7424 32.1243C31.1901 31.319 31.3198 30.408 31.5735 29.54C31.67 29.211 31.7619 29.0713 32.1287 29.2088C33.0685 29.562 33.9661 30.0065 34.8704 30.4377C34.9446 30.473 35.0044 30.5412 35.0709 30.5951H35.072Z" fill="#E9892C"/>
<path d="M12.0726 42.7425C12.0726 42.2859 12.0826 41.8282 12.0682 41.3716C12.0615 41.1362 12.1402 41.0515 12.3829 41.0548C13.285 41.0658 14.1881 41.0669 15.0902 41.0548C15.3439 41.0515 15.3971 41.1582 15.3949 41.3815C15.386 42.2947 15.3838 43.2089 15.396 44.1221C15.3993 44.3817 15.3196 44.4709 15.0525 44.4676C14.1682 44.4544 13.285 44.4533 12.4006 44.4676C12.1214 44.472 12.0593 44.3608 12.0682 44.1122C12.0826 43.6556 12.0726 43.199 12.0726 42.7414V42.7425Z" fill="#285D80"/>
</svg>
