<svg width="20" height="20" viewBox="0 0 20 20" fill="none" xmlns="http://www.w3.org/2000/svg">
<path d="M9.625 0C7.72136 0 5.86046 0.564497 4.27764 1.62211C2.69482 2.67971 1.46116 4.18293 0.732664 5.94167C0.00417035 7.70041 -0.186437 9.63568 0.184946 11.5027C0.556329 13.3698 1.47302 15.0848 2.8191 16.4309C4.16518 17.777 5.88019 18.6937 7.74726 19.0651C9.61433 19.4364 11.5496 19.2458 13.3083 18.5173C15.0671 17.7888 16.5703 16.5552 17.6279 14.9724C18.6855 13.3895 19.25 11.5286 19.25 9.625C19.25 7.07229 18.2359 4.62413 16.4309 2.8191C14.6259 1.01406 12.1777 0 9.625 0ZM8.25 13.4681L4.8125 10.0306L5.90563 8.9375L8.25 11.2819L13.3444 6.1875L14.4416 7.27788L8.25 13.4681Z" fill="#E9892C"/>
</svg>
