<svg width="52" height="52" viewBox="0 0 52 52" fill="none" xmlns="http://www.w3.org/2000/svg">
<path d="M43.334 10.833V23.1289C42.3952 22.6595 41.3383 22.2987 40.1641 22.0459C38.9899 21.7931 37.8797 21.667 36.834 21.667C33.9137 21.667 31.2913 22.3861 28.9678 23.8252L27.7305 18.4531L31.6201 14.5625C32.1999 14.0025 32.2 13.0323 31.6201 12.4424C31.4817 12.3023 31.3165 12.1912 31.1348 12.1152C30.9528 12.0392 30.7568 12 30.5596 12C30.3625 12.0001 30.1672 12.0393 29.9854 12.1152C29.8036 12.1912 29.6385 12.3023 29.5 12.4424L25.6104 16.333L16.4102 14.2129L15 15.623L22.4297 19.5029L18.54 23.4033L16.0596 23.0527L15 24.1133L18.1797 25.873L19.9502 29.0625L21 28.0029L20.6602 25.5029L24.5498 21.6328L26 26C26.9116 25.0884 27.8866 24.473 28.7295 23.9756C27.808 24.5712 26.9344 25.2824 26.1084 26.1084C23.1475 29.0694 21.6671 32.6443 21.667 36.833C21.667 39.0719 22.0921 41.0948 22.9414 42.9004C23.7907 44.7058 24.8646 46.2763 26.1631 47.6123C26.1271 47.6123 26.1003 47.622 26.083 47.6406C26.0657 47.6594 26.0376 47.6684 26 47.667C20.9808 46.4031 16.837 43.5226 13.5684 39.0264C10.2996 34.5298 8.66555 29.5372 8.66699 24.0498V10.833L26 4.33301L43.334 10.833ZM36.834 26C39.8281 26.0001 42.383 27.0569 44.499 29.1699C46.615 31.2831 47.6712 33.8374 47.667 36.833C47.6627 39.8288 46.606 42.3844 44.4971 44.499C42.3883 46.6136 39.8339 47.6698 36.834 47.667C33.8368 47.667 31.2817 46.6103 29.1699 44.4971C27.0582 42.3839 26.0014 39.8288 26 36.833C25.9986 33.8375 27.0554 31.283 29.1699 29.1699C31.2846 27.0567 33.8397 26 36.834 26ZM36.834 39C35.859 39 34.9194 39.1261 34.0166 39.3789C33.1139 39.6317 32.2651 39.9935 31.4707 40.4629C32.0485 41.3295 32.8073 42.0245 33.7461 42.5488C34.685 43.0732 35.7145 43.3345 36.834 43.333C37.9532 43.333 38.9822 43.0711 39.9209 42.5469C40.8597 42.0226 41.6185 41.328 42.1963 40.4629C41.4018 39.9934 40.5532 39.6317 39.6504 39.3789C38.7477 39.1262 37.8089 39 36.834 39ZM36.834 30.333C35.9298 30.3316 35.162 30.6481 34.5322 31.2822C33.9026 31.9162 33.587 32.6833 33.584 33.583C33.5811 34.4828 33.8968 35.2512 34.5322 35.8867C35.1678 36.5223 35.9355 36.8373 36.834 36.833C37.7322 36.8286 38.4998 36.5134 39.1367 35.8867C39.7679 35.2541 40.084 34.4858 40.084 33.583C40.0839 32.6804 39.7679 31.9134 39.1367 31.2822C38.5056 30.6512 37.738 30.3345 36.834 30.333Z" fill="#285D80"/>
<path fill-rule="evenodd" clip-rule="evenodd" d="M36.834 26C39.8281 26.0001 42.383 27.0569 44.499 29.1699C46.6151 31.2831 47.6712 33.8374 47.667 36.833C47.6627 39.8288 46.606 42.3844 44.4971 44.499C42.3883 46.6136 39.8339 47.6698 36.834 47.667C33.8368 47.667 31.2817 46.6103 29.1699 44.4971C27.0582 42.3839 26.0014 39.8288 26 36.833C25.9986 33.8375 27.0554 31.283 29.1699 29.1699C31.2846 27.0567 33.8397 26 36.834 26ZM36.834 39C35.859 39 34.9194 39.1261 34.0166 39.3789C33.1139 39.6317 32.2651 39.9935 31.4707 40.4629C32.0485 41.3295 32.8073 42.0245 33.7461 42.5488C34.685 43.0732 35.7145 43.3345 36.834 43.333C37.9532 43.333 38.9822 43.0711 39.9209 42.5469C40.8597 42.0226 41.6185 41.328 42.1963 40.4629C41.4018 39.9934 40.5532 39.6317 39.6504 39.3789C38.7477 39.1262 37.8089 39 36.834 39ZM36.834 30.333C35.9298 30.3316 35.162 30.6481 34.5322 31.2822C33.9026 31.9162 33.587 32.6833 33.584 33.583C33.5811 34.4828 33.8968 35.2512 34.5322 35.8867C35.1678 36.5223 35.9355 36.8373 36.834 36.833C37.7322 36.8286 38.4998 36.5134 39.1367 35.8867C39.7679 35.2541 40.084 34.4858 40.084 33.583C40.0839 32.6804 39.7679 31.9134 39.1367 31.2822C38.5056 30.6512 37.738 30.3345 36.834 30.333Z" fill="#E9892C"/>
</svg>
