<svg width="85" height="85" viewBox="0 0 85 85" fill="none" xmlns="http://www.w3.org/2000/svg">
<g clip-path="url(#clip0_1_234)">
<path fill-rule="evenodd" clip-rule="evenodd" d="M14.4667 13.8898C17.963 12.6695 21.5609 12.4541 25.1776 13.2228C25.8846 13.3733 26.4932 13.953 27.1845 14.2413C28.7019 14.8739 30.2731 15.3791 31.7655 16.0646C32.8603 16.5674 33.8663 17.2746 34.911 17.8927C34.8954 17.9888 34.8778 18.0857 34.8622 18.1818C33.88 18.7517 32.8442 19.2445 31.9276 19.9122C30.975 20.6056 30.2679 20.5178 29.2479 19.9044C19.6305 14.1122 7.26171 19.8292 5.03701 31.0392C3.22551 40.1707 9.09297 49.1538 18.0097 50.8995C25.6218 52.3889 33.161 48.2261 36.1864 40.8673C36.3286 40.5198 36.3913 40.0274 37.0604 40.2931V42.3126C37.0605 44.5817 37.0937 46.8508 37.039 49.1183C37.0233 49.7541 36.8318 50.4192 36.58 51.007C36.1748 51.9565 35.6166 52.8392 35.1942 53.7823C34.9471 54.333 34.6123 54.4727 34.0478 54.4679C30.6595 54.4407 27.2696 54.4516 23.8798 54.4532C23.6264 54.4532 23.3741 54.4769 23.08 54.4913L23.0829 54.4933V62.4298C23.2972 62.4794 23.5118 62.5273 23.7167 62.5753C23.7496 62.6394 23.7929 62.6851 23.7929 62.7316C23.8038 66.0143 23.8138 69.2955 23.8153 72.5782C23.8153 72.7592 23.7992 72.9738 23.7069 73.1163C22.8544 74.4215 21.9851 75.7141 21.0497 77.1153C19.4823 74.7004 17.9428 72.396 16.4677 70.0499C11.5885 62.286 6.92478 54.3952 3.23135 45.9474C2.01591 43.1689 0.930669 40.3392 0.337793 37.3478C-0.456878 33.3394 0.19636 29.4686 1.77627 25.7853C4.28704 19.9367 8.55662 15.9541 14.4667 13.8898ZM48.0731 55.8253C48.8203 55.8221 48.9958 56.0669 48.9677 56.7882C48.9177 58.0564 48.953 59.3279 48.953 60.6368C48.6781 60.6808 48.4578 60.7169 48.1767 60.7609V77.1153H25.1249V60.8048C24.8202 60.7397 24.5795 60.6896 24.2577 60.6212C24.2577 59.1672 24.2477 57.7061 24.2743 56.2472C24.2778 56.1121 24.492 55.9376 24.6435 55.8595C24.7701 55.7945 24.9501 55.8439 25.1063 55.8439C32.7619 55.8439 40.4175 55.8546 48.0731 55.8253ZM74.5995 60.6378C74.3953 60.6639 74.1821 60.6914 73.9159 60.7257V77.1153H51.5478V60.753C51.2786 60.709 51.0653 60.6731 50.8007 60.629V55.8253H74.5995V60.6378ZM67.9345 73.132C67.4896 73.1368 67.2355 73.372 67.2265 73.8849C67.2174 74.4007 67.4529 74.636 67.911 74.6427C68.3134 74.6492 68.7177 74.6427 69.12 74.6427V74.6407C69.5482 74.6407 69.977 74.6345 70.4052 74.6427C70.8742 74.6525 71.1228 74.3927 71.1259 73.9093C71.1274 73.4357 70.8925 73.1369 70.4296 73.132C69.5974 73.1222 68.7666 73.1205 67.9345 73.132ZM44.7313 73.1632C43.7828 73.0786 42.8186 73.0789 41.87 73.1652C41.6544 73.1847 41.3462 73.6582 41.3241 73.9415C41.3085 74.1466 41.6676 74.5209 41.913 74.5782C42.3552 74.6824 42.8369 74.6076 43.3026 74.6075L43.3017 74.6095V74.6144C43.7673 74.6144 44.2491 74.6893 44.6913 74.5851C44.9303 74.5278 45.2747 74.1522 45.2626 73.9405C45.2438 73.6589 44.9424 73.1811 44.7313 73.1632ZM61.7851 38.5587C61.5468 38.607 61.3051 38.6573 60.9823 38.7228V39.6476C60.9823 44.2964 60.9731 48.947 60.995 53.5958C60.9981 54.1818 60.8769 54.4095 60.2265 54.4064C52.9928 54.3845 45.757 54.3923 38.5233 54.3907C38.3197 54.3907 38.1144 54.3612 37.8466 54.3409V38.7169C37.5675 38.6686 37.3461 38.6295 37.0702 38.5812V34.0626H61.7851V38.5587ZM57.3729 50.545C56.956 50.5544 56.539 50.5466 56.122 50.545L56.12 50.546C55.6765 50.546 55.2329 50.5528 54.7909 50.545C54.2939 50.5357 54.0759 50.7926 54.079 51.2618C54.0822 51.7325 54.308 51.9774 54.8017 51.9728C55.6623 51.965 56.5231 51.9634 57.3837 51.9728C57.8838 51.9774 58.0913 51.7279 58.0897 51.254C58.0882 50.777 57.8652 50.5341 57.3729 50.545Z" fill="white"/>
<path fill-rule="evenodd" clip-rule="evenodd" d="M68.6299 2.36618C69.0839 2.35661 69.5572 2.44578 69.9942 2.58298C71.5429 3.07275 72.2162 4.45936 71.6651 6.0322C71.12 7.58601 70.0654 8.79276 68.8223 9.73239C66.8766 11.2033 64.8806 12.629 62.7881 13.8574C53.5784 19.267 44.3517 24.6449 35.0694 29.9189C33.4109 30.8601 31.4978 31.4044 29.6416 31.875C25.8274 32.8385 21.9739 33.6359 18.1319 34.4814C17.2965 34.6648 16.5538 34.3778 15.9346 33.7812C15.0205 32.9006 15.0751 31.6133 16.0664 30.8125C16.3675 30.5701 16.7119 30.3815 17.1426 30.0976C16.3736 29.4643 15.6443 28.858 14.9092 28.2597C13.9797 27.5037 13.0362 26.7653 12.1114 26.0029C11.1833 25.2371 11.219 24.5048 12.2305 23.873C13.089 23.3371 13.9301 22.7366 14.8565 22.3681C15.454 22.1305 16.2278 22.0864 16.8516 22.249C19.7887 23.0115 22.7001 23.8835 25.628 24.6924C25.8935 24.7657 26.2549 24.7632 26.4834 24.6308C30.5741 22.2825 34.6522 19.9097 38.7305 17.539C38.8107 17.4928 38.8773 17.4214 39.0469 17.2812C37.6989 16.7389 36.445 16.2294 35.1866 15.7285C32.5275 14.666 29.8605 13.6264 27.2168 12.5273C26.8401 12.371 26.3505 11.9623 26.3164 11.6289C26.2856 11.3114 26.7178 10.8308 27.0606 10.6074C28.1029 9.92621 29.167 9.26089 30.2881 8.73923C30.9088 8.45051 31.6843 8.27053 32.3467 8.36618C38.0481 9.19255 43.7373 10.1033 49.4356 10.9472C49.8664 11.011 50.3963 10.8565 50.7901 10.6347C54.5548 8.50344 58.275 6.28297 62.0645 4.20114C64.0935 3.08453 66.2983 2.41252 68.6299 2.36618ZM47.5518 29.9814H42.3389C41.8793 29.1054 42.1227 28.6476 42.9063 28.2529C44.1931 27.604 45.4194 26.829 46.8194 26.0215C47.0771 27.4075 47.3046 28.6459 47.5518 29.9814Z" fill="#E69C24"/>
</g>
<defs>
<clipPath id="clip0_1_234">
<rect width="84.212" height="84.212" fill="white"/>
</clipPath>
</defs>
</svg>
