<svg width="85" height="85" viewBox="0 0 85 85" fill="none" xmlns="http://www.w3.org/2000/svg">
<path d="M56.0128 36.8726C55.1888 37.0764 54.3269 37.1834 53.4405 37.1834C47.4996 37.1834 42.6656 32.3477 42.6656 26.4036C42.6656 26.3098 42.6673 26.2144 42.6689 26.1207C42.4764 26.1223 42.2889 26.124 42.1064 26.124C37.9715 26.124 33.9138 25.7851 30.1127 25.1421C28.8331 29.8889 28.1128 35.2951 28.0272 40.9548H56.1857C56.1657 39.5782 56.1082 38.2131 56.0128 36.8726Z" fill="white"/>
<path d="M37.3414 63.0569C38.4714 61.6161 39.1458 59.8036 39.1458 57.8364C39.1458 53.1652 35.3431 49.366 30.6704 49.366C25.9993 49.366 22.1982 53.1654 22.1982 57.8364C22.1982 59.769 22.8479 61.552 23.94 62.978C24.7525 61.9335 25.7904 61.1062 26.9664 60.547C25.9927 59.598 25.3874 58.274 25.3874 56.8101C25.3874 53.9334 27.7295 51.5929 30.6096 51.5929C33.4879 51.5929 35.8317 53.9334 35.8317 56.8101C35.8317 58.274 35.2264 59.598 34.2528 60.547C35.4597 61.1177 36.5189 61.973 37.3414 63.0569Z" fill="white"/>
<path d="M56.299 25.3819C56.299 23.7733 54.9897 22.4641 53.3796 22.4641C51.771 22.4641 50.4617 23.7734 50.4617 25.3819C50.4617 26.9888 51.771 28.2965 53.3796 28.2965C54.9897 28.2963 56.299 26.9886 56.299 25.3819Z" fill="#E69C24"/>
<path d="M60.1099 31.6254C61.2383 30.1846 61.9126 28.3721 61.9126 26.4033C61.9126 21.7321 58.1115 17.9312 53.4405 17.9312C48.7695 17.9312 44.9684 21.7322 44.9684 26.4033C44.9684 28.3342 45.618 30.1172 46.7085 31.5431C47.5226 30.5003 48.5605 29.673 49.7365 29.1155C48.7627 28.1681 48.1576 26.8441 48.1576 25.3818C48.1576 22.5035 50.5013 20.1597 53.3797 20.1597C56.2597 20.1597 58.6018 22.5035 58.6018 25.3818C58.6018 26.8441 57.9965 28.1681 57.0229 29.1155C58.2284 29.686 59.2892 30.5413 60.1099 31.6254Z" fill="white"/>
<path d="M2.30438 42.1059C2.30438 20.1583 20.1583 2.30437 42.106 2.30437C48.3591 2.30437 54.5547 3.78459 60.0942 6.59357C60.0026 6.94509 59.9535 7.31358 59.9535 7.69343C59.9535 10.0972 61.909 12.0528 64.3127 12.0528C66.7165 12.0528 68.672 10.0972 68.672 7.69343C68.672 5.28969 66.7165 3.3342 64.3127 3.3342C63.1185 3.3342 62.0352 3.81722 61.2472 4.5977C61.2468 4.59754 61.2465 4.59737 61.2463 4.59721C55.3563 1.58717 48.7607 0 42.106 0C30.8592 0 20.2865 4.38 12.3342 12.3342C4.38001 20.2865 0 30.8591 0 42.1059C0 50.6932 2.57234 58.9598 7.44098 66.0109C7.66296 66.335 8.02321 66.5092 8.3884 66.5092C8.61533 66.5092 8.84242 66.4418 9.04298 66.3052C9.56605 65.9433 9.69756 65.2263 9.33583 64.7032C4.73532 58.0371 2.30438 50.2229 2.30438 42.1059Z" fill="#E69C24"/>
<path d="M65.5441 19.4413C61.105 14.8525 55.3334 11.5597 48.8596 10.1929C50.3202 11.5679 51.6788 13.3969 52.8909 15.6436C53.0735 15.6337 53.2561 15.6287 53.4402 15.6287C57.2643 15.6287 60.6295 17.6304 62.5407 20.6419C63.5967 20.2703 64.6017 19.8673 65.5441 19.4413Z" fill="white"/>
<path d="M42.1063 58.0931C46.2413 58.0931 50.2989 58.4319 54.1015 59.0733C55.3812 54.3265 56.0998 48.9185 56.1854 43.2573H28.0271C28.0485 44.6242 28.1077 45.9925 28.2048 47.3461C28.9959 47.1602 29.8216 47.0615 30.6703 47.0615C36.6128 47.0615 41.4484 51.8955 41.4484 57.8364C41.4484 57.9219 41.4468 58.0091 41.4451 58.0946C41.6507 58.0931 41.8712 58.0931 42.1063 58.0931Z" fill="white"/>
<path d="M33.5273 56.8099C33.5273 55.2046 32.2182 53.897 30.6096 53.897C28.9993 53.897 27.6902 55.2046 27.6902 56.8099C27.6902 58.4202 28.9993 59.7293 30.6096 59.7293C32.218 59.7295 33.5273 58.4202 33.5273 56.8099Z" fill="#E69C24"/>
<path d="M25.5911 64.6161C27.0072 65.6804 28.7671 66.3119 30.6702 66.3119C32.5403 66.3119 34.2689 65.7033 35.6719 64.6738C34.5273 63.0258 32.6588 62.0322 30.6093 62.0322C28.5896 62.0321 26.7358 63.0042 25.5911 64.6161Z" fill="#E69C24"/>
<path d="M53.3795 30.5996C51.3631 30.5996 49.5094 31.5699 48.3596 33.1818C49.7757 34.2476 51.5356 34.8793 53.4404 34.8793C55.3088 34.8793 57.0374 34.2707 58.4389 33.2426C57.2958 31.593 55.4273 30.5996 53.3795 30.5996Z" fill="#E69C24"/>
<path d="M65.5457 64.771C62.6953 63.4815 59.3613 62.4502 55.7281 61.7134C55.2018 63.3927 54.6014 64.9815 53.9336 66.4619C52.4747 69.6955 50.7626 72.2382 48.8793 74.0195C55.3465 72.651 61.1113 69.3582 65.5457 64.771Z" fill="white"/>
<path d="M41.9535 74.7266C42.0044 74.7282 42.0555 74.7282 42.1064 74.7282C42.1623 74.7282 42.2167 74.7282 42.2725 74.7266C45.7579 74.6229 49.2331 71.2775 51.8351 65.5142C52.4305 64.1968 52.9684 62.7871 53.447 61.297V61.2954C49.8533 60.7066 46.0209 60.3958 42.1064 60.3958C41.7478 60.3958 41.4304 60.3974 41.1392 60.4007C40.2297 64.1195 37.3843 67.0867 33.7378 68.1706C36.1442 72.34 39.0258 74.6477 41.9535 74.7266Z" fill="white"/>
<path d="M74.7076 43.2573H58.4902C58.4064 49.0468 57.6728 54.5963 56.3701 59.4977C60.3866 60.325 64.0578 61.5026 67.1565 62.9812C71.6532 57.5964 74.4477 50.7426 74.7076 43.2573Z" fill="white"/>
<path d="M76.771 18.2045C76.4091 17.6814 75.6921 17.5516 75.169 17.9133C74.646 18.2752 74.5144 18.9923 74.8762 19.5153C79.4765 26.1684 81.9076 33.9793 81.9076 42.1062C81.9076 64.0538 64.0537 81.9077 42.106 81.9077C35.6421 81.9077 29.2606 80.3321 23.583 77.3403C23.6853 76.97 23.7412 76.5808 23.7412 76.1783C23.7412 73.7746 21.7857 71.8189 19.382 71.8189C16.9782 71.8189 15.0227 73.7746 15.0227 76.1783C15.0227 78.5846 16.9782 80.5422 19.382 80.5422C20.5528 80.5422 21.6166 80.0768 22.4006 79.3222C28.4366 82.5246 35.226 84.2121 42.106 84.2121C53.3545 84.2121 63.9288 79.8321 71.8796 71.8797C79.832 63.9289 84.212 53.3548 84.212 42.1062C84.212 33.5106 81.638 25.2457 76.771 18.2045Z" fill="#E69C24"/>
<path d="M42.2611 9.49042C42.2085 9.48877 42.1575 9.48877 42.1065 9.48877C42.0507 9.48877 41.9963 9.48877 41.9404 9.49042C38.4584 9.59408 34.9815 12.9395 32.3795 18.7011C31.7841 20.0202 31.2462 21.4315 30.7676 22.9216C34.3613 23.5105 38.1937 23.8213 42.1065 23.8213C42.3862 23.8213 42.6756 23.8196 42.9816 23.8147C43.906 20.0744 46.7909 17.0991 50.4785 16.0431C48.0704 11.8754 45.1904 9.56936 42.2611 9.49042Z" fill="white"/>
<path d="M67.1543 21.2319C66.0391 21.7649 64.8384 22.2649 63.567 22.722C63.9864 23.8718 64.215 25.1101 64.215 26.403C64.215 30.6152 61.789 34.2698 58.261 36.043C58.3894 37.6514 58.4667 39.2946 58.4896 40.9543H74.7069C74.4472 33.4674 71.6527 26.6169 67.1543 21.2319Z" fill="white"/>
<path d="M18.6714 19.4427C21.5201 20.7322 24.8525 21.7652 28.484 22.5036C29.012 20.8244 29.6107 19.2339 30.2801 17.7535C31.7391 14.5216 33.4512 11.9772 35.3328 10.1975C28.8689 11.566 23.1041 14.8572 18.6714 19.4427Z" fill="white"/>
<path d="M9.5105 40.9543H25.723C25.8069 35.1664 26.5404 29.6187 27.8432 24.7172C23.8283 23.89 20.1588 22.714 17.0617 21.2319C12.5649 26.6169 9.77039 33.4674 9.5105 40.9543Z" fill="white"/>
<path d="M17.0599 62.9797C18.1487 62.4616 19.3148 61.9748 20.5469 61.5273C20.1258 60.3761 19.8956 59.1327 19.8956 57.8365C19.8956 53.5847 22.3694 49.9005 25.9549 48.1489C25.825 46.532 25.7461 44.8939 25.723 43.2573H9.5105C9.77039 50.7426 12.5649 57.5948 17.0599 62.9797Z" fill="white"/>
<path d="M35.3544 74.024C33.9004 72.6522 32.5451 70.8315 31.3363 68.5946C31.116 68.6094 30.8938 68.616 30.6702 68.616C26.8477 68.616 23.4858 66.616 21.5714 63.606C20.5532 63.9679 19.5846 64.3593 18.6699 64.7721C23.1093 69.3627 28.8807 72.6572 35.3544 74.024Z" fill="white"/>
</svg>
