<svg width="85" height="85" viewBox="0 0 85 85" fill="none" xmlns="http://www.w3.org/2000/svg">
<path d="M51.7364 41.6367H51.7734C51.7868 41.6367 51.7868 41.6367 51.7991 41.6496C55.1902 42.3345 58.6929 42.0898 61.967 40.9393C62.0051 40.9264 62.0555 40.9135 62.1058 40.9006C66.0617 39.4712 69.4942 36.7878 71.9263 33.2232C74.3585 29.6586 75.6698 25.3897 75.678 21.0094C75.678 9.41877 66.678 0 55.593 0C44.5315 0 35.5204 9.41877 35.5204 21.0094C35.5197 25.8819 37.1364 30.6033 40.0939 34.3661C43.0514 38.1289 47.1661 40.6994 51.7342 41.6379L51.7364 41.6367ZM53.7218 5.81465C53.7157 5.55148 53.7599 5.28968 53.8519 5.04467C53.9439 4.79966 54.0818 4.57639 54.2574 4.38799C54.4331 4.1996 54.643 4.04989 54.8748 3.94767C55.1066 3.84545 55.3555 3.79278 55.607 3.79278C55.8585 3.79278 56.1075 3.84545 56.3393 3.94767C56.571 4.04989 56.7809 4.1996 56.9566 4.38799C57.1323 4.57639 57.2702 4.79966 57.3621 5.04467C57.4541 5.28968 57.4984 5.55148 57.4922 5.81465V19.8643L65.3477 24.4822C65.5631 24.6096 65.7524 24.7801 65.9048 24.9841C66.0572 25.188 66.1697 25.4213 66.2359 25.6708C66.3022 25.9203 66.3208 26.1809 66.2908 26.4379C66.2608 26.6949 66.1827 26.9432 66.061 27.1686C65.9393 27.394 65.7764 27.5922 65.5816 27.7517C65.3867 27.9112 65.1638 28.029 64.9255 28.0983C64.6871 28.1676 64.4381 28.1871 64.1925 28.1557C63.947 28.1243 63.7098 28.0426 63.4944 27.9152L54.6703 22.7323C54.3785 22.5607 54.136 22.3104 53.968 22.0074C53.8 21.7043 53.7127 21.3597 53.7151 21.0094L53.7218 5.81465Z" fill="#E69C24"/>
<path d="M32.5406 27.3891C32.3285 26.5762 32.1651 25.7502 32.0512 24.916H1.88576C1.38563 24.916 0.905974 25.124 0.552325 25.4941C0.198677 25.8643 0 26.3663 0 26.8898C0 27.4133 0.198677 27.9153 0.552325 28.2854C0.905974 28.6556 1.38563 28.8636 1.88576 28.8636H32.956C32.8048 28.376 32.6671 27.8896 32.5406 27.3891Z" fill="white"/>
<path d="M83.7629 54.8729L71.3442 39.7532C70.8391 40.229 70.3106 40.677 69.7608 41.0952C69.2838 41.4632 68.8056 41.8055 68.3152 42.1208C67.4957 42.6568 66.6481 43.1444 65.7765 43.5812L72.7776 52.2545C73.0084 52.5429 73.1559 52.8941 73.2027 53.2671C73.2496 53.6401 73.1939 54.0193 73.0421 54.3603C72.8904 54.7013 72.6489 54.99 72.346 55.1925C72.0431 55.3949 71.6913 55.5028 71.3319 55.5035H58.2951C58.0437 55.5099 57.7935 55.4636 57.5595 55.3673C57.3254 55.271 57.112 55.1267 56.9321 54.9429C56.7521 54.759 56.609 54.5393 56.5114 54.2967C56.4137 54.0541 56.3634 53.7935 56.3634 53.5303C56.3634 53.2671 56.4137 53.0065 56.5114 52.7639C56.609 52.5213 56.7521 52.3016 56.9321 52.1177C57.112 51.9339 57.3254 51.7895 57.5595 51.6933C57.7935 51.597 58.0437 51.5507 58.2951 51.5571H67.2692L62.0274 45.0451C59.9344 45.6678 57.7689 45.9834 55.593 45.9827C54.8091 45.9827 54.0342 45.9429 53.2671 45.8655C52.5078 45.7893 51.7528 45.672 51.0051 45.5139C50.49 45.4084 49.9872 45.2912 49.4967 45.1623V72.1199H32.0277C31.5925 69.8243 30.41 67.7577 28.6818 66.2725C26.9537 64.7873 24.7868 63.9755 22.5507 63.9755C20.3147 63.9755 18.1478 64.7873 16.4197 66.2725C14.6915 67.7577 13.509 69.8243 13.0738 72.1199H7.06377C6.56364 72.1199 6.08398 72.3279 5.73033 72.698C5.37669 73.0682 5.17801 73.5702 5.17801 74.0937C5.17801 74.6172 5.37669 75.1192 5.73033 75.4894C6.08398 75.8595 6.56364 76.0675 7.06377 76.0675H13.0716C13.5068 78.3631 14.6893 80.4297 16.4174 81.9149C18.1456 83.4001 20.3124 84.2119 22.5485 84.2119C24.7846 84.2119 26.9514 83.4001 28.6796 81.9149C30.4078 80.4297 31.5903 78.3631 32.0255 76.0675H57.3768C57.8121 78.3631 58.9946 80.4297 60.7227 81.9149C62.4509 83.4001 64.6177 84.2119 66.8538 84.2119C69.0899 84.2119 71.2567 83.4001 72.9849 81.9149C74.713 80.4297 75.8955 78.3631 76.3308 76.0675H82.3262C82.574 76.0678 82.8193 76.0169 83.0482 75.9179C83.2771 75.8188 83.4851 75.6734 83.6603 75.4901C83.8355 75.3067 83.9744 75.089 84.069 74.8494C84.1637 74.6098 84.2123 74.353 84.212 74.0937V56.1622C84.2129 55.6903 84.0537 55.2335 83.7629 54.8729ZM22.5485 80.2483C20.9866 80.2433 19.49 79.5917 18.3856 78.4357C17.2811 77.2797 16.6586 75.7133 16.6538 74.0785C16.6538 73.4069 16.7601 72.7399 16.9685 72.1047C17.3622 70.8821 18.1125 69.8197 19.1137 69.0671C20.1149 68.3145 21.3164 67.9097 22.5491 67.9097C23.7817 67.9097 24.9833 68.3145 25.9844 69.0671C26.9856 69.8197 27.7359 70.8821 28.1296 72.1047C28.429 73.0325 28.513 74.0216 28.3747 74.9902C28.2364 75.9587 27.8799 76.8789 27.3345 77.6747C26.7892 78.4704 26.0707 79.1189 25.2384 79.5664C24.4062 80.0139 23.4841 80.2476 22.5485 80.2483ZM66.8538 80.2483C65.2919 80.2433 63.7953 79.5917 62.6908 78.4357C61.5864 77.2797 60.9638 75.7133 60.9591 74.0785C60.9591 73.4069 61.0654 72.7399 61.2738 72.1047C61.6675 70.8821 62.4178 69.8197 63.419 69.0671C64.4202 68.3145 65.6217 67.9097 66.8544 67.9097C68.087 67.9097 69.2886 68.3145 70.2897 69.0671C71.2909 69.8197 72.0412 70.8821 72.4349 72.1047C72.8533 73.3841 72.8533 74.7728 72.4349 76.0522C72.0424 77.2758 71.2923 78.3392 70.2908 79.0922C69.2892 79.8451 68.0869 80.2495 66.8538 80.2483Z" fill="white"/>
<path d="M20.2695 38.2387C20.7615 38.2262 21.2294 38.0128 21.5731 37.6441C21.9169 37.2754 22.1093 36.7807 22.1093 36.2655C22.1093 35.7504 21.9169 35.2556 21.5731 34.887C21.2294 34.5183 20.7615 34.3049 20.2695 34.2923H5.18901C4.93757 34.2859 4.68745 34.3322 4.45337 34.4285C4.21928 34.5248 4.00597 34.6691 3.82597 34.853C3.64597 35.0368 3.50293 35.2565 3.40527 35.4991C3.3076 35.7417 3.25729 36.0023 3.25729 36.2655C3.25729 36.5288 3.3076 36.7894 3.40527 37.0319C3.50293 37.2745 3.64597 37.4942 3.82597 37.6781C4.00597 37.8619 4.21928 38.0063 4.45337 38.1025C4.68745 38.1988 4.93757 38.2451 5.18901 38.2387H20.2695Z" fill="white"/>
<path d="M10.216 43.0433C9.72393 43.0559 9.25609 43.2693 8.91233 43.6379C8.56858 44.0066 8.37616 44.5013 8.37616 45.0165C8.37616 45.5316 8.56858 46.0264 8.91233 46.3951C9.25609 46.7637 9.72393 46.9771 10.216 46.9897H19.0143C19.2657 46.9961 19.5159 46.9498 19.75 46.8535C19.984 46.7572 20.1974 46.6129 20.3774 46.4291C20.5574 46.2452 20.7004 46.0255 20.7981 45.7829C20.8957 45.5403 20.946 45.2797 20.946 45.0165C20.946 44.7532 20.8957 44.4927 20.7981 44.2501C20.7004 44.0075 20.5574 43.7878 20.3774 43.6039C20.1974 43.4201 19.984 43.2757 19.75 43.1795C19.5159 43.0832 19.2657 43.0369 19.0143 43.0433H10.216Z" fill="white"/>
</svg>
