<svg width="85" height="85" viewBox="0 0 85 85" fill="none" xmlns="http://www.w3.org/2000/svg">
<path fill-rule="evenodd" clip-rule="evenodd" d="M79.0747 37.0824C77.0068 32.7645 74.3363 28.4612 71.1038 24.3477L72.6072 31.1181C74.6451 34.2451 76.3514 37.4349 77.7083 40.6107C72.8306 52.0262 63.9146 62.4635 53.9265 69.3904C54.4441 70.1575 54.873 70.9957 55.1984 71.8883C65.1383 65.05 73.8437 55.0639 79.0747 44.1399C82.5747 54.2234 82.858 65.4062 76.4279 72.449C71.6286 77.7056 64.1383 79.3751 55.7637 77.8554C55.6117 78.8102 55.3473 79.7246 54.9845 80.5826C64.3539 82.3646 72.8345 80.4591 78.3576 74.4099C84.1005 68.1198 85.4886 58.6139 83.0901 48.33C82.4988 45.7944 81.6755 43.209 80.6297 40.6116C81.6755 38.0141 82.4987 35.4284 83.0901 32.8928C85.4886 22.609 84.1005 13.103 78.3576 6.81297C72.6132 0.521122 63.6697 -1.28868 53.8542 0.871526C51.02 1.49523 48.1094 2.45162 45.1811 3.7281C42.2528 2.45162 39.3424 1.49523 36.5084 0.871526C26.6927 -1.28868 17.7494 0.521299 12.005 6.81297C8.42933 10.7294 6.5421 15.8926 6.20569 21.7139C7.08186 21.3578 8.00081 21.0932 8.95197 20.93C9.39089 16.1608 11.0186 11.9673 13.9345 8.7736C18.993 3.23307 27.0409 1.67726 35.9631 3.64072C37.8617 4.05848 39.7978 4.63504 41.7521 5.3658C33.5284 9.63729 25.838 16.1298 19.6873 23.8075C20.395 24.387 21.0487 25.037 21.6381 25.7479C28.1647 17.5695 36.4835 10.8131 45.1809 6.79843C48.4009 8.28495 51.6393 10.177 54.8109 12.4565L58.7254 12.1091L58.7788 11.9751C55.4585 9.35601 52.0381 7.14618 48.6108 5.36598C50.5649 4.6354 52.501 4.05866 54.3996 3.64072C63.3218 1.67726 71.3698 3.23307 76.4283 8.7736C82.858 15.8161 82.5755 26.9992 79.075 37.0824H79.0747ZM13.9343 72.449C18.7336 77.7056 26.2239 79.3751 34.5985 77.8554C34.7503 78.8102 35.0149 79.7246 35.3777 80.5826C26.0083 82.3646 17.5277 80.4592 12.0046 74.4099C7.87145 69.8828 5.99429 63.69 6.16073 56.7404C6.78354 57.8108 7.74645 58.6032 8.86204 58.9846C9.107 64.2951 10.7548 68.9666 13.9343 72.4492V72.449ZM36.4357 69.3902C35.9183 70.1573 35.4893 70.9957 35.1638 71.8883C28.2729 67.1476 21.9735 60.8864 17.0368 53.8948C17.7878 53.2045 18.3061 52.2389 18.4502 51.1483C23.2436 58.2128 29.5603 64.6221 36.4359 69.3904L36.4357 69.3902Z" fill="#E69C24"/>
<path fill-rule="evenodd" clip-rule="evenodd" d="M53.1677 75.7635C53.1677 71.0975 49.5697 67.3152 45.1311 67.3152C40.6925 67.3152 37.0946 71.0975 37.0946 75.7635C37.0946 80.4295 40.6925 84.2119 45.1311 84.2119C49.5697 84.2119 53.1677 80.4295 53.1677 75.7635ZM48.4012 71.8998C48.9216 71.3495 49.7681 71.3471 50.2913 71.8943C50.8147 72.4414 50.8171 73.3313 50.2965 73.8813L44.8815 79.6272C44.3644 80.1738 43.526 80.1798 43.0019 79.6436L39.9811 76.5484C39.452 76.0073 39.4403 75.1176 39.955 74.5614C40.4697 74.0051 41.316 73.9928 41.8451 74.5339L43.9174 76.6574L48.401 71.8998H48.4012ZM63.0985 8.47095L65.6985 14.9728L72.3843 15.5631L67.3054 20.1717L68.8374 27.0383L63.0985 23.3847L57.3596 27.0383L58.8917 20.1717L53.8129 15.5631L60.4986 14.9728L63.0987 8.47095H63.0985ZM45.1311 21.8117C49.79 21.8117 53.5666 25.7819 53.5666 30.6794C53.5666 35.5769 49.7898 39.5471 45.1311 39.5471C40.4724 39.5471 36.6956 35.5769 36.6956 30.6794C36.6956 25.7819 40.4724 21.8117 45.1311 21.8117ZM54.0857 37.604C49.6397 43.9472 40.6223 43.9472 36.1764 37.604C32.7178 39.0762 30.2615 42.6494 30.2615 46.7971V58.3956C30.2615 58.9778 30.7131 59.4524 31.2668 59.4524H58.9955C59.5493 59.4524 60.0008 58.9778 60.0008 58.3956V46.7971C60.0008 42.6494 57.5446 39.0763 54.086 37.604H54.0857ZM11.1866 23.702C17.3649 23.702 22.3731 28.967 22.3731 35.4615C22.3731 39.7601 20.1796 43.5199 16.9048 45.571C16.7847 45.6462 16.6734 45.7302 16.5714 45.822H12.527V38.816C13.4538 38.3071 14.0866 37.2875 14.0866 36.1123C14.0866 34.4286 12.7883 33.0638 11.1866 33.0638C9.58504 33.0638 8.28669 34.4286 8.28669 36.1123C8.28669 37.2875 8.91936 38.3073 9.84625 38.8162V45.8222H5.80192C5.69988 45.7304 5.58846 45.6464 5.46833 45.5712C2.19373 43.5201 0 39.7601 0 35.4617C0 28.967 5.00824 23.7021 11.1865 23.7021L11.1866 23.702ZM15.7973 48.6403V50.4871C15.7973 51.3775 15.1065 52.1037 14.2595 52.1037H8.11361C7.26665 52.1037 6.57584 51.3775 6.57584 50.4871V48.6403H15.7973ZM14.0574 54.9217C13.7001 55.7474 12.9072 56.3246 11.9911 56.3246H10.3822C9.46591 56.3246 8.67306 55.7478 8.31568 54.9217H14.0574Z" fill="white"/>
</svg>
