<svg width="32" height="32" viewBox="0 0 32 32" fill="none" xmlns="http://www.w3.org/2000/svg">
<g clip-path="url(#clip0_210_999)">
<rect width="32" height="14.9333" transform="translate(0 17.0667)" fill="#F8F6F2"/>
<path d="M15.4375 2.1333V7.6958H16C16.9313 7.6958 17.4375 8.42705 17.4875 9.1708C17.5125 9.5458 17.4125 9.88955 17.1938 10.1333C16.975 10.3833 16.625 10.5708 16 10.5708C15.6875 10.5708 15.3063 10.3958 15.025 10.1083C14.7375 9.82705 14.5625 9.4458 14.5625 9.1333H13.4375C13.4375 9.8208 13.7625 10.4396 14.225 10.9083C14.6938 11.3708 15.3125 11.6958 16 11.6958C16.875 11.6958 17.5875 11.3833 18.0313 10.8833C18.4813 10.3771 18.6562 9.7208 18.6125 9.0958C18.5375 8.00205 17.775 6.89705 16.5625 6.63205V2.1333H15.4375ZM12.4438 10.9146L3.83375 16.5708H5.8775L13.0563 11.8521L12.4438 10.9146ZM19.5563 10.9146L18.9438 11.8521L26.125 16.5708H28.1625L19.5563 10.9146ZM2.5625 17.6958V31.5708H29.4375V17.6958H2.5625ZM4.9375 19.1333H6.0625V30.1333H4.9375V19.1333ZM7.9375 19.1333H9.0625V30.1333H7.9375V19.1333ZM10.9375 19.1333H12.0625V30.1333H10.9375V19.1333ZM13.9375 19.1333H15.0625V30.1333H13.9375V19.1333ZM16.9375 19.1333H18.0625V30.1333H16.9375V19.1333ZM19.9375 19.1333H21.0625V30.1333H19.9375V19.1333ZM22.9375 19.1333H24.0625V30.1333H22.9375V19.1333ZM25.9375 19.1333H27.0625V30.1333H25.9375V19.1333Z" fill="#285D80"/>
</g>
<g clip-path="url(#clip1_210_999)">
<rect width="32" height="14.9333" transform="translate(0 2.1333)" fill="#F8F6F2"/>
<path d="M15.4375 2.1333V7.6958H16C16.9313 7.6958 17.4375 8.42705 17.4875 9.1708C17.5125 9.5458 17.4125 9.88955 17.1938 10.1333C16.975 10.3833 16.625 10.5708 16 10.5708C15.6875 10.5708 15.3063 10.3958 15.025 10.1083C14.7375 9.82705 14.5625 9.4458 14.5625 9.1333H13.4375C13.4375 9.8208 13.7625 10.4396 14.225 10.9083C14.6938 11.3708 15.3125 11.6958 16 11.6958C16.875 11.6958 17.5875 11.3833 18.0313 10.8833C18.4813 10.3771 18.6562 9.7208 18.6125 9.0958C18.5375 8.00205 17.775 6.89705 16.5625 6.63205V2.1333H15.4375ZM12.4438 10.9146L3.83375 16.5708H5.8775L13.0563 11.8521L12.4438 10.9146ZM19.5563 10.9146L18.9438 11.8521L26.125 16.5708H28.1625L19.5563 10.9146ZM2.5625 17.6958V31.5708H29.4375V17.6958H2.5625ZM4.9375 19.1333H6.0625V30.1333H4.9375V19.1333ZM7.9375 19.1333H9.0625V30.1333H7.9375V19.1333ZM10.9375 19.1333H12.0625V30.1333H10.9375V19.1333ZM13.9375 19.1333H15.0625V30.1333H13.9375V19.1333ZM16.9375 19.1333H18.0625V30.1333H16.9375V19.1333ZM19.9375 19.1333H21.0625V30.1333H19.9375V19.1333ZM22.9375 19.1333H24.0625V30.1333H22.9375V19.1333ZM25.9375 19.1333H27.0625V30.1333H25.9375V19.1333Z" fill="#E69C24"/>
</g>
<defs>
<clipPath id="clip0_210_999">
<rect width="32" height="14.9333" fill="white" transform="translate(0 17.0667)"/>
</clipPath>
<clipPath id="clip1_210_999">
<rect width="32" height="14.9333" fill="white" transform="translate(0 2.1333)"/>
</clipPath>
</defs>
</svg>
