<svg width="32" height="32" viewBox="0 0 32 32" fill="none" xmlns="http://www.w3.org/2000/svg">
<g clip-path="url(#clip0_210_952)">
<path d="M18.983 0C10.1533 0.0096 3 7.16992 3 16C3.00451 18.5063 3.59772 20.9764 4.73183 23.2114C5.86594 25.4464 7.50923 27.3837 9.52928 28.8672C9.44448 28.2173 9.46112 27.5462 9.56672 26.8826C8.5109 25.9662 7.59352 24.9016 6.8432 23.7219H10.8256C11.2038 23.1315 11.5936 22.5475 12.2736 22.1219C11.8752 20.4899 11.6317 18.6928 11.5869 16.8H12.0176C12.1456 16.2398 12.3536 15.7009 12.6352 15.2H11.5974C11.6653 13.3008 11.9312 11.5027 12.3536 9.8784H18.2V12.7226C18.7657 12.8095 19.3091 13.0055 19.8 13.2998V9.8784H25.9424C26.0256 10.1974 26.1008 10.5248 26.1712 10.8566C26.7096 10.7743 27.2564 10.7617 27.7981 10.8192C27.7361 10.5043 27.668 10.1906 27.5936 9.8784H32.0384C32.7036 11.2954 33.1322 12.8118 33.3072 14.3674C33.4928 15.983 33.4963 17.8794 32.9085 19.7341C32.7178 20.4427 32.4733 21.1357 32.177 21.807C32.5379 22.1869 32.975 22.5459 33.4144 22.9123C34.4533 20.7558 34.9952 18.3937 35 16C35 7.16352 27.8365 0 19 0H18.983ZM19.8 1.81824C21.4858 2.10496 23.0966 3.49376 24.3658 5.79808C24.7747 6.5408 25.1402 7.37472 25.4563 8.27808H19.8V1.81824ZM18.2 1.88128V8.27808H12.84C13.1562 7.37472 13.5216 6.5408 13.9306 5.79808C15.1248 3.62912 16.6227 2.27232 18.2 1.88128ZM14.5136 2.31424C13.7699 3.06688 13.1024 3.98464 12.5286 5.02624C11.991 6.00224 11.5286 7.09568 11.1488 8.27808H6.8432C8.6144 5.49216 11.3152 3.35968 14.5136 2.31424ZM23.9248 2.4624C26.9322 3.55456 29.4672 5.62016 31.1568 8.27808H27.1456C26.7667 7.09568 26.305 6.00224 25.7674 5.02624C25.231 4.05184 24.6109 3.18656 23.9248 2.4624ZM5.96224 9.8784H10.7008C10.3024 11.5302 10.0582 13.3216 9.99584 15.2003H4.62304C4.72251 13.3568 5.17713 11.5498 5.96192 9.87872M4.62304 16.8H9.98688C10.0282 18.6739 10.2493 20.4653 10.625 22.1216H5.96192C5.17713 20.4505 4.72251 18.6435 4.62304 16.8Z" fill="#E69C24"/>
<path d="M23.5325 12.085C20.8813 12.085 18.7325 14.2341 18.7325 16.885C18.7325 19.5358 20.8813 21.685 23.5325 21.685C26.183 21.685 28.3325 19.5358 28.3325 16.885C28.3325 14.2341 26.183 12.085 23.5325 12.085ZM23.5325 22.3963C18.2301 22.3963 15.8525 24.7742 15.8525 30.0763V30.7163C15.8765 31.9771 16.4339 32.0142 17.6125 31.9963H29.4525C30.9549 31.995 31.2227 31.9979 31.2125 30.7163V30.0763C31.2125 24.7742 28.8342 22.3963 23.5325 22.3963ZM13.2925 13.8837C11.1206 13.8837 9.35936 15.645 9.35936 17.8171C9.35936 19.989 11.1206 21.7496 13.2925 21.7496C15.4643 21.7496 17.2253 19.989 17.2253 17.8168C17.2253 15.6446 15.4643 13.8837 13.2925 13.8837ZM13.2925 22.3323C8.94848 22.3323 7 24.2811 7 28.6248V29.1493C7.01984 30.1822 7.47648 30.2126 8.44192 30.1979H14.5613C14.4051 27.6098 15.1696 24.861 17.0736 23.1134C16.1098 22.5867 14.8576 22.3323 13.2925 22.3323Z" fill="#285D80"/>
</g>
<defs>
<clipPath id="clip0_210_952">
<rect width="32" height="32" fill="white"/>
</clipPath>
</defs>
</svg>
