<svg width="32" height="32" viewBox="0 0 32 32" fill="none" xmlns="http://www.w3.org/2000/svg">
<g clip-path="url(#clip0_210_918)">
<path d="M6.72 10.24C3.02688 10.24 0 13.2576 0 16.9408C0 18.368 0.45568 19.6944 1.2272 20.7846L5.90016 28.8627C6.55456 29.7178 6.98976 29.5555 7.53408 28.8179L12.688 20.0467C12.792 19.8579 12.8736 19.6576 12.945 19.4528C13.2718 18.6556 13.4399 17.8024 13.44 16.9408C13.44 13.2576 10.4141 10.24 6.72 10.24ZM6.72 13.3798C8.70912 13.3798 10.2912 14.9578 10.2912 16.9411C10.2912 18.9245 8.7088 20.5018 6.72 20.5018C4.7312 20.5018 3.1488 18.9242 3.1488 16.9411C3.1488 14.9581 4.73152 13.3798 6.72 13.3798ZM28.08 0C25.9258 0 24.16 1.76032 24.16 3.90912C24.16 4.74144 24.4256 5.5152 24.8758 6.15104L27.6019 10.8634C27.9837 11.3619 28.2374 11.2672 28.5549 10.8371L31.5613 5.72032C31.6221 5.61056 31.6698 5.49376 31.711 5.37408C31.9023 4.90937 32.0005 4.41164 32 3.90912C32 1.76 30.2349 0 28.08 0ZM28.08 1.83168C29.2403 1.83168 30.1632 2.752 30.1632 3.90912C30.1632 5.06624 29.2403 5.98592 28.08 5.98592C26.9197 5.98592 25.9968 5.06592 25.9968 3.90912C25.9968 2.75232 26.92 1.83168 28.08 1.83168Z" fill="#285D80"/>
<path fill-rule="evenodd" clip-rule="evenodd" d="M28.2274 11.9724C27.5084 11.9884 26.7874 12.0188 26.0652 12.0723L26.1765 13.8425C26.8703 13.7922 27.5653 13.7599 28.2607 13.7455L28.2274 11.9724ZM24.3954 12.2348C23.285 12.3727 22.165 12.5692 21.0578 12.8851L21.4748 14.6006C22.4809 14.3139 23.5234 14.1286 24.5823 13.9971L24.3954 12.2348ZM19.3999 13.479C19.0681 13.6254 18.7469 13.7947 18.4386 13.9855L18.4373 13.9871L18.4354 13.9878C17.9954 14.2649 17.5317 14.6166 17.1532 15.1276C16.8789 15.4979 16.6546 15.966 16.6021 16.5196L18.2325 16.7004C18.2447 16.5705 18.3113 16.399 18.4309 16.2377H18.4316V16.2371C18.6245 15.9759 18.9138 15.7388 19.2578 15.5219L19.2591 15.5212C19.5045 15.3702 19.7598 15.2359 20.0233 15.1193L19.3999 13.479ZM18.5605 17.4902L17.5036 18.8454C17.7541 19.0745 18.0169 19.2505 18.2706 19.3977L18.2738 19.3993L18.277 19.4012C19.1193 19.8803 19.9877 20.1507 20.7929 20.4073L21.2556 18.7055C20.4508 18.4489 19.6921 18.2012 19.0418 17.8319C18.8556 17.7238 18.6924 17.6108 18.5605 17.4902ZM22.8277 19.1843L22.3759 20.8889L22.5897 20.9555L22.8521 21.0393C23.7205 21.3219 24.5525 21.6236 25.2962 22.0412L26.0508 20.4668C25.1516 19.9615 24.2181 19.6313 23.3186 19.3388L23.3161 19.3382L23.0466 19.2521L22.8277 19.1843ZM27.5852 21.6483L26.4258 22.9027C26.6997 23.1993 26.9049 23.5561 27.0047 23.9247L27.0053 23.9267L27.006 23.9295C27.125 24.3599 27.1253 24.8662 27.0322 25.3775L28.6399 25.7206C28.7711 24.9987 28.7922 24.206 28.5765 23.4236C28.3887 22.7318 28.0303 22.1308 27.5852 21.6483ZM26.4709 26.4463C26.2935 26.6332 26.0978 26.8017 25.8866 26.9494H25.886C25.31 27.3545 24.6418 27.6598 23.9321 27.9222L24.4613 29.6003C25.2377 29.3132 26.0348 28.9612 26.7797 28.4371L26.7817 28.4355L26.7826 28.4348C27.0885 28.2205 27.3715 27.9753 27.6271 27.703L26.4709 26.4463ZM22.4261 28.3948C21.398 28.6713 20.3471 28.8819 19.2834 29.0604L19.5343 30.8137C20.629 30.6297 21.7282 30.4099 22.8207 30.1161L22.4261 28.3948ZM17.6831 29.3023C16.6124 29.4486 15.5359 29.5679 14.4562 29.6697L14.5977 31.4367C15.694 31.3337 16.7922 31.2124 17.8889 31.0623L17.6831 29.3023ZM12.8335 29.8089C11.7516 29.8947 10.6671 29.9644 9.58166 30.0233L9.66358 31.7948C10.7596 31.7356 11.8565 31.6649 12.9532 31.5779L12.8335 29.8089ZM7.95062 30.1033C7.30006 30.1337 6.6479 30.1587 5.99414 30.1817L6.0479 31.9548C6.70575 31.9322 7.36346 31.906 8.02102 31.8761L7.95062 30.1033Z" fill="#E69C24"/>
</g>
<defs>
<clipPath id="clip0_210_918">
<rect width="32" height="32" fill="white"/>
</clipPath>
</defs>
</svg>
