<svg width="11" height="9" viewBox="0 0 11 9" fill="none" xmlns="http://www.w3.org/2000/svg">
<path d="M1.1 9C0.7975 9 0.538633 8.88994 0.3234 8.66981C0.108167 8.44969 0.000366667 8.18475 0 7.875V1.125C0 0.815625 0.1078 0.550875 0.3234 0.33075C0.539 0.110625 0.797867 0.000375 1.1 0H9.9C10.2025 0 10.4615 0.11025 10.6771 0.33075C10.8927 0.55125 11.0004 0.816 11 1.125V7.875C11 8.18437 10.8924 8.44931 10.6771 8.66981C10.4619 8.89031 10.2029 9.00037 9.9 9H1.1ZM5.64465 4.94325C5.69488 4.929 5.74292 4.90781 5.78875 4.87969L9.68 2.39062C9.75333 2.34375 9.80833 2.28525 9.845 2.21512C9.88167 2.145 9.9 2.06756 9.9 1.98281C9.9 1.79531 9.82208 1.65469 9.66625 1.56094C9.51042 1.46719 9.35 1.47187 9.185 1.575L5.5 3.9375L1.815 1.575C1.65 1.47187 1.48958 1.46962 1.33375 1.56825C1.17792 1.66687 1.1 1.80506 1.1 1.98281C1.1 2.07656 1.11833 2.15869 1.155 2.22919C1.19167 2.29969 1.24667 2.3535 1.32 2.39062L5.21125 4.87969C5.25708 4.90781 5.3053 4.929 5.3559 4.94325C5.4065 4.9575 5.45453 4.96444 5.5 4.96406C5.54547 4.96369 5.59368 4.95675 5.64465 4.94325Z" fill="white" fill-opacity="0.9"/>
</svg>
