<svg width="9" height="9" viewBox="0 0 9 9" fill="none" xmlns="http://www.w3.org/2000/svg">
<path d="M8.475 9C7.43333 9 6.40417 8.773 5.3875 8.319C4.37083 7.865 3.44583 7.22117 2.6125 6.3875C1.77917 5.55383 1.1355 4.62883 0.6815 3.6125C0.2275 2.59617 0.000333333 1.567 0 0.525C0 0.375 0.05 0.25 0.15 0.15C0.25 0.05 0.375 0 0.525 0H2.55C2.66667 0 2.77083 0.0396666 2.8625 0.119C2.95417 0.198333 3.00833 0.292 3.025 0.4L3.35 2.15C3.36667 2.28333 3.3625 2.39583 3.3375 2.4875C3.3125 2.57917 3.26667 2.65833 3.2 2.725L1.9875 3.95C2.15417 4.25833 2.352 4.55617 2.581 4.8435C2.81 5.13083 3.06217 5.408 3.3375 5.675C3.59583 5.93333 3.86667 6.173 4.15 6.394C4.43333 6.615 4.73333 6.817 5.05 7L6.225 5.825C6.3 5.75 6.398 5.69383 6.519 5.6565C6.64 5.61917 6.75867 5.60867 6.875 5.625L8.6 5.975C8.71667 6.00833 8.8125 6.06883 8.8875 6.1565C8.9625 6.24417 9 6.342 9 6.45V8.475C9 8.625 8.95 8.75 8.85 8.85C8.75 8.95 8.625 9 8.475 9Z" fill="white" fill-opacity="0.9"/>
</svg>
