<svg width="114" height="72" viewBox="0 0 114 72" fill="none" xmlns="http://www.w3.org/2000/svg">
<path d="M57.4972 27.4202C60.7432 26.4174 64.3468 26.6594 67.4836 27.8958C69.0986 28.4748 70.5059 29.4842 72.165 29.9598C75.1662 30.8725 78.3629 30.7473 81.4732 30.6673C84.0183 30.6439 86.639 31.7835 88.0198 33.8559C87.0177 33.3837 85.968 32.8964 84.8179 32.9198C82.6744 32.8981 80.8004 34.0161 78.7662 34.4716C77.329 34.847 75.8249 34.827 74.349 34.7769C73.1319 34.7369 71.9519 34.4098 70.7349 34.3614C68.8468 34.2396 66.9746 34.56 65.0953 34.6935C58.9961 35.1674 52.8334 35.3142 46.7483 34.585C53.9201 34.5183 61.1888 34.5149 68.2127 32.9565C69.3047 32.6979 70.3896 32.3959 71.4147 31.9537C69.1304 31.4365 67.0521 30.3652 65.0935 29.1672C62.8691 27.7806 60.1462 27.1549 57.4972 27.4202Z" fill="#C1012F"/>
<path d="M85.1242 27.8023C87.7855 27.4286 90.688 27.7089 92.9689 29.1505C92.1957 28.972 91.4383 28.7117 90.6387 28.6566C88.3068 28.4564 85.9784 29.1271 83.9477 30.18C83.5532 30.4436 83.0741 30.2384 82.6426 30.205C81.1209 29.9664 79.578 30.1516 78.0475 30.155C80.2649 29.0521 82.6585 28.2328 85.1242 27.8023ZM14.7814 39.5256C16.2221 39.3905 17.6769 39.5073 19.1229 39.4639C19.6389 39.4889 20.2448 39.3688 20.6692 39.7208C21.0585 40.0429 20.9334 40.5885 20.863 41.0106C20.5565 42.3955 20.2289 43.7738 19.9418 45.162C18.3761 45.2187 16.8068 45.2021 15.241 45.1787C14.5066 45.1186 13.5749 44.9751 13.2279 44.271C12.8845 43.2715 13.7915 42.3021 14.7972 42.1202C16.2133 41.8566 17.6628 41.7865 19.0929 41.5963C19.1757 41.2075 19.2778 40.6319 18.7336 40.5101C17.3581 40.4083 15.9702 40.5034 14.5894 40.465C14.6598 40.153 14.7215 39.8393 14.7814 39.5256ZM15.4471 43.0079C15.0156 43.0396 14.533 43.37 14.6457 43.8288C14.8025 44.1759 15.2463 44.2193 15.5951 44.2293C16.5479 44.2443 17.5025 44.2259 18.4553 44.231C18.6121 43.7104 18.7248 43.1781 18.8217 42.6442C17.6945 42.7409 16.569 42.8711 15.4471 43.0079ZM22.6137 40.1597C22.7 39.9411 22.6507 39.6357 22.869 39.4856C23.3833 39.4355 23.9011 39.4706 24.4154 39.4822C24.0826 41.1675 23.6669 42.8377 23.3094 44.5179C23.2371 44.7415 23.2213 45.0536 22.9571 45.1553C22.4763 45.2288 21.9884 45.1904 21.5058 45.187C21.844 43.5051 22.2544 41.8382 22.6137 40.1597ZM26.0094 39.4756C27.5311 39.4589 29.0511 39.4689 30.5728 39.4655C31.353 39.4856 32.2812 39.6224 32.7444 40.2932C33.1601 40.9139 32.8695 41.7248 32.364 42.2137C31.929 42.6558 31.2949 42.8177 30.7102 43.0046C31.1892 43.7454 31.7599 44.4278 32.2354 45.172C31.6331 45.2037 31.029 45.2004 30.4284 45.1754C29.9264 44.5096 29.4491 43.8305 28.9436 43.1681C28.2162 43.2115 27.4888 43.2782 26.7685 43.3917C26.6469 43.994 26.5201 44.5964 26.3563 45.192C25.8103 45.1987 25.2661 45.1954 24.7219 45.172C25.1428 43.2715 25.5602 41.3694 26.0094 39.4756ZM27.4289 40.5001C27.2933 41.1074 27.1383 41.7131 27.0468 42.3288C28.2726 42.2137 29.4984 42.0919 30.719 41.9417C31.2579 41.9083 31.6894 41.3727 31.5063 40.8738C31.2861 40.5117 30.8035 40.4517 30.4037 40.465C29.4121 40.4767 28.4188 40.4417 27.4289 40.5001ZM38.6904 39.4872C41.1527 39.4388 43.6149 39.4839 46.0771 39.4622C46.5139 39.4689 47.0546 39.4372 47.347 39.8143C47.6411 40.1346 47.5214 40.5968 47.4615 40.9773C47.148 42.3722 46.8292 43.7654 46.5263 45.1637C45.9697 45.1987 45.4131 45.2021 44.8566 45.182C45.1313 43.8889 45.4343 42.6024 45.7231 41.311C45.7901 41.0473 45.7812 40.7754 45.7636 40.5084C45.1208 40.455 44.4744 40.4417 43.8333 40.5134C43.5057 42.0635 43.1288 43.6036 42.8153 45.157C42.257 45.2004 41.6969 45.2037 41.1386 45.177C41.4045 43.8922 41.7057 42.6125 41.9963 41.331C42.065 41.064 42.0527 40.7887 42.0368 40.5167C41.401 40.4467 40.7599 40.455 40.1206 40.4934C39.7771 42.0468 39.4125 43.5969 39.0902 45.1553C38.5372 45.1987 37.9824 45.2037 37.4276 45.187C37.8116 43.2799 38.2607 41.3844 38.6904 39.4872ZM49.2756 39.5006C50.9682 39.4288 52.666 39.4806 54.3603 39.4706C54.9733 39.4122 55.5509 39.9177 55.4277 40.5151C55.1476 42.0702 54.7302 43.6019 54.4255 45.1537C53.168 45.2388 51.9069 45.1754 50.6494 45.1971C49.6683 45.1854 48.4355 45.2288 47.775 44.4078C47.2871 43.4284 48.1766 42.3438 49.2016 42.1402C50.6406 41.8483 52.1235 41.7982 53.5783 41.5913C53.5995 41.2776 53.7192 40.9272 53.5149 40.6435C53.1856 40.4483 52.7893 40.4667 52.4177 40.4633C51.3028 40.47 50.1879 40.4734 49.073 40.4667C49.1435 40.1463 49.2104 39.8243 49.2756 39.5006ZM49.9396 43.0062C49.5098 43.0413 49.0519 43.3449 49.1153 43.7988C49.2562 44.1842 49.7476 44.2226 50.1139 44.231C51.058 44.241 52.0038 44.2293 52.9496 44.2276C53.0905 43.7037 53.2102 43.1764 53.2983 42.6442C52.1764 42.7409 51.058 42.8711 49.9396 43.0062ZM57.2206 39.5073C57.7772 39.4522 58.339 39.4589 58.8973 39.4772C58.612 40.8271 58.3038 42.172 57.9956 43.5168C57.9621 43.7471 57.83 44.0324 58.0836 44.1976C59.0065 44.2693 59.94 44.2326 60.8664 44.2243C61.1746 44.2443 61.4459 44.0774 61.4846 43.7738C61.8492 42.3488 62.1028 40.8988 62.4744 39.4756C63.0187 39.4639 63.5629 39.4622 64.1071 39.4772C63.8024 40.9906 63.4379 42.494 63.1103 44.0024C63.0116 44.5613 62.6083 45.2054 61.932 45.182C60.5159 45.2171 59.0999 45.182 57.6856 45.1987C57.2576 45.1804 56.7345 45.2338 56.4281 44.8867C56.1603 44.6047 56.1815 44.1976 56.2607 43.8522C56.5725 42.4022 56.93 40.9606 57.2206 39.5073ZM65.6658 39.5056C67.1154 39.4172 68.5702 39.4922 70.0214 39.4639C70.8651 39.4572 71.8602 39.5673 72.4062 40.2531C72.8271 40.8454 72.5894 41.6547 72.1068 42.1486C71.67 42.6458 70.9884 42.816 70.3666 42.9996C70.888 43.7304 71.4269 44.4495 71.9518 45.177C71.3283 45.2054 70.7048 45.2037 70.0831 45.1603C69.5987 44.4812 69.1179 43.8021 68.5983 43.1464C67.9167 43.2332 67.2263 43.2515 66.5535 43.375C66.2224 43.8906 66.2506 44.573 66.0762 45.157C65.5197 45.2021 64.9613 45.2037 64.4048 45.1737C64.8099 43.2815 65.2608 41.3977 65.6658 39.5056ZM66.7138 42.3171C67.9238 42.2287 69.132 42.0919 70.3385 41.9517C70.9214 41.9367 71.4269 41.3393 71.1434 40.8104C70.8439 40.4316 70.2962 40.4684 69.8524 40.465C68.9805 40.485 68.107 40.435 67.2369 40.49C66.8477 40.9789 66.904 41.7264 66.7138 42.3171ZM74.1164 39.4906C74.6659 39.4605 75.2154 39.4605 75.7667 39.4722C75.4267 41.1675 75.0164 42.8494 74.6518 44.5396C74.5708 44.7732 74.5655 45.157 74.2185 45.1653C73.7659 45.2221 73.3097 45.192 72.8571 45.192C73.2445 43.2849 73.7025 41.3911 74.1164 39.4906ZM76.1788 40.4667C76.258 40.0746 76.2933 39.3988 76.8903 39.4722C78.944 39.4722 80.9994 39.4422 83.0547 39.4906C82.9455 39.8043 82.9896 40.2548 82.6268 40.425C81.85 40.5301 81.0592 40.4316 80.2772 40.4917C79.8721 42.0385 79.6784 43.6386 79.1448 45.1537C78.6234 45.1971 78.0986 45.2021 77.5772 45.1804C77.8784 43.6052 78.3011 42.0535 78.5935 40.4767C77.7868 40.4667 76.9819 40.4717 76.1788 40.4667ZM83.7557 39.4706C84.2947 39.4655 84.8336 39.4639 85.3726 39.4806C85.0679 41.1141 84.654 42.7276 84.3123 44.3544C84.2348 44.608 84.2207 44.9051 84.0217 45.1069C83.5285 45.2721 82.9878 45.172 82.4771 45.1787C82.8751 43.2699 83.3013 41.366 83.7557 39.4706ZM86.9577 39.4772C87.5054 39.4639 88.0532 39.4639 88.6009 39.4772C88.3279 41.0507 87.8119 42.5841 87.6428 44.1726C88.6326 44.2743 89.6313 44.2376 90.6264 44.2193C90.9346 44.2326 91.1636 44.014 91.2058 43.7354C91.5687 42.3171 91.8047 40.8721 92.2027 39.4622C92.7399 39.4672 93.2753 39.4655 93.8125 39.4756C93.5448 40.8805 93.1908 42.2687 92.8984 43.6686C92.7822 44.1142 92.7135 44.6314 92.3154 44.9434C91.9561 45.2571 91.4331 45.1804 90.9874 45.1987C89.5784 45.1737 88.1677 45.2288 86.7587 45.1737C86.1651 45.172 85.8041 44.5513 85.945 44.0441C86.2461 42.5157 86.6143 40.999 86.9577 39.4772ZM94.7812 42.0885C93.8601 41.2643 94.591 39.7158 95.771 39.5556C97.2892 39.3654 98.8391 39.4989 100.37 39.4839C100.308 39.8043 100.248 40.1246 100.195 40.445C98.8885 40.5201 97.5763 40.415 96.273 40.495C95.6336 40.5251 95.5544 41.4745 96.1708 41.6163C97.4037 41.9734 98.7704 41.8349 99.9522 42.3705C100.572 42.6275 101.028 43.3099 100.775 43.9506C100.488 44.8233 99.4239 45.1503 98.5503 45.1837C97.0286 45.2021 95.5068 45.2071 93.9851 45.1754C94.0538 44.8633 94.1207 44.5496 94.1894 44.2376C95.5879 44.2126 96.9863 44.256 98.3847 44.2226C98.7387 44.2076 99.2249 44.0741 99.2477 43.6703C99.32 43.3933 99.0646 43.1781 98.8215 43.0813C97.4988 42.6942 95.9084 42.9795 94.7812 42.0885Z" fill="#C1012F"/>
</svg>
