<svg width="108" height="72" viewBox="0 0 108 72" fill="none" xmlns="http://www.w3.org/2000/svg">
<path d="M45.3871 12.8438C39.6781 14.6647 34.3628 19.4875 28.8998 24.7536C21.9112 25.1473 14.3814 27.9532 13.5939 28.2977C21.6161 32.4318 23.5351 34.3507 23.5351 34.3507C23.5351 34.3507 20.9263 41.9301 20.4342 46.8517C22.2552 42.5207 25.7005 36.517 27.7675 33.6624C24.7654 31.2509 19.3518 28.7409 19.3518 28.7409C19.3518 28.7409 23.6828 26.8701 32.394 26.4271C32.394 26.4271 36.0361 19.4387 45.3871 12.8438V12.8438ZM40.3176 19.0938C39.5301 20.8163 38.0538 24.5083 37.8077 27.2644C43.9105 27.7565 48.094 29.134 48.094 29.134C48.094 29.134 41.893 31.4967 38.4479 34.2036C39.0877 35.7293 40.4654 40.1585 41.2528 43.6036C39.924 42.3733 35.8879 39.0762 32.9842 37.3536C29.1454 38.8301 18.4659 49.3617 12.4615 59.1557C15.07 56.4488 22.6489 47.8362 32.9842 41.635C35.1005 42.8654 44.895 49.3125 44.895 49.3125C44.895 49.3125 42.7295 37.8944 41.942 35.286C44.9934 33.1697 50.2099 30.3154 55.0823 28.8389C48.2905 26.0828 39.8744 25.3938 39.8744 25.3938C39.8744 25.3938 39.6778 23.2279 40.3176 19.0938Z" fill="#3FBBEF"/>
<path d="M52.0313 38.9277C52.0313 38.9277 50.604 41.2899 50.5548 41.4375C50.4072 41.4375 49.5215 41.4868 49.5215 41.4868V42.7672H50.4559V46.5564C50.4559 47.3931 50.7023 48.0821 51.096 48.525C51.5389 48.968 52.1294 49.2142 52.8676 49.2142C53.2121 49.2142 53.5564 49.2144 53.901 49.165C54.2455 49.1158 54.5411 49.0664 54.7872 48.968L54.8364 48.9187V47.5403L54.6893 47.5895C54.5416 47.6387 54.3938 47.6885 54.2462 47.6885C54.0985 47.7378 53.9018 47.7378 53.705 47.7378C53.3605 47.7378 53.1142 47.6393 53.0158 47.4917C52.9173 47.344 52.8187 47.0489 52.8187 46.7044V42.7672H54.8854V41.3887H52.8187V38.9279H52.0312L52.0313 38.9277ZM92.6834 38.9277C92.6834 38.9277 91.2561 41.2899 91.2069 41.4375C91.0593 41.4375 90.1736 41.4868 90.1736 41.4868V42.7672H91.1089V46.5564C91.1089 47.3931 91.3052 48.0821 91.7481 48.525C92.1911 48.968 92.7815 49.2142 93.5197 49.2142C93.8642 49.2142 94.2095 49.2144 94.554 49.165C94.8985 49.1158 95.1932 49.0664 95.4393 48.968L95.4885 48.9187V47.5403L95.3414 47.5895C95.1938 47.6387 95.0459 47.6885 94.8983 47.6885C94.7506 47.7378 94.554 47.7378 94.3571 47.7378C94.0126 47.7378 93.7663 47.6393 93.6679 47.4917C93.5695 47.344 93.4708 47.0489 93.4708 46.7044V42.7672H95.5385V41.3887H93.4708V38.9279H92.6834V38.9277ZM79.1981 41.1424C78.1646 41.1424 77.4265 41.3397 76.9343 41.7826C76.4422 42.2256 76.1961 42.7664 76.1961 43.4062C76.1961 43.9968 76.3441 44.5379 76.5902 44.9317C76.8363 45.3254 77.3775 45.6211 78.1157 45.818C79.0508 46.064 79.3948 46.2607 79.4932 46.3591C79.6408 46.5068 79.7393 46.6542 79.7393 46.9003C79.7393 47.1464 79.6412 47.2948 79.3951 47.4425C79.149 47.5901 78.755 47.6885 78.2628 47.6885C77.8691 47.6885 77.4761 47.6391 77.0824 47.4915C76.6886 47.3931 76.3929 47.2448 76.1961 47.1464L76.0481 47.0972L75.9989 47.1464V48.7709L76.0481 48.8201C76.2449 48.9678 76.5404 49.066 76.9834 49.1152C77.4263 49.2136 77.8696 49.2142 78.3618 49.2142C79.5922 49.2142 80.4782 48.9682 81.0196 48.476C81.561 47.9838 81.8559 47.3927 81.8559 46.6544C81.9051 46.0638 81.7082 45.5227 81.3637 45.1289C81.0192 44.7352 80.429 44.3907 79.5431 44.1446C78.9033 43.9477 78.4597 43.7999 78.2628 43.7015C78.1151 43.603 78.0167 43.4562 78.0167 43.2593C78.0167 43.0625 78.1159 42.9638 78.3127 42.8162C78.5588 42.7177 78.8534 42.6191 79.2471 42.6191C79.5916 42.6191 79.9367 42.6678 80.3304 42.7172C80.4781 42.7664 80.6259 42.767 80.7735 42.8162L81.3637 41.5858L81.3145 41.5366C81.0192 41.3889 80.7238 41.2897 80.3793 41.2405C80.0348 41.1913 79.6408 41.1424 79.1979 41.1424H79.1981ZM59.8069 41.2405C59.3639 41.2405 58.921 41.3887 58.5765 41.5856L58.5272 41.6348C58.2812 41.7824 58.0846 42.0289 57.937 42.275C57.937 41.9305 57.8878 41.3887 57.8878 41.3887H55.5741V49.1152H57.9858V44.2436C57.9858 43.7515 58.2321 43.3574 58.675 43.1113C58.8719 43.0128 59.1182 42.9142 59.3643 42.9142H59.4135C59.7088 42.9142 60.0037 43.0125 60.2498 43.2093L60.3488 43.3083L61.136 41.6838C60.7915 41.3885 60.348 41.2407 59.8067 41.2407L59.8069 41.2405ZM64.1382 41.2405C63.4984 41.2405 62.9569 41.2901 62.4647 41.3885C62.3171 41.4377 62.1202 41.4866 61.9726 41.4866L61.1852 43.2591L61.2345 43.3083L61.3334 43.2591C61.6287 43.1115 61.924 43.0125 62.3178 42.914C62.6623 42.8156 63.105 42.767 63.5972 42.767C64.0401 42.767 64.3354 42.8654 64.5815 43.013C64.7783 43.1607 64.9256 43.3572 64.9256 43.6032V44.1444C64.778 44.046 64.6304 43.9968 64.4335 43.8983C64.1382 43.7999 63.7935 43.7513 63.4982 43.7513C62.4647 43.7513 61.628 43.9966 61.0374 44.4395C60.3976 44.9317 60.103 45.6215 60.103 46.4581V46.6052C60.103 47.4911 60.3484 48.1309 60.7913 48.5738C61.2343 49.0168 61.973 49.214 62.8589 49.214C63.2527 49.214 63.5478 49.1644 63.8923 49.066L64.6305 47.4425L64.5813 47.3925C64.3352 47.5401 64.0893 47.6385 63.794 47.6385C63.4495 47.6385 63.1047 47.5401 62.9078 47.3925C62.7109 47.2448 62.5636 46.9503 62.5636 46.4581V46.3101C62.5636 45.8672 62.6617 45.5227 62.9078 45.3258C63.1047 45.1289 63.4495 45.0307 63.794 45.0307C64.1878 45.0307 64.5315 45.1287 64.7284 45.3748C64.9253 45.5717 65.0244 45.9164 65.0244 46.3101V49.165H67.3372V44.0954C67.2388 43.1111 66.9431 42.3726 66.4509 41.9297C65.9588 41.4868 65.1717 41.2405 64.1382 41.2405ZM73.1451 41.2405C72.6037 41.2405 72.1114 41.3397 71.7176 41.5366L70.8804 43.3572L71.1765 43.2091C71.4225 43.1107 71.7174 43.0621 72.0127 43.0621C72.2588 43.0621 72.4061 43.1115 72.603 43.2591C72.7506 43.3576 72.8 43.6036 72.8 43.9974V49.214H75.2118V43.7513C75.2118 42.8162 75.0151 42.1764 74.6706 41.7826C74.2769 41.3889 73.7849 41.2405 73.1451 41.2405ZM86.5805 41.2405C85.9407 41.2405 85.3991 41.2901 84.9069 41.3885C84.7593 41.4377 84.5624 41.4866 84.4148 41.4866L83.6275 43.2091L83.6767 43.2591L83.7757 43.2091C84.0218 43.0615 84.3663 42.9634 84.76 42.865C85.1045 42.7666 85.5473 42.717 86.0394 42.717C86.4824 42.717 86.7777 42.8154 87.0238 42.963C87.2206 43.1107 87.3679 43.3081 87.3679 43.5542V44.0954C87.2203 43.997 87.0726 43.9477 86.8758 43.8493C86.5805 43.7509 86.2367 43.7013 85.9414 43.7013C84.9079 43.7013 84.0712 43.9476 83.4806 44.3905C82.8408 44.8827 82.5453 45.5715 82.5453 46.4081V46.5562C82.5453 47.4421 82.7916 48.0819 83.2345 48.5248C83.6775 48.9678 84.4153 49.165 85.3012 49.165C85.6949 49.165 86.0392 49.1154 86.3345 49.017L87.0728 47.3925L87.0236 47.3432C86.7775 47.4909 86.5316 47.5893 86.2363 47.5893C85.8918 47.5893 85.5469 47.4909 85.3501 47.3432C85.1532 47.1956 85.0059 46.9001 85.0059 46.4079V46.3099C85.0059 45.867 85.104 45.5225 85.3501 45.3256C85.5469 45.1287 85.8918 45.0305 86.2363 45.0305C86.63 45.0305 86.9255 45.1285 87.1716 45.3746C87.3685 45.5715 87.4667 45.9162 87.4667 46.3099V49.1648H89.7795V44.0952C89.7303 43.1109 89.4353 42.3724 88.9432 41.9295C88.451 41.4866 87.6632 41.2403 86.5805 41.2403V41.2405ZM68.1245 41.3885V49.115H70.5363V41.3885H68.1245Z" fill="#002855"/>
<path d="M65.8607 30.1191C65.3193 30.1191 64.8274 30.5619 64.8274 31.1525C64.8274 31.7431 65.2701 32.1868 65.8607 32.1868C66.4513 32.1868 66.8941 31.6938 66.8941 31.1525C66.8941 30.5619 66.4513 30.1191 65.8607 30.1191ZM58.9705 30.2672L55.5745 38.929H57.494L58.1832 37.2064H61.5294L62.2186 38.929H64.1382L60.7421 30.2672H58.9705ZM59.8568 32.728L60.9391 35.5819H58.7735L59.8568 32.728ZM71.3726 32.7772C70.7327 32.7772 70.1916 33.0237 69.8471 33.4174V32.8752H68.1245V38.9292H69.8961V36.4194C69.8961 35.1397 70.5853 34.4997 71.5696 34.4997H71.8647V32.7772H71.3726ZM64.9745 32.8752V38.9292H66.747V32.8752H64.9745Z" fill="#3FBBEF"/>
</svg>
