<svg width="108" height="72" viewBox="0 0 108 72" fill="none" xmlns="http://www.w3.org/2000/svg">
<path d="M55.3881 45.6609H57.2672V38.5314H54.6782L55.3881 39.4491M74.8336 45.6609H76.7127V38.5314H74.1237L74.8336 39.4491M60.7753 45.6609H58.9176L58.8963 39.4216L58.2077 38.5312H63.2097C64.4404 38.5312 65.3004 38.6601 65.803 38.9166C66.1335 39.0874 66.3855 39.3118 66.5574 39.5902C66.7421 39.8679 66.8351 40.1774 66.8351 40.5202C66.8351 41.1931 66.6234 41.7165 66.2003 42.08C65.9352 42.305 65.5908 42.4758 65.1549 42.5934C65.4986 42.6896 65.7634 42.7961 65.9487 42.9142C66.1206 43.0211 66.2796 43.1813 66.4118 43.3946C66.5175 43.566 66.5966 43.7266 66.6498 43.8761C66.6894 44.0362 66.7291 44.2713 66.7556 44.5816C66.8088 45.0943 66.8748 45.4576 66.9672 45.6609L64.8636 45.6716C64.7976 45.5008 64.731 45.1588 64.6649 44.6454C64.6122 44.2287 64.5199 43.908 64.3743 43.6941C64.2417 43.4703 64.043 43.2989 63.7785 43.1706C63.4341 43.0211 62.9315 42.9567 62.2832 42.9567H60.7967V45.6611L60.7753 45.6609ZM60.7967 41.6846H63.408C63.8447 41.6846 64.1628 41.6315 64.3475 41.5351C64.6257 41.375 64.7708 41.0968 64.7708 40.7014C64.7708 40.2631 64.5591 39.9853 64.136 39.8677C63.9903 39.8247 63.7524 39.8035 63.408 39.8035H60.7967M68.0321 38.5314H69.8971V42.529C69.8971 43.0418 69.9503 43.3839 69.9772 43.5447C70.0426 43.8648 70.2415 44.0894 70.5589 44.207C70.8898 44.3251 71.4588 44.3889 72.2793 44.3889H74.0785V45.6609H72.0806C71.1411 45.6609 70.4531 45.6286 70.0298 45.5327C69.0505 45.3077 68.4419 44.8055 68.1905 44.0361C68.0848 43.7372 68.0321 43.2344 68.0321 42.5396V42.4109L68.0281 39.4491L67.3182 38.5314M45.3151 45.6609L48.4991 39.444L47.7932 38.5314H51.1234L54.7756 45.6609H52.5784L51.719 44.015H48.3714L47.5113 45.6609H45.3151ZM50.0518 40.2524L48.7948 42.7429H51.3088M80.2081 40.4339V45.6605H78.4084V38.5312H80.8164L84.3234 43.8437V39.4373L83.622 38.5314H86.1094V45.6605H83.8072M89.6243 38.5314V45.6609H87.7452L87.7447 39.4491L87.0348 38.5314H87.7454H89.6243ZM89.6903 42.0587L93.0642 38.5314H95.5385L91.847 42.0587L95.3666 45.6609H92.8923" fill="#20407E"/>
<path d="M20.6728 46.0453L12.9669 25.985L20.9521 25.957C22.5566 27.4099 28.304 32.7445 31.1539 35.315C34.0043 37.8854 41.2918 44.4731 41.2918 44.4731C42.354 45.3168 42.7582 45.4384 43.9351 45.7587L43.9344 46.0453" fill="white"/>
<path d="M20.6728 46.0453L12.9669 25.985L20.9521 25.957C22.5566 27.4099 28.304 32.7445 31.1539 35.315C34.0043 37.8854 41.2918 44.4731 41.2918 44.4731C42.354 45.3168 42.7582 45.4384 43.9351 45.7587L43.9344 46.0453H20.6728Z" stroke="white" stroke-width="7.72737" stroke-miterlimit="3.864"/>
<path d="M20.8002 45.8666L20.7431 45.7177L34.6861 38.7773L39.6685 43.2866C41.0409 44.519 42.0252 45.5883 43.856 45.8666" fill="#20407E"/>
<path d="M17.6974 37.7001H33.4824L20.8406 26.1367L13.2451 26.1383" fill="#E4292F"/>
<path d="M18.4667 33.1603C18.5418 31.7056 19.8145 30.5919 21.31 30.672C22.8054 30.7527 23.9571 31.9966 23.882 33.4514C23.8074 34.9059 22.5344 36.0201 21.0396 35.9394C19.5434 35.8588 18.3918 34.6147 18.4669 33.1601" fill="white"/>
<path d="M18.4667 33.1603C18.5418 31.7056 19.8145 30.5919 21.31 30.672C22.8054 30.7527 23.9571 31.9966 23.882 33.4514C23.8074 34.9059 22.5344 36.0201 21.0396 35.9394C19.5434 35.8588 18.3918 34.6147 18.4669 33.1601L18.4667 33.1603Z" stroke="white" stroke-width="3.27822" stroke-miterlimit="3.864" stroke-linejoin="round"/>
<path d="M20.1339 32.8769C20.1339 32.8769 20.4274 32.5891 20.1687 32.2C20.1665 32.196 20.3198 32.2481 20.4666 32.2616C20.4704 32.2622 20.4733 32.1917 20.4739 32.1822C20.1501 32.087 19.6905 31.9195 19.6089 31.7162C19.6089 31.7162 20.1424 31.9727 20.4906 31.9991L20.5187 31.9118C20.172 31.8254 19.4509 31.6104 19.3053 31.2812C19.3053 31.2812 20.0589 31.6916 20.5645 31.7515C20.5674 31.7521 20.601 31.6642 20.601 31.6642C20.2773 31.5712 19.5904 31.2319 19.2595 30.6586C19.2595 30.6586 20.069 31.3288 20.6815 31.5074C20.6804 31.5069 20.7448 31.4201 20.7455 31.419C20.3876 31.2301 19.5321 30.8591 19.3468 30.2471C19.3428 30.2353 20.1368 30.9935 20.316 30.9565C20.316 30.9565 19.428 30.2276 19.3456 29.8008C19.3456 29.8008 20.8378 31.2812 20.9861 31.3752C21.0591 31.4217 21.1579 31.6194 21.1579 31.6194C21.1579 31.6194 21.4873 32.4312 22.0645 32.6261C22.0762 32.6306 21.3098 32.5236 20.9929 32.6049C20.6491 32.6937 20.1339 32.8769 20.1339 32.8769Z" fill="white"/>
<path d="M20.1339 32.8769C20.1339 32.8769 20.4274 32.5891 20.1687 32.2C20.1665 32.196 20.3198 32.2481 20.4666 32.2616C20.4704 32.2622 20.4733 32.1917 20.4739 32.1822C20.1501 32.087 19.6905 31.9195 19.6089 31.7162C19.6089 31.7162 20.1424 31.9727 20.4906 31.9991L20.5187 31.9118C20.172 31.8254 19.4509 31.6104 19.3053 31.2812C19.3053 31.2812 20.0589 31.6916 20.5645 31.7515C20.5674 31.7521 20.601 31.6642 20.601 31.6642C20.2773 31.5712 19.5904 31.2319 19.2595 30.6586C19.2595 30.6586 20.069 31.3288 20.6815 31.5074C20.6804 31.5069 20.7448 31.4201 20.7455 31.419C20.3876 31.2301 19.5321 30.8591 19.3468 30.2471C19.3428 30.2353 20.1368 30.9935 20.316 30.9565C20.316 30.9565 19.428 30.2276 19.3456 29.8008C19.3456 29.8008 20.8378 31.2812 20.9861 31.3752C21.0591 31.4217 21.1579 31.6194 21.1579 31.6194C21.1579 31.6194 21.4873 32.4312 22.0645 32.6261C22.0762 32.6306 21.3098 32.5236 20.9929 32.6049C20.6491 32.6937 20.1339 32.8769 20.1339 32.8769V32.8769Z" stroke="white" stroke-width="3.27822" stroke-miterlimit="3.864" stroke-linejoin="round"/>
<path d="M19.6716 29.3263C19.6716 29.3263 20.3399 30.1069 20.6872 30.3503C21.3433 30.8106 21.355 31.38 21.3433 31.614C21.3433 31.614 20.8719 30.9236 20.6434 30.6768C20.415 30.4298 19.8506 29.8615 19.6714 29.3262" fill="white"/>
<path d="M19.6716 29.3263C19.6716 29.3263 20.3399 30.1069 20.6872 30.3503C21.3433 30.8106 21.355 31.38 21.3433 31.614C21.3433 31.614 20.8719 30.9236 20.6434 30.6768C20.415 30.4298 19.8506 29.8615 19.6714 29.3262L19.6716 29.3263Z" stroke="white" stroke-width="3.27822" stroke-miterlimit="3.864" stroke-linejoin="round"/>
<path d="M24.0495 32.3809C24.0495 32.3809 23.3518 32.7532 23.0534 33.0987C23.0512 33.1027 22.9996 33.1144 22.8675 33.1077C22.7349 33.1004 22.4886 33.1233 22.2965 33.0225C22.1045 32.9217 21.9364 32.7516 21.9364 32.7516C21.9364 32.7516 22.2405 32.7935 22.5427 32.7733C22.7679 32.7589 23.1569 32.6072 23.171 32.5999C23.4968 32.4409 24.0495 32.3809 24.0495 32.3809Z" fill="white"/>
<path d="M24.0495 32.3809C24.0495 32.3809 23.3518 32.7532 23.0534 33.0987C23.0512 33.1027 22.9996 33.1144 22.8675 33.1077C22.7349 33.1004 22.4886 33.1233 22.2965 33.0225C22.1045 32.9217 21.9364 32.7516 21.9364 32.7516C21.9364 32.7516 22.2405 32.7935 22.5427 32.7733C22.7679 32.7589 23.1569 32.6072 23.171 32.5999C23.4968 32.4409 24.0495 32.3809 24.0495 32.3809Z" stroke="white" stroke-width="3.27822" stroke-miterlimit="3.864" stroke-linejoin="round"/>
<path d="M22.8485 32.3794C22.5561 32.5866 22.2152 32.6466 22.2152 32.6466C22.2152 32.6466 22.6638 32.6298 22.8279 32.5543C23.2795 32.347 23.8557 32.267 23.8557 32.267C23.7785 32.1886 23.5932 32.1476 23.5932 32.1476C23.5943 32.1549 23.606 32.1826 23.6054 32.1897C23.6043 32.2071 23.5998 32.224 23.5921 32.2396C23.5845 32.2552 23.5738 32.2692 23.5608 32.2807C23.5477 32.2922 23.5326 32.301 23.5161 32.3066C23.4997 32.3123 23.4823 32.3146 23.4649 32.3135C23.4296 32.3121 23.3964 32.2967 23.3725 32.2707C23.3485 32.2448 23.3359 32.2104 23.3373 32.1751C23.3378 32.1611 23.3513 32.1348 23.3457 32.1348C23.2757 32.1337 23.1407 32.1724 22.8485 32.3795" fill="white"/>
<path d="M22.8485 32.3794C22.5561 32.5866 22.2152 32.6466 22.2152 32.6466C22.2152 32.6466 22.6638 32.6298 22.8279 32.5543C23.2795 32.347 23.8557 32.267 23.8557 32.267C23.7785 32.1886 23.5932 32.1476 23.5932 32.1476C23.5943 32.1549 23.606 32.1826 23.6054 32.1897C23.6043 32.2071 23.5998 32.224 23.5921 32.2396C23.5845 32.2552 23.5738 32.2692 23.5608 32.2807C23.5477 32.2922 23.5326 32.301 23.5161 32.3066C23.4997 32.3123 23.4823 32.3146 23.4649 32.3135C23.4296 32.3121 23.3964 32.2967 23.3725 32.2707C23.3485 32.2448 23.3359 32.2104 23.3373 32.1751C23.3378 32.1611 23.3513 32.1348 23.3457 32.1348C23.2757 32.1337 23.1407 32.1724 22.8485 32.3795V32.3794Z" stroke="white" stroke-width="3.27822" stroke-miterlimit="3.864" stroke-linejoin="round"/>
<path d="M19.7784 34.1665C19.7711 34.1654 20.0243 34.0848 20.1609 33.8418C20.1609 33.8418 20.368 34.1032 20.6183 34.1672C20.6215 34.1683 20.0947 34.2186 19.7784 34.1665Z" fill="white"/>
<path d="M19.7784 34.1665C19.7711 34.1654 20.0243 34.0848 20.1609 33.8418C20.1609 33.8418 20.368 34.1032 20.6183 34.1672C20.6215 34.1683 20.0947 34.2186 19.7784 34.1665V34.1665Z" stroke="white" stroke-width="3.27822" stroke-miterlimit="3.864" stroke-linejoin="round"/>
<path d="M18.98 34.084C18.98 34.084 19.3574 33.7834 19.5136 33.5566C19.6094 33.4182 20.0808 33.0091 20.4212 32.957C20.4212 32.957 20.7348 33.748 21.8277 33.9161C21.8277 33.9161 20.9207 34.3522 19.0114 34.0935" fill="white"/>
<path d="M18.98 34.084C18.98 34.084 19.3574 33.7834 19.5136 33.5566C19.6094 33.4182 20.0808 33.0091 20.4212 32.957C20.4212 32.957 20.7348 33.748 21.8277 33.9161C21.8277 33.9161 20.9207 34.3522 19.0114 34.0935L18.98 34.084Z" stroke="white" stroke-width="3.27822" stroke-miterlimit="3.864" stroke-linejoin="round"/>
<path d="M20.6156 32.8784C20.6156 32.8784 20.9897 32.6735 21.6531 32.7251C21.8467 32.7407 22.0512 33.1976 22.5876 33.2503C22.8126 33.272 22.9415 33.2457 22.9415 33.2457C22.9415 33.2457 22.5114 33.7345 22.1503 33.7536C21.7707 33.7732 21.3178 33.7318 20.8289 33.2178C20.7153 33.0979 20.6156 32.8784 20.6156 32.8784Z" fill="white"/>
<path d="M20.6156 32.8784C20.6156 32.8784 20.9897 32.6735 21.6531 32.7251C21.8467 32.7407 22.0512 33.1976 22.5876 33.2503C22.8126 33.272 22.9415 33.2457 22.9415 33.2457C22.9415 33.2457 22.5114 33.7345 22.1503 33.7536C21.7707 33.7732 21.3178 33.7318 20.8289 33.2178C20.7153 33.0979 20.6156 32.8784 20.6156 32.8784V32.8784Z" stroke="white" stroke-width="3.27822" stroke-miterlimit="3.864" stroke-linejoin="round"/>
<path d="M17.5126 33.8491C17.5126 33.8491 18.1778 33.885 18.4387 33.8205C18.6996 33.7563 19.106 33.6672 19.2633 33.5742C19.2633 33.5742 18.815 34.1773 18.1974 34.1441C17.5793 34.1111 17.5126 33.8491 17.5126 33.8491Z" fill="white"/>
<path d="M17.5126 33.8491C17.5126 33.8491 18.1778 33.885 18.4387 33.8205C18.6996 33.7563 19.106 33.6672 19.2633 33.5742C19.2633 33.5742 18.815 34.1773 18.1974 34.1441C17.5793 34.1111 17.5126 33.8491 17.5126 33.8491Z" stroke="white" stroke-width="3.27822" stroke-miterlimit="3.864" stroke-linejoin="round"/>
<path d="M21.5007 31.4602C21.5007 31.4602 21.48 32.07 21.8092 32.1617C21.8538 32.1748 21.8993 32.1843 21.9454 32.1903C21.9454 32.1903 22.0265 32.2463 22.4671 32.0633C22.7257 31.9562 23.1054 31.9898 23.1054 31.9898C23.1054 31.9898 23.5814 31.9652 23.8472 32.2715C23.8496 32.2738 24.4127 32.2193 24.5768 32.2401C24.7409 32.2607 25.2011 32.3011 25.5885 32.7407C25.5885 32.7407 25.1099 32.355 24.5696 32.3768C24.1938 32.3918 23.9027 32.5989 23.8859 32.6096C23.8697 32.6207 23.2684 33.0457 23.1406 33.1952C23.0119 33.3447 22.6732 33.8313 21.5724 34.1246C20.7746 34.3368 19.5355 34.3162 19.5355 34.3162C19.5355 34.3162 19.0361 34.4847 18.6385 34.4752C18.2411 34.4657 18.0973 34.2978 18.0973 34.2978C18.0973 34.2978 17.4012 34.221 17.212 33.6752C17.212 33.6752 17.9381 33.7104 17.9667 33.7037C17.9953 33.6974 19.0047 33.6969 19.6111 33.2328C20.167 32.8084 20.1621 32.5345 20.1621 32.5345C20.1621 32.5345 20.1324 32.2104 19.7982 32.0671C19.4246 31.9075 19.4427 31.6746 19.4427 31.6746C19.4427 31.6746 19.0642 31.3651 19.0777 30.9435C19.0777 30.9435 19.1676 31.0476 19.3233 31.1444L19.6519 31.3196C19.3497 31.1036 18.8128 30.4619 18.7495 29.9787C18.7495 29.9787 19.0843 30.4619 19.376 30.5891C19.3927 30.5962 18.7422 29.9552 18.7253 29.5006C18.7253 29.5006 19.0086 29.9383 19.3535 30.1131C19.371 30.122 18.7428 29.3214 18.7752 28.6977C18.7752 28.6977 19.2595 29.2016 19.3418 29.3627C19.2919 29.197 19.0473 28.1965 19.0977 27.7369C19.0977 27.7369 19.2919 28.9675 20.3608 29.7604C20.367 29.7649 19.2662 28.2151 19.4908 27.2884L19.573 27.6109L19.8407 28.1781C19.8434 28.1821 19.9836 27.1776 20.0859 27.1406C20.0859 27.1406 19.9079 28.4065 20.6986 29.3018C21.4889 30.1966 21.5007 31.4602 21.5007 31.4602Z" fill="white"/>
<path d="M21.5007 31.4602C21.5007 31.4602 21.48 32.07 21.8092 32.1617C21.8538 32.1748 21.8993 32.1843 21.9454 32.1903C21.9454 32.1903 22.0265 32.2463 22.4671 32.0633C22.7257 31.9562 23.1054 31.9898 23.1054 31.9898C23.1054 31.9898 23.5814 31.9652 23.8472 32.2715C23.8496 32.2738 24.4127 32.2193 24.5768 32.2401C24.7409 32.2607 25.2011 32.3011 25.5885 32.7407C25.5885 32.7407 25.1099 32.355 24.5696 32.3768C24.1938 32.3918 23.9027 32.5989 23.8859 32.6096C23.8697 32.6207 23.2684 33.0457 23.1406 33.1952C23.0119 33.3447 22.6732 33.8313 21.5724 34.1246C20.7746 34.3368 19.5355 34.3162 19.5355 34.3162C19.5355 34.3162 19.0361 34.4847 18.6385 34.4752C18.2411 34.4657 18.0973 34.2978 18.0973 34.2978C18.0973 34.2978 17.4012 34.221 17.212 33.6752C17.212 33.6752 17.9381 33.7104 17.9667 33.7037C17.9953 33.6974 19.0047 33.6969 19.6111 33.2328C20.167 32.8084 20.1621 32.5345 20.1621 32.5345C20.1621 32.5345 20.1324 32.2104 19.7982 32.0671C19.4246 31.9075 19.4427 31.6746 19.4427 31.6746C19.4427 31.6746 19.0642 31.3651 19.0777 30.9435C19.0777 30.9435 19.1676 31.0476 19.3233 31.1444L19.6519 31.3196C19.3497 31.1036 18.8128 30.4619 18.7495 29.9787C18.7495 29.9787 19.0843 30.4619 19.376 30.5891C19.3927 30.5962 18.7422 29.9552 18.7253 29.5006C18.7253 29.5006 19.0086 29.9383 19.3535 30.1131C19.371 30.122 18.7428 29.3214 18.7752 28.6977C18.7752 28.6977 19.2595 29.2016 19.3418 29.3627C19.2919 29.197 19.0473 28.1965 19.0977 27.7369C19.0977 27.7369 19.2919 28.9675 20.3608 29.7604C20.367 29.7649 19.2662 28.2151 19.4908 27.2884L19.573 27.6109L19.8407 28.1781C19.8434 28.1821 19.9836 27.1776 20.0859 27.1406C20.0859 27.1406 19.9079 28.4065 20.6986 29.3018C21.4889 30.1966 21.5007 31.4602 21.5007 31.4602V31.4602Z" stroke="white" stroke-width="4.32394" stroke-miterlimit="3.864" stroke-linejoin="round"/>
<path d="M19.181 31.2796L19.6726 31.3064L19.6916 30.9469L19.1996 30.9199" fill="white"/>
<path d="M19.1994 30.9199L19.6911 30.9463L19.6726 31.3057L19.181 31.2794L19.1994 30.9199Z" stroke="white" stroke-width="3.27822" stroke-miterlimit="3.864" stroke-linejoin="round"/>
<path d="M18.2858 33.1868C18.3652 31.6405 19.7186 30.4558 21.3086 30.5415C22.8988 30.6265 24.1233 31.9495 24.0438 33.4966C23.9643 35.0429 22.6105 36.2271 21.0208 36.142C19.4307 36.0563 18.2063 34.7333 18.2858 33.1868Z" fill="white"/>
<path d="M18.2858 33.1868C18.3652 31.6405 19.7186 30.4558 21.3086 30.5415C22.8988 30.6265 24.1233 31.9495 24.0438 33.4966C23.9643 35.0429 22.6105 36.2271 21.0208 36.142C19.4307 36.0563 18.2063 34.7333 18.2858 33.1868V33.1868Z" stroke="white" stroke-width="4.32394" stroke-miterlimit="3.864" stroke-linejoin="round"/>
<mask id="mask0_2015_46" style="mask-type:luminance" maskUnits="userSpaceOnUse" x="17" y="30" width="8" height="7">
<path d="M24.4082 30.5525L24.0952 36.5215L17.9134 36.1973L18.2264 30.2283" fill="white"/>
</mask>
<g mask="url(#mask0_2015_46)">
<path d="M18.2891 33.1786C18.2101 34.7211 19.4312 36.0414 21.0168 36.1265C22.6025 36.2121 23.9524 35.0308 24.0319 33.4883C24.1114 31.9452 22.8897 30.6261 21.3041 30.5404C21.2504 30.5375 21.1966 30.536 21.1428 30.5359C19.6278 30.5359 18.3663 31.6888 18.2891 33.1786Z" fill="url(#paint0_linear_2015_46)"/>
</g>
<path d="M19.1665 31.3095L19.6582 31.3363L19.6766 30.9762L19.1851 30.9492" fill="white"/>
<path d="M19.1851 30.9492L19.6766 30.9756L19.6582 31.3357L19.1665 31.3087L19.1851 30.9492Z" stroke="white" stroke-width="0.322709" stroke-miterlimit="3.864"/>
<path d="M21.5013 31.4611C21.5013 31.4611 21.4807 32.0709 21.8098 32.1626C21.8543 32.1757 21.8998 32.1853 21.9458 32.1912C21.9458 32.1912 22.0265 32.2472 22.467 32.0642C22.7257 31.9572 23.0923 31.9657 23.0923 31.9657C23.0923 31.9657 23.5812 31.9661 23.8478 32.2724C23.85 32.2747 24.4133 32.2204 24.5774 32.241C24.7409 32.2618 25.2011 32.3021 25.589 32.7416C25.589 32.7416 25.1097 32.3559 24.5701 32.3777C24.1939 32.3927 23.9032 32.5999 23.8864 32.6107C23.8695 32.6218 23.269 33.0473 23.1406 33.1963C23.0119 33.3458 22.6737 33.8322 21.573 34.1257C20.775 34.3372 19.536 34.3171 19.536 34.3171C19.536 34.3171 19.0367 34.4856 18.6391 34.4761C18.2411 34.4666 18.0971 34.2982 18.0971 34.2982C18.0971 34.2982 17.4012 34.222 17.2125 33.6761C17.2125 33.6761 17.9381 33.7113 17.9667 33.7046C17.9952 33.6984 19.0046 33.698 19.6117 33.2337C20.1672 32.8089 20.1621 32.5356 20.1621 32.5356C20.1621 32.5356 20.1329 32.2113 19.798 32.068C19.4252 31.9085 19.4425 31.6755 19.4425 31.6755C19.4425 31.6755 19.0648 31.3661 19.0781 30.9444C19.0781 30.9444 19.1683 31.0485 19.3238 31.1455L19.652 31.3207C19.3497 31.1045 18.8128 30.4628 18.7494 29.9796C18.7494 29.9796 19.0843 30.4628 19.376 30.59C19.3927 30.5973 18.7428 29.9562 18.7259 29.5015C18.7259 29.5015 19.0092 29.9394 19.3535 30.1142C19.3709 30.123 18.7432 29.3224 18.7751 28.6986C18.7751 28.6986 19.0815 29.4814 19.8815 30.0251C19.8866 30.0283 19.044 29.0291 19.0983 27.738C19.0983 27.738 19.2919 28.9686 20.3613 29.7613C20.367 29.7658 19.2662 28.216 19.4912 27.2895C19.4912 27.2895 19.5965 28.3671 20.5108 29.5111C20.5143 29.5155 19.6766 28.3772 20.0551 27.2793C20.0551 27.2793 19.9083 28.4076 20.6984 29.3028C21.4889 30.1975 21.5013 31.4613 21.5013 31.4613" fill="#080909"/>
<path d="M21.5013 31.4611C21.5013 31.4611 21.4807 32.0709 21.8098 32.1626C21.8543 32.1757 21.8998 32.1853 21.9458 32.1912C21.9458 32.1912 22.0265 32.2472 22.467 32.0642C22.7257 31.9572 23.0923 31.9657 23.0923 31.9657C23.0923 31.9657 23.5812 31.9661 23.8478 32.2724C23.85 32.2747 24.4133 32.2204 24.5774 32.241C24.7409 32.2618 25.2011 32.3021 25.589 32.7416C25.589 32.7416 25.1097 32.3559 24.5701 32.3777C24.1939 32.3927 23.9032 32.5999 23.8864 32.6107C23.8695 32.6218 23.269 33.0473 23.1406 33.1963C23.0119 33.3458 22.6737 33.8322 21.573 34.1257C20.775 34.3372 19.536 34.3171 19.536 34.3171C19.536 34.3171 19.0367 34.4856 18.6391 34.4761C18.2411 34.4666 18.0971 34.2982 18.0971 34.2982C18.0971 34.2982 17.4012 34.222 17.2125 33.6761C17.2125 33.6761 17.9381 33.7113 17.9667 33.7046C17.9952 33.6984 19.0046 33.698 19.6117 33.2337C20.1672 32.8089 20.1621 32.5356 20.1621 32.5356C20.1621 32.5356 20.1329 32.2113 19.798 32.068C19.4252 31.9085 19.4425 31.6755 19.4425 31.6755C19.4425 31.6755 19.0648 31.3661 19.0781 30.9444C19.0781 30.9444 19.1683 31.0485 19.3238 31.1455L19.652 31.3207C19.3497 31.1045 18.8128 30.4628 18.7494 29.9796C18.7494 29.9796 19.0843 30.4628 19.376 30.59C19.3927 30.5973 18.7428 29.9562 18.7259 29.5015C18.7259 29.5015 19.0092 29.9394 19.3535 30.1142C19.3709 30.123 18.7432 29.3224 18.7751 28.6986C18.7751 28.6986 19.0815 29.4814 19.8815 30.0251C19.8866 30.0283 19.044 29.0291 19.0983 27.738C19.0983 27.738 19.2919 28.9686 20.3613 29.7613C20.367 29.7658 19.2662 28.216 19.4912 27.2895C19.4912 27.2895 19.5965 28.3671 20.5108 29.5111C20.5143 29.5155 19.6766 28.3772 20.0551 27.2793C20.0551 27.2793 19.9083 28.4076 20.6984 29.3028C21.4889 30.1975 21.5013 31.4613 21.5013 31.4613V31.4611Z" stroke="#080909" stroke-width="0.199268" stroke-miterlimit="3.864"/>
<path d="M17.5133 33.8471C17.5133 33.8471 18.1796 33.883 18.4398 33.8186C18.7008 33.7541 19.1067 33.6651 19.264 33.5723C19.264 33.5723 18.8155 34.1754 18.198 34.142C17.5804 34.1092 17.5133 33.8471 17.5133 33.8471Z" fill="#009450"/>
<path d="M17.5133 33.8472C17.5133 33.8472 18.1796 33.883 18.4398 33.8186C18.7008 33.7541 19.1067 33.6651 19.264 33.5723C19.264 33.5723 18.8155 34.1754 18.198 34.142C17.5804 34.1092 17.5133 33.8472 17.5133 33.8472V33.8472Z" stroke="#009450" stroke-width="0.199268" stroke-miterlimit="3.864"/>
<path d="M20.6156 32.8783C20.6156 32.8783 20.9897 32.6732 21.6531 32.7253C21.8467 32.7405 22.0518 33.1973 22.5881 33.25C22.8126 33.2719 22.942 33.2455 22.942 33.2455C22.942 33.2455 22.5119 33.7343 22.1503 33.7534C21.7707 33.7729 21.3182 33.7315 20.8296 33.2181C20.7153 33.0976 20.6156 32.8783 20.6156 32.8783Z" fill="white"/>
<path d="M18.9813 34.0822C18.9813 34.0822 19.3586 33.7815 19.5147 33.5547C19.61 33.4158 20.082 33.0071 20.423 32.9551C20.4241 32.9544 20.736 33.7462 21.8289 33.9142C21.8289 33.9142 20.9219 34.3503 19.0132 34.0916" fill="#20407E"/>
<path d="M18.9813 34.0822C18.9813 34.0822 19.3586 33.7815 19.5147 33.5547C19.61 33.4158 20.082 33.0071 20.423 32.9551C20.4241 32.9544 20.736 33.7462 21.8289 33.9142C21.8289 33.9142 20.9219 34.3503 19.0132 34.0916L18.9813 34.0822Z" stroke="#20407E" stroke-width="0.322709" stroke-miterlimit="3.864"/>
<path d="M19.7791 34.1664C19.7718 34.1653 20.0247 34.0847 20.1614 33.8417C20.1614 33.8417 20.3691 34.1033 20.6188 34.1671C20.6221 34.1677 20.0954 34.2186 19.7791 34.1664ZM22.849 32.3787C22.5566 32.5866 22.2157 32.6465 22.2157 32.6465C22.2157 32.6465 22.6636 32.629 22.8275 32.5535C23.2794 32.3464 23.856 32.2662 23.856 32.2662C23.7788 32.1884 23.593 32.1475 23.593 32.1475C23.5941 32.1548 23.6063 32.1816 23.6057 32.1889C23.6046 32.2063 23.6001 32.2233 23.5924 32.239C23.5848 32.2546 23.5741 32.2686 23.561 32.2801C23.5479 32.2916 23.5326 32.3004 23.5161 32.306C23.4996 32.3116 23.4822 32.3139 23.4648 32.3127C23.4295 32.3113 23.3963 32.2959 23.3724 32.27C23.3484 32.2441 23.3358 32.2097 23.3372 32.1745C23.3383 32.161 23.3516 32.1348 23.346 32.1348C23.2762 32.1335 23.1405 32.1716 22.8488 32.3787" fill="white"/>
<path d="M24.05 32.3809C24.05 32.3809 23.3524 32.7527 23.0541 33.0982C23.0517 33.1014 22.9996 33.1144 22.8676 33.1071C22.7349 33.1004 22.4891 33.1222 22.297 33.0214C22.105 32.9217 21.9371 32.7516 21.9371 32.7516C21.9371 32.7516 22.241 32.7935 22.5429 32.7733C22.7679 32.7578 23.1571 32.6061 23.171 32.5999C23.4969 32.4396 24.05 32.3809 24.05 32.3809Z" fill="#E4292F"/>
<path d="M19.6722 29.3242C19.6722 29.3242 20.3407 30.1047 20.6879 30.3484C21.3434 30.8086 21.3558 31.3779 21.3434 31.612C21.3434 31.612 20.8725 30.9216 20.6441 30.6747C20.4151 30.4279 19.8514 29.8595 19.6722 29.3242Z" fill="white"/>
<path d="M20.1346 32.8748C20.1346 32.8748 20.4279 32.5875 20.1692 32.1979C20.167 32.1941 20.32 32.2466 20.4671 32.2595C20.471 32.2601 20.4739 32.1896 20.4744 32.1801C20.1508 32.0849 19.6911 31.9174 19.6094 31.7141C19.6094 31.7141 20.143 31.9706 20.4912 31.9969L20.5187 31.9097C20.1727 31.8233 19.4515 31.6084 19.3064 31.2791C19.3064 31.2791 20.06 31.6895 20.5645 31.75C20.5685 31.75 20.6015 31.6621 20.6015 31.6621C20.2784 31.5692 19.5904 31.2299 19.2595 30.6565C19.2595 30.6565 20.0695 31.3267 20.6821 31.5054C20.681 31.5048 20.7453 31.4181 20.7459 31.4169C20.3882 31.2282 19.5332 30.8569 19.3474 30.2451C19.3439 30.2332 20.1373 30.9914 20.3165 30.9539C20.3165 30.9539 19.4285 30.2254 19.3463 29.7988C19.3463 29.7988 20.8383 31.2796 20.9867 31.3732C21.0589 31.4197 21.1592 31.6173 21.1592 31.6173C21.1592 31.6173 21.4877 32.4291 22.065 32.6246C22.0769 32.6285 21.3109 32.5215 20.994 32.6034C20.6496 32.6918 20.1346 32.8748 20.1346 32.8748Z" fill="#009450"/>
<path d="M23.9966 32.0679C23.9966 32.0679 24.3437 31.9604 24.8275 32.0736C25.285 32.1806 25.8857 32.4958 25.7553 32.8765C25.7553 32.8765 25.6283 33.1049 25.2474 32.7718C25.0665 32.6732 24.6507 32.4723 24.2161 32.6738L24.192 32.7018L25.8135 33.3193L26.0671 32.4118L24.6461 31.8262L23.9379 31.989" fill="#E4292F"/>
<path d="M17.913 38.3145L20.473 45.0193L27.0102 39.8368" fill="#009450"/>
<mask id="mask1_2015_46" style="mask-type:luminance" maskUnits="userSpaceOnUse" x="17" y="38" width="18" height="8">
<path d="M17.8451 38.2935H34.1352V45.0234H17.8451V38.2935Z" fill="white"/>
</mask>
<g mask="url(#mask1_2015_46)">
<path d="M17.8451 38.2952L26.3264 40.0992L20.4699 45.0234L34.1352 38.2935" fill="url(#paint1_linear_2015_46)"/>
</g>
<defs>
<linearGradient id="paint0_linear_2015_46" x1="24.7616" y1="30.7221" x2="24.4689" y2="36.3078" gradientUnits="userSpaceOnUse">
<stop stop-color="#FFE0A9"/>
<stop offset="1" stop-color="#C7822A"/>
</linearGradient>
<linearGradient id="paint1_linear_2015_46" x1="34.7181" y1="38.2935" x2="34.7181" y2="45.0234" gradientUnits="userSpaceOnUse">
<stop stop-color="#FFE0A9"/>
<stop offset="1" stop-color="#C7822A"/>
</linearGradient>
</defs>
</svg>
