<svg width="108" height="72" viewBox="0 0 108 72" fill="none" xmlns="http://www.w3.org/2000/svg">
<path d="M12.4615 42.3076C12.644 42.2143 12.7255 41.993 12.7255 41.8037V37.1595C12.7255 36.9629 12.644 36.7481 12.4615 36.6494H14.6751C15.6622 36.6494 16.6253 37.0534 16.6253 38.1741C16.6253 38.7686 16.1072 39.2374 15.5486 39.3427C16.3533 39.3355 17.1309 39.827 17.1309 40.715C17.1309 41.984 15.7999 42.3079 14.8637 42.3079H12.4615V42.3076ZM14.2534 37.1367C14.1508 37.1367 14.0796 37.1367 13.8906 37.1595V39.1399H14.1147C14.7931 39.1399 15.4488 38.9303 15.4488 38.1442C15.4488 37.3643 14.9246 37.1367 14.2534 37.1367ZM14.3945 39.6497C14.2328 39.6497 14.0875 39.6497 13.8906 39.6645V41.7558C14.136 41.804 14.4014 41.8198 14.6461 41.8198C15.2141 41.8198 15.7916 41.5665 15.7916 40.6988C15.7916 39.8424 15.1087 39.6497 14.3945 39.6497ZM19.3199 37.1367C19.2188 37.1367 19.1296 37.1533 19.0298 37.1674V39.1241C19.1224 39.1307 19.2064 39.1403 19.2979 39.1403C19.9347 39.1403 20.4059 38.7889 20.4059 38.0964C20.4059 37.3887 19.9426 37.1367 19.3199 37.1367ZM22.173 42.3409C21.9561 42.3409 21.7169 42.3489 21.5097 42.2876C21.1246 42.174 20.5928 41.306 20.3814 40.9655C20.0527 40.4121 19.7671 39.6497 19.0301 39.6414V41.8037C19.0301 41.993 19.1158 42.2222 19.2983 42.3076H17.599C17.7776 42.2143 17.8626 42.0016 17.8626 41.8037V37.1595C17.8626 36.9629 17.7773 36.7481 17.599 36.6494H19.6449C20.5349 36.6494 21.6488 36.9911 21.6488 38.0606C21.6488 38.9579 20.9063 39.4177 20.0785 39.4177C21.2564 39.4246 21.9482 42.1874 23.2486 42.1954C22.8999 42.2986 22.5364 42.3409 22.173 42.3409ZM23.3339 42.3076C23.4744 42.2432 23.6213 42.0577 23.6213 41.8037V37.1595C23.6213 36.9017 23.4744 36.7192 23.3339 36.6494H25.0752C24.9258 36.7192 24.7895 36.9017 24.7895 37.1595V41.8037C24.7895 42.0577 24.9258 42.2432 25.0752 42.3076H23.3339ZM27.1125 42.3076C27.299 42.2222 27.3902 42.0016 27.3902 41.8037V37.2982H26.1398C25.8514 37.2982 25.5075 37.3336 25.2597 37.4806L25.6483 36.649H29.7958C30.1317 36.649 30.4753 36.6418 30.8015 36.5723C30.6436 36.998 30.1734 37.3137 29.9025 37.3137C29.5731 37.3061 29.0283 37.2841 28.5588 37.2841V41.8033C28.5588 42.0012 28.6569 42.2219 28.84 42.3072H27.1125V42.3076ZM31.0088 42.3076C31.1478 42.2432 31.2937 42.0577 31.2937 41.8037V37.1595C31.2937 36.9017 31.1478 36.7192 31.0088 36.6494H32.75C32.602 36.7192 32.4602 36.9017 32.4602 37.1595V41.8037C32.4602 42.0577 32.602 42.2432 32.75 42.3076H31.0088ZM36.1403 41.0275C36.1403 39.9498 33.6019 39.7065 33.6019 37.9862C33.6019 36.9213 34.6149 36.5726 35.5056 36.5726C35.9032 36.5726 36.4783 36.6277 36.8418 36.795L36.9051 37.8527C36.6817 37.3856 36.1224 37.0473 35.603 37.0473C35.1924 37.0473 34.7622 37.2503 34.7622 37.7198C34.7622 38.8374 37.3436 39.1103 37.3436 40.7398C37.3436 41.9224 36.3104 42.4122 35.2675 42.4122C34.7219 42.4122 33.9798 42.3072 33.5196 41.9926C33.4918 41.8033 33.479 41.6054 33.479 41.4116C33.479 41.1807 33.4993 40.949 33.5334 40.7212C33.8205 41.3755 34.4145 41.8873 35.1566 41.8873C35.7204 41.8876 36.1403 41.6419 36.1403 41.0275ZM41.5786 42.3076C41.7015 42.2521 41.8329 42.0577 41.8329 41.8037V39.6982C41.5301 39.6642 41.107 39.6494 40.6324 39.6494C40.1505 39.6494 39.7241 39.6642 39.4136 39.6982V41.8037C39.4136 42.0577 39.5417 42.2432 39.6662 42.3076H37.9897C38.1139 42.2521 38.2465 42.0577 38.2465 41.8037V37.1595C38.2465 36.9017 38.1139 36.7117 37.9897 36.6494H39.6662C39.5417 36.712 39.4136 36.9017 39.4136 37.1595V39.0618C39.7241 39.0945 40.143 39.1103 40.6324 39.1103C41.107 39.1103 41.5301 39.0897 41.8329 39.0618V37.1595C41.8329 36.9017 41.7018 36.7117 41.5786 36.6494H43.2527C43.1275 36.712 43.0032 36.9017 43.0032 37.1595V41.8037C43.0032 42.0577 43.1275 42.2432 43.2527 42.3076H41.5786ZM49.4672 42.3076C49.5212 42.2521 49.5701 42.2108 49.5701 42.1107C49.5701 42.077 49.5573 42.0205 49.516 41.9152C49.516 41.9152 49.0514 40.6506 48.997 40.5033C48.648 40.4603 48.2842 40.4603 47.9279 40.4603C47.5899 40.4603 47.2468 40.4682 46.9119 40.5033C46.8644 40.63 46.3663 41.8876 46.3663 41.8876C46.2992 42.0577 46.2761 42.1158 46.2761 42.153C46.2761 42.237 46.3484 42.278 46.4097 42.3076H45.2707C45.4387 42.2222 45.5843 42.0467 45.6562 41.8718L47.528 37.0407C47.5366 37.0207 47.5397 36.9984 47.5397 36.9712C47.5397 36.838 47.4512 36.7117 47.3321 36.649H48.8004L50.7042 41.867C50.782 42.0766 50.9479 42.2294 51.0873 42.3072H49.4672V42.3076ZM47.9888 37.7263L47.1308 39.9292C47.3865 39.9574 47.6519 39.9639 47.9107 39.9639C48.2074 39.9639 48.5007 39.9639 48.7891 39.9292L47.9888 37.7263ZM51.3771 42.3076C51.5175 42.2432 51.6628 42.0577 51.6628 41.8037V37.1595C51.6628 36.9017 51.5175 36.7192 51.3771 36.6494H53.1173C52.9693 36.7192 52.8313 36.9017 52.8313 37.1595V41.8037C52.8313 42.0577 52.969 42.2432 53.1173 42.3076H51.3771ZM55.7628 37.1367C55.6688 37.1367 55.5787 37.1533 55.4809 37.1674V39.1241C55.5718 39.1307 55.6547 39.1403 55.7432 39.1403C56.3813 39.1403 56.8515 38.7889 56.8515 38.0964C56.8511 37.3887 56.3861 37.1367 55.7628 37.1367ZM58.758 42.3409C58.5411 42.3409 58.3071 42.3489 58.095 42.2876C57.7092 42.174 57.1788 41.306 56.9671 40.9655C56.6398 40.4121 56.2137 39.6414 55.4809 39.6414V41.8037C55.4809 41.993 55.5628 42.2222 55.7432 42.3076H54.0453C54.2277 42.2143 54.3127 42.0016 54.3127 41.8037V37.1595C54.3127 36.9629 54.2277 36.7481 54.0453 36.6494H56.0956C56.9833 36.6494 58.0954 36.9911 58.0954 38.0606C58.0954 38.9579 57.2841 39.4177 56.6701 39.4177C57.8909 39.4879 58.6272 42.1954 59.8384 42.1954C59.4873 42.2986 59.1238 42.3409 58.758 42.3409ZM65.8174 37.2018L64.0978 42.3076C63.956 42.3076 63.8169 42.2587 63.7381 42.2033C63.5681 42.0394 63.3006 41.3555 63.2043 41.1032L62.4271 39.1399L61.3077 42.3076H60.7749L58.8506 37.1891C58.7679 36.9712 58.6268 36.7623 58.4169 36.6494H60.0893C60.0187 36.7041 59.9702 36.7664 59.9702 36.8855C59.9702 36.9426 59.9984 37.0214 60.0187 37.0824L61.272 40.4685L62.6064 36.6494L64.0761 40.3312L65.1892 36.9984C65.2168 36.9079 65.2329 36.8745 65.2329 36.8173C65.2329 36.7481 65.203 36.7041 65.1331 36.6494H66.2407C66.0359 36.7568 65.8879 36.9911 65.8174 37.2018ZM67.8729 37.7263L67.0152 39.9292C67.274 39.9574 67.5387 39.9639 67.7968 39.9639C68.0904 39.9639 68.3871 39.9639 68.6738 39.9292L67.8729 37.7263ZM69.3495 42.3076C69.408 42.2521 69.4524 42.2108 69.4524 42.1107C69.4524 42.077 69.4352 42.0205 69.4011 41.9152C69.4011 41.9152 68.9396 40.6506 68.8834 40.5033C68.5313 40.4603 68.1682 40.4603 67.812 40.4603C67.4771 40.4603 67.1336 40.4682 66.7969 40.5033C66.7484 40.63 66.2538 41.8876 66.2538 41.8876C66.1826 42.0577 66.1629 42.1158 66.1629 42.153C66.1629 42.237 66.2321 42.278 66.2927 42.3076H65.1534C65.3217 42.2222 65.467 42.0467 65.5375 41.8718L67.4158 37.0407C67.4213 37.0207 67.4265 36.9984 67.4265 36.9712C67.4265 36.838 67.3377 36.7117 67.2155 36.649H68.6852L70.5882 41.867C70.6671 42.0766 70.835 42.2294 70.9734 42.3072H69.3495V42.3076ZM74.4625 37.2434L73.1222 39.5936V41.8037C73.1222 41.9833 73.1958 42.2222 73.3748 42.3076H71.7072C71.8776 42.2143 71.9561 41.9775 71.9561 41.8037V39.5864L70.791 37.7198C70.6867 37.5453 70.2007 36.732 69.6083 36.732C69.7694 36.6707 70.2592 36.5774 70.5879 36.5774C71.1362 36.5774 71.4078 36.6277 71.7433 37.1533L72.8214 38.8618C72.9119 38.6942 73.7655 37.2101 73.7655 37.2101C73.8684 37.0294 73.939 36.9017 73.939 36.8383C73.939 36.7571 73.9039 36.7041 73.8212 36.6494H75.0225C74.7871 36.7623 74.5909 37.0211 74.4625 37.2434ZM77.5998 41.0275C77.5998 39.9498 75.061 39.7065 75.061 37.9862C75.061 36.9213 76.0712 36.5726 76.9624 36.5726C77.3613 36.5726 77.933 36.6277 78.2982 36.795L78.3615 37.8527C78.1357 37.3856 77.5788 37.0473 77.0591 37.0473C76.6478 37.0473 76.2203 37.2503 76.2203 37.7198C76.2203 38.8374 78.8017 39.1103 78.8017 40.7398C78.8017 41.9224 77.7757 42.4122 76.7252 42.4122C76.18 42.4122 75.4362 42.3072 74.9753 41.9926C74.9454 41.8033 74.9309 41.6054 74.9309 41.4116C74.9309 41.1807 74.9529 40.949 74.9881 40.7212C75.2748 41.3755 75.8709 41.8873 76.613 41.8873C77.1792 41.8876 77.5998 41.6419 77.5998 41.0275Z" fill="#2E5C99"/>
<path d="M93.2184 32.6885C92.267 33.634 90.206 34.4456 89.192 34.8256C87.8066 35.346 87.1919 35.5302 86.4168 35.7825C85.5394 36.0671 83.7844 36.5982 83.7844 36.5982C87.4201 37.6838 89.9823 38.0111 89.9823 38.0111C89.9823 38.0111 91.1759 37.6422 93.0669 36.6309C94.0909 36.1105 94.5948 35.7601 94.9552 35.4252C95.088 35.3051 95.4312 34.9478 95.5165 34.4907C95.522 34.4573 95.5386 34.3699 95.5386 34.2839C95.5386 34.2839 95.5386 34.2233 95.5331 34.1706C95.531 34.1101 95.5203 34.0694 95.5203 34.0694C95.5203 34.0694 95.5 33.961 95.4732 33.8849C95.4453 33.8089 95.3283 33.5741 95.1386 33.4217C95.012 33.3187 94.793 33.0623 94 32.7835C93.7305 32.6899 93.2941 32.6035 93.2941 32.6035L93.2184 32.6885Z" fill="url(#paint0_linear_2015_181)"/>
<path d="M95.5382 34.2599C95.5382 34.2599 95.5326 34.1588 95.5079 34.0731C95.4886 33.9966 95.4545 33.9237 95.4032 33.8469C95.3413 33.7557 95.2576 33.6487 95.1341 33.5303C95.0408 33.4421 94.9386 33.3644 94.8153 33.2818C94.3194 32.9568 93.6792 32.7737 93.1126 32.6963C92.2346 32.5796 91.2275 32.6002 91.1321 32.5968C90.8082 32.5923 88.7156 32.6095 88.1776 32.6192C85.7885 32.6684 82.8639 32.6749 82.0977 32.6749C74.1885 32.7111 70.7459 32.5407 66.9143 31.7725C63.6548 31.125 61.8464 30.51 61.8464 30.51C64.7215 30.4105 81.4968 29.7145 84.557 29.6333C86.5606 29.5769 87.9831 29.5648 89.1214 29.6305C89.7051 29.6632 90.2482 29.7128 90.9304 29.8288C91.5421 29.9334 92.0976 30.111 92.4211 30.2312C93.1026 30.4835 93.6771 30.8483 93.9611 31.2221C93.9611 31.2221 94.045 31.3081 94.159 31.461C94.2867 31.6386 94.435 31.8571 94.4853 31.9387C94.9 32.5672 95.0969 32.962 95.1654 33.0997C95.2394 33.2442 95.3048 33.3943 95.3685 33.5413C95.4308 33.6872 95.4562 33.7757 95.4762 33.8373C95.5199 33.9918 95.5306 34.1326 95.5326 34.1643L95.5382 34.2599Z" fill="#CE210F"/>
<defs>
<linearGradient id="paint0_linear_2015_181" x1="92.0064" y1="31.5403" x2="87.7604" y2="38.8945" gradientUnits="userSpaceOnUse">
<stop stop-color="#E6EBEF"/>
<stop offset="0.0764" stop-color="#BBCEE5"/>
<stop offset="0.1854" stop-color="#85A9D8"/>
<stop offset="0.2796" stop-color="#5D8FCF"/>
<stop offset="0.3543" stop-color="#457EC9"/>
<stop offset="0.4" stop-color="#3C78C7"/>
<stop offset="0.9" stop-color="#2E5C99"/>
</linearGradient>
</defs>
</svg>
