<svg width="108" height="72" viewBox="0 0 108 72" fill="none" xmlns="http://www.w3.org/2000/svg">
<path d="M15.1671 41.2627C15.1671 41.8148 14.5629 42.2596 13.8127 42.2596C13.0649 42.2596 12.4615 41.8148 12.4615 41.2627C12.4615 40.713 13.0658 40.2632 13.8143 40.2632C14.5629 40.2615 15.1671 40.7113 15.1671 41.2627ZM16.112 38.881C16.112 39.3434 15.5834 39.716 14.9271 39.7202C14.2692 39.716 13.7388 39.3434 13.7388 38.881C13.7388 38.4186 14.2692 38.0519 14.9271 38.0519C15.5834 38.0494 16.112 38.4186 16.112 38.881ZM16.8883 36.8938C16.8883 37.2639 16.4368 37.5652 15.8787 37.5668C15.319 37.5668 14.865 37.2656 14.865 36.8938C14.865 36.5246 15.3198 36.2224 15.8787 36.2224C16.4368 36.2224 16.8883 36.5262 16.8883 36.8938ZM18.9536 31.4693C18.9519 31.6153 18.7177 31.7344 18.4265 31.7344C18.1353 31.7344 17.8979 31.6153 17.8979 31.4693C17.8979 31.3207 18.1353 31.2041 18.4265 31.2041C18.7177 31.2041 18.9519 31.3199 18.9536 31.4693ZM19.5637 29.9344C19.5637 30.0401 19.3866 30.124 19.1676 30.124C18.9468 30.124 18.7715 30.0401 18.7698 29.9344C18.7698 29.8303 18.9468 29.7422 19.1676 29.7422C19.3866 29.7422 19.5637 29.8303 19.5637 29.9344ZM19.2758 30.6619C19.2758 30.7853 19.0727 30.8818 18.8168 30.8835C18.5658 30.8835 18.3611 30.7853 18.3611 30.6619C18.3611 30.5411 18.5658 30.4429 18.8168 30.4429C19.0719 30.4429 19.2758 30.5411 19.2758 30.6619ZM17.5437 35.1483C17.5437 35.4479 17.1585 35.6896 16.6827 35.6896C16.2102 35.6896 15.8242 35.4479 15.8242 35.1483C15.8242 34.8504 16.2094 34.6062 16.6827 34.6062C17.1585 34.607 17.5437 34.8504 17.5437 35.1483ZM18.1118 33.694C18.1118 33.9306 17.7837 34.1261 17.375 34.1261C16.9697 34.1261 16.6416 33.9306 16.6416 33.694C16.6416 33.4523 16.9697 33.2576 17.375 33.2576C17.7837 33.2576 18.1118 33.4523 18.1118 33.694ZM18.3233 41.0965C18.3233 41.5941 17.7736 41.9928 17.0956 41.9928C16.4175 41.9928 15.8662 41.5925 15.8662 41.0965C15.8662 40.6005 16.4175 40.1969 17.0939 40.1969C17.7737 40.1969 18.3233 40.5997 18.3233 41.0965ZM21.0247 40.3513C21.0247 40.7885 20.5287 41.141 19.917 41.141C19.3069 41.141 18.8109 40.7885 18.8109 40.3513C18.8109 39.9141 19.3069 39.5566 19.917 39.5566C20.5279 39.5557 21.0247 39.9132 21.0247 40.3513ZM22.4035 38.8281C22.4035 39.1705 21.9982 39.4508 21.4946 39.4508C20.997 39.4508 20.5917 39.1705 20.5917 38.8281C20.5917 38.4799 20.997 38.1996 21.4946 38.1996C21.9965 38.1996 22.4035 38.4799 22.4035 38.8281ZM21.0843 36.1125C21.0843 36.3425 20.788 36.5262 20.4263 36.5262C20.0596 36.5262 19.7634 36.3425 19.7634 36.1125C19.7634 35.8843 20.0596 35.6954 20.4263 35.6954C20.7889 35.6954 21.0843 35.8834 21.0843 36.1125ZM18.5977 32.478C18.5977 32.6693 18.3191 32.8254 17.9734 32.8254C17.6301 32.8254 17.3507 32.6685 17.3507 32.478C17.3507 32.2875 17.6301 32.1331 17.9734 32.1331C18.3183 32.1331 18.5977 32.2883 18.5977 32.478ZM22.1618 37.2479C22.1618 37.5282 21.8186 37.754 21.3914 37.754C20.9676 37.754 20.6236 37.5266 20.6236 37.2479C20.6236 36.9727 20.9676 36.7436 21.3939 36.7436C21.8177 36.7453 22.1618 36.9727 22.1618 37.2479Z" fill="#EE452A"/>
<path d="M26.4661 41.0526V33.666H27.6443V36.3942C28.0219 36.2616 28.3811 36.1953 28.7185 36.1953C29.4553 36.1953 30.0242 36.4396 30.4296 36.9296C30.7804 37.3551 30.9574 37.9132 30.9574 38.5963C30.9574 39.4925 30.6587 40.1681 30.0595 40.6129C29.54 41.0081 28.8175 41.2028 27.8944 41.2028C27.5008 41.2028 27.0233 41.155 26.4661 41.0526ZM27.6443 37.2981V40.2184C27.8121 40.2445 27.9649 40.2604 28.1 40.2604C29.2002 40.2604 29.7507 39.73 29.7507 38.6727C29.7507 38.1582 29.613 37.7697 29.3437 37.5095C29.1045 37.2796 28.7873 37.1621 28.3811 37.1621C28.1495 37.1638 27.9044 37.2074 27.6443 37.2981ZM32.1684 41.1399V36.6233C32.854 36.3439 33.5464 36.2037 34.2488 36.2037C34.5844 36.2037 34.9016 36.2491 35.1962 36.3422V37.3367C34.9461 37.2443 34.6692 37.2015 34.3704 37.2015C34.0239 37.2015 33.6848 37.2628 33.3491 37.3887V41.1424M35.9775 36.2826H37.1582V39.182C37.1582 39.5874 37.2447 39.8635 37.4125 40.0053C37.5594 40.1337 37.812 40.1975 38.1644 40.1975C38.4019 40.1975 38.6638 40.1647 38.9533 40.1077V36.2826H40.1365V40.9712C39.346 41.1256 38.657 41.202 38.0637 41.202C37.316 41.202 36.7722 41.0509 36.4332 40.7522C36.2561 40.5801 36.1361 40.3737 36.0656 40.1236C36.0069 39.9004 35.9775 39.6058 35.9775 39.2307M41.4314 40.972V39.8962C41.8955 40.1874 42.3344 40.3334 42.7473 40.3334C43.2726 40.3334 43.5361 40.1689 43.5361 39.8391C43.5361 39.6142 43.38 39.4355 43.0721 39.292L42.5945 39.0654C42.154 38.8615 41.8485 38.6357 41.6672 38.3932C41.5103 38.1817 41.4314 37.9266 41.4314 37.6371C41.4314 37.1655 41.6194 36.8012 41.9987 36.5377C42.3302 36.3103 42.7548 36.1945 43.2793 36.1945C43.7107 36.1945 44.1311 36.2835 44.5306 36.4614V37.4776C44.1328 37.2326 43.7434 37.1084 43.3624 37.1084C42.8371 37.1084 42.5761 37.2653 42.5761 37.5783C42.5761 37.7034 42.629 37.8116 42.7364 37.8947C42.8354 37.9711 43.0611 38.0861 43.4094 38.2547C43.8936 38.5006 44.2201 38.7205 44.3837 38.9051C44.5935 39.1485 44.7009 39.4414 44.7009 39.7905C44.7009 40.2805 44.5054 40.659 44.1219 40.925C43.7862 41.1592 43.3448 41.2767 42.7934 41.2767C42.3218 41.2742 41.867 41.1726 41.4314 40.972ZM45.645 40.972V39.8962C46.1133 40.1874 46.553 40.3334 46.9642 40.3334C47.4896 40.3334 47.7531 40.1689 47.7531 39.8391C47.7531 39.6142 47.5961 39.4355 47.2848 39.292L46.8115 39.0654C46.3692 38.8615 46.0629 38.6357 45.8842 38.3932C45.7256 38.1817 45.645 37.9266 45.645 37.6371C45.645 37.1655 45.8364 36.8012 46.2148 36.5377C46.543 36.3103 46.9668 36.1945 47.4954 36.1945C47.9285 36.1945 48.343 36.2835 48.7484 36.4614V37.4776C48.3481 37.2326 47.9612 37.1084 47.5768 37.1084C47.0532 37.1084 46.7922 37.2653 46.7922 37.5783C46.7922 37.7034 46.8451 37.8116 46.9525 37.8947C47.0532 37.9711 47.2747 38.0861 47.6264 38.2547C48.1106 38.5006 48.4353 38.7205 48.599 38.9051C48.8113 39.1485 48.9145 39.4414 48.9145 39.7905C48.9145 40.2805 48.7207 40.659 48.3363 40.925C48.0023 41.1592 47.5584 41.2767 47.0096 41.2767C46.5388 41.2742 46.0831 41.1726 45.645 40.972ZM54.287 38.9353H50.9554C51.005 39.8333 51.5076 40.2873 52.4593 40.2873C53.0417 40.2873 53.5704 40.1186 54.0403 39.772V40.7631C53.4948 41.0929 52.9074 41.2565 52.2789 41.2565C51.4514 41.2565 50.8178 41.0123 50.3806 40.513C50.0013 40.0859 49.8116 39.5035 49.8116 38.7784C49.8116 37.9476 50.0541 37.2905 50.5451 36.8046C50.9739 36.385 51.5194 36.1735 52.1782 36.1735C52.6422 36.1735 53.0459 36.2902 53.3874 36.5126C53.6879 36.7089 53.9102 36.9724 54.0563 37.3006C54.2124 37.6497 54.2862 38.1876 54.2862 38.9152M51.0318 38.0903H53.1466C53.0937 37.4122 52.7656 37.0731 52.1605 37.0731C51.84 37.0731 51.5815 37.1764 51.3792 37.3778C51.1988 37.5557 51.0847 37.7907 51.0318 38.0903ZM55.5022 33.666H56.6846V41.1416H55.5022V33.666ZM57.9913 40.972V39.8962C58.4553 40.1874 58.8959 40.3334 59.3096 40.3334C59.8324 40.3334 60.096 40.1689 60.096 39.8391C60.096 39.6142 59.9407 39.4355 59.6294 39.292L59.1552 39.0654C58.7155 38.8615 58.4075 38.6357 58.2287 38.3932C58.0685 38.1817 57.9913 37.9266 57.9913 37.6371C57.9913 37.1655 58.1801 36.8012 58.5619 36.5377C58.8909 36.3103 59.3147 36.1945 59.84 36.1945C60.273 36.1945 60.6893 36.2835 61.0887 36.4614V37.4776C60.6935 37.2326 60.3024 37.1084 59.9248 37.1084C59.3952 37.1084 59.1376 37.2653 59.1376 37.5783C59.1376 37.7034 59.1896 37.8116 59.297 37.8947C59.3919 37.9711 59.6201 38.0861 59.9692 38.2547C60.4543 38.5006 60.7799 38.7205 60.9444 38.9051C61.1542 39.1485 61.2624 39.4414 61.2624 39.7905C61.2624 40.2805 61.0686 40.659 60.6817 40.925C60.3452 41.1592 59.9029 41.2767 59.3549 41.2767C58.8808 41.2742 58.4302 41.1726 57.9913 40.972ZM64.4765 37.7084V36.6922C65.0934 36.3598 65.7253 36.1953 66.3631 36.1953C67.0613 36.1953 67.5153 36.4001 67.7251 36.8105C67.83 37.0178 67.8854 37.4004 67.8854 37.9644V41.0434C67.0504 41.1651 66.3706 41.2221 65.8461 41.2221C65.2335 41.2221 64.7988 41.0996 64.5345 40.847C64.3045 40.6238 64.1929 40.2923 64.1929 39.8509C64.1929 39.1879 64.4698 38.7222 65.0271 38.4528C65.3946 38.2724 65.9535 38.144 66.6996 38.06L66.7978 38.0516V37.8779C66.7978 37.5893 66.7432 37.3971 66.624 37.2981C66.5191 37.2083 66.3471 37.1638 66.1004 37.1638C65.5902 37.1638 65.0455 37.3459 64.4765 37.7084ZM66.8204 40.2344V38.9412C66.2137 38.9915 65.7991 39.0813 65.5709 39.2206C65.3736 39.3423 65.278 39.5202 65.278 39.7628C65.278 40.1303 65.4895 40.3116 65.9225 40.3116C66.1625 40.3141 66.4604 40.2873 66.8204 40.2344ZM69.3288 34.1024H70.5439V35.3662H69.3288V34.1024ZM69.3489 36.2935H70.5297V41.1416H69.3489V36.2935ZM72.052 41.1399V36.6233C72.7376 36.3439 73.4299 36.2037 74.1365 36.2037C74.4688 36.2037 74.7844 36.2491 75.0815 36.3422V37.3367C74.8289 37.2443 74.5528 37.2015 74.2557 37.2015C73.9057 37.2015 73.5675 37.2628 73.2344 37.3887V41.1424M76.0306 33.666H77.2138V41.1416H76.0306V33.666ZM78.7277 34.1024H79.9446V35.3662H78.7277V34.1024ZM78.7462 36.2935H79.9278V41.1416H78.7462V36.2935ZM81.4535 41.1399V36.5293C82.2163 36.3095 82.9481 36.2029 83.6538 36.2029C84.4166 36.2029 84.9546 36.3657 85.2668 36.698C85.5261 36.9775 85.657 37.4189 85.657 38.0256V41.1399H84.4737V38.1062C84.4737 37.7386 84.3915 37.4902 84.2245 37.3509C84.0743 37.2284 83.8342 37.1638 83.507 37.1638C83.2283 37.1638 82.9363 37.2099 82.6367 37.2981V41.1399M91.2964 38.9353H87.9639C88.0134 39.8333 88.5136 40.2873 89.4627 40.2873C90.0502 40.2873 90.5772 40.1186 91.0471 39.772V40.7631C90.5033 41.0929 89.9125 41.2565 89.2873 41.2565C88.4607 41.2565 87.8263 41.0123 87.3874 40.513C87.0114 40.0859 86.8176 39.5035 86.8176 38.7784C86.8176 37.9476 87.0635 37.2905 87.5502 36.8046C87.979 36.385 88.5253 36.1735 89.1824 36.1735C89.6482 36.1735 90.051 36.2902 90.3934 36.5126C90.6947 36.7089 90.9154 36.9724 91.0656 37.3006C91.2166 37.6497 91.293 38.1876 91.293 38.9152M88.042 38.0903H90.1567C90.1039 37.4122 89.7757 37.0731 89.1682 37.0731C88.8501 37.0731 88.5891 37.1764 88.3877 37.3778C88.2073 37.5557 88.0948 37.7907 88.042 38.0903ZM92.2749 40.972V39.8962C92.7406 40.1874 93.1795 40.3334 93.5924 40.3334C94.1169 40.3334 94.3796 40.1689 94.3796 39.8391C94.3796 39.6142 94.2218 39.4355 93.9113 39.292L93.4363 39.0654C92.9991 38.8615 92.6886 38.6357 92.509 38.3932C92.3529 38.1817 92.2749 37.9266 92.2749 37.6362C92.2749 37.1646 92.4612 36.8004 92.8422 36.5369C93.172 36.3095 93.5958 36.1937 94.1219 36.1937C94.5541 36.1937 94.9729 36.2826 95.3707 36.4605V37.4768C94.9762 37.2318 94.5835 37.1076 94.2 37.1076C93.6805 37.1076 93.4179 37.2645 93.4179 37.5775C93.4179 37.7025 93.4707 37.8108 93.5756 37.8939C93.6746 37.9702 93.9021 38.0852 94.2503 38.2539C94.7354 38.4998 95.0618 38.7196 95.2255 38.9043C95.4353 39.1476 95.5385 39.4405 95.5385 39.7896C95.5385 40.2797 95.3463 40.6582 94.9628 40.9242C94.6246 41.1583 94.184 41.2758 93.6352 41.2758C93.1661 41.2742 92.7096 41.1726 92.2749 40.972Z" fill="#011F65"/>
</svg>
