<svg width="108" height="72" viewBox="0 0 108 72" fill="none" xmlns="http://www.w3.org/2000/svg">
<path d="M27.8889 41.0349L20.4702 37.4626V29.6035L27.8889 41.0349ZM28.4788 42.3974L20.4702 39.0161V42.3974H28.4788Z" fill="#98002E"/>
<path d="M13.0513 41.0349L20.4701 29.6035V37.4626L13.0513 41.0349Z" fill="#E31837"/>
<path d="M12.4615 42.3969H20.4702V39.0156L12.4615 42.3969Z" fill="#E31837"/>
<path d="M29.1269 40.0547C29.4177 40.0547 29.6586 40.2873 29.6586 40.5781C29.6586 40.8688 29.426 41.1098 29.1352 41.1098C28.8445 41.1098 28.6035 40.8771 28.6035 40.5864C28.6035 40.2873 28.8362 40.0547 29.1269 40.0547ZM29.1269 41.0267C29.3762 41.0267 29.5755 40.8273 29.5755 40.5781C29.5755 40.3288 29.3762 40.1295 29.1269 40.1295C28.8777 40.1295 28.6783 40.3288 28.6783 40.5781C28.6783 40.8273 28.8777 41.0267 29.1269 41.0267ZM29.0106 40.8855H28.9359V40.279H29.1685C29.3097 40.279 29.3595 40.3371 29.3595 40.4451C29.3679 40.5365 29.2931 40.6113 29.21 40.6196L29.3928 40.8855H29.3097L29.1269 40.6196H29.0189L29.0106 40.8855ZM29.0106 40.5448H29.1103C29.1934 40.5448 29.2848 40.5365 29.2848 40.4368C29.2848 40.3621 29.21 40.3371 29.1519 40.3371H29.0189V40.5448H29.0106Z" fill="#98002E"/>
<path d="M34.7344 41.0334H38.3316C42.0368 41.0334 44.2384 39.1143 44.2384 35.9325C44.2384 32.7506 42.0368 30.8398 38.3316 30.8398H34.7344V41.0334ZM37.0107 32.6094H38.3316C40.7325 32.6094 41.9371 33.7974 41.9371 35.9325C41.9371 38.0675 40.7325 39.2555 38.3316 39.2555H37.0107V32.6094Z" fill="#003D79"/>
<path d="M56.3093 34.8442H51.981V32.6094H56.8743V30.8398H49.6964V41.0334H57.0321V39.2638H51.981V36.6137H56.3093V34.8442Z" fill="#003D79"/>
<path d="M65.6142 30.8398H63.3296V41.0334H70.009V39.2638H65.6142V30.8398Z" fill="#003D79"/>
<path d="M73.1575 32.6094H76.5802V41.0334H78.8732V32.6094H82.3042V30.8398H73.1575V32.6094Z" fill="#003D79"/>
<path d="M95.5382 41.0339H93.1539L92.157 38.4834H88.0115L87.0146 41.0339H84.7881L89.0499 30.7988H91.3512L95.5382 41.0339ZM91.509 36.7721L90.0884 33.1499L88.6595 36.7721H91.509Z" fill="#003D79"/>
</svg>
