<svg width="108" height="72" viewBox="0 0 108 72" fill="none" xmlns="http://www.w3.org/2000/svg">
<path fill-rule="evenodd" clip-rule="evenodd" d="M91.936 32.5966C92.2657 32.9876 92.7474 33.1269 93.0554 32.902C93.2484 32.7602 93.3197 32.5026 93.2778 32.2215C93.4607 32.2492 93.6386 32.3046 93.8509 32.3902C93.9558 32.4254 94.0808 31.9865 93.9181 31.9714C92.1692 31.7197 91.1983 33.1311 91.2218 33.1085C91.492 32.9054 91.7153 32.7334 91.936 32.5966ZM92.9337 32.7577C92.7029 32.9448 92.3178 32.8282 92.0467 32.5295C92.4118 32.3037 92.7214 32.1972 93.0546 32.2013C93.1225 32.4162 93.0638 32.6545 92.9337 32.7577ZM84.2207 33.3804C84.522 32.3935 85.0464 31.499 85.7278 30.7563C88.7413 29.485 92.6266 29.4942 95.5385 31.838C93.7116 30.9065 88.3091 29.9155 84.2207 33.3804ZM84.0462 36.6111C83.9136 35.8987 83.8909 35.1636 83.9916 34.4427C86.1239 32.2752 89.3153 30.8486 92.6652 31.5493C90.8316 31.5535 86.4361 32.8097 84.0462 36.6111ZM85.1866 39.2805C84.8325 38.7837 84.5396 38.2366 84.3298 37.6542C85.5986 34.9681 88.0448 32.6285 91.3326 32.1191C89.6962 32.7359 86.2859 35.2458 85.1866 39.2805ZM87.256 41.193C86.7508 40.8951 86.2943 40.53 85.8848 40.1172C86.3228 37.2774 88.0574 34.3093 90.8316 32.7686C90.6277 33.069 90.5337 33.4206 90.5505 33.7949C88.9334 35.4346 87.3273 37.9806 87.256 41.193ZM89.8221 42.0883C89.275 42.0128 88.7463 41.8769 88.2453 41.6839C88.2638 39.1135 89.0971 36.0615 90.6101 34.1902C90.694 34.5183 90.8534 34.8548 91.1111 35.1921C92.3085 33.7832 93.6898 32.7871 95.4051 32.3465C93.0663 33.2344 89.426 36.0665 89.8221 42.0883ZM24.9113 39.8537H27.5723C27.8241 39.8537 28.1111 39.6548 28.2185 39.3879L28.3276 39.1269H26.9287L27.5891 37.5762H31.2923V37.5812L29.8112 41.0251C29.5242 41.6587 29.0736 42.111 28.2327 42.0665L21.5631 42.0581L24.96 34.1264C25.2495 33.4869 25.696 33.0632 26.5393 33.0808H33.219L31.6255 36.7966H29.3253L29.9748 35.2693H27.0579C26.9555 35.2693 26.833 35.3599 26.7944 35.4665L24.9113 39.8537ZM25.4988 29.9272L18.8098 29.939C17.9589 29.9155 17.5183 30.3527 17.2213 30.9946C17.1071 31.2355 16.925 31.6559 16.6993 32.1846L12.4615 42.0665H19.1874C20.0375 42.0716 20.4814 41.6495 20.7734 41.01C20.8825 40.7692 21.073 40.3454 21.2971 39.8209L15.8123 39.8041L16.941 37.1767H20.0375L20.9992 34.9311H17.9085L19.0028 32.3801C19.0498 32.2735 19.1706 32.1829 19.2755 32.1829H24.532L25.4988 29.9272ZM75.0009 36.8268H77.6509C77.9001 36.8268 78.1813 36.612 78.2971 36.356L78.7704 35.2702H75.8518C75.7485 35.2702 75.6285 35.3608 75.5832 35.4674L75.0009 36.8268ZM75.1603 39.111H73.9804C73.6053 39.972 73.2974 40.6769 73.1371 41.0251C72.8501 41.6587 72.4104 42.0758 71.5586 42.0648H70.3385L71.5922 39.1227C72.4615 37.0811 73.414 34.8464 73.7388 34.1272C74.0241 33.4937 74.4764 33.0447 75.3197 33.0841L81.9936 33.0825C81.1292 35.1216 80.1692 37.3588 79.8403 38.0805C79.5525 38.7107 79.106 39.1597 78.2635 39.1219L80.3413 42.0657H77.1483L75.1603 39.111ZM41.0241 33.0841L42.2509 33.0825C41.3849 35.1216 40.435 37.3588 40.1077 38.0805C39.8207 38.7107 39.3743 39.1597 38.5334 39.1219H36.9676C36.5967 39.9854 36.2895 40.6777 36.1351 41.026C35.8498 41.6595 35.4009 42.1118 34.5583 42.0674L33.3298 42.0724L34.5936 39.1236H31.8596C32.7298 37.0811 33.6797 34.8464 34.0028 34.1272C34.2948 33.4937 34.7388 33.0447 35.5796 33.0841L36.8022 33.0799L35.2188 36.8234L37.8705 36.8268C38.1222 36.8268 38.4118 36.6162 38.515 36.356C38.8188 35.6083 39.115 34.864 39.454 34.1272C39.7393 33.4937 40.1774 33.064 41.0241 33.0841ZM66.736 42.0657L67.9712 42.0674C68.8162 42.1118 69.261 41.6595 69.5463 41.026L72.9558 33.0825L71.7223 33.0841C70.8772 33.0455 70.4308 33.4937 70.1455 34.1272C69.814 34.8464 68.8607 37.0811 67.9947 39.1236L66.736 42.0657ZM44.2532 36.8268H46.8655C47.1222 36.8268 47.3983 36.612 47.5116 36.356L47.9832 35.2693H45.0999C44.9975 35.2693 44.875 35.3616 44.8297 35.4665L44.2532 36.8268ZM43.2806 39.111L47.5729 39.1219C48.4406 39.1219 48.8576 38.7107 49.1455 38.0805C49.4727 37.3588 50.4235 35.1216 51.2862 33.0825L44.6056 33.0841C43.7589 33.0598 43.3209 33.4937 43.0313 34.1272L39.6428 42.0665H40.8722C41.7273 42.0816 42.1595 41.6587 42.449 41.0251C42.6076 40.6769 42.9088 39.972 43.2806 39.111ZM51.3885 42.0632L52.6263 42.0674C53.4646 42.1118 53.9085 41.6595 54.1964 41.026C54.5127 40.3253 55.4182 38.1854 56.2632 36.189C56.2884 36.1353 56.6291 35.3239 56.656 35.2702H59.3748L60.2979 33.0867L53.645 33.0825C52.7975 33.0455 52.3536 33.4945 52.0683 34.1281L51.5832 35.2785L54.2887 35.2702L51.3885 42.0632ZM62.3119 36.8268H64.9158C65.1659 36.8268 65.4529 36.612 65.562 36.356L66.0302 35.2702H63.1636C63.0596 35.2702 62.9396 35.3608 62.896 35.4674L62.3119 36.8268ZM64.3855 39.1219H61.3393C60.9659 39.9812 60.6613 40.6777 60.5043 41.026C60.2132 41.6595 59.7709 42.1118 58.8982 42.0674L57.7057 42.0657L58.9553 39.1236C59.8246 37.0811 60.7771 34.8464 61.1077 34.1272C61.393 33.4937 61.795 33.0799 62.6828 33.0841H69.3399L65.9413 41.0251C65.656 41.6587 65.207 42.111 64.362 42.0665H63.167L64.3855 39.1219Z" fill="#00265D"/>
</svg>
