<svg width="108" height="72" viewBox="0 0 108 72" fill="none" xmlns="http://www.w3.org/2000/svg">
<path d="M31.3251 12H76.6751V60H31.3251V12Z" fill="#D71A21"/>
<path d="M55.9992 23.9015C55.7129 24.2708 55.5568 24.7244 55.5551 25.1916V29.242C55.5339 29.5487 55.4175 29.8342 55.2272 30.0774C55.1214 30.1833 54.4976 30.7438 54.4447 30.8073L54.7937 30.8179C54.9099 30.712 56.1156 29.6439 56.2318 29.496C56.5808 29.1152 56.7817 28.6182 56.7817 28.1V24.2082C56.7768 24.0118 56.8107 23.8163 56.8815 23.633C56.9523 23.4497 57.0586 23.2822 57.1943 23.1401C57.3422 22.9814 57.8077 22.5902 57.8922 22.495L57.5221 22.4844C57.4481 22.5796 56.1262 23.7745 55.9992 23.9015ZM53.0275 38.633L54.4976 39.9127H55.481C56.4221 39.9127 57.3317 39.5425 57.998 38.8764C58.6008 38.2735 58.8229 37.4591 58.8229 36.6977V34.5932C58.8123 34.1174 58.6112 33.6625 58.2518 33.3454C58.1883 33.2819 57.7548 32.8694 57.7548 32.8694V34.4874C57.7548 34.4874 58.2306 34.974 58.3153 35.0691C58.7488 35.5345 58.7488 36.3806 57.3634 37.7236C57.1202 37.9561 56.4329 38.6118 55.4812 38.6118L53.0275 38.633Z" fill="white"/>
<path d="M57.1203 29.9932C56.9616 30.1623 56.803 30.5854 56.803 30.966V31.7592H57.6067C57.9242 31.7592 58.3366 31.4738 58.4212 31.3257V30.5323C58.5404 30.7062 58.6868 30.8597 58.8547 30.987C58.9394 30.8812 59.6796 29.993 60.2928 29.9824C61.3188 29.9718 61.0862 31.2726 60.6736 31.6851C60.5362 31.8225 59.9334 32.3724 59.7431 32.5521C59.2565 33.0176 58.421 32.7955 58.421 31.6004C58.421 31.6004 57.5328 32.4465 57.3953 32.5627C57.2579 32.6791 56.803 33.1655 56.803 33.1655V35.2702C56.803 36.2748 56.4751 36.6132 56.2002 36.9199C56.0944 37.0361 54.963 38.0727 54.8044 38.1889L54.434 38.1995C54.434 38.1995 55.1003 37.5966 55.2273 37.4593C55.3753 37.3005 55.5552 36.9832 55.5552 36.4545C55.5552 36.3171 55.534 33.1549 55.534 33.1549H50.3731C48.5754 33.1549 48.1946 31.1669 48.184 30.6274V28.629C48.184 28.3011 47.9725 27.7512 47.6447 27.582H48.1524C48.2157 27.603 48.533 27.73 48.533 28.9566C48.533 28.9566 48.5119 30.374 48.5119 30.4584C48.5119 31.0824 49.0089 31.7909 49.7175 31.7909L55.555 31.7803C55.555 31.6216 55.7138 31.0295 55.9993 30.7122C56.158 30.5325 57.4164 29.3903 57.554 29.2741H57.924C57.8711 29.327 57.2579 29.8662 57.1309 30.0143L57.1203 29.9932ZM59.0346 31.1881C59.1857 31.394 59.3518 31.5884 59.5316 31.7697C60.166 32.2773 60.4622 31.7274 60.0392 31.1563C59.8699 30.9239 59.2247 30.9872 59.0344 31.1881H59.0346Z" fill="white"/>
<path d="M52.7739 34.9537C52.7739 35.239 51.8749 35.99 51.822 36.0323C51.7587 35.7256 51.5259 35.3978 50.8598 34.7208L51.8432 33.7374C52.5095 34.4037 52.7739 34.5519 52.7739 34.9537ZM54.4872 23.6485C54.688 23.8494 55.111 24.3782 54.8572 24.6425C54.6657 24.8353 54.4753 25.0292 54.2861 25.2242C54.2649 25.0972 53.9372 24.7801 53.9372 24.7801V25.8482C53.9267 26.2817 53.7679 26.3981 53.7679 26.3981C53.7679 26.3981 54.561 27.1805 54.561 28.1959V29.2322C54.5657 29.3295 54.5503 29.4266 54.5157 29.5176C54.4812 29.6086 54.4282 29.6915 54.3602 29.7612C54.2861 29.8456 53.5565 30.586 53.44 30.6811C53.2709 30.8293 53.0594 30.9137 52.8372 30.9031H50.0986C49.6649 30.9031 49.2208 30.5649 49.2208 30.2264C49.2208 30.1418 49.2313 29.2112 49.2313 29.2112C49.3687 29.3698 49.5167 29.5601 49.8552 29.5601C50.1301 29.5601 50.4051 29.3486 50.4792 29.264C50.5532 29.1795 52.552 27.1066 52.552 27.1066C52.552 27.1066 51.6213 26.2394 51.0081 25.827C50.7118 25.6262 50.31 25.88 50.2465 26.1443C50.0562 26.9692 50.2465 28.217 50.2465 28.217L49.4957 27.4662C49.189 27.1595 49.1996 26.4722 49.5696 26.1126C49.6225 26.0491 50.183 25.4357 50.8811 25.4357H51.9704C52.7 25.4357 53.5037 26.1655 53.5037 26.1655C53.5672 26.0914 53.6096 26.0068 53.6201 25.9115C53.6201 25.5309 53.6096 24.5263 53.6096 24.5263C53.0596 23.9764 52.9856 23.4053 53.2499 23.1409C53.7469 22.6439 53.9268 22.4746 53.9268 22.4746C53.9268 22.4746 53.9057 23.0774 54.4873 23.6485H54.4872ZM51.0501 29.1477C50.7751 29.4331 50.7328 29.4968 50.479 29.6553H53.567C54.4025 29.6553 54.2334 29.1372 54.0852 28.8728C53.7785 28.3334 52.8056 27.3392 52.8056 27.3392C52.8056 27.3392 51.103 29.0948 51.0501 29.1477Z" fill="white"/>
<path d="M47.5284 31.9609H47.0208C47.0208 31.9609 47.5602 32.2571 47.5602 33.029V35.4931C47.5602 37.0899 48.882 38.5706 50.4895 38.5706H51.8325C52.6362 38.5706 52.9218 38.3801 53.4084 37.9466C53.5879 37.7878 53.8208 37.5235 53.9054 37.4284C54.1804 37.1109 54.4871 36.8573 54.4871 36.0324V35.2287C54.4871 34.5306 54.0851 34.2451 53.8842 34.0442C53.7299 33.8919 53.5748 33.7403 53.419 33.5895V35.2393C53.419 35.2393 53.7573 35.5987 53.9054 35.7151C54.6033 36.2651 54.0534 37.2169 53.3978 37.2169H50.4471C49.3685 37.2379 47.8986 36.2756 47.8986 34.6469V33.3146C47.909 31.9609 47.5282 31.9609 47.5282 31.9609H47.5284Z" fill="white"/>
<path d="M50.7644 34.9643C50.7644 35.2497 49.8654 36.0006 49.8127 36.043C49.7492 35.7363 49.5166 35.4084 48.8502 34.7315L49.8339 33.748C50.4896 34.4038 50.7644 34.5518 50.7644 34.9643ZM40.4533 45.9098H38.867C38.37 45.9098 38.4123 45.4975 38.3594 45.1482V42.8852C38.3594 42.8852 38.7085 42.8747 39.0996 42.8747C39.5333 42.8747 40.0833 42.8112 40.612 43.1073C40.4774 42.8229 40.2625 42.5842 39.9937 42.4207C39.7249 42.2572 39.414 42.1761 39.0996 42.1874H38.37V41.4575C38.37 41.4575 38.37 40.8229 38.2113 40.6432H39.2582C40.1573 40.6432 40.8552 40.6326 41.5849 41.1085C41.5849 41.1085 41.4475 39.9136 39.7027 39.9136H36.2973C36.2973 39.9136 36.8894 40.4212 36.8682 41.4469L36.8894 45.5714C36.8894 46.6079 37.3019 46.6394 37.3019 46.6394H40.6543C41.4157 46.6394 41.6801 46.1001 41.6801 45.8042L41.6907 45.4128C41.6907 45.4128 41.4475 45.9098 40.4533 45.9098ZM49.379 45.5608V42.6738C49.379 41.5528 48.4695 41.2565 47.7822 41.2565C46.8832 41.2565 46.6082 42.0074 46.492 42.2718C46.2909 41.5739 45.5825 41.2566 45.0114 41.2566C43.9221 41.2566 43.647 42.293 43.647 42.293C43.647 42.293 43.626 41.2884 42.7482 41.2884H41.8916C41.8916 41.2884 42.3886 41.4893 42.3886 42.3565V45.5608C42.3886 46.6183 42.8117 46.6394 42.8117 46.6394H44.2288C43.8904 46.3857 43.6895 45.9837 43.6895 45.5502V42.7055C43.7107 42.5785 43.9219 42.1556 44.5248 42.1556C44.8738 42.1556 45.2546 42.515 45.244 42.917V45.5608C45.244 46.6289 45.6671 46.6394 45.6671 46.6394H47.0841C46.7458 46.3751 46.5447 45.9837 46.5447 45.5502V42.7055C46.611 42.5052 46.754 42.3394 46.9423 42.2442C47.1306 42.149 47.3489 42.1323 47.5495 42.1977C47.8668 42.3036 48.0889 42.5891 48.0994 42.9276V45.5608C48.11 46.6394 48.5224 46.6289 48.5224 46.6289H49.9397C49.77 46.5063 49.631 46.3461 49.5337 46.1608C49.4364 45.9754 49.3835 45.77 49.379 45.5608ZM51.8537 45.5608C51.854 45.77 51.9028 45.9764 51.9964 46.1636C52.09 46.3507 52.2258 46.5136 52.393 46.6394H50.9759C50.9759 46.6394 50.5423 46.65 50.5423 45.5714V42.3459C50.5423 41.4999 50.0559 41.2778 50.0559 41.2778H50.9125C51.2191 41.2778 51.8431 41.2778 51.8431 42.4727V45.5398L51.8537 45.5608ZM56.2107 41.6902C56.2107 41.6902 56.0733 41.3096 55.4916 41.3096C54.6034 41.3096 54.3918 42.3671 54.3918 42.3671C54.3177 41.5316 54.0957 41.2884 53.4717 41.2884H52.615C52.615 41.2884 53.112 41.4893 53.112 42.3565V45.5608C53.112 46.6183 53.5354 46.6394 53.5354 46.6394H54.9523C54.7851 46.5136 54.6493 46.3507 54.5557 46.1636C54.4621 45.9764 54.4133 45.77 54.413 45.5608V42.9276C54.4447 42.7055 54.5717 42.5045 54.762 42.3882C55.2378 42.0709 55.8618 42.1662 56.2319 42.5997L56.2107 41.6902ZM62.7994 41.8806C63.0953 41.8806 63.3808 41.9545 63.6346 42.0921V41.2884H62.4503V40.0616C62.1965 40.4635 61.8686 40.8231 61.4984 41.1297C61.0967 41.4575 60.2506 41.8701 60.2506 41.8701L61.1496 41.8806V45.6031C61.1496 46.6394 61.5831 46.6394 61.5831 46.6394H62.9897C62.8236 46.519 62.6876 46.3619 62.5922 46.1803C62.4969 45.9987 62.4447 45.7976 62.4397 45.5925V41.8806H62.7994ZM67.0929 43.4987C66.2998 44.3235 65.6758 44.1966 65.1786 44.81C65.1786 44.81 65.2634 45.6348 65.8872 45.9204C66.0989 46.0156 66.9765 46.3329 67.537 45.3599V46.2271C67.537 46.2271 67.1776 46.65 66.0248 46.65C64.6394 46.65 63.6875 45.5608 63.6875 44.0803C63.6875 42.6209 64.4597 41.2778 65.9296 41.2672C67.3573 41.2461 68.1398 42.4094 67.0929 43.4987ZM66.2257 43.1602C66.4583 42.7267 66.6488 41.6269 65.8451 41.6902C64.9144 41.7642 65.0941 44.2283 65.0941 44.2283C65.4008 43.89 65.8661 43.816 66.2257 43.1602ZM51.1981 40.8549C51.5575 40.8441 51.8325 40.548 51.8325 40.1991C51.8219 39.8395 51.5258 39.5646 51.1767 39.5646C50.8279 39.5751 50.5423 39.8607 50.5423 40.2097C50.5423 40.5691 50.8385 40.8547 51.1981 40.8547V40.8549ZM57.6807 46.0262C57.3634 46.0262 57.1308 45.6878 57.1308 45.3493C57.1308 44.0168 58.2201 43.8265 58.5162 43.4775V45.7301C58.3788 45.8359 58.2518 46.0262 57.6809 46.0262H57.6807ZM58.5162 42.9591C58.1883 43.5304 55.6292 43.6572 56.0204 45.6348C56.1791 46.4174 56.6973 46.65 57.3529 46.65C57.9874 46.65 58.3788 46.3223 58.5374 46.0051C58.6326 46.5973 58.9393 46.6394 58.9393 46.6394H60.3563C60.018 46.3857 59.8063 45.9945 59.8063 45.5714V42.5576C59.8063 41.8385 59.0132 41.278 58.1672 41.278C57.6965 41.2673 57.2343 41.4041 56.8453 41.6692V42.5999C56.8453 42.5999 57.1414 41.8597 57.871 41.8597C58.5903 41.8597 58.6432 42.2191 58.6432 42.399C58.6538 42.5893 58.622 42.7902 58.5162 42.9595V42.9591ZM70.2233 45.1802C70.2339 45.5608 69.8954 46.058 69.1764 46.058C68.436 46.058 68.1398 45.307 68.1398 45.307V46.2588C68.5418 46.5126 69.0072 46.6394 69.4829 46.6394C70.4453 46.6394 71.4288 45.9098 71.4076 44.8839C71.3972 44.5473 71.2828 44.2222 71.0799 43.9533C70.752 43.5198 70.1596 43.2131 69.6945 42.9276C69.43 42.7688 69.2926 42.4727 69.2926 42.3777C69.282 42.1977 69.3772 41.8383 70.0857 41.8383C70.7838 41.8383 71.0905 42.5785 71.0905 42.5785V41.6796C70.6991 41.4046 70.2231 41.2566 69.7367 41.2566C68.8906 41.2566 68.1187 41.8172 68.1398 42.5362C68.1504 43.1708 68.4148 43.5727 68.933 43.9639C69.1659 44.1315 69.4097 44.2834 69.6628 44.4186C70.0645 44.6408 70.2127 44.9156 70.2233 45.1802Z" fill="white"/>
</svg>
