<svg width="108" height="72" viewBox="0 0 108 72" fill="none" xmlns="http://www.w3.org/2000/svg">
<path d="M59.9565 23.6243L59.8965 23.5644L58.8172 22.4863L57.618 23.6842L58.8172 24.882L59.9565 23.6243Z" fill="#BD8B13"/>
<path d="M62.3549 23.6243L62.175 23.5644L61.0957 22.4863L59.8965 23.6842L61.0957 24.882L62.3549 23.6243Z" fill="#BD8B13"/>
<path d="M46.0454 23.3846C46.0454 23.6241 46.2853 23.7439 46.4652 23.8038C46.705 23.8637 46.9449 24.0434 46.9449 24.4027V33.6259H57.1383V33.8056C57.1383 33.8655 57.1383 33.8655 57.1383 34.0452C57.1383 34.8238 57.3781 35.3029 57.7979 35.4826C57.7979 35.4826 58.0377 35.6622 58.3975 35.6622C58.6373 35.6622 58.8772 35.6023 59.177 35.4227L59.3568 35.3628L59.177 35.1831C58.9371 34.9435 58.7572 34.2248 58.7572 33.8056V33.7457H62.5348V25.2412C62.5348 25.2412 62.0551 26.3192 60.1963 27.6967C60.1963 27.6967 60.2563 28.0561 60.616 28.2357C61.0957 28.4753 61.0358 28.7748 61.0358 28.7748V32.1885H58.6973V32.0089V31.8292C58.6973 30.9907 58.4574 28.9544 56.1789 28.9544H56.1189C55.4594 28.9544 54.7998 28.9544 54.2601 28.9544H54.0803C52.7611 28.9544 52.0416 28.7748 51.8017 28.4154L51.7418 28.2357L51.6818 28.2956C51.442 28.4753 51.2621 28.7748 51.2621 29.1341C51.2621 29.6731 51.6218 30.3319 52.1015 30.3319C52.4613 30.3319 52.941 30.3319 53.4207 30.3319C54.2601 30.3319 55.2195 30.3319 55.2195 30.3319C57.0783 30.3319 57.1383 31.1704 57.1383 31.5297V31.949H48.4439V20.6895C48.4439 20.6895 47.4245 22.0669 45.9855 23.0851V23.145V23.3846H46.0454Z" fill="#BD8B13"/>
<path d="M40.1093 35.0038C40.1093 35.0038 39.9294 36.3813 42.7476 36.3813C45.0261 36.3813 45.0861 34.9439 45.0861 34.9439V29.6735C45.0861 29.3141 45.0261 28.4158 44.0667 28.4158H36.1518V27.8168C36.1518 27.6372 36.2118 27.6372 36.3917 27.5773C36.8114 27.3377 36.8714 27.0383 36.8114 26.9185C35.912 26.3795 35.0126 25.1816 35.0126 25.1816V29.7933H42.9275H42.9874C43.2273 29.7933 43.587 29.8531 43.587 30.3922V34.1054C43.587 34.1054 43.587 34.884 42.8075 34.884C41.5484 34.884 41.6083 34.2252 41.6083 34.2252V32.1889H35.0126V33.806H40.2292V35.0038H40.1093Z" fill="#BD8B13"/>
<path d="M73.2679 24.4027C73.2679 23.9835 73.5077 23.8637 73.6876 23.8038C73.8675 23.7439 74.0474 23.6241 74.1073 23.2648V23.2049C74.1073 23.0252 74.0474 23.0252 73.8675 22.9653C73.6876 22.9054 73.4477 22.7258 72.9681 22.3065C72.1286 21.6477 71.9487 21.2884 71.9487 21.2884L71.7089 20.8691V33.7457H73.3278C73.2679 33.6858 73.2679 24.6423 73.2679 24.4027Z" fill="#BD8B13"/>
<path d="M67.8713 35.3628L66.792 36.4408L65.7127 35.3628L66.792 34.2847L67.8713 35.3628ZM64.2137 35.3628L66.852 37.998L69.4903 35.3628L67.8713 33.7457L69.7901 31.7094V20.8691C69.7901 20.8691 69.0106 22.4862 67.7514 23.3247V23.3846C67.7514 23.6241 67.9313 23.7439 68.1112 23.8038C68.2911 23.8637 68.471 24.0434 68.471 24.4027C68.471 24.7621 68.471 30.9308 68.471 30.9308L66.852 32.6078L65.233 30.9308C65.233 30.871 65.233 24.6423 65.233 24.4027C65.233 23.9835 65.4129 23.8637 65.5928 23.8038C65.7727 23.7439 65.8327 23.6241 65.9526 23.3846V23.3247C64.7534 22.4862 63.9139 20.8691 63.9139 20.8691V31.8891L65.8327 33.8655L64.2137 35.3628Z" fill="#BD8B13"/>
<path d="M59.5967 41.0534L60.0164 41.2929C60.0764 41.3528 60.0764 41.3528 60.0764 41.4726V44.8864H52.7611L51.0822 46.9826V41.4726V41.4127L51.1421 41.3528L51.5019 41.1133V40.7539H47.7843V41.1133L48.1441 41.3528L48.204 41.4127V51.5343V51.714L48.1441 51.7739L47.7843 52.0134V52.3728H51.5019V52.0134L51.0822 51.7739L51.0222 51.714V47.1024L51.4419 47.1623L51.9216 46.9227L52.1615 46.8628C52.1615 46.8628 52.2214 46.8628 52.3414 46.8628H60.0164V50.4563L62.7746 47.4617V41.5924L62.8346 41.5325L63.2543 41.3528V40.9935H59.5967V41.0534Z" fill="#BD8B13"/>
<path d="M99.2311 45.1846C98.8114 43.8071 97.792 42.729 96.293 41.8905C94.9739 41.112 92.9951 40.8125 90.4168 40.8125H80.4033V41.1718L80.823 41.4114V42.6092H90.3568C92.2756 42.6092 93.7147 42.8488 94.5541 43.3878C95.8733 44.1664 96.5928 45.2444 96.5928 46.5022C96.5928 47.161 96.4129 47.7599 96.1131 48.3588C95.7534 48.8978 95.2137 49.3769 94.4942 49.7363C93.5947 50.2753 92.1557 50.5149 90.2969 50.5149H85.3201V43.3878H82.6218V51.4731V51.533L82.5619 51.5929L82.2021 51.7726V52.1319H90.3568C91.9758 52.1319 93.1151 52.072 94.0744 51.8924C95.2737 51.6528 96.353 51.2336 97.1924 50.6346C98.0918 50.0357 98.8114 49.2571 99.1112 48.5385C99.351 47.9395 99.5309 47.3406 99.5309 46.6818C99.411 46.1428 99.2911 45.6038 99.2311 45.1846Z" fill="#BD8B13"/>
<path d="M68.471 42.8496L59.5367 52.1327H63.6741V51.7135H63.4942H63.3143H63.1344L69.97 44.5266L68.471 42.8496Z" fill="#BD8B13"/>
<path d="M77.4652 51.8325V52.2517H81.4826L70.6896 40.8125L69.0706 42.4895L70.8694 44.3461L72.7282 46.2027H69.6102L67.9313 47.9994L68.2911 48.239L68.7108 47.9994H68.7708C68.7708 47.9994 68.9507 47.9994 69.0106 47.9994H74.2273L77.825 51.8924C77.825 51.8924 77.765 51.9522 77.4652 51.9522H77.4052V51.8325H77.4652Z" fill="#BD8B13"/>
<path d="M46.2253 41.2923L46.5851 41.0527V40.6934H42.9874V41.0527L43.3472 41.2923L43.5271 41.4719V51.4139V51.5935L43.4671 51.6534L43.0474 51.8331V52.1925H46.6451V51.8331L46.2853 51.6534L46.2253 51.5935V41.4719V41.4121V41.2923Z" fill="#BD8B13"/>
<path d="M28.177 49.9771H27.9971H27.5773L27.0977 50.2167C27.0377 50.2766 26.9178 50.2766 26.8578 50.2766H18.6431C16.7843 50.2766 15.3452 50.037 14.4458 49.498C13.0067 48.7194 12.3472 47.7013 12.3472 46.2639C12.3472 45.665 12.5271 45.0062 12.9468 44.4671C13.6064 43.449 14.6257 42.6704 16.1247 42.4308C16.5445 42.371 16.9042 42.371 17.1441 42.371H21.3414C21.5812 42.371 21.5812 42.4308 21.5812 42.4308L21.5213 42.7902H21.8211L23.6199 40.5742H18.5831C17.3839 40.5742 16.4845 40.5742 15.8849 40.6341C15.5251 40.6341 15.2253 40.694 14.9855 40.8138C14.146 40.9935 13.3665 41.3528 12.647 41.772C11.3278 42.4907 10.4284 43.3891 9.94872 44.4073C9.70888 45.0062 9.52899 45.665 9.52899 46.4435C9.52899 48.3002 10.5483 49.7376 12.4671 50.8755C13.3066 51.4145 14.3259 51.714 15.4052 51.8936C16.2447 52.0733 17.324 52.0733 18.7031 52.0733H26.3182L28.177 49.9771Z" fill="#BD8B13"/>
<path d="M24.0397 47.2218L25.8385 45.0059H13.9062L12.707 46.8026H23.44C23.6199 46.8026 23.6799 46.8625 23.6799 46.8625L23.6199 47.2218H24.0397Z" fill="#BD8B13"/>
<path d="M24.939 40.6934L23.2601 42.7895L23.6199 42.8494H23.6799L24.1596 42.6099C24.3394 42.55 24.3994 42.4302 24.5793 42.4302H31.175V51.354V51.4139L31.1151 51.4738L30.7553 51.7133V52.0727H34.4729V51.7133L34.1131 51.4738L34.0532 51.4139V51.354V42.4901H39.8694C40.1093 42.4901 40.1093 42.55 40.1093 42.55V42.9093H40.469L42.2679 40.6934H24.939Z" fill="#BD8B13"/>
</svg>
