<svg width="107" height="71" viewBox="0 0 107 71" fill="none" xmlns="http://www.w3.org/2000/svg">
<path d="M24.7743 27.091C24.7743 27.091 22.3282 25.5583 19.1122 26.4598C19.1122 26.4598 14.7848 27.6993 13.2896 31.1704C13.2896 31.1704 11.2763 34.3943 13.132 37.9561C13.132 37.9561 14.2443 40.4508 17.2091 41.1576C17.2091 41.1576 21.0002 42.1729 23.7788 40.0785C23.7788 40.0785 27.974 37.8752 28.0806 33.2223C28.0806 33.2223 28.4872 29.1195 24.7743 27.091ZM26.811 35.2056C26.0414 37.2795 22.5998 39.5792 22.5998 39.5792C16.4395 42.645 14.0353 38.2001 14.0353 38.2001C12.6772 35.3145 14.3388 32.5629 14.3388 32.5629C15.9243 29.4518 18.9302 28.2181 18.9302 28.2181C23.1428 26.4148 25.5439 28.4437 25.5439 28.4437C28.9412 30.9686 26.811 35.2056 26.811 35.2056Z" fill="#EC2227"/>
<path d="M18.0213 30.7762C18.0213 30.7762 16.3666 34.6272 16.3434 34.8595C16.3434 34.8595 15.7597 36.669 16.0399 38.4322L18.9721 38.518C18.9721 38.518 18.1609 38.1301 18.6733 36.0653C18.6733 36.0653 19.0234 34.8356 19.2796 34.7429C19.2796 34.7429 19.3492 34.6272 19.3964 34.8356C19.3964 34.8356 19.9781 36.9232 21.5411 38.5016C21.5411 38.5016 22.5187 39.8469 24.943 40.7744C24.943 40.7744 27.0643 41.3321 28.3232 40.2886C28.3232 40.2886 29.3955 39.6391 29.4181 37.7586C29.4181 37.7586 29.4363 37.568 29.2556 37.713C29.2556 37.713 28.4625 38.594 26.4354 38.4322C26.4354 38.4322 25.83 38.5479 24.1522 37.2724L20.5852 34.3495C20.5852 34.3495 20.4224 34.2332 20.6549 34.2094C20.6549 34.2094 22.7291 33.8384 23.336 33.351C23.336 33.351 25.2017 32.4385 25.4562 31.0784C25.4562 31.0784 25.8426 29.5877 25.2463 28.712C25.2463 28.712 25.0369 28.5724 24.9672 28.735C24.9672 28.735 23.9007 29.83 22.9806 30.4176L20.2349 32.1915C20.2349 32.1915 20.0241 32.3308 20.1888 32.0062L20.9811 29.9181C20.9811 29.9181 21.424 29.1989 20.2123 29.2918C20.2123 29.2918 18.3857 29.4753 17.3761 30.7137C17.3761 30.7137 17.2979 30.7532 17.4381 30.7995L18.0213 30.7762ZM32.5696 37.2448H30.9075L32.1479 31.0501H33.8084L33.1977 33.9895H33.2142L35.5044 31.0501H36.8136L34.6692 33.8006L36.6324 37.2448H34.7458L33.1621 34.3062H33.1459L32.5696 37.2448Z" fill="#EC2227"/>
<path d="M38.3585 34.7436C38.4351 34.2973 38.7871 33.526 39.3287 33.526C39.5454 33.526 39.6746 33.6551 39.6746 33.8783C39.6749 34.4859 39.1408 34.7603 38.3585 34.7436ZM41.2238 35.6942C40.6655 35.9944 39.7176 36.3722 39.0887 36.3722C38.6337 36.3722 38.2533 36.1657 38.2456 35.6687C39.4262 35.704 41.1726 34.8807 41.1726 33.5359C41.1726 32.8159 40.4928 32.4987 39.9066 32.4987C37.7547 32.4987 36.584 34.4527 36.584 35.797C36.584 36.8769 37.5999 37.348 38.5461 37.348C39.3738 37.348 40.1729 37.1251 40.9902 36.8339L41.2238 35.6942ZM43.6693 34.5632H43.7732C44.1175 33.7755 44.996 32.499 45.951 32.499C46.5358 32.499 46.8806 32.9272 46.8806 33.4657C46.8806 33.69 46.8198 33.9129 46.7773 34.1352L46.1479 37.246H44.4957L45.0723 34.3312C45.0819 34.272 45.1169 34.1692 45.1169 34.1012C45.1169 34.0497 45.0995 33.9644 45.0218 33.9644C44.7202 33.9644 43.7035 35.4628 43.5415 35.797L43.2479 37.246H41.5874L42.5165 32.602H44.1602L43.6693 34.5632ZM49.5868 35.3172L51.4387 32.6018H52.6942L48.3904 38.8998H46.6771L48.2621 37.2451L47.3745 32.6018H49.0703L49.5868 35.3172ZM55.2921 34.0754C54.9216 34.6062 54.1126 35.9601 53.6567 35.9601C53.5101 35.9601 53.4669 35.8151 53.4669 35.6942C53.4669 35.2577 53.855 33.449 54.8516 33.449C55.0414 33.449 55.2301 33.5183 55.3863 33.6039L55.2921 34.0754ZM54.6635 37.2451H56.3148L57.2456 32.6018H55.6874C55.5673 32.6018 55.3001 32.5239 54.9125 32.5239C53.2862 32.5239 51.8053 34.6232 51.8053 36.1227C51.8053 36.7396 52.2022 37.348 52.8738 37.348C53.828 37.348 54.7059 36.072 55.0494 35.2829H55.1541L54.6635 37.2451ZM61.2381 34.7178L62.3912 32.5585H62.4086L62.8138 34.7178H61.2381ZM58.6896 37.2451H59.8694L60.7037 35.6942H63.0022L63.3041 37.2451H64.8885L63.6914 31.0508H62.0386L58.6896 37.2451ZM66.2754 32.6023H67.9367L67.0049 37.2451H65.3441L66.2754 32.6023ZM66.5955 31.0639H68.2574L68.0232 31.9983H66.3603L66.5955 31.0639ZM69.9446 34.5632H70.0468C70.39 33.7755 71.2681 32.499 72.2251 32.499C72.4149 32.499 72.57 32.55 72.6457 32.5938L72.0598 34.0327C71.9502 33.9729 71.8284 33.9208 71.7003 33.9208C70.8638 33.9208 70.1407 35.2577 69.814 35.797L69.5209 37.246H67.8591L68.7887 32.602H70.4352L69.9446 34.5632ZM76.3184 37.246L76.1994 34.4437H76.1812L74.796 37.246H73.2129L73.0305 32.602H74.4861L74.5894 35.548H74.6059L76.0694 32.602H77.4547L77.5839 35.5565H77.6032L79.0736 32.602H80.2357L77.904 37.246H76.3184ZM83.0272 34.0754C82.6565 34.6062 81.8458 35.9601 81.3913 35.9601C81.2444 35.9601 81.2018 35.8151 81.2018 35.6942C81.2018 35.2577 81.5902 33.449 82.5881 33.449C82.7771 33.449 82.9663 33.5183 83.1214 33.6039L83.0272 34.0754ZM82.3983 37.2451H84.0511L84.9797 32.6018H83.4211C83.3021 32.6018 83.0355 32.5239 82.6479 32.5239C81.0211 32.5239 79.541 34.6232 79.541 36.1227C79.541 36.7396 79.9349 37.348 80.6079 37.348C81.5634 37.348 82.4413 36.072 82.7856 35.2829H82.8889L82.3983 37.2451ZM87.8114 35.3172L89.663 32.6018H90.9194L86.6143 38.8998H84.9012L86.4867 37.2451L85.5984 32.6018H87.2949L87.8114 35.3172ZM94.3142 33.6379C93.9767 33.5183 93.6255 33.4246 93.2732 33.4246C92.9972 33.4246 92.6184 33.5096 92.6184 33.8525C92.6184 34.4006 94.0561 34.7946 94.0561 35.8057C94.0561 36.4226 93.6429 37.3488 91.8777 37.3488C91.2929 37.3488 90.7489 37.2369 90.1732 37.0911L90.3889 36.0026C90.8004 36.1825 91.4304 36.4226 91.8775 36.4226C92.1008 36.4226 92.3939 36.2781 92.3939 35.9768C92.3939 35.3427 91.0602 34.9492 91.0602 33.9378C91.0602 33.3897 91.4384 32.4981 93.2112 32.4981C93.6426 32.4981 94.1087 32.5845 94.5117 32.6355L94.3142 33.6379Z" fill="#EC2227"/>
<path d="M48.9015 40.285L48.926 40.3102C48.8602 40.3917 48.7503 40.4328 48.5988 40.4328C48.5767 40.4328 48.4682 40.4237 48.271 40.4076C48.0732 40.3908 47.9663 40.3832 47.9506 40.3832H46.794C46.1257 41.0401 45.7932 41.5843 45.7932 42.0194C45.7932 42.3188 45.9436 42.5423 46.2439 42.6895C46.4582 42.797 46.6926 42.8493 46.9482 42.8493C47.2129 42.8455 47.468 42.7978 47.7145 42.7079C47.9043 42.6426 48.1748 42.516 48.5241 42.3268C48.553 42.3473 48.5861 42.3575 48.6233 42.3575L48.6103 42.5129C47.8694 43.1216 47.1854 43.4268 46.5593 43.4268C46.229 43.4268 45.9293 43.3541 45.6555 43.2102C45.2902 43.0169 45.1076 42.7295 45.1076 42.3523C45.1024 42.0433 45.2514 41.6937 45.5522 41.3016C45.7034 41.1051 45.9731 40.8128 46.3618 40.4254L44.3281 40.5241C44.1843 40.5323 44.1118 40.4854 44.1118 40.3826C44.1118 40.2921 44.1584 40.188 44.2545 40.0684C44.349 39.95 44.4269 39.8905 44.4897 39.8905H46.8424C46.93 39.8055 47.0658 39.6816 47.2515 39.5195C47.3341 39.5195 47.4019 39.5297 47.4556 39.5497C47.46 39.6355 47.4289 39.7142 47.3631 39.783L47.2573 39.8927C47.5212 39.9097 47.784 39.9275 48.0487 39.9481C48.4148 39.9725 48.6574 40.0128 48.7775 40.0706C48.8194 40.0917 48.8599 40.1633 48.9015 40.285Z" fill="#010101"/>
<path d="M51.6138 42.776H51.6939C51.5579 42.9032 51.3524 43.0477 51.0755 43.2083C50.7585 43.3967 50.5332 43.4924 50.3968 43.4924C50.2806 43.4924 50.1858 43.4397 50.1123 43.3375C50.0588 43.2547 50.0321 43.1757 50.0321 43.0973V42.5177C50.0321 42.4889 50.0128 42.4746 49.9748 42.4746C49.9316 42.4746 49.7244 42.6224 49.3583 42.9213C48.9917 43.2187 48.7339 43.3646 48.5854 43.361C48.384 43.361 48.2832 43.2037 48.2832 42.887C48.2832 42.7187 48.3366 42.5643 48.4438 42.4247C48.9501 41.7802 49.2217 41.4369 49.2594 41.396C49.5718 41.0051 49.8577 40.6667 50.1172 40.3794C50.2122 40.2719 50.307 40.2188 50.4026 40.2188C50.5128 40.2188 50.569 40.2676 50.569 40.3665C50.5676 40.3712 50.5665 40.3794 50.5665 40.3909C50.5665 40.4033 50.5676 40.4115 50.569 40.4153C50.569 40.5272 50.5301 40.6626 50.4513 40.8228C50.2874 41.1679 50.0629 41.4443 49.7839 41.654C49.1906 42.0938 48.8944 42.3814 48.8944 42.516C48.8944 42.5785 48.9118 42.6427 48.9435 42.7074C48.9763 42.7743 49.0203 42.8089 49.0727 42.8121C49.1357 42.8121 49.3019 42.708 49.5743 42.499C49.6858 42.4124 49.8533 42.2929 50.0751 42.1418C50.1941 42.0678 50.307 42.0321 50.4139 42.0321C50.4392 42.0321 50.4637 42.0332 50.4883 42.0379C50.5579 42.087 50.6045 42.1465 50.6257 42.2153C50.629 42.2282 50.6395 42.3008 50.656 42.431C50.6637 42.4766 50.667 42.6592 50.667 42.9791C50.6767 42.9953 50.6948 43.0178 50.7232 43.0466C50.9045 43.0581 51.1474 42.9405 51.4526 42.6893H51.5887C51.5978 42.7052 51.605 42.734 51.6138 42.776Z" fill="#010101"/>
<path d="M52.39 42.2163C52.39 42.3764 52.1575 42.4784 51.6928 42.5242C51.738 42.4252 51.8264 42.3353 51.9575 42.2531C52.0906 42.1708 52.1972 42.1305 52.2798 42.1305C52.3531 42.1302 52.39 42.1593 52.39 42.2163ZM52.904 42.1198C52.904 41.9284 52.7902 41.8338 52.5644 41.8385C52.3625 41.8385 52.0925 41.9284 51.7542 42.1083C51.3386 42.3263 51.1312 42.564 51.1364 42.8217C51.1364 43.0227 51.2405 43.1751 51.4518 43.2774C51.6085 43.3514 51.7821 43.3876 51.9765 43.3876C52.1919 43.3876 52.4321 43.3259 52.7002 43.2025C52.8688 43.1235 53.1175 42.9826 53.4478 42.7759L53.3795 42.7383V42.7446H53.4717V42.5848C52.958 42.8181 52.5646 42.9355 52.2936 42.9355C51.9548 42.9355 51.7493 42.868 51.6752 42.7331C52.4977 42.627 52.9073 42.4225 52.904 42.1198ZM63.5056 42.5467L63.7973 42.2646C63.6064 42.5596 63.3362 42.825 62.9866 43.0599C62.652 43.2826 62.3759 43.3931 62.1586 43.3931C62.0801 43.3931 61.9729 43.3582 61.8374 43.2881C61.676 43.2058 61.5958 43.1172 61.5958 43.0221C61.5958 42.9777 61.6551 42.907 61.7754 42.8132C61.8578 42.7507 61.9407 42.6865 62.0283 42.6218C61.9988 42.5884 61.9341 42.5472 61.8347 42.4984C61.7325 42.4488 61.676 42.4233 61.6631 42.4233C61.6474 42.4233 61.6049 42.4491 61.5405 42.4976L61.4485 42.5588C61.4151 42.5834 61.3774 42.6065 61.3366 42.627C61.3013 42.5969 61.2593 42.5757 61.2141 42.5651C61.2631 42.4875 61.3444 42.3989 61.4606 42.2983L61.4543 42.2862C61.4386 42.2541 61.4311 42.218 61.435 42.182C61.4554 42.1242 61.5457 42.0241 61.7049 41.8813C61.8619 41.7384 61.9809 41.668 62.0583 41.668C62.1008 41.668 62.1514 41.6968 62.2085 41.7546C62.1994 41.8369 62.1892 41.8909 62.1762 41.9153C62.1644 41.9397 62.1322 41.9827 62.0793 42.0452C62.168 42.0902 62.26 42.1376 62.3503 42.1873C62.4729 42.2574 62.5349 42.3249 62.5349 42.391C62.5349 42.4771 62.4795 42.5535 62.3696 42.6196C62.2572 42.6851 62.1991 42.7381 62.1952 42.7797C62.1952 42.8864 62.3071 42.9404 62.5294 42.9404C62.7269 42.9404 63.0172 42.8091 63.4009 42.5464H63.5056V42.5467Z" fill="#010101"/>
<path d="M64.8536 41.3299C64.7672 41.4648 64.611 41.5336 64.384 41.5336C64.3102 41.5336 64.2209 41.507 64.1176 41.4571C64.016 41.4055 63.9653 41.348 63.9692 41.283C63.9692 41.221 64.0234 41.1544 64.1306 41.0812C64.2171 41.0195 64.2779 40.9836 64.3151 40.9707C64.349 40.9707 64.4314 41.0107 64.563 41.0864C64.633 41.1281 64.7955 41.2092 65.0509 41.3301H64.8536V41.3299ZM63.6232 43.3941C63.2643 43.3941 63.0863 43.2367 63.0863 42.9209C63.0863 42.8019 63.1039 42.7018 63.1417 42.6229C63.1621 42.5867 63.294 42.4608 63.5367 42.2448C63.7975 42.0167 63.959 41.9051 64.0245 41.9086C64.0545 41.9086 64.0826 41.9169 64.1127 41.9311L64.1369 41.9421H64.1923V42.0893C63.8631 42.3712 63.6967 42.5776 63.6967 42.7087C63.6967 42.8636 63.8 42.9415 64.0066 42.9415C64.1421 42.9415 64.3008 42.897 64.4818 42.806C64.6303 42.7243 64.7776 42.6421 64.922 42.5604L64.9947 42.6278V42.7578C64.4005 43.1819 63.9449 43.3941 63.6232 43.3941Z" fill="#010101"/>
<path d="M68.0233 42.7029L68.0724 42.7586C67.7771 42.9642 67.5768 43.0958 67.4735 43.1536C67.206 43.3105 66.984 43.3889 66.8058 43.3889C66.6471 43.3889 66.5163 43.3445 66.4158 43.2589C66.3012 43.163 66.2441 43.0245 66.2441 42.8386C66.2441 42.7816 66.2505 42.7204 66.2634 42.6596C65.9822 42.8945 65.7894 43.047 65.6814 43.1172C65.4178 43.2976 65.1944 43.3889 65.0148 43.3889C64.8572 43.3889 64.7258 43.3425 64.6184 43.2545C64.5112 43.1665 64.4586 43.0489 64.4586 42.9039C64.4586 42.5941 64.6985 42.3352 65.1817 42.1277C65.5434 41.9703 65.8403 41.8963 66.0712 41.9048C66.3337 41.9094 66.4419 41.9136 66.3929 41.9169C66.3929 41.9388 66.402 41.9986 66.424 42.0967C66.3659 42.1559 66.3116 42.1861 66.2637 42.1861C66.2417 42.1861 66.2111 42.1823 66.1695 42.1738C66.1293 42.1655 66.0984 42.1609 66.0775 42.1609C65.9241 42.1609 65.7395 42.2168 65.5211 42.3273C65.2693 42.4545 65.144 42.5913 65.144 42.7385C65.144 42.8548 65.2167 42.9039 65.3596 42.8863C65.5043 42.8863 65.6836 42.8227 65.8982 42.695C66.0957 42.5729 66.2532 42.4416 66.3733 42.301C66.4518 42.211 66.5309 42.0811 66.6086 41.9133C66.7193 41.6756 66.7857 41.5355 66.8061 41.4946C66.8926 41.3507 67.0551 41.1231 67.2939 40.8108C67.6027 40.4125 67.8077 40.2131 67.9063 40.2131C67.9553 40.2093 67.995 40.2485 68.0316 40.3302C68.0586 40.3919 68.0724 40.4369 68.0724 40.4657C68.0724 40.7286 67.955 40.9893 67.7217 41.2481C67.5071 41.4538 67.2912 41.6589 67.0719 41.8645C66.8411 42.094 66.7259 42.3078 66.7259 42.5039C66.7259 42.6483 66.7727 42.7597 66.8681 42.8381C66.9455 42.9036 67.0477 42.9362 67.1705 42.9362C67.306 42.9362 67.5137 42.8496 67.7886 42.678C67.866 42.6278 67.9451 42.5875 68.0239 42.5549L68.0922 42.6223V42.7276L68.0233 42.7029Z" fill="#010101"/>
<path d="M68.8213 42.2178C68.8213 42.3779 68.5888 42.4799 68.1241 42.5257C68.1682 42.4267 68.2574 42.3368 68.3888 42.2546C68.5208 42.1723 68.6277 42.132 68.7106 42.132C68.7841 42.1317 68.8213 42.1608 68.8213 42.2178ZM69.3339 42.1213C69.3339 41.9299 69.2215 41.8353 68.9946 41.84C68.7935 41.84 68.5233 41.9299 68.185 42.1098C67.769 42.3278 67.5641 42.5655 67.5669 42.8232C67.5669 43.0242 67.6724 43.1766 67.8817 43.2789C68.0393 43.3529 68.2136 43.3891 68.4084 43.3891C68.623 43.3891 68.8629 43.3274 69.1304 43.204C69.2992 43.1251 69.5491 42.9841 69.8793 42.7774L69.811 42.7398V42.7461H69.9041V42.5863C69.3898 42.8196 68.9948 42.937 68.7238 42.937C68.3852 42.937 68.1787 42.8695 68.1068 42.7346C68.929 42.6285 69.3394 42.424 69.3339 42.1213ZM73.8699 42.2652L73.914 42.2408C73.8468 42.3648 73.595 42.4648 73.1598 42.5422C73.0683 42.8139 72.8656 43.0299 72.548 43.1906C72.2882 43.326 72.0197 43.3935 71.7436 43.3935C71.5963 43.3981 71.4569 43.371 71.3241 43.314C71.1418 43.2273 71.0531 43.0993 71.0531 42.9309C71.0531 42.7119 71.1806 42.5076 71.4415 42.3182C71.6508 42.1657 71.8794 42.061 72.1221 42.004L72.1271 41.9963C72.161 41.968 72.1998 41.9541 72.245 41.9541H72.5171C72.4929 42.0042 72.459 42.0632 72.4193 42.1325C72.3805 42.1416 72.3199 42.1578 72.2331 42.1827C71.8651 42.2855 71.6817 42.4333 71.6767 42.6269C71.6767 42.8377 71.8602 42.9422 72.2265 42.9422C72.5262 42.9422 72.756 42.8109 72.9124 42.5496C72.8463 42.5405 72.6516 42.5013 72.326 42.4317C72.4411 42.1948 72.54 42.0204 72.6229 41.9094C72.7703 41.9754 72.9188 42.0407 73.0672 42.1054C73.2427 42.1794 73.3986 42.2154 73.5369 42.2154C73.6261 42.2154 73.736 42.2036 73.8636 42.1792L73.8754 42.2652H73.8699Z" fill="#010101"/>
<path d="M74.7444 42.2271C74.773 42.2359 74.8697 42.2406 75.0339 42.2406C75.0275 42.2406 75.1049 42.2373 75.2699 42.231C75.4341 42.2247 75.6019 42.2214 75.7707 42.2214C75.6404 42.3609 75.484 42.4508 75.2944 42.4917C75.2336 42.504 75.0501 42.5205 74.7504 42.5408C74.6185 42.5495 74.5168 42.5619 74.4469 42.5775C74.4226 42.5857 74.3849 42.6203 74.3386 42.6803C74.2907 42.7387 74.2612 42.7971 74.2494 42.855C74.2568 43.0104 74.2612 43.2155 74.2612 43.4699C74.2612 43.564 74.1885 43.7957 74.0455 44.1652C73.875 44.6028 73.7293 44.8224 73.6012 44.8224C73.4607 44.8224 73.3935 44.7196 73.3963 44.5154V44.4723C73.4001 44.4561 73.4026 44.4452 73.4026 44.4416C73.4026 44.0394 73.4748 43.6769 73.6177 43.3529C73.6268 43.3331 73.6929 43.2059 73.8169 42.9712C73.932 42.7546 73.9912 42.6417 73.9912 42.634C73.9912 42.6167 73.9755 42.5945 73.9461 42.5657L73.9279 42.5408C73.7665 42.5325 73.6095 42.5068 73.4527 42.461C73.4527 42.3752 73.4709 42.3181 73.5109 42.2894C73.5511 42.26 73.6334 42.2167 73.7552 42.1597C73.8789 42.1029 73.9563 42.0736 73.9912 42.0736C74.0235 42.0736 74.0805 42.0851 74.1601 42.1076C74.2392 42.1301 74.2945 42.141 74.3243 42.141C74.3281 42.141 74.4744 41.9077 74.7623 41.4411C74.9264 41.1614 75.1377 40.814 75.3933 40.3956C75.4429 40.309 75.5305 40.2503 75.6581 40.2177C75.7743 40.2177 75.8313 40.2939 75.8313 40.4445C75.8313 40.7227 75.7335 41.0087 75.5355 41.299C75.4002 41.508 75.1355 41.8175 74.7444 42.2271ZM83.212 43.3227C83.0302 43.3227 82.8957 43.2114 82.8106 42.989C82.7812 42.8761 82.7396 42.7316 82.6869 42.56C82.6531 42.4242 82.5977 42.2175 82.5192 41.9384C82.4649 41.7295 82.4159 41.5176 82.3652 41.3048C82.2997 41.0496 82.2156 40.8519 82.1123 40.7077C82.0242 40.5843 81.8821 40.524 81.6862 40.524C81.3939 40.524 81.0212 40.6709 80.5676 40.9659C80.229 41.2042 79.8886 41.4413 79.5464 41.6799C79.9128 41.7295 80.3885 41.7514 80.9695 41.7468C81.1705 41.7468 81.4713 41.7372 81.8705 41.7166C81.8947 41.7128 81.9545 41.701 82.0495 41.6799C82.1247 41.6631 82.1804 41.6555 82.2162 41.6555H82.3454L82.3335 41.7602C82.3297 41.8128 82.2991 41.8578 82.2421 41.8951C81.9035 42.1169 81.2854 42.2312 80.3882 42.2397C80.1321 42.2436 79.812 42.2334 79.431 42.2087C79.4079 42.2087 79.2713 42.1904 79.0151 42.1536C78.9727 42.1454 78.9468 42.1408 78.9355 42.1408C78.9311 42.1498 78.9181 42.1665 78.8977 42.1904C77.9201 43.0861 77.2681 43.5346 76.9378 43.5346C76.8717 43.5346 76.8097 43.5165 76.7469 43.4801C76.6861 43.4425 76.6549 43.3943 76.6549 43.3367C76.6549 43.2509 76.9122 43.0296 77.4271 42.6716C77.6816 42.5002 78.0096 42.2765 78.4099 42.0023C78.3567 41.9765 78.2771 41.9412 78.1747 41.8967L78.1628 41.7539C78.2317 41.6969 78.3286 41.63 78.4485 41.5535C78.571 41.4786 78.6523 41.4405 78.6939 41.4405C78.7181 41.4405 78.7815 41.4644 78.8823 41.5118C78.9828 41.5581 79.0399 41.582 79.0528 41.582C79.0647 41.5729 79.0941 41.5527 79.1379 41.5203C80.8116 40.4335 81.8226 39.8906 82.1674 39.8906C82.3881 39.8906 82.5881 40.0527 82.7613 40.3765C82.8748 40.6024 82.9949 40.9421 83.1191 41.3975C83.1756 41.6393 83.2624 41.9741 83.3794 42.3998C83.4651 42.6825 83.5425 42.8234 83.6136 42.8234C83.6745 42.8234 83.7593 42.7809 83.8665 42.6954C83.9411 42.6247 84.0166 42.5567 84.0923 42.4892C84.1686 42.421 84.2447 42.3672 84.3171 42.3258C84.321 42.3258 84.3634 42.3546 84.4408 42.4114V42.4552C84.2849 42.6647 84.0948 42.8528 83.8717 43.0208C83.6139 43.221 83.3943 43.3227 83.212 43.3227Z" fill="#010101"/>
<path d="M85.5295 42.2282C85.5582 42.2369 85.6548 42.2416 85.8179 42.2416C85.8116 42.2416 85.889 42.2383 86.0551 42.232C86.2193 42.2257 86.3859 42.2224 86.5548 42.2224C86.4256 42.362 86.268 42.4519 86.0796 42.4927C86.0162 42.5051 85.8353 42.5215 85.5345 42.5418C85.4025 42.5506 85.3009 42.5629 85.2309 42.5785C85.2061 42.5868 85.17 42.6213 85.1238 42.6814C85.0758 42.7398 85.0464 42.7982 85.0334 42.856C85.0425 43.0115 85.0464 43.2165 85.0464 43.471C85.0464 43.565 84.9736 43.7967 84.8296 44.1663C84.6602 44.6039 84.5133 44.8235 84.3853 44.8235C84.2459 44.8235 84.1776 44.7207 84.1814 44.5164C84.1798 44.5021 84.1798 44.4877 84.1814 44.4734C84.1853 44.4572 84.1864 44.4462 84.1864 44.4426C84.1864 44.0404 84.2591 43.678 84.4037 43.3539C84.4122 43.3342 84.4784 43.207 84.6012 42.9723C84.7158 42.7557 84.7739 42.6427 84.7739 42.635C84.7739 42.6178 84.761 42.5955 84.7304 42.5668L84.7136 42.5418C84.5522 42.5339 84.3922 42.5072 84.2371 42.462C84.2371 42.3762 84.2563 42.3192 84.2963 42.2904C84.334 42.2611 84.4153 42.2177 84.5406 42.1607C84.6632 42.104 84.7417 42.0746 84.7742 42.0746C84.8081 42.0746 84.8646 42.0861 84.9436 42.1086C85.0249 42.1311 85.0791 42.1421 85.1089 42.1421C85.1144 42.1421 85.2601 41.9087 85.5469 41.4421C85.7121 41.1624 85.9223 40.8151 86.1779 40.3967C86.227 40.31 86.3162 40.2514 86.4443 40.2188C86.5589 40.2188 86.617 40.295 86.617 40.4455C86.617 40.7238 86.5176 41.0097 86.319 41.3001C86.1832 41.509 85.9212 41.8185 85.5295 42.2282Z" fill="#010101"/>
<path d="M88.3733 42.5467L88.6628 42.2646C88.4739 42.5596 88.2028 42.825 87.8533 43.0599C87.5186 43.2826 87.2437 43.3931 87.0258 43.3931C86.9484 43.3931 86.8407 43.3582 86.7041 43.2881C86.5437 43.2058 86.4625 43.1172 86.4625 43.0221C86.4625 42.9777 86.5233 42.907 86.6432 42.8132C86.7244 42.7507 86.8085 42.6865 86.8966 42.6218C86.8666 42.5884 86.8018 42.5472 86.7013 42.4984C86.6008 42.4488 86.5437 42.4233 86.5308 42.4233C86.5156 42.4233 86.4727 42.4491 86.4071 42.4976L86.3157 42.5588C86.2818 42.5834 86.2446 42.6065 86.2044 42.627C86.1694 42.5982 86.1297 42.5768 86.0807 42.5651C86.1297 42.4875 86.2126 42.3989 86.3272 42.2983L86.3209 42.2862C86.3052 42.2541 86.3005 42.218 86.3033 42.182C86.3236 42.1242 86.4129 42.0241 86.5718 41.8813C86.7308 41.7384 86.8478 41.668 86.9297 41.668C86.9696 41.668 87.0172 41.6968 87.0765 41.7546C87.0674 41.8369 87.0572 41.8909 87.0442 41.9153C87.033 41.9397 87.0007 41.9827 86.9465 42.0452C87.0368 42.0902 87.1283 42.1376 87.2175 42.1873C87.3412 42.2574 87.4032 42.3249 87.4032 42.391C87.4032 42.4771 87.3478 42.5535 87.2368 42.6196C87.1255 42.6851 87.0674 42.7381 87.0652 42.7797C87.0652 42.8864 87.1748 42.9404 87.3966 42.9404C87.5946 42.9404 87.8849 42.8091 88.2681 42.5464H88.3733V42.5467Z" fill="#010101"/>
<path d="M89.7197 41.3299C89.6335 41.4648 89.4771 41.5336 89.2484 41.5336C89.1763 41.5336 89.087 41.507 88.9865 41.4571C88.8821 41.4055 88.833 41.348 88.8369 41.283C88.8369 41.221 88.8895 41.1544 88.9967 41.0812C89.0831 41.0195 89.1451 40.9836 89.184 40.9707C89.2151 40.9707 89.298 41.0107 89.4294 41.0864C89.5005 41.1281 89.6619 41.2092 89.9178 41.3301H89.7197V41.3299ZM88.4909 43.3941C88.1314 43.3941 87.9524 43.2367 87.9524 42.9209C87.9524 42.8019 87.97 42.7018 88.0078 42.6229C88.0281 42.5867 88.1601 42.4608 88.4041 42.2448C88.6625 42.0167 88.8264 41.9051 88.8912 41.9086C88.9206 41.9086 88.9493 41.9169 88.9787 41.9311L89.003 41.9421H89.0589V42.0893C88.7297 42.3712 88.5639 42.5776 88.5639 42.7087C88.5639 42.8636 88.6672 42.9415 88.8727 42.9415C89.0093 42.9415 89.1669 42.897 89.3492 42.806C89.4977 42.7243 89.6434 42.6421 89.7883 42.5604L89.8616 42.6278V42.7578C89.2696 43.1819 88.8121 43.3941 88.4909 43.3941Z" fill="#010101"/>
<path d="M90.0452 43.3941C89.8967 43.3941 89.7563 43.3565 89.6246 43.2836C89.44 43.1876 89.3469 43.0483 89.3469 42.8633C89.3469 42.5916 89.583 42.3569 90.0571 42.1606C90.4234 42.0081 90.727 41.9316 90.9647 41.9316C91.0562 41.9316 91.1391 41.956 91.2137 42.0062V42.1902C91.1391 42.236 91.0523 42.2585 90.9545 42.2585C90.9286 42.2585 90.8732 42.2552 90.7867 42.2461C90.7168 42.2423 90.6642 42.2409 90.6264 42.2409C90.4237 42.2409 90.2623 42.284 90.1375 42.3695C90.0314 42.4389 89.9772 42.5255 89.9772 42.6278C89.9772 42.7182 90.0185 42.7931 90.1009 42.8518C90.1827 42.9118 90.2989 42.9411 90.4474 42.9411C90.5658 42.9411 90.7273 42.9019 90.9289 42.8235C91.0848 42.7547 91.2415 42.6845 91.3985 42.6152C91.4685 42.5825 91.5148 42.565 91.5341 42.565H91.7073V42.7262C91.5175 42.8542 91.2672 42.9878 90.9548 43.1268C90.5578 43.305 90.2557 43.3941 90.0452 43.3941Z" fill="#010101"/>
<path d="M93.0536 42.3636C93.0536 42.4826 92.9079 42.6085 92.6145 42.7381C92.368 42.8492 92.2041 42.9046 92.1211 42.9046C92.0787 42.9046 92.0388 42.8903 92.0002 42.8621C91.9614 42.8333 91.9421 42.8023 91.9421 42.7697C91.9421 42.6265 92.0594 42.4991 92.2999 42.3886C92.5021 42.2901 92.6809 42.2413 92.8379 42.2413C92.9814 42.2413 93.0536 42.28 93.0536 42.357V42.3636ZM94.0764 43.0962C94.4287 42.9158 94.6215 42.7705 94.6537 42.6592V42.6104L94.5504 42.5851C94.5209 42.5975 94.3953 42.6531 94.1786 42.7507C94.0312 42.8168 93.902 42.8555 93.7948 42.8673C93.7662 42.7702 93.7508 42.6923 93.7508 42.635C93.7315 42.4955 93.6513 42.3921 93.5172 42.3228C93.5133 42.3181 93.507 42.3123 93.499 42.3041C93.5017 42.2797 93.5092 42.24 93.5172 42.1846C93.5263 42.1287 93.5301 42.0875 93.5301 42.0593C93.5301 41.9162 93.4629 41.8441 93.331 41.8441C93.2458 41.8441 93.1863 41.8704 93.1555 41.923C93.1244 41.9757 93.0974 42.0264 93.0715 42.0735C92.9682 42.0502 92.8698 42.0374 92.7756 42.0374C92.5277 42.0305 92.2242 42.1075 91.8669 42.2718C91.4135 42.4727 91.1873 42.7211 91.1873 43.0172C91.1873 43.1277 91.2298 43.219 91.3154 43.2889C91.403 43.3586 91.5074 43.394 91.6317 43.394C91.8292 43.394 92.1443 43.2558 92.5781 42.9794C92.8029 42.839 93.0134 42.7102 93.2081 42.5912C93.2211 42.5912 93.229 42.5926 93.2329 42.5969L93.2458 42.6027V42.6342C93.1786 42.7083 93.1131 42.7812 93.0467 42.8566C92.9643 42.9498 92.9258 43.0345 92.9293 43.1085C92.9293 43.2761 93.0503 43.3605 93.2935 43.3605C93.4629 43.3654 93.7238 43.2766 94.0764 43.0962ZM55.9363 41.665C55.8176 41.7127 55.7311 41.7358 55.6771 41.7358C55.5812 41.7358 55.46 41.6861 55.3091 41.5894C55.1435 41.4833 55.0353 41.3714 54.9848 41.2538C55.0711 41.2609 55.1722 41.2653 55.2856 41.2653C55.487 41.2653 55.7275 41.1606 56.0073 40.9525C56.271 40.7556 56.4828 40.5379 56.6401 40.2988C56.7189 40.2988 56.772 40.326 56.799 40.3805C56.8715 40.5886 56.9048 40.7756 56.9048 40.9401C56.9048 41.0492 56.8263 41.1581 56.6635 41.2642C56.4324 41.4177 56.3032 41.5038 56.285 41.523C56.2657 41.5427 56.2195 41.6327 56.1429 41.7933C56.0809 41.9003 55.9958 42.0615 55.8886 42.2773C56.4968 41.7319 57.1422 41.2787 57.8265 40.9163C58.6077 40.5036 59.2963 40.2988 59.8913 40.2988C60.2334 40.2988 60.537 40.3778 60.8017 40.5332C61.1375 40.7252 61.3025 41.0043 61.3025 41.3692C61.3025 41.7193 61.132 42.0659 60.7888 42.4116C60.51 42.6981 60.1469 42.9487 59.7015 43.1647C59.3029 43.3622 58.9628 43.4757 58.6777 43.5066C58.1584 43.5694 57.8372 43.601 57.7091 43.601C57.3384 43.601 56.9976 43.5541 56.6864 43.4589C56.3029 43.3419 56.0393 43.1667 55.8936 42.9353C55.8936 42.9205 55.8988 42.8993 55.9065 42.8747C55.9142 42.8489 55.9167 42.8223 55.9167 42.7943H56.0666C56.3492 43.1664 56.8828 43.3534 57.6678 43.3534C58.1804 43.3534 58.6556 43.273 59.0919 43.1124C59.6591 42.9004 60.0979 42.5706 60.4042 42.1237C60.5243 41.9474 60.5833 41.7703 60.5888 41.594C60.5888 41.3075 60.4466 41.0942 60.1615 40.9533C59.955 40.8431 59.7172 40.7882 59.4553 40.7882C58.8743 40.7882 58.222 40.9815 57.5001 41.3684C56.777 41.7552 56.1613 42.2416 55.6537 42.8256C55.6291 42.85 55.5661 42.9715 55.4641 43.1913C55.2471 43.6509 55.0843 43.9733 54.9785 44.1583C54.7152 44.6022 54.4893 44.824 54.3045 44.824C54.2257 44.824 54.145 44.7983 54.0623 44.747C53.9687 44.6919 53.921 44.6236 53.921 44.5414C53.921 44.3643 54.4039 43.7671 55.3683 42.7491C55.3876 42.7255 55.4124 42.7003 55.4394 42.6721C55.5542 42.4727 55.7195 42.1374 55.9363 41.665Z" fill="#010101"/>
</svg>
