<svg width="108" height="72" viewBox="0 0 108 72" fill="none" xmlns="http://www.w3.org/2000/svg">
<path d="M27.7048 45.0977C27.5274 45.1098 27.3551 45.1207 27.177 45.1207C26.976 45.1207 26.7813 45.1035 26.5803 45.0977L27.1655 43.6866L27.7048 45.0977ZM28.3533 46.6984C28.4566 46.6926 28.6175 46.6645 28.7777 46.6645C28.9385 46.6645 29.1395 46.6926 29.2257 46.6984C28.9672 46.1418 28.5881 45.2752 28.3705 44.7761C28.1637 44.2948 27.8197 43.4913 27.5446 42.7051C27.4814 42.7223 27.4234 42.7344 27.3608 42.7344C27.2919 42.7344 27.2345 42.7223 27.1713 42.7051C27.034 43.1754 26.7004 43.9215 26.1214 45.2189L25.4558 46.6984C25.5356 46.6869 25.6166 46.6645 25.7137 46.6645C25.8056 46.6645 25.9153 46.6869 25.9893 46.6984C26.0807 46.3716 26.2644 45.8949 26.4476 45.4538C26.6774 45.4417 26.9071 45.4308 27.1363 45.4308C27.3832 45.4308 27.6244 45.4417 27.872 45.4538L28.112 46.062L28.3533 46.6984ZM29.7286 44.088C29.7286 45.0689 29.7286 46.016 29.6655 46.6983C29.7924 46.6931 29.9526 46.6644 30.0784 46.6644C30.2105 46.6644 30.3483 46.6931 30.4804 46.6983C30.4345 46.2337 30.423 45.614 30.423 44.7594C30.423 44.1793 30.423 43.1874 30.4862 42.7624C30.3483 42.7797 30.2053 42.7975 30.0784 42.7975C29.9928 42.7975 29.7798 42.7745 29.6712 42.7624C29.7286 43.3184 29.7286 43.7262 29.7286 44.088ZM33.141 44.7478C33.6636 44.6502 34.1397 44.3228 34.1397 43.6865C34.1397 43.4453 34.0478 43.2098 33.8761 43.0432C33.6297 42.8083 33.3477 42.7624 32.975 42.7624C32.8429 42.7624 32.1773 42.7911 32.0285 42.7911C31.7356 42.7911 31.5863 42.7745 31.4548 42.7624C31.4944 43.5027 31.4944 43.5831 31.4944 44.3349C31.4944 45.4416 31.4887 45.568 31.4433 46.6982C31.5696 46.6816 31.7075 46.6643 31.8384 46.6643C31.9826 46.6643 32.1084 46.6867 32.2232 46.6982C32.2232 46.5495 32.2002 45.8092 32.2002 45.6426V44.8282H32.3381C32.6482 45.2642 33.0031 45.769 33.296 46.2227C33.3822 46.3542 33.5085 46.5667 33.5947 46.6982C33.767 46.6752 33.8359 46.6643 34.0599 46.6643C34.2661 46.6643 34.4097 46.6816 34.5699 46.6982C34.2086 46.2457 34.053 46.0446 33.6004 45.4077C33.5143 45.2871 33.3879 45.0976 33.3018 44.9776L33.141 44.7478ZM32.2002 43.0725C32.2864 43.0662 32.4989 43.0432 32.608 43.0432C32.797 43.0432 32.9871 43.0725 33.141 43.1874C33.342 43.3362 33.3822 43.5429 33.3822 43.7841C33.3822 44.1563 33.1703 44.5761 32.5965 44.5761C32.4472 44.5761 32.3094 44.564 32.2002 44.5583V43.0725ZM36.1295 45.3562C35.8607 44.5585 35.4874 43.4397 35.3094 42.7626C35.1658 42.7855 35.04 42.797 34.9079 42.797C34.7701 42.797 34.5748 42.7746 34.46 42.7626C34.6626 43.296 34.8598 43.8315 35.0515 44.3689C35.3157 45.115 35.4874 45.6319 35.6942 46.2619L35.8372 46.6984C35.9176 46.6817 36.0089 46.6645 36.0726 46.6645C36.1358 46.6645 36.1933 46.6754 36.2903 46.6984C36.3822 46.4003 36.4914 46.0333 36.5723 45.7979C36.7952 45.1437 36.8244 45.0518 37.1173 44.2374L37.2891 43.7613C37.3522 43.9445 37.4614 44.2374 37.524 44.4206C37.5872 44.5987 37.8801 45.4768 37.949 45.6721C38.0409 45.93 38.0633 46.004 38.2758 46.6984C38.3275 46.6926 38.436 46.6645 38.5227 46.6645C38.6031 46.6645 38.6657 46.6817 38.7519 46.6984C38.9701 46.0161 38.9931 45.9472 39.3141 45.0289C39.63 44.1335 39.8247 43.6235 40.1687 42.7626C40.0826 42.7855 39.9976 42.797 39.9109 42.797C39.8017 42.797 39.7104 42.7798 39.6472 42.7626C39.4405 43.5086 39.3377 43.8704 39.1711 44.3632C38.9012 45.1661 38.8667 45.258 38.7007 45.6945C38.517 45.2011 38.3389 44.7015 38.1724 44.1972C38.081 43.9216 37.7302 42.7746 37.725 42.7626C37.6452 42.7798 37.5872 42.797 37.4723 42.797C37.3701 42.797 37.2943 42.7746 37.2202 42.7626C37.0479 43.4627 36.4396 45.1494 36.3822 45.3045L36.2386 45.6772L36.1295 45.3562ZM41.9193 45.0977C41.7412 45.1098 41.5695 45.1207 41.3909 45.1207C41.1904 45.1207 40.9952 45.1035 40.7947 45.0977L41.3794 43.6866L41.9193 45.0977ZM42.5671 46.6984C42.6711 46.6926 42.8319 46.6645 42.9921 46.6645C43.1529 46.6645 43.3539 46.6926 43.4395 46.6984C43.1816 46.1418 42.8026 45.2752 42.5843 44.7761C42.3776 44.2948 42.0335 43.4913 41.7585 42.7051C41.6953 42.7223 41.6378 42.7344 41.5747 42.7344C41.5063 42.7344 41.4483 42.7223 41.3851 42.7051C41.2479 43.1754 40.9148 43.9215 40.3353 45.2189L39.6696 46.6984C39.7506 46.6869 39.8304 46.6645 39.9281 46.6645C40.02 46.6645 40.1285 46.6869 40.2038 46.6984C40.2951 46.3716 40.4794 45.8949 40.6627 45.4538C40.8918 45.4417 41.1215 45.4308 41.3507 45.4308C41.5976 45.4308 41.8383 45.4417 42.0852 45.4538L42.3265 46.062L42.5671 46.6984ZM44.9758 45.1608C44.9758 45.1097 45.0102 45.0465 45.0504 44.977C45.2916 44.5641 45.515 44.1334 45.7735 43.7204C45.859 43.5826 46.2783 42.9175 46.365 42.7624C46.3013 42.7854 46.2381 42.7975 46.1238 42.7975C45.9969 42.7975 45.882 42.7797 45.7901 42.7624C45.3772 43.6693 45.2853 43.864 44.7983 44.702C44.3107 43.8473 44.0924 43.3942 43.7938 42.7624C43.6278 42.7912 43.4607 42.7975 43.3234 42.7975C43.1971 42.7975 43.065 42.7854 42.853 42.7624C43.1511 43.2615 43.6393 44.0535 43.9316 44.5584L44.2699 45.1436C44.2699 45.4997 44.2527 46.2509 44.236 46.6983C44.3446 46.6868 44.5054 46.6644 44.6197 46.6644C44.7518 46.6644 44.8844 46.6868 45.0165 46.6983C44.993 46.1647 44.9758 45.8552 44.9758 45.3728V45.1608ZM46.6956 45.8382C46.6674 46.1133 46.6611 46.188 46.5635 46.4861C46.7702 46.5895 47.1435 46.779 47.6363 46.779C48.6867 46.779 49.0939 46.1082 49.0939 45.5224C49.0939 45.3616 49.0537 45.0227 48.8131 44.7648C48.6465 44.581 48.4742 44.5184 48.0326 44.3461C47.5283 44.1509 47.2348 44.036 47.2348 43.6173C47.2348 43.279 47.4589 42.9976 47.912 42.9976C48.2732 42.9976 48.5782 43.1699 48.6638 43.4967H48.7441C48.7959 43.279 48.8073 43.2331 48.9222 42.9517C48.6408 42.8259 48.3881 42.7168 47.9694 42.7168C46.9304 42.7168 46.6324 43.3595 46.6324 43.8637C46.6324 44.3404 46.7995 44.6333 47.3554 44.8797C47.5157 44.9486 47.7862 45.0514 47.9464 45.1209C48.0556 45.1663 48.4174 45.3265 48.4174 45.7802C48.4174 46.1938 48.1182 46.4981 47.6656 46.4981C47.3267 46.4981 47.0396 46.412 46.776 45.8382H46.6956Z" fill="#505967"/>
<path d="M14.8197 35.2332C14.8197 30.896 17.1434 29.7249 18.8997 29.7249C21.7225 29.7249 22.9447 32.0665 22.9447 34.5624C22.9447 35.9908 22.7724 37.3336 22.0665 38.4184C21.3607 39.5022 20.1908 40.1569 18.9164 40.1569C15.7323 40.1569 14.8197 37.1268 14.8197 35.2332ZM23.3921 44.0991C23.9084 43.7373 24.7176 43.2899 25.3028 43.0314L21.4129 40.621C23.805 39.7779 25.3028 37.6432 25.3028 34.7342C25.3028 30.6037 22.1527 28.8474 18.9336 28.8474C15.4572 28.8474 12.4615 30.7754 12.4615 35.1477C12.4615 36.0763 12.6683 37.8326 14.1139 39.296C15.6117 40.8111 17.3847 41.0345 18.8825 41.0345C19.0714 41.0345 19.2604 41.0345 19.4505 41.0178L23.3921 44.0991ZM33.3331 35.9909C32.799 36.026 32.2832 36.0605 31.7485 36.0605C31.1467 36.0605 30.5614 36.0082 29.9595 35.9909L31.7152 31.7565L33.3331 35.9909ZM35.2784 40.7934C35.5879 40.7762 36.0704 40.6901 36.5516 40.6901C37.0346 40.6901 37.636 40.7762 37.895 40.7934C37.1202 39.1239 35.9842 36.5245 35.3295 35.0267C34.7098 33.5811 33.6771 31.1707 32.8513 28.8125C32.6617 28.8648 32.4894 28.8992 32.3005 28.8992C32.0938 28.8992 31.9215 28.8648 31.7325 28.8125C31.319 30.2248 30.3208 32.4623 28.5823 36.3522L26.5848 40.7934C26.826 40.7595 27.0672 40.6901 27.3596 40.6901C27.6347 40.6901 27.9626 40.7595 28.186 40.7934C28.4611 39.8119 29.0131 38.3836 29.5633 37.0581C30.2513 37.0242 30.9399 36.9897 31.6285 36.9897C32.3688 36.9897 33.0919 37.0242 33.8328 37.0581L34.5547 38.8833L35.2784 40.7934ZM42.9167 32.0665C42.9167 31.4124 42.9334 30.7582 42.9506 30.1379C44.1383 30.1379 45.361 30.1557 46.3764 30.2585C46.3247 29.9834 46.2903 29.8289 46.2903 29.6394C46.2903 29.5016 46.3247 29.277 46.3764 28.9853C44.7241 29.0708 43.209 29.0881 41.7801 29.0881C40.4546 29.0881 38.5438 29.0708 37.1838 28.9853C37.2361 29.192 37.27 29.4154 37.27 29.6222C37.27 29.8289 37.2361 30.0523 37.1838 30.2585C38.0625 30.173 39.7149 30.1379 39.8694 30.1379H40.7303C40.7475 30.8099 40.7647 31.4124 40.7647 32.0493L40.782 36.8512C40.782 38.1601 40.6791 39.4856 40.6097 40.7933C41.2293 40.725 41.4878 40.6905 41.7801 40.6905C41.9869 40.6905 42.5376 40.7422 43.0373 40.7933C42.9851 40.312 42.9167 39.7435 42.9167 38.4357V32.0665ZM52.4978 35.9909C51.9642 36.026 51.4479 36.0605 50.9144 36.0605C50.3113 36.0605 49.7267 36.0082 49.1236 35.9909L50.8799 31.7565L52.4978 35.9909ZM54.443 40.7934C54.7526 40.7762 55.235 40.6901 55.7168 40.6901C56.1987 40.6901 56.8012 40.7762 57.0596 40.7934C56.2849 39.1239 55.1488 36.5245 54.4947 35.0267C53.875 33.5811 52.8418 31.1707 52.0159 28.8125C51.8264 28.8648 51.6541 28.8992 51.4651 28.8992C51.2584 28.8992 51.0861 28.8648 50.8966 28.8125C50.4842 30.2248 49.4855 32.4623 47.7464 36.3522L45.7501 40.7934C45.9907 40.7595 46.2325 40.6901 46.5248 40.6901C46.7999 40.6901 47.1267 40.7595 47.3513 40.7934C47.6269 39.8119 48.1771 38.3836 48.7279 37.0581C49.416 37.0242 50.1046 36.9897 50.7938 36.9897C51.534 36.9897 52.2571 37.0242 52.9969 37.0581L53.7199 38.8833L54.443 40.7934ZM63.9923 34.9416C65.5584 34.6487 66.9873 33.6678 66.9873 31.7564C66.9873 31.0334 66.7117 30.3275 66.1948 29.829C65.4551 29.1232 64.6114 28.9853 63.4926 28.9853C63.0963 28.9853 61.1 29.0709 60.652 29.0709C59.7739 29.0709 59.3265 29.0192 58.9313 28.9853C59.0513 31.2057 59.0513 31.4463 59.0513 33.7011C59.0513 37.0241 59.0341 37.402 58.8969 40.7934C59.2754 40.7423 59.6883 40.69 60.084 40.69C60.5142 40.69 60.8932 40.7595 61.2372 40.7934C61.2372 40.3454 61.1689 38.1257 61.1689 37.626V35.1816H61.5824C62.5117 36.49 63.5793 38.005 64.4569 39.365C64.7148 39.7613 65.0932 40.3982 65.3511 40.7934C65.868 40.725 66.0747 40.69 66.7456 40.69C67.3652 40.69 67.796 40.7423 68.2779 40.7934C67.1935 39.4339 66.7294 38.8315 65.3689 36.9207C65.1105 36.5589 64.732 35.9909 64.4735 35.6296L63.9923 34.9416ZM61.1689 29.9146C61.4268 29.8979 62.0637 29.829 62.3911 29.829C62.959 29.829 63.5265 29.9146 63.9922 30.2586C64.5941 30.7066 64.7148 31.3257 64.7148 32.0493C64.7148 33.1681 64.0778 34.4247 62.3566 34.4247C61.9086 34.4247 61.4957 34.3897 61.1689 34.3736V29.9146Z" fill="#5C0632"/>
<path d="M89.7243 34.9746C89.7243 35.0854 88.1662 35.1894 85.9418 35.2767C85.549 35.0539 85.251 34.8299 85.0327 34.6369C87.7303 34.7322 89.7243 34.8499 89.7243 34.9746ZM88.1265 31.2193C88.1265 31.3117 86.8205 31.3985 84.9533 31.4731C85.221 31.3169 85.4966 31.1596 85.7861 31.0016C87.1966 31.0665 88.1265 31.1417 88.1265 31.2193ZM74.2144 39.2983C73.35 39.3086 72.5919 39.3126 71.9998 39.3126C71.1475 39.3126 70.4572 39.0501 70.4572 38.7245C70.4572 38.4006 71.1475 38.1381 71.9998 38.1381C72.7544 38.1381 73.7767 38.1462 74.9495 38.1611C74.4958 38.8158 74.2804 39.2093 74.2603 39.2339C74.2471 39.2529 74.2304 39.2753 74.2144 39.2983ZM74.68 40.0848C74.9648 40.4288 75.2382 40.7183 75.6041 41.0347C75.6041 41.0347 75.7419 41.2317 76.1606 41.0628C76.5867 40.8894 76.948 40.6534 77.3552 40.1072C78.544 40.1273 79.8047 40.1537 81.0458 40.1819C81.148 40.3306 81.3553 40.6385 81.6109 41.0181C78.1512 41.1077 74.3962 41.1611 72.4728 41.1611C71.6717 41.1611 71.0215 40.9124 71.0215 40.608C71.0215 40.3019 71.6717 40.0549 72.4728 40.0549C73.0587 40.0549 73.8133 40.059 74.6771 40.0687C74.6769 40.0742 74.6779 40.0797 74.68 40.0848ZM73.3417 42.97C72.6306 42.97 72.0546 42.7512 72.0546 42.4813C72.0546 42.2108 72.6306 41.9913 73.3416 41.9913C75.2225 41.9913 79.0785 42.0488 82.3809 42.1424C82.54 42.3704 82.6991 42.5973 82.8501 42.8057C79.4501 42.9057 75.3116 42.97 73.3416 42.97M84.3096 44.539C81.5362 44.6607 76.7676 44.7423 74.7861 44.7423C74.2285 44.7423 73.7754 44.5682 73.7754 44.3575C73.7754 44.145 74.2285 43.9721 74.7862 43.9721C76.6814 43.9721 81.1324 44.0468 83.9414 44.1587C84.0684 44.2949 84.1924 44.423 84.3096 44.5389M77.0741 45.5792C78.7103 45.5792 83.6914 45.7027 83.6914 45.852C83.6914 46.0036 78.7098 46.1259 77.0741 46.1259C76.7554 46.1259 76.4975 46.0036 76.4975 45.852C76.4975 45.7027 76.7553 45.5792 77.0741 45.5792ZM77.0922 35.5075C75.0327 35.5426 73.1874 35.5621 71.9997 35.5621C71.1479 35.5621 70.4571 35.2996 70.4571 34.9745C70.4571 34.65 71.1479 34.3864 71.9997 34.3864C73.3792 34.3864 75.646 34.4129 78.1036 34.4594C77.7582 34.8007 77.421 35.1502 77.0922 35.5075ZM87.1939 32.8807C88.4005 32.9462 89.1598 33.018 89.1598 33.0927C89.1598 33.1748 88.2409 33.2535 86.8188 33.3235C87.1227 33.095 87.1893 32.8957 87.1939 32.8807ZM72.4731 33.6448C71.6714 33.6448 71.0213 33.3978 71.0213 33.0923C71.0213 32.7874 71.6714 32.5392 72.4731 32.5392C74.1174 32.5392 77.0999 32.5794 80.0915 32.6455C79.7376 32.9438 79.3897 33.2493 79.048 33.5615C76.4222 33.6144 73.9262 33.6448 72.4731 33.6448M81.4141 31.5836C78.3553 31.6611 75.0415 31.7088 73.3415 31.7088C72.6304 31.7088 72.055 31.49 72.055 31.2195C72.055 30.949 72.6304 30.729 73.3415 30.729C75.2178 30.729 79.0646 30.7876 82.3623 30.8806C82.1981 31.0001 82.0327 31.1196 81.865 31.2448C81.7122 31.3585 81.5617 31.4705 81.4141 31.5836M74.7859 29.7274C74.2283 29.7274 73.7751 29.5557 73.7751 29.3426C73.7751 29.1301 74.2283 28.9572 74.7859 28.9572C76.8897 28.9572 82.1367 29.0503 84.8015 29.1829C84.6315 29.2944 84.4615 29.4098 84.2898 29.5258C81.5124 29.6459 76.7633 29.7274 74.7859 29.7274ZM71.8407 37.4478C70.9735 37.4478 70.2694 37.1807 70.2694 36.8493C70.2694 36.5203 70.9735 36.2521 71.8407 36.2521C72.9279 36.2521 74.555 36.2681 76.3951 36.2963C76.084 36.6619 75.7828 37.0357 75.4917 37.4174C74.0266 37.4369 72.7459 37.4478 71.8407 37.4478ZM76.4977 27.8476C76.4977 27.6965 76.7556 27.5742 77.0743 27.5742C78.71 27.5742 83.6917 27.6965 83.6917 27.8476C83.6917 27.9975 78.7106 28.1204 77.0743 28.1204C76.7556 28.1204 76.4977 27.9975 76.4977 27.8476Z" fill="#747F8A"/>
<path d="M89.8873 36.406C89.8988 36.7005 89.8971 36.9954 89.8821 37.2898C86.9841 37.4047 84.236 37.5793 84.236 37.7757C84.236 37.9687 86.9226 38.1416 89.7873 38.2559C89.7375 38.5832 89.6725 38.908 89.5927 39.2294C86.7687 39.3448 84.1481 39.5148 84.1481 39.706C84.1481 39.8904 86.5947 40.0564 89.3038 40.1718C89.1797 40.5175 89.039 40.8535 88.8811 41.1751C86.5545 41.2871 84.6316 41.4365 84.6316 41.5995C84.6316 41.7518 86.3116 41.8925 88.4291 42.001C88.3102 42.1946 88.1861 42.3841 88.0564 42.5633C87.9185 42.7586 87.7686 42.9521 87.6101 43.1422C86.2863 43.2427 85.3777 43.357 85.3777 43.4793C85.3777 43.5844 86.0284 43.6826 87.0312 43.7705C86.4839 44.3121 85.8372 44.8181 85.075 45.2597C85.075 45.2597 84.1774 44.4867 83.4365 43.5839C82.776 42.7787 81.3747 40.656 81.045 40.181C80.7148 39.706 80.4977 39.5671 80.1117 39.7049C79.5943 39.8881 78.993 39.98 78.808 39.98C78.6231 39.98 78.5215 39.9082 78.8316 39.7853C79.1406 39.6607 80.3621 39.084 80.9635 37.8923C81.6389 36.5501 81.045 34.6968 81.045 34.6968C80.8182 35.6875 80.3024 36.0574 80.3024 36.0574C80.469 35.1373 80.2875 34.3034 79.8332 33.7181L79.5799 34.8829C79.5799 34.8829 79.4214 34.8748 79.0291 35.2045C78.6374 35.5347 78.5295 36.016 78.5295 36.016C78.8379 36.1401 79.2089 35.8305 79.2089 35.8305C78.7351 37.6034 78.0557 39.0467 77.56 39.81C77.065 40.5733 76.6566 40.861 76.1604 41.0626C75.7417 41.2303 75.6039 41.0333 75.6039 41.0333C75.238 40.7174 74.9647 40.4279 74.6798 40.0839C74.6798 40.0839 74.6568 40.0438 74.7338 40.0449C74.9377 40.0477 75.3006 39.6992 75.3799 39.5544C75.4707 39.3884 75.4609 39.2615 75.4155 39.2529C75.3707 39.2454 75.2932 39.3769 74.8997 39.625C74.5086 39.8726 74.3289 39.7009 74.1985 39.563C74.0974 39.4533 74.1968 39.3178 74.26 39.2328C74.3197 39.157 76.389 35.2981 81.8646 31.244C89.0402 25.9309 93.6227 24.4962 93.8852 24.3928C94.0586 24.3245 94.3418 24.2343 94.4061 24.3004C94.4773 24.3751 94.5123 24.4348 94.5026 24.5215C94.4934 24.6076 94.4474 24.6519 94.1155 24.7983C91.361 26.0119 88.1454 28.0346 86.3185 29.212C84.0717 30.3067 81.9266 31.87 81.8485 31.9073C81.6757 32.0147 81.8031 32.1709 81.9077 32.1054C85.7016 29.5819 90.1498 27.8629 95.0654 26.4547C95.3003 26.3881 95.4289 26.3881 95.468 26.4398C95.5122 26.4972 95.5312 26.5626 95.5381 26.635C95.5444 26.7252 95.4697 26.7728 95.2681 26.8515C89.9872 28.8134 86.0951 30.6357 83.5916 32.3202C83.5916 32.3202 83.3326 32.4764 83.3291 32.6573C83.328 32.7263 83.4681 32.7343 83.4681 32.7343C84.7213 32.7567 86.3966 32.8302 87.1938 32.8767C87.1938 32.8767 87.08 33.2805 86.3168 33.6056C85.7275 33.8571 85.1819 33.8169 84.642 33.8215C84.522 33.8192 84.4203 33.9404 84.5162 34.0696C84.5645 34.1339 85.7131 35.9832 89.8873 36.4059M51.6196 46.0767H50.912C50.912 46.0767 50.8167 45.6414 51.0728 45.4749C51.3301 45.306 51.6196 45.1762 51.6196 45.1762L51.6196 46.0767ZM54.9771 44.4468C54.9771 44.4468 54.5469 44.6938 54.2747 44.9362C54.0041 45.1762 54.3304 45.2675 54.3304 45.2675V46.0767H52.2772V43.2448C52.2772 43.2448 51.5288 43.9329 51.4588 44.0242C51.3864 44.1218 51.6368 44.2102 51.6368 44.2102L51.5943 44.4784C51.5943 44.4784 51.2962 44.6329 50.9344 44.8776C50.5749 45.1194 50.3084 45.4278 50.3084 45.6414C50.3084 45.8557 50.2177 46.6965 50.2177 46.6965H54.9771V44.4468ZM50.7265 43.4113C50.9608 43.4113 51.1262 43.3189 51.1262 43.1322C51.1262 42.945 51.0165 42.8146 50.7265 42.8146C50.4686 42.8146 50.3997 42.9272 50.3997 43.1322C50.3997 43.339 50.4893 43.4113 50.7265 43.4113M51.6017 43.4113C51.8384 43.4113 51.9986 43.3188 51.9986 43.1322C51.9986 42.945 51.8901 42.8146 51.6017 42.8146C51.3427 42.8146 51.275 42.9272 51.275 43.1322C51.275 43.339 51.364 43.4113 51.6018 43.4113M52.9279 46.94C52.6717 46.94 52.6011 47.0497 52.6011 47.2558C52.6011 47.4603 52.6918 47.5349 52.9279 47.5349C53.1622 47.5349 53.3282 47.4419 53.3282 47.2558C53.3282 47.068 53.2202 46.94 52.9279 46.94M53.8376 46.94C53.5814 46.94 53.5114 47.0497 53.5114 47.2558C53.5114 47.4603 53.6044 47.5349 53.8376 47.5349C54.0754 47.5349 54.2385 47.4419 54.2385 47.2558C54.2385 47.068 54.1311 46.94 53.8376 46.94ZM64.0933 43.3556C64.3293 43.3556 64.4947 43.2655 64.4947 43.0788C64.4947 42.8933 64.3856 42.7606 64.0933 42.7606C63.8377 42.7606 63.7682 42.8732 63.7682 43.0788C63.7682 43.2844 63.8595 43.3556 64.0933 43.3556ZM65.0024 43.3556C65.2367 43.3556 65.401 43.2655 65.401 43.0788C65.401 42.8933 65.2919 42.7606 65.0024 42.7606C64.7451 42.7606 64.6768 42.8732 64.6768 43.0788C64.6768 43.2844 64.7647 43.3556 65.0024 43.3556ZM67.5122 43.4326C67.3841 43.5434 67.4215 43.6761 67.584 43.6577V46.7005H68.2583V42.9128C68.2583 42.9128 67.638 43.3223 67.5122 43.4326ZM64.8026 45.1389H64.3661C64.3661 44.8994 64.8026 44.7667 64.8026 44.7667V45.1389ZM61.9292 45.6414C61.9292 45.7517 61.924 45.9314 61.9189 46.0768H58.1094V45.4071C58.2088 45.1492 58.3765 45.1194 58.6361 45.1194H61.4209C62.0223 45.1194 61.9292 45.4358 61.9292 45.6414M66.3842 43.6543V46.0768H65.4774V43.8771C65.4774 43.8771 65.2919 43.9483 65.0374 44.0609C64.7853 44.1752 63.8733 44.5456 63.8733 45.0464V45.6253H64.8026V46.0767H62.5983C62.6 45.9705 62.6023 45.8143 62.6023 45.5851C62.6023 44.8632 61.9872 44.4704 61.4399 44.4704H58.8916C58.4454 44.4704 58.23 44.5784 58.1094 44.7018V42.837C58.1094 42.837 57.7114 43.1167 57.4191 43.339C57.1273 43.5612 57.4191 43.7105 57.4191 43.7105V46.0768H56.584L56.5662 44.046C56.5662 44.046 55.985 44.4704 55.8184 44.5996C55.6559 44.7283 55.7461 44.8431 55.9281 44.8431C55.9281 44.8431 55.8948 46.3427 55.8948 46.6965C55.8948 47.0525 55.6002 47.4591 54.9816 47.2742C54.9816 47.2742 54.7852 47.3121 54.9483 47.4603C55.1109 47.6079 55.3073 47.7205 55.5272 47.7205C55.7461 47.7205 56.5478 47.5694 56.5478 46.6965H67.0562V42.9105C67.0562 42.9105 66.4377 43.3188 66.3101 43.4297C66.1821 43.5405 66.2194 43.6738 66.3842 43.6542" fill="#5C0632"/>
</svg>
