<svg width="108" height="72" viewBox="0 0 108 72" fill="none" xmlns="http://www.w3.org/2000/svg">
<path d="M48.0375 41.2208L48.0355 41.2266L56.3521 35.1834L56.0124 34.1379L50.0252 38.4881L51.0343 35.3843L50.1438 34.7375L48.3801 40.1667C46.2626 38.4982 44.8979 35.9146 44.8979 33.0158C44.8979 32.352 44.9714 31.7032 45.1081 31.0787L44.1913 30.4137C43.9658 31.2627 43.8516 32.1374 43.8516 33.0158C43.8516 36.3847 45.5039 39.3733 48.0375 41.2206M53.5566 35.2762L47.5683 30.926H50.8325L51.1719 29.8794L45.4571 29.8806C46.6382 26.6727 49.5736 24.3083 53.0946 23.9584L53.4453 22.8826C49.1851 23.1139 45.6193 25.9832 44.3503 29.8806H44.3486L52.6667 35.9218L53.5566 35.2762ZM48.0069 21.8175H48.067C48.0242 21.3607 47.8675 21.0903 47.5796 20.9822C46.5462 20.5928 45.9894 19.741 45.9894 18.7875C45.9894 17.7001 46.6838 17.025 47.5561 17.025C48.7942 17.025 49.2432 18.4671 50.6579 18.4671C51.1658 18.4671 51.5807 18.1693 51.5807 17.9143V17.764H51.3165C49.5407 17.764 49.2675 15.9783 47.5558 15.9783C46.0963 15.9783 44.9419 17.1328 44.9419 18.7872C44.9419 20.4548 46.2299 21.8175 48.0066 21.8175M31.622 33.4706H37.9939V33.4145C37.3533 33.2208 36.8432 32.9077 36.3118 32.4243H31.6222C29.2364 32.4243 28.5335 32.2016 27.3516 30.9257H43.5353C43.605 30.573 43.6929 30.224 43.7984 29.8803H25.0678L25.7941 30.7401C27.6902 32.9881 28.4011 33.4706 31.622 33.4706ZM51.2144 17.1707C52.1202 17.1707 52.6791 16.4169 52.6791 15.7193C52.6791 15.0104 52.3538 14.7218 52.017 14.7218C51.8757 14.722 51.7402 14.7781 51.64 14.8777C51.5397 14.9773 51.4829 15.1125 51.4818 15.2538C51.4818 15.5704 51.7663 15.7835 51.9806 15.7835C51.7059 16.2015 51.291 16.3444 50.7556 16.3048C50.8195 16.2151 50.8541 16.1078 50.8545 15.9977C50.8545 15.6947 50.6035 15.4672 50.3239 15.4672C50.0588 15.4672 49.7948 15.7161 49.7948 16.0324C49.7948 16.63 50.3537 17.1707 51.2144 17.1707ZM45.9911 40.0577H38.316C36.2037 40.0577 35.4103 39.8813 34.4351 38.955H32.9895C34.5392 40.7053 35.3959 41.104 38.316 41.104H47.0499C46.6735 40.7797 46.3198 40.43 45.9911 40.0574M42.4592 38.5592V38.5031C41.8185 38.3094 41.3076 37.9963 40.7771 37.5128H36.0863C33.9728 37.5128 33.1806 37.3373 32.2042 36.4101H30.7601C32.3075 38.1605 33.1653 38.5592 36.0863 38.5592H42.4592ZM40.2283 36.0143V35.9582C39.5879 35.7654 39.077 35.4514 38.5465 34.9688H33.8557C31.7422 34.9688 30.9489 34.7933 29.9737 33.8664H28.5295C30.0777 35.6168 30.9344 36.0146 33.8557 36.0146L40.2283 36.0143ZM56.1379 18.6814C55.6166 18.6814 55.0892 19.3174 54.8935 20.2455C55.2168 20.2686 55.5383 20.3019 55.8522 20.3508C56.0604 19.5418 56.4204 19.1685 56.7234 19.1145C56.6152 18.8687 56.4131 18.6811 56.1379 18.6811M54.0013 22.867L50.8238 32.6443L51.7132 33.2911L54.0001 26.2523L55.0097 29.3561H56.1093L54.3456 23.9258C57.9157 24.0593 60.9654 26.2532 62.3329 29.3561H63.4643C61.9926 25.5637 58.3072 22.867 54.0013 22.867ZM59.671 23.3944V22.3214C58.1184 21.4309 56.046 20.774 54.0013 20.774C51.9549 20.774 49.8833 21.4309 48.3301 22.3214V23.3941C49.9946 22.4122 51.9326 21.8207 54.001 21.8207C56.0694 21.8207 58.0065 22.4122 59.671 23.3944ZM48.8422 21.3531C49.1105 21.2278 49.3834 21.1122 49.6601 21.0065C49.5242 20.5997 49.2683 20.1406 48.789 20.1406C48.5504 20.1406 48.3639 20.3323 48.283 20.5557C48.5045 20.6344 48.6878 20.8261 48.8422 21.3534M49.4143 40.8733L48.4993 41.5363C50.1369 42.6004 52.0483 43.1659 54.0013 43.164C56.2267 43.164 58.2861 42.4421 59.9607 41.2232L59.9665 41.2261L56.7902 31.4488H55.6898L57.9776 38.4866L55.3367 36.57L54.4474 37.2156L59.0647 40.5703C57.5693 41.5799 55.8059 42.1188 54.0016 42.1177C52.329 42.1177 50.7634 41.6626 49.4149 40.8733M52.1515 20.3496C52.4699 20.302 52.7901 20.2673 53.1114 20.2455C52.9156 19.3174 52.3891 18.6808 51.8681 18.6808C51.5926 18.6808 51.3896 18.8687 51.2812 19.1145C51.5845 19.1685 51.9453 19.5418 52.1515 20.3496ZM50.2574 19.3796C50.0189 19.3796 49.7882 19.547 49.6954 19.7936C49.9229 19.8272 50.2259 20.0107 50.4491 20.7362C50.7426 20.648 51.0392 20.5707 51.3384 20.5046C51.1245 19.7864 50.7368 19.3796 50.2571 19.3796M75.0119 38.9547H73.5657C72.5913 39.8808 71.798 40.0571 69.6856 40.0571H62.0114C61.6825 40.4297 61.3284 40.7794 60.9518 41.1038H69.6856C72.6069 41.1038 73.4636 40.7048 75.0119 38.9547ZM53.3733 29.88L53.0339 30.9254H60.4337L57.794 32.8441L58.1334 33.8895L62.758 30.5308C62.9823 31.3201 63.1037 32.1534 63.1037 33.0152C63.1037 35.711 61.9247 38.1365 60.0564 39.8041L60.4062 40.8803C62.6886 39.0177 64.1504 36.1843 64.1504 33.0152C64.1504 31.9209 63.9749 30.8682 63.6525 29.88L63.6537 29.8788L53.3733 29.88ZM80.6504 30.9254C79.4681 32.2014 78.7664 32.4237 76.3806 32.4237H71.6898C71.1596 32.9071 70.6484 33.2202 70.008 33.4142V33.4703H76.3806C79.6008 33.4703 80.3115 32.9878 82.2087 30.7398L82.935 29.88H64.2033C64.3082 30.2206 64.3961 30.5716 64.4675 30.9254H80.6504ZM52.9685 15.1824L54.0027 14.4307L55.036 15.1832L54.6423 13.9675L55.6765 13.2158H54.3985L54.0024 12L53.6081 13.2158H52.329L53.364 13.9675L52.9685 15.1824ZM77.2416 36.4098H75.7971C74.8222 37.3371 74.0286 37.5123 71.9154 37.5123H67.224C66.6938 37.996 66.1838 38.3091 65.5422 38.5028V38.5589H71.9151C74.8361 38.5589 75.6939 38.1599 77.2413 36.4098M79.4719 33.8661H78.0277C77.0516 34.7931 76.2592 34.9686 74.1457 34.9686H69.4549C68.9244 35.4511 68.4135 35.7651 67.7728 35.9579V36.014H74.1457C77.067 36.014 77.9236 35.6162 79.4719 33.8658M59.7213 20.5555C59.6418 20.332 59.4541 20.1403 59.2145 20.1403C58.736 20.1403 58.4801 20.6003 58.3454 21.0094C58.6229 21.1143 58.8953 21.2297 59.1624 21.354C59.3165 20.8258 59.501 20.6341 59.7213 20.5555ZM53.3444 18.5868C53.6329 18.9193 53.8035 19.1766 53.9883 19.5895C53.994 19.5953 53.9969 19.6039 54.0027 19.6097C54.0085 19.6039 54.0114 19.5953 54.0172 19.5895C54.2019 19.1766 54.3719 18.9196 54.6608 18.5868C54.5515 18.2983 54.2222 17.7741 54.0027 17.561C53.7836 17.7741 53.454 18.2983 53.345 18.5868M56.4253 17.764V17.914C56.4253 18.169 56.8402 18.4668 57.3482 18.4668C58.7629 18.4668 59.2119 17.0244 60.4499 17.0244C61.321 17.0244 62.0175 17.6998 62.0175 18.7869C62.0175 19.7407 61.4586 20.5922 60.4265 20.9819C60.1379 21.09 59.9818 21.3604 59.9378 21.8175H59.9991C61.7749 21.8175 63.0641 20.4545 63.0641 18.7869C63.0641 17.1325 61.9097 15.9781 60.4502 15.9781C58.7386 15.9781 58.4653 17.764 56.6895 17.764H56.4253ZM55.3257 15.7187C55.3257 16.4164 55.8855 17.1701 56.7904 17.1701C57.652 17.1701 58.2112 16.6294 58.2112 16.0318C58.2112 15.7158 57.9469 15.4669 57.6818 15.4669C57.5413 15.4673 57.4066 15.5232 57.3072 15.6226C57.2078 15.7219 57.1517 15.8566 57.1513 15.9971C57.1513 16.1174 57.19 16.2143 57.2502 16.3042C56.7138 16.3441 56.2989 16.2013 56.0254 15.7832C56.2376 15.7832 56.5242 15.5701 56.5242 15.2538C56.5232 15.1122 56.4662 14.9767 56.3657 14.8769C56.2651 14.7771 56.1292 14.7212 55.9876 14.7212C55.6522 14.7212 55.3255 15.0098 55.3255 15.7187M54.0027 15.318C53.7808 15.3181 53.5681 15.4063 53.4111 15.5631C53.2542 15.7199 53.1658 15.9325 53.1654 16.1544C53.1654 16.3765 53.2536 16.5895 53.4107 16.7465C53.5677 16.9035 53.7807 16.9917 54.0027 16.9917C54.2248 16.9917 54.4378 16.9035 54.5948 16.7465C54.7518 16.5895 54.84 16.3765 54.84 16.1544C54.8399 15.9325 54.7516 15.7197 54.5946 15.5628C54.4375 15.406 54.2247 15.3179 54.0027 15.318ZM58.3101 19.7936C58.2181 19.5467 57.9866 19.3796 57.7492 19.3796C57.2687 19.3796 56.8821 19.7864 56.667 20.5054C56.9664 20.5712 57.2631 20.6488 57.5563 20.7379C57.7798 20.0107 58.0837 19.8272 58.3101 19.7936ZM26.4281 59.5192L25.0707 59.5212V56.4195H26.4761V57.0885C26.4761 57.0885 26.6649 56.4183 27.643 56.4909V57.981C27.643 57.981 26.5955 57.8307 26.4281 58.328V59.5192ZM55.4943 59.5192L54.1366 59.5212V56.4195H55.542V57.0885C55.542 57.0885 55.7308 56.4183 56.7089 56.4909V57.981C56.7089 57.981 55.6606 57.8307 55.4943 58.328V59.5192ZM30.2862 57.2111C30.2862 57.2111 29.7383 57.162 29.6669 57.931C29.6669 57.931 29.69 58.5512 30.2382 58.5766C30.2382 58.5766 30.7624 58.6258 30.8104 57.9556C30.8104 57.9556 30.8335 57.2366 30.2862 57.2111ZM32.119 57.981C32.0475 59.7427 30.2859 59.5926 30.2859 59.5926C28.2623 59.6915 28.2852 57.9056 28.2852 57.9056C28.4052 56.3174 30.2628 56.3675 30.2628 56.3675C32.1904 56.3675 32.119 57.981 32.119 57.981ZM77.1236 57.2111C77.1236 57.2111 76.5772 57.162 76.5049 57.931C76.5049 57.931 76.528 58.5512 77.0768 58.5766C77.0768 58.5766 77.5992 58.6258 77.6481 57.9556C77.6481 57.9556 77.6712 57.2366 77.1239 57.2111M78.9578 57.981C78.8856 59.7427 77.1239 59.5926 77.1239 59.5926C75.1001 59.6915 75.1246 57.9056 75.1246 57.9056C75.2432 56.3174 77.1005 56.3675 77.1005 56.3675C79.029 56.3675 78.9578 57.981 78.9578 57.981ZM32.404 56.418H34.0705L34.5959 57.9562L35.0712 56.418H36.5949L35.4771 58.923C35.4771 58.923 35.0244 60.1142 34.2868 59.991H32.6906V59.0976H33.6909L32.404 56.418ZM39.0727 57.2363C39.0727 57.2363 38.4291 57.1365 38.4057 57.9565C38.4057 57.9565 38.4057 58.6255 39.0013 58.6255C39.0013 58.6255 39.5477 58.6486 39.5968 57.9808C39.5968 57.9808 39.6683 57.2366 39.0727 57.2366M39.5468 56.4183H40.9288V59.5192H39.548V58.9479C39.1441 59.5926 38.3097 59.5192 38.3097 59.5192C36.8583 59.3703 37.0257 57.881 37.0257 57.881C37.0725 56.2431 38.4291 56.3174 38.4291 56.3174C39.0247 56.2943 39.548 56.8141 39.548 56.8141L39.5468 56.4183ZM48.978 57.2363C48.978 57.2363 48.3353 57.1365 48.3119 57.9565C48.3119 57.9565 48.3119 58.6255 48.9066 58.6255C48.9066 58.6255 49.4542 58.6486 49.5011 57.9808C49.5011 57.9808 49.5736 57.2366 48.9778 57.2366M49.4534 56.4183H50.8342V59.5192H49.4542V58.9479C49.0495 59.5926 48.215 59.5192 48.215 59.5192C46.7645 59.3703 46.9308 57.881 46.9308 57.881C46.9776 56.2431 48.3353 56.3174 48.3353 56.3174C48.9309 56.2943 49.4542 56.8141 49.4542 56.8141L49.4534 56.4183ZM73.2433 59.5192L71.8856 59.5212V56.4195H73.291V57.0885C73.291 57.0885 73.4798 56.4183 74.4571 56.4909V57.981C74.4571 57.981 73.4084 57.8307 73.2433 58.328V59.5192ZM69.0993 57.2363C69.0993 57.2363 68.4566 57.1365 68.4332 57.9565C68.4332 57.9565 68.4332 58.6255 69.0279 58.6255C69.0279 58.6255 69.5755 58.6486 69.6235 57.9808C69.6235 57.9808 69.6949 57.2366 69.0993 57.2366M69.5746 56.4183H70.9555V59.5192H69.5755V58.9479C69.1707 59.5926 68.3363 59.5192 68.3363 59.5192C66.884 59.3703 67.0523 57.881 67.0523 57.881C67.0991 56.2431 68.4566 56.3174 68.4566 56.3174C69.0522 56.2943 69.5755 56.8141 69.5755 56.8141L69.5746 56.4183ZM41.8101 55.8719H43.2384V59.5195H41.8101V55.8719ZM51.7415 56.4186H53.1686V59.518H51.7415V56.4186ZM51.7415 55.7964H53.1686V56.2055H51.7415V55.7964ZM60.3591 59.5192V56.418H61.7391V57.1128C61.7391 57.1128 62.0513 56.3669 62.9563 56.3669C62.9563 56.3669 63.6464 56.2926 64.0035 56.9873C64.0035 56.9873 64.576 56.2183 65.2184 56.3672C65.2184 56.3672 66.0271 56.318 66.2188 57.2105L66.2167 59.4955H64.7411V57.8807C64.7411 57.8807 64.6708 57.4095 64.3363 57.4595C64.3363 57.4595 63.9801 57.4595 63.9321 57.8307V59.5189H62.4787V57.9553C62.4787 57.9553 62.5509 57.4095 62.1462 57.484C62.1462 57.484 61.7891 57.434 61.7188 57.8807V59.5189L60.3591 59.5192ZM82.9339 56.5172C82.9339 56.5172 82.4105 56.2929 81.2916 56.2686C81.2916 56.2686 79.72 56.2454 79.672 57.9808C79.672 57.9808 79.672 59.4446 81.4336 59.5189C81.4336 59.5189 82.5768 59.5189 82.9339 58.9979V58.2777C82.9339 58.2777 82.5768 58.5012 81.8872 58.5012C81.8872 58.5012 81.0777 58.5512 81.0777 57.8556C81.0777 57.8556 81.1242 57.26 81.6955 57.2863C81.6955 57.2863 82.2911 57.162 82.9339 57.4598V56.5172ZM30.913 50.1186C30.913 50.1186 30.5334 50.772 30.5334 50.91C30.5334 51.0467 30.6323 51.2375 30.5161 51.2873C30.3998 51.3405 29.4923 51.581 29.5735 50.7203C28.6651 51.0823 26.3035 52.1318 24.1903 52.1318C22.9269 52.1318 22.2902 52.2859 21.7689 51.7311C21.5203 51.3824 20.8703 50.8764 20.441 51.8033C19.9951 52.4365 19.9789 53.0272 19.6973 52.9743C19.4007 52.9202 19.268 52.3041 19.1856 51.5637C18.8713 52.6132 19.1292 53.9729 19.4996 53.9556C19.8587 53.9556 20.0819 53.2975 20.2695 52.8936C20.4563 52.4929 20.5318 52.3165 20.8041 52.3041C21.8282 52.355 20.7541 53.4221 24.0579 53.2669C25.5937 53.1119 27.5757 52.8028 28.9149 51.8563C29.1618 51.6501 29.2271 51.5984 29.2934 51.9939C29.376 52.4247 29.5576 52.5967 30.0193 52.5611C30.4825 52.5276 31.325 51.7175 30.9119 50.118M88.9176 48.8959C88.7533 49.1885 88.3893 49.8607 88.2089 49.9639C88.2089 50.4627 88.2905 53.6459 88.1754 53.8691C88.4558 53.3531 88.9841 52.7167 88.9502 52.2341C88.9178 51.7539 89.0005 49.1203 88.9179 48.8959M84.5414 49.584L83.7154 50.1695L84.1947 50.6174L84.9372 49.9463L84.5414 49.584Z" fill="#C20831"/>
<path d="M75.0613 51.8031C75.1102 51.5117 74.747 51.0985 74.333 51.2017C74.333 51.529 74.4342 51.8216 74.5981 51.8563C74.7635 51.8901 75.0113 51.9083 75.0613 51.8034M80.9403 52.131C80.363 51.8034 78.5944 52.4582 78.0682 52.7511C78.8269 52.8367 80.9247 52.7511 80.9403 52.131ZM87.003 49.6697C87.003 49.6697 86.6878 50.0666 86.589 50.2216C86.4906 50.3766 86.5563 50.4277 86.5398 50.7018C86.5225 50.9794 86.5571 51.4087 86.2096 51.8728C86.3423 52.0104 87.9108 52.3195 87.9108 52.3195L87.1019 53.2846C86.9856 53.2152 86.1605 53.3181 85.7965 53.3519C85.4333 53.3875 83.5994 53.6457 82.8069 53.7486C82.0144 53.8515 80.1643 53.9209 78.6956 53.8689C77.2245 53.818 76.6628 53.5251 75.8211 53.2846C75.8211 53.2846 75.3244 53.9727 75.0116 54.0585C74.6982 54.1453 73.6241 54.2309 72.2371 53.9383C72.6653 53.9047 75.0286 53.3181 75.4406 52.8541C74.4666 52.8888 73.7068 52.5103 73.6414 52.3033C73.5741 52.0971 73.8883 51.6496 74.0537 51.3405C74.2185 51.0294 74.6481 50.2389 74.9124 50.2551C75.3918 50.2898 75.8529 51.1508 76.0854 51.7875C76.2993 52.0974 76.9932 52.5615 77.5388 52.4247C77.6368 52.3553 78.1335 52.0801 78.3628 51.9422L78.3301 50.6683C78.3157 50.4274 78.1497 50.3419 78.1162 50.1187C78.0832 49.8943 78.3484 49.3779 78.6953 48.7754C78.6126 49.0336 78.9257 49.3444 78.9911 49.6882C79.0584 50.0328 78.776 50.1522 78.7442 50.2389C78.7106 50.3245 78.6953 51.0467 78.7268 51.7698C80.8076 50.7712 81.2208 50.91 81.6663 51.2191C82.1122 51.5293 81.9468 52.1483 81.187 52.7511C81.6828 52.8194 83.334 52.6644 84.1927 52.4582C84.1274 52.4062 82.6904 52.131 82.6904 52.131C82.7904 52.0974 83.1851 51.3405 83.1851 51.3405L85.7288 51.3058C86.0593 51.3058 86.0593 51.0652 86.0593 51.0652L86.0766 50.4104C86.0766 50.2389 86.0113 50.2042 85.9613 49.8076C85.9112 49.4118 86.6222 48.8448 86.6222 48.8448C86.4574 49.4303 86.6222 49.4638 87.0027 49.6699M71.8078 52.5837C71.7933 52.3643 71.6222 52.0656 71.0379 52.0922C70.4573 52.1182 69.8128 52.7378 69.5662 53.0723C69.8004 53.0868 71.2877 53.0082 71.8078 52.5837ZM69.8261 49.7821C69.9375 49.8081 70.0985 49.9429 70.1474 49.9758C70.1965 49.9758 70.1106 50.2592 69.8128 50.4274C69.8874 51.6013 69.7516 52.338 69.7516 52.338C71.8078 50.8152 72.8226 50.9435 72.9461 51.6403C73.0704 52.338 71.6589 53.7576 70.4686 53.8608C69.2814 53.9649 68.6867 53.6792 67.4964 53.1374C67.7199 53.1903 68.3146 53.1114 68.9836 53.2149C69.0325 53.0608 69.3057 52.7763 69.5281 52.597L69.3792 50.8406C69.356 50.6345 69.1802 50.6081 69.2303 50.1693C69.2812 49.7307 69.4913 49.1758 69.8629 49.1108C69.8128 49.2137 69.7761 49.6532 69.8261 49.7815M66.0346 49.0078C65.9733 49.1365 65.4156 50.1187 65.4156 50.1187C65.4656 50.956 65.5766 53.2805 65.341 53.8223C65.8614 53.1255 66.1089 52.5444 66.1089 52.2862C66.1089 52.2862 66.0944 49.1498 66.0343 49.0078M63.6626 52.3701C63.6259 52.5904 63.5817 53.1504 64.2134 53.0229C64.4002 52.8934 64.1573 52.2926 63.6626 52.3701ZM63.6198 49.4592C63.6198 49.5367 63.9656 49.6141 63.9911 49.8212C64.0142 50.0273 63.9298 50.1814 63.7178 50.4393L63.6811 51.0739C63.6811 51.0739 63.6695 51.3697 63.7557 51.4593C63.9535 51.5634 64.1402 51.2789 64.4615 51.396C64.9868 51.5848 64.6725 52.4415 64.5615 52.8668C64.4482 53.2932 64.0526 54.0019 63.7924 53.9909C63.3845 53.9707 63.2356 53.6544 63.1246 53.0472C62.8268 53.3054 61.2415 53.9001 60.4857 53.8868C59.73 53.8724 59.4955 53.19 59.3208 52.5831C59.2353 52.8535 58.5408 53.9377 57.2779 53.9247C56.0144 53.9131 55.1462 53.1383 54.5893 52.6598L54.4526 52.6997C54.3537 53.4485 53.7723 53.6289 53.3877 53.6665C53.0041 53.7064 52.5941 53.1258 52.3963 52.5568C52.2229 52.6731 50.0677 53.5951 48.3717 53.6165C45.2871 53.6544 45.8564 52.3886 45.1995 52.4019C44.9262 52.4134 44.8537 52.4927 44.6681 52.8934C44.4793 53.2973 44.1968 53.938 43.8368 53.938C42.9455 53.938 43.1065 52.2732 43.5899 51.4726C43.738 51.2014 43.8001 51.3564 43.7255 51.5114C43.6509 51.6663 43.4777 52.713 43.7755 52.7639C43.9837 52.8006 44.3069 52.5568 44.7536 51.9245C45.1495 51.2789 45.9185 51.3818 46.1663 51.7308C46.6364 52.4285 47.3546 52.4539 48.6192 52.4796C49.8821 52.5057 50.6867 52.2732 52.6817 51.4214C52.6317 51.5891 52.6557 52.0275 52.9662 52.2599C53.2756 52.4927 53.7966 52.6089 53.9822 52.0928L53.1518 51.344C52.8673 51.0982 52.6817 51.0982 52.7441 50.3618C52.7441 48.9818 56.7687 49.188 56.7687 49.188C57.2033 49.188 57.6274 49.1244 57.6621 49.4979C57.7344 50.3497 56.9055 50.9175 56.1252 51.1514C56.3594 51.0207 56.9544 50.5821 57.0053 50.3763C57.0593 50.1458 56.9792 50.0527 56.7566 50.066C56.534 50.0776 53.5985 50.3497 53.5985 50.3497C53.4375 50.3757 53.5363 50.5179 53.5363 50.5179L56.174 52.364C57.3643 52.9833 58.3049 52.5701 58.8383 52.364C59.3706 52.1578 59.3584 51.8225 59.3706 51.5767L59.4206 49.8602C59.5565 49.7827 59.891 49.1625 59.891 49.1625L59.841 51.9245C59.8554 52.2478 59.891 52.7893 60.2744 52.8413C61.129 52.983 62.814 52.1437 63.2231 51.8337C63.2492 51.666 63.2 50.672 63.2 50.672C63.2 50.4925 62.9144 50.4272 62.9144 50.208C62.9144 49.9883 63.4724 49.0593 63.5955 48.9176C63.5342 49.0593 63.6216 49.3817 63.6216 49.4592M44.6047 49.8333L43.7877 50.4792L44.3335 50.7625C44.3335 50.7625 44.8537 50.3242 45.076 50.3505C45.2984 50.3766 45.6216 50.6599 45.6216 50.6599C45.6216 50.6599 46.3386 50.0406 46.4375 50.014C46.2652 49.7827 45.9674 49.6529 45.9674 49.6529C45.9674 49.6529 45.3484 50.0915 45.1995 50.0915C45.0506 50.0915 44.6047 49.8336 44.6047 49.8336" fill="#C20831"/>
<path d="M50.9643 53.2844C50.848 53.3874 50.2209 53.7485 50.0894 53.784L50.6164 54.1096C50.6164 54.1096 51.2276 53.7482 51.3601 53.8002C51.4916 53.8514 51.8221 54.0758 51.8221 54.0758L52.6646 53.6279L52.2679 53.2659C52.2679 53.2659 51.6252 53.6106 51.4754 53.5932C51.3277 53.5759 50.9643 53.2841 50.9643 53.2841M41.5585 49.1621C41.4949 49.2908 40.938 50.2729 40.938 50.2729C41.1115 51.3051 41.396 53.5244 41.1607 54.0671C41.6817 53.3703 41.8794 52.6475 41.8794 52.3893C41.8794 52.3893 41.6192 49.3049 41.5585 49.1621ZM35.2732 51.6497L36.1319 51.2704C36.0007 51.1848 35.0581 51.1675 34.8927 51.1848L35.2732 51.6497ZM39.3857 52.42C39.349 52.6382 39.303 53.2145 39.8477 53.1115C40.0467 52.9219 39.8804 52.3425 39.3857 52.42ZM32.3502 52.991C31.5077 53.0604 30.1205 54.4539 29.3933 54.1446C28.9689 53.9653 29.3595 53.043 29.6576 52.8025C29.4098 53.697 29.4098 53.5938 29.5922 53.7479C29.7727 53.904 30.9294 52.9054 31.4912 52.5443C32.0521 52.1832 33.3743 51.8559 34.2818 51.8385C34.2318 51.7344 34.0679 51.5633 33.9363 51.5112C33.8033 51.4592 33.3743 51.4083 33.3743 51.4083L33.8198 50.4964C34.8115 50.2903 36.9094 50.634 37.4541 50.7708L37.2378 51.8385C37.0898 51.8559 36.6104 52.0273 36.33 52.2855C36.892 52.9216 38.4319 52.2855 38.8413 51.9761C38.8644 51.8082 38.8413 50.8757 38.8413 50.8757C38.8413 50.693 38.525 50.6942 38.525 50.4759C38.525 50.2556 39.083 49.3263 39.2073 49.1858C39.1452 49.3266 39.2305 49.6499 39.2305 49.7273C39.2305 49.804 39.5254 49.8601 39.5497 50.0659C39.5728 50.2721 39.5381 50.4496 39.3293 50.7075L39.3091 51.2094C39.3091 51.2094 39.2975 51.5072 39.3837 51.598C39.5815 51.7 39.7674 51.4176 40.0906 51.5326C40.6139 51.7214 40.2048 52.6596 40.0935 53.0861C39.9813 53.5111 39.8457 54.0416 39.4999 53.9896C38.9737 53.911 39.0327 53.5114 38.9205 52.9054C38.6247 52.7759 37.8363 53.7236 36.3522 53.4481C35.7494 53.3347 35.312 53.0861 34.6927 52.5188C34.5438 52.6992 33.1242 52.6646 32.3479 52.9913" fill="#C20831"/>
<path d="M36.0005 49.293L35.108 49.7929L35.6036 50.1193L36.3298 49.6205L36.0005 49.293ZM21.6646 49.6376C21.7135 49.655 22.2255 49.862 22.2255 49.862C22.2255 49.862 21.5319 50.4292 21.4819 50.4466C21.433 50.4639 20.971 50.206 20.8048 50.2569C20.6405 50.3098 20.2439 50.7392 20.2439 50.7392C20.2439 50.7392 19.7153 50.5504 19.5991 50.5148C19.8796 50.3598 20.2936 49.8958 20.3763 49.8093C20.7059 49.9481 21.0364 50.1375 21.1352 50.1019C21.2341 50.0684 21.4657 49.6379 21.6643 49.6379M27.7255 53.354C27.8244 53.354 28.3538 52.9073 28.4853 52.9235C28.6183 52.9408 29.0474 53.2866 29.0474 53.2866C29.0474 53.2866 28.2702 53.8886 28.1875 53.8701C28.1048 53.8527 27.7255 53.5448 27.642 53.561C27.561 53.5784 26.9157 54.0251 26.9157 54.0251L26.2221 53.7171C26.2221 53.7171 26.9657 53.0796 27.0819 53.0623C27.1961 53.0449 27.6093 53.3205 27.7255 53.354ZM32.0855 53.3725L31.4246 53.7163L31.755 54.1291L32.4495 53.6816L32.0855 53.3725Z" fill="#C20831"/>
</svg>
