<svg width="108" height="72" viewBox="0 0 108 72" fill="none" xmlns="http://www.w3.org/2000/svg">
<path fill-rule="evenodd" clip-rule="evenodd" d="M39.3894 38.0742C38.9181 39.2537 38.6383 39.8953 38.1668 41.0736C37.9314 41.6629 37.7829 42.0007 37.5475 42.5895C37.2959 43.2194 37.1817 43.6482 36.651 44.0728H36.7813C36.7685 44.0834 36.762 44.0948 36.7488 44.1054H38.0854C37.9933 43.9914 37.955 43.8928 37.955 43.7468C37.955 43.4775 38.0508 43.3276 38.1507 43.0785L38.33 42.6384C38.3618 42.5549 38.3787 42.5009 38.4278 42.4266H40.188C40.2244 42.4863 40.2388 42.5334 40.2695 42.6059C40.3375 42.7636 40.3857 42.8543 40.449 43.0132C40.5448 43.2558 40.627 43.3908 40.6609 43.6489C40.6674 43.6868 40.677 43.7091 40.677 43.7468C40.677 43.8823 40.6263 43.9541 40.563 44.0728H40.677C40.6712 44.084 40.6671 44.0935 40.6609 44.1054H42.3396C41.7946 43.7064 41.7288 43.2492 41.4431 42.6384C41.1714 42.055 41.0468 41.7132 40.7912 41.1226C40.4645 40.3681 40.2866 39.9377 39.9598 39.1828C39.7767 38.7596 39.658 38.536 39.4872 38.107C39.4722 38.1442 39.4693 38.1685 39.4547 38.2048C39.4349 38.1568 39.4105 38.1274 39.3896 38.0742H39.3894ZM14.336 38.4167C14.231 38.4167 14.1789 38.4317 14.0753 38.4492C13.9076 38.4766 13.8105 38.5053 13.6513 38.5634C13.0769 38.7726 12.7001 39.1449 12.6408 39.7532C12.6341 39.8066 12.6245 39.8459 12.6245 39.9C12.6245 40.6771 13.1846 41.101 13.8798 41.4484C14.3329 41.6741 14.6118 41.7686 15.0207 42.0677C15.2619 42.2446 15.4118 42.4376 15.4118 42.7363C15.4118 43.282 14.9136 43.6653 14.3688 43.6653H14.1078C13.9541 43.6653 13.8452 43.6415 13.7167 43.6002C13.698 43.5939 13.6855 43.5903 13.6677 43.5838C13.6549 43.5796 13.6487 43.5719 13.6352 43.5675C13.5726 43.5466 13.5252 43.5105 13.4723 43.486C13.2427 43.3615 13.0791 43.1907 12.8855 42.9481L12.8691 42.997C12.8455 42.9683 12.8123 42.9463 12.7876 42.9156L12.4615 43.7955C12.6408 43.8908 12.7975 43.9572 12.9508 44.0073C12.9609 44.0111 12.973 44.0201 12.9831 44.0237C13.0876 44.0564 13.1918 44.0757 13.3255 44.1051C13.3612 44.1137 13.3841 44.1291 13.4234 44.1377C13.6383 44.1852 13.7564 44.2102 13.9776 44.2191C14.2429 44.2297 14.3986 44.2474 14.6621 44.2191C15.1497 44.1677 15.4497 44.1267 15.8519 43.8444C16.2686 43.5529 16.4335 43.2257 16.4876 42.7196C16.4961 42.6407 16.4943 42.5879 16.4876 42.5078C16.425 41.7291 15.9295 41.3072 15.2325 40.9594C14.7801 40.7323 14.4965 40.652 14.0753 40.3724C13.836 40.2126 13.6841 40.0398 13.6841 39.753C13.6841 39.7171 13.6774 39.6904 13.6841 39.6552C13.7252 39.3253 13.9274 39.1316 14.2384 39.0194C14.3764 38.9707 14.4664 38.938 14.6132 38.938H14.8739C14.9845 38.938 15.0665 38.9481 15.1511 38.9705C15.2067 38.99 15.2644 39.0073 15.3306 39.0358C15.5274 39.1211 15.6369 39.1778 15.7704 39.3455C15.8591 39.4563 15.8775 39.5436 15.9661 39.6552L15.9986 39.5737C16.0193 39.6094 16.0323 39.6478 16.0637 39.6877L16.3898 38.889C16.3741 38.861 16.3521 38.8572 16.3247 38.8401C16.271 38.8066 16.2167 38.774 16.1618 38.7425C16.1306 38.725 16.1079 38.7239 16.0801 38.7097C16.0318 38.6826 15.991 38.664 15.9499 38.6447C15.9203 38.6328 15.8835 38.6227 15.8519 38.6121C15.8122 38.5964 15.7659 38.5776 15.7217 38.5632C15.7157 38.5616 15.7112 38.5648 15.7053 38.5632C15.6768 38.5542 15.6566 38.5403 15.6239 38.5304C15.4679 38.4842 15.3773 38.4712 15.2164 38.449C15.1113 38.4355 15.0456 38.4164 14.9392 38.4164H14.336V38.4167ZM69.8543 38.5307C69.7937 38.7517 69.7089 38.8619 69.6097 39.0686C69.4553 39.3895 69.3797 39.5596 69.2349 39.8836C68.9957 40.4177 68.8386 40.7175 68.5992 41.2529C68.3716 41.7621 68.2238 42.0476 67.9962 42.5567C67.7334 43.1449 67.5627 43.4743 67.1486 43.975H67.2788C67.2689 43.9873 67.2568 43.9952 67.2463 44.0075H68.632C68.5074 43.9202 68.4688 43.797 68.4688 43.6489C68.4688 43.4039 68.5485 43.2715 68.6483 43.0459C68.7545 42.8081 68.8119 42.6781 68.9253 42.4427H70.7019C70.8091 42.6447 70.859 42.7805 70.9629 42.997C71.071 43.2214 71.1422 43.3516 71.1422 43.6C71.1422 43.758 71.069 43.8563 70.9626 43.975H71.0932C71.0825 43.9875 71.0724 43.9945 71.0605 44.0075H72.8048C72.555 43.8145 72.4565 43.6568 72.2994 43.3882C72.141 43.1168 72.0773 42.9533 71.9408 42.671C71.6832 42.1344 71.545 41.8299 71.2725 41.3019C71.06 40.8896 70.94 40.6497 70.7508 40.226C70.5971 39.8798 70.4815 39.692 70.3271 39.3457C70.2488 39.1698 70.194 39.0816 70.1153 38.9056C70.0551 38.7694 70.0305 38.6911 69.9521 38.5634C69.9418 38.6013 69.9313 38.629 69.9196 38.661C69.8996 38.62 69.8844 38.5798 69.8545 38.5309L69.8543 38.5307ZM19.1446 39.4272C19.0077 39.4272 18.9197 39.4456 18.786 39.4761C18.6255 39.514 18.5474 39.5452 18.3948 39.6065C18.052 39.7427 17.8583 39.8582 17.6287 40.1444C17.3895 40.4444 17.2753 40.6549 17.1723 41.0247C17.1117 41.2444 17.0744 41.3833 17.0744 41.6115V42.0352C17.0744 42.1923 17.1059 42.274 17.1395 42.4264C17.1815 42.6162 17.1931 42.736 17.2701 42.9156C17.5506 43.5623 17.9436 43.9169 18.6231 44.1054C18.659 44.117 18.683 44.1437 18.7209 44.1543C18.9211 44.2097 19.0351 44.2357 19.2424 44.2357H19.6825C19.8898 44.2357 20.0052 44.2135 20.2042 44.1543C20.9143 43.9418 21.3379 43.5466 21.5897 42.8503C21.6523 42.6761 21.6732 42.5758 21.7037 42.3938C21.7246 42.2666 21.7363 42.1963 21.7363 42.0677V41.6441C21.7363 41.3467 21.6835 41.1773 21.5897 40.8941C21.3877 40.2873 21.0433 39.8973 20.5139 39.6718C20.4634 39.6473 20.4046 39.6273 20.3508 39.6067C20.3194 39.5957 20.2857 39.5836 20.2529 39.5739C20.1959 39.5546 20.1344 39.5407 20.0736 39.525C20.0355 39.5163 20.0081 39.4996 19.976 39.4925C19.8259 39.4586 19.7381 39.4274 19.5846 39.4274H19.1448L19.1446 39.4272ZM58.8191 39.4272C58.7698 39.6157 58.7058 39.7077 58.6237 39.8836C58.4964 40.1574 58.417 40.3082 58.2976 40.5847C58.1001 41.0409 57.9897 41.3036 57.7922 41.7583C57.6037 42.1936 57.4754 42.4315 57.2869 42.8666C57.0699 43.368 56.9278 43.6451 56.5861 44.0728H56.7164C56.7063 44.0856 56.6945 44.0923 56.6839 44.1054H57.8248C57.7218 44.0304 57.6946 43.9393 57.6946 43.8121C57.6946 43.6027 57.7584 43.4833 57.8412 43.2903C57.9291 43.0877 57.9756 42.9694 58.0694 42.7688H59.5202C59.6066 42.938 59.6467 43.0583 59.732 43.2414C59.8207 43.4333 59.8949 43.5517 59.8949 43.7631C59.8949 43.8973 59.8364 43.9718 59.7484 44.0728H59.8624C59.8525 44.0847 59.8406 44.093 59.8299 44.1054H61.2804C61.2701 44.0971 61.2737 44.0809 61.2643 44.0728C61.0802 43.9182 60.9799 43.7842 60.8567 43.5675C60.7257 43.3354 60.6761 43.2057 60.5632 42.9645C60.35 42.5074 60.234 42.2405 60.0089 41.7908C59.8578 41.4912 59.7165 41.1868 59.5853 40.8779C59.4582 40.5833 59.3546 40.4392 59.2267 40.1444C59.1622 39.994 59.1126 39.9025 59.0473 39.7532C58.998 39.6372 58.9823 39.5688 58.9172 39.4599C58.906 39.5012 58.8808 39.5237 58.868 39.5575C58.8501 39.5183 58.8474 39.4745 58.8194 39.4274L58.8191 39.4272ZM61.2643 44.0728H61.3944C61.3832 44.0854 61.3751 44.0923 61.3621 44.1054H62.5194C62.4157 44.0024 62.3695 43.9182 62.3237 43.7793C62.2923 43.685 62.2748 43.6346 62.2748 43.5347V40.9269L64.7199 44.0728H64.7688L64.8013 44.1054H65.4696C65.4696 42.6404 65.4631 41.822 65.4696 40.3564C65.4696 40.1022 65.5343 39.9161 65.7142 39.7371H65.5838C65.5939 39.7258 65.6054 39.7153 65.6164 39.7043H64.4753C64.5738 39.8028 64.6115 39.8811 64.6548 40.014C64.6898 40.1197 64.7199 40.1803 64.7199 40.2911V42.6384L62.4051 39.7368H62.3564L62.3237 39.7043H61.2643C61.4514 39.8908 61.5082 40.0759 61.5089 40.34C61.5118 41.5711 61.5158 42.2713 61.5089 43.5024C61.5089 43.5962 61.4864 43.6399 61.4599 43.7304C61.4169 43.8753 61.3706 43.9671 61.2643 44.0728ZM86.6435 39.5414C86.5948 39.7207 86.5281 39.8138 86.448 39.9814C86.3405 40.2022 86.2373 40.425 86.1383 40.6497C85.944 41.084 85.8273 41.3232 85.633 41.7583C85.4478 42.1721 85.3291 42.403 85.1438 42.8175C84.9301 43.295 84.7959 43.5675 84.4593 43.975H84.5733C84.5634 43.9873 84.5511 43.9952 84.5408 44.0075H85.6655C85.5645 43.9366 85.5351 43.8341 85.5351 43.7142C85.5351 43.5145 85.6166 43.4077 85.698 43.225C85.7842 43.0316 85.8181 42.9279 85.9101 42.7363H87.3445C87.4284 42.896 87.4569 43.0024 87.54 43.1761C87.6282 43.3588 87.7031 43.4808 87.7031 43.6817C87.7031 43.8096 87.643 43.8785 87.5563 43.975H87.6703C87.6623 43.9844 87.6629 43.9976 87.6542 44.0075H89.0561C88.8532 43.8511 88.7762 43.7214 88.6485 43.5024C88.5199 43.2825 88.4659 43.1449 88.355 42.9156C88.1459 42.48 88.0381 42.2356 87.8171 41.807C87.6666 41.5182 87.5253 41.2247 87.3934 40.9269C87.2682 40.6459 87.1762 40.5077 87.051 40.226C86.9872 40.0831 86.9356 40.0115 86.8717 39.8674C86.823 39.7573 86.8053 39.6769 86.7415 39.5739C86.7324 39.6071 86.7215 39.6398 86.7088 39.6718C86.6904 39.6325 86.6726 39.5881 86.6437 39.5414H86.6435ZM54.8092 39.6065C54.6542 39.6065 54.57 39.6379 54.4181 39.6715C54.2134 39.7173 54.0895 39.735 53.8966 39.8185C53.4154 40.0263 53.1493 40.2566 52.8697 40.6986C52.7472 40.893 52.7027 41.0151 52.6415 41.2365C52.5977 41.395 52.56 41.4805 52.56 41.6441V42.1005C52.56 42.2257 52.5813 42.2883 52.6087 42.4102C52.6525 42.607 52.6917 42.7302 52.7718 42.9156C52.8852 43.1788 52.9799 43.3128 53.1955 43.5024C53.4049 43.6862 53.5267 43.8152 53.7823 43.9261C53.9073 43.9799 54.0074 44.0073 54.1084 44.0403C54.2412 44.0892 54.3759 44.1372 54.5485 44.1704C54.6921 44.1987 54.7774 44.2194 54.9232 44.2194H55.4775C55.5879 44.2194 55.6458 44.1882 55.7546 44.1707C55.9202 44.1433 56.0194 44.1262 56.1785 44.0728C56.2279 44.0564 56.2432 44.0506 56.3415 44.0077C56.376 43.9572 56.3715 43.9032 56.3904 43.8446C56.4393 43.6987 56.4555 43.6099 56.5208 43.4698C56.4716 43.4891 56.4346 43.5006 56.3906 43.5185C56.4003 43.4923 56.4092 43.4669 56.4229 43.4371C56.0917 43.5681 55.8987 43.6817 55.5428 43.6817H55.2006C55.0965 43.6823 54.9926 43.6713 54.8909 43.6489C54.8862 43.6473 54.879 43.6505 54.8745 43.6489C54.8076 43.6337 54.7358 43.5928 54.6627 43.5675C54.6277 43.5547 54.5976 43.5488 54.5648 43.5349C54.4654 43.4983 54.3876 43.4508 54.3041 43.4045C53.9865 43.2012 53.7832 42.9064 53.6683 42.4917C53.6212 42.3222 53.5869 42.2282 53.5869 42.0516V41.693C53.5869 41.4948 53.6331 41.3912 53.7009 41.2038C53.9441 40.5409 54.4461 40.1515 55.1517 40.1282C55.2735 40.1239 55.3402 40.1221 55.4613 40.1282C55.5538 40.1322 55.6442 40.1453 55.7221 40.1607C55.7611 40.172 55.7993 40.178 55.8363 40.1933C55.8415 40.1949 55.8475 40.1917 55.8525 40.1933C55.9858 40.2503 56.1092 40.336 56.2436 40.454C56.3298 40.5297 56.352 40.5932 56.4231 40.6823L56.4393 40.6172C56.4629 40.6506 56.4887 40.6744 56.5208 40.715L56.7654 39.9489C56.7321 39.9402 56.6994 39.9292 56.6675 39.9161C56.571 39.8912 56.5152 39.8526 56.4393 39.8185C56.4072 39.8069 56.3866 39.7952 56.3578 39.7858C56.1465 39.7088 56.0089 39.692 55.7872 39.6556C55.6373 39.6307 55.5637 39.6065 55.4124 39.6065H54.8092ZM22.0298 39.7043C22.1294 39.8042 22.1711 39.8778 22.2091 40.014C22.2382 40.1197 22.258 40.1823 22.258 40.2911C22.267 41.1636 22.2658 41.669 22.2742 42.5406C22.2768 42.7818 22.2957 42.9149 22.372 43.1438C22.4528 43.3855 22.5194 43.5192 22.6817 43.7142C22.7744 43.8237 22.8518 43.8686 22.9752 43.9424C23.0878 44.0089 23.1576 44.054 23.2849 44.089C23.3127 44.0995 23.3316 44.1121 23.3663 44.1217C23.4346 44.1415 23.501 44.1567 23.5618 44.1707C23.6819 44.2034 23.8003 44.2357 23.9532 44.2357H24.4747C24.7336 44.2357 24.886 44.1841 25.1268 44.089C25.349 44.0003 25.4827 43.9169 25.6319 43.7304C25.8386 43.473 25.9196 43.2917 25.9744 42.9643C25.9966 42.8301 26.0233 42.7414 26.0233 42.6057C26.0323 41.717 26.0148 41.2287 26.0233 40.34C26.0258 40.0903 26.0917 39.913 26.2679 39.7368H26.1373C26.1481 39.7254 26.1582 39.716 26.1698 39.7043H24.9962C25.1129 39.821 25.156 39.9188 25.1919 40.0791C25.2089 40.1587 25.2244 40.2103 25.2244 40.2911V42.5733C25.2244 42.7446 25.2087 42.8476 25.1593 43.0132C25.1077 43.1873 25.0763 43.2786 24.9637 43.4207C24.8645 43.5446 24.7734 43.5986 24.6214 43.6489C24.5126 43.6855 24.4428 43.714 24.3279 43.714H24.0833C24.0286 43.7144 23.974 43.709 23.9204 43.6978C23.9159 43.6963 23.9087 43.6994 23.9042 43.6978C23.8791 43.6922 23.8486 43.6736 23.8228 43.6653C23.6682 43.6099 23.5788 43.5506 23.4803 43.4207C23.3767 43.2838 23.3428 43.1815 23.301 43.0132C23.2692 42.8835 23.236 42.8215 23.236 42.6873C23.2261 41.7718 23.236 41.2556 23.236 40.34C23.236 40.091 23.3167 39.9384 23.4642 39.7368H23.35C23.358 39.7258 23.358 39.7157 23.3663 39.7043H22.0295H22.0298ZM26.5287 39.7043L26.7241 40.4379C26.7416 40.4087 26.7697 40.3939 26.7892 40.3728L26.8056 40.4704C26.8801 40.3466 26.979 40.3035 27.1153 40.2586C27.2432 40.2155 27.3233 40.1935 27.4577 40.1935H28.0771V43.4371C28.0771 43.6996 28.0183 43.887 27.8325 44.0728H27.9631C27.9525 44.084 27.9418 44.0939 27.9303 44.1054H29.2835C29.1776 44.0205 29.147 43.9397 29.104 43.8121C29.0642 43.6913 29.0389 43.6137 29.0389 43.486C29.0315 42.2035 29.0389 41.4753 29.0389 40.1933C29.34 40.1933 29.5036 40.2038 29.8048 40.2097C29.9004 40.2108 29.9753 40.2036 30.0494 40.2258C30.0956 40.2469 30.1302 40.2718 30.1798 40.3075C30.2307 40.3445 30.2448 40.3973 30.294 40.4377L30.3101 40.3726C30.3371 40.4002 30.3557 40.4408 30.3916 40.4704L30.5711 39.7368H30.4733V39.7043H26.5287ZM30.7991 39.7043C30.9212 39.8264 30.9584 39.928 30.9948 40.0954C31.0143 40.1861 31.0437 40.248 31.0437 40.34V43.4535C31.0437 43.716 30.9856 43.887 30.7991 44.0728H30.9295C30.9183 44.0852 30.9093 44.093 30.897 44.1054H32.2335C32.0576 43.9294 31.9889 43.7687 31.9889 43.5185C31.982 42.9748 31.9889 42.6618 31.9889 42.1167H33.994V43.486C33.994 43.6 33.9653 43.6705 33.9289 43.7793C33.8858 43.9086 33.8526 43.9828 33.7494 44.0728H33.88C33.8683 44.0845 33.8609 44.0935 33.8472 44.1054H35.184C35.083 44.0044 35.0332 43.9319 34.9883 43.7957C34.9543 43.7017 34.9377 43.6023 34.9394 43.5024V40.34C34.9394 40.2346 34.9583 40.1803 34.9883 40.0793C35.0307 39.9366 35.0783 39.8589 35.184 39.7532H35.0536C35.0666 39.7384 35.0705 39.72 35.0862 39.7043H33.7496C33.8564 39.812 33.904 39.8993 33.9451 40.0467C33.9704 40.1419 33.994 40.2097 33.994 40.3075V41.5462H31.9891C31.9887 41.0911 31.9829 40.8106 31.9891 40.34C31.9912 40.093 32.0587 39.928 32.2337 39.7532H32.1031C32.1157 39.7398 32.122 39.7182 32.1357 39.7043H30.7991ZM42.47 39.7043C42.5959 39.83 42.6482 39.9377 42.6821 40.1118C42.6971 40.1901 42.7146 40.2442 42.7146 40.3237V43.486C42.7146 43.5937 42.6996 43.6601 42.6657 43.7631C42.6208 43.8987 42.5706 43.9723 42.4702 44.0728H42.6004C42.5899 44.0845 42.5802 44.093 42.5679 44.1054H43.9047C43.7247 43.9261 43.66 43.756 43.66 43.5024C43.6535 42.9494 43.66 42.6357 43.66 42.0841C44.1313 42.0841 44.395 42.079 44.8662 42.0841C44.9295 42.0848 44.9919 42.0913 45.0458 42.1005C45.0651 42.1063 45.092 42.1093 45.1108 42.1167C45.1393 42.1241 45.1654 42.1387 45.1923 42.1492C45.2565 42.1851 45.322 42.2361 45.388 42.296V42.2634C45.4154 42.2845 45.4409 42.3027 45.4694 42.3285V41.3669C45.4401 41.3857 45.4128 41.4076 45.388 41.432V41.3344C45.3299 41.3721 45.3018 41.4138 45.2412 41.4484C45.0691 41.5462 44.9497 41.5788 44.752 41.5788H43.66V40.2911C44.1739 40.2911 44.4666 40.286 44.9805 40.2911C45.0467 40.2916 45.1023 40.2979 45.1598 40.3073C45.1806 40.3136 45.2049 40.3156 45.2248 40.3237C45.23 40.3248 45.2361 40.3221 45.2412 40.3237C45.3373 40.3652 45.4185 40.4231 45.502 40.5193L45.5181 40.4704C45.548 40.4965 45.5709 40.5187 45.5998 40.5519L45.8117 39.753H45.6974L45.7138 39.7043H42.47ZM46.317 39.7043C46.4193 39.8066 46.4669 39.8921 46.5125 40.0304C46.5446 40.1255 46.5614 40.1908 46.5614 40.2911V43.5024C46.5614 43.5948 46.5392 43.6411 46.5125 43.7304C46.4696 43.8771 46.4252 43.9638 46.317 44.0728H46.431C46.422 44.0822 46.4245 44.0955 46.4149 44.1054H47.7514C47.6491 44.0024 47.6112 43.9195 47.5719 43.7793C47.5407 43.6633 47.5068 43.6061 47.5068 43.486V40.1933C47.7559 40.1933 47.8935 40.1888 48.1426 40.1933C48.1922 40.1944 48.242 40.2 48.2893 40.2097C48.5743 40.3053 48.7947 40.5478 48.7947 40.8616V41.0898C48.7947 41.2458 48.7406 41.3304 48.6643 41.4645C48.575 41.6239 48.4947 41.6975 48.3382 41.7908C48.1628 41.8956 48.0539 41.9609 47.849 41.9701C47.8962 42.0711 47.9339 42.1057 47.9958 42.1984C48.1107 42.3711 48.1863 42.4681 48.3055 42.6382C48.5606 43.0029 48.6863 43.2194 48.9412 43.5838C49.1409 43.8688 49.2296 44.0618 49.4955 44.2847C49.6625 44.4249 49.7648 44.5136 49.9683 44.5943C50.0426 44.626 50.1188 44.6532 50.1963 44.6758C50.3004 44.7128 50.39 44.7409 50.5224 44.7409H50.8648L51.2234 44.7086C51.1471 44.6406 51.0791 44.6204 50.9952 44.5618C50.7982 44.4242 50.692 44.3401 50.5224 44.1707C50.2702 43.9182 50.1521 43.7533 49.9356 43.4696C49.5204 42.9279 49.3196 42.6018 48.8923 42.0677C49.051 41.9831 49.1551 41.9609 49.2998 41.8559C49.4466 41.7509 49.5047 41.6539 49.5933 41.4973C49.6988 41.3102 49.7309 41.1896 49.7401 40.9758C49.7417 40.8824 49.7466 40.8245 49.7401 40.7312C49.7152 40.3138 49.4378 40.0207 49.0716 39.8672C49.0366 39.8493 48.9946 39.8333 48.9576 39.8185C48.9244 39.8078 48.8939 39.7941 48.8598 39.7858C48.7172 39.742 48.5688 39.72 48.4197 39.7207C47.5995 39.7128 47.1372 39.7063 46.317 39.7043ZM50.7342 39.7043C50.8594 39.83 50.907 39.9384 50.9463 40.1118C50.9624 40.1875 50.9788 40.2292 50.9788 40.3075V43.4696C50.9788 43.5767 50.9607 43.6451 50.9299 43.7468C50.8875 43.8904 50.8392 43.9671 50.7342 44.0728H50.8648C50.8536 44.0852 50.8451 44.0923 50.8321 44.1054H52.1686C52.0605 43.9965 52.0221 43.9079 51.9732 43.7631C51.9424 43.6698 51.9243 43.617 51.9243 43.5185V40.3239C51.9243 40.2274 51.9458 40.1713 51.9732 40.0793C52.0169 39.9334 52.0618 39.8448 52.1686 39.7371H52.0546C52.0634 39.7276 52.0614 39.7144 52.071 39.7045L50.7342 39.7043ZM93.6362 39.7043C93.5547 39.7043 93.5217 39.7245 93.4407 39.7368C93.311 39.757 93.2224 39.7748 93.0985 39.8185C92.6531 39.9763 92.3779 40.2579 92.3324 40.715C92.3252 40.7547 92.316 40.788 92.316 40.829C92.316 41.4125 92.7547 41.7255 93.294 41.9863C93.3213 42.0002 93.3478 42.0056 93.3754 42.0191C93.6768 42.1598 93.8848 42.2538 94.1743 42.4589C94.3615 42.5922 94.4676 42.7237 94.4676 42.9481C94.4676 43.3581 94.0922 43.6489 93.6687 43.6489H93.4571C93.3454 43.6489 93.2708 43.6438 93.18 43.6164C93.1485 43.6063 93.1268 43.5951 93.0985 43.5838C93.0568 43.5704 93.0204 43.5502 92.9843 43.5349C92.8061 43.4411 92.6948 43.3103 92.5442 43.1274L92.5278 43.1763C92.5009 43.1453 92.4751 43.1296 92.4464 43.0949L92.1856 43.7631C92.3297 43.8379 92.4531 43.8718 92.5768 43.9097C92.5873 43.9135 92.599 43.9225 92.6095 43.9261C92.6847 43.9478 92.7585 43.9709 92.8541 43.9911C92.8885 43.9994 92.9129 44.0158 92.9517 44.0239C93.1187 44.0605 93.204 44.0813 93.3756 44.089C93.5816 44.0968 93.7093 44.1105 93.9135 44.089C94.2917 44.0499 94.5309 44.0075 94.8426 43.7957C95.166 43.5773 95.2892 43.3289 95.3316 42.9481C95.3383 42.8893 95.3383 42.8619 95.3316 42.8013C95.2833 42.2165 94.894 41.8905 94.3536 41.6277C94.3173 41.6102 94.2894 41.6106 94.2558 41.5952C94.1166 41.5278 94.0094 41.482 93.8972 41.4322C93.7446 41.3617 93.5975 41.28 93.4571 41.1876C93.272 41.0682 93.1636 40.93 93.1636 40.715C93.1636 40.6881 93.1571 40.6764 93.1636 40.6497C93.1957 40.402 93.3462 40.2456 93.5875 40.1605C93.6813 40.1261 93.7808 40.1096 93.8808 40.1118H94.0765C94.1622 40.1118 94.2389 40.1114 94.3047 40.1282C94.3395 40.1408 94.3619 40.1601 94.4025 40.1769C94.5556 40.2409 94.6574 40.2795 94.7611 40.4051C94.8296 40.4886 94.8385 40.5662 94.9077 40.6497L94.9404 40.5683C94.9599 40.6024 94.9736 40.6439 95.0055 40.6823L95.2501 40.0629C95.2369 40.042 95.2221 40.042 95.2012 40.0304C95.1563 40.0023 95.1334 39.9906 95.087 39.9653C94.9586 39.8953 94.885 39.8758 94.7447 39.8347C94.7129 39.8244 94.6857 39.8136 94.6469 39.8021C94.5402 39.7716 94.4311 39.7498 94.3208 39.7371C94.2394 39.7258 94.1911 39.7043 94.109 39.7043H93.6364H93.6362ZM75.2335 39.7858C75.3345 39.8829 75.3671 39.9644 75.4128 40.0954C75.4434 40.1861 75.4615 40.2442 75.4615 40.34V43.4045C75.4615 43.4932 75.4389 43.5315 75.4128 43.6164C75.3697 43.7566 75.3397 43.8385 75.2333 43.9424H75.3475C75.3368 43.9541 75.3273 43.9626 75.315 43.975H76.6352C76.5342 43.8765 76.4938 43.7977 76.4559 43.6653C76.4245 43.5544 76.407 43.5028 76.407 43.3882V40.2588C76.6522 40.2588 76.7813 40.2545 77.0263 40.2588C77.1008 40.2604 77.1699 40.2712 77.2384 40.2914C77.4789 40.3986 77.6623 40.623 77.6623 40.8946V41.09C77.6623 41.2388 77.6068 41.3366 77.5317 41.465C77.4437 41.6162 77.3753 41.686 77.222 41.7747C77.0492 41.8752 76.9345 41.9293 76.733 41.9376C76.7795 42.0348 76.8183 42.0772 76.8798 42.1658C76.9927 42.3308 77.0557 42.4268 77.1731 42.5897C77.4235 42.9366 77.5579 43.1386 77.8088 43.4862C78.0052 43.7586 78.0848 43.9256 78.3467 44.1381C78.511 44.2719 78.6194 44.354 78.8195 44.4316C78.8523 44.4442 78.8721 44.4536 78.901 44.4642C78.919 44.4711 78.9331 44.4743 78.9499 44.4806C78.9775 44.4898 79.0042 44.5061 79.0314 44.5131C79.1337 44.5483 79.2266 44.5782 79.3574 44.5782H79.6997L80.0583 44.5456C79.9833 44.4812 79.9135 44.4714 79.83 44.4155C79.6364 44.2842 79.5399 44.2021 79.3736 44.0403C79.1245 43.7997 79 43.6426 78.7868 43.372C78.3788 42.8559 78.1798 42.5453 77.7599 42.0354C77.9152 41.9553 78.0083 41.9396 78.1513 41.8398C78.2953 41.7394 78.3573 41.6481 78.4446 41.4975C78.5482 41.3203 78.5992 41.1964 78.6075 40.9922C78.6091 40.9042 78.5978 40.8535 78.5913 40.764C78.5671 40.369 78.2956 40.08 77.9392 39.9327C77.9019 39.9149 77.8638 39.8986 77.8252 39.8838C77.7927 39.8737 77.761 39.8591 77.7274 39.8513C77.5902 39.8086 77.4474 39.7867 77.3037 39.7862C76.4969 39.7781 76.0401 39.7867 75.2335 39.7862V39.7858ZM72.8537 39.8185C72.9776 39.9377 73.0276 40.0283 73.0655 40.1933C73.0817 40.2651 73.0981 40.3145 73.0981 40.389V43.4045C73.0981 43.5075 73.0792 43.5511 73.0492 43.6491C73.0074 43.7854 72.9581 43.8747 72.8537 43.975H72.9839C72.9733 43.9861 72.9625 43.997 72.9513 44.0075H74.2717C74.1649 43.9045 74.1236 43.8199 74.076 43.6817C74.0462 43.5935 74.0274 43.5459 74.0274 43.4535V40.4053C74.0274 40.3133 74.0493 40.2644 74.076 40.1771C74.1191 40.038 74.166 39.9534 74.2717 39.8511H74.1413C74.1526 39.8389 74.1609 39.8309 74.1739 39.8185H72.8537ZM80.2865 39.8347L79.4225 39.8511C79.6083 40.2388 79.7695 40.7788 79.7973 40.8941L80.6287 43.975H80.7104L80.7265 44.0075H81.2319L82.0306 41.7091L82.7967 43.975H82.8782L82.8945 44.0075H83.3997L84.3615 40.5519C84.4402 40.2624 84.4761 40.1834 84.6061 39.9H84.4919C84.4979 39.8865 84.5015 39.8818 84.5082 39.8672L83.6768 39.8511L83.6932 40.0465C83.6932 40.2539 83.6025 40.584 83.5464 40.7965L83.0411 42.622L82.0956 39.8836H82.0631L82.0306 39.9651L81.9978 39.8511H81.9653L80.9873 42.622L80.5309 40.9105C80.4748 40.7031 80.3516 40.2866 80.3516 40.0954C80.3516 40.0245 80.3789 39.9058 80.3841 39.8672H80.2863C80.2874 39.8594 80.2858 39.8403 80.2863 39.8347H80.2865ZM89.3493 39.8672L88.3876 39.8836C88.5736 40.0198 88.6568 40.1248 88.8604 40.4868L89.8058 42.1167V43.2742C89.8058 43.7057 89.7535 43.8217 89.6916 43.975H89.8058C89.8015 43.9855 89.7939 43.9967 89.7894 44.0075H90.6534C90.5412 43.795 90.5394 43.5565 90.5394 43.5185V42.1003L91.5499 40.3726C91.5889 40.3127 91.7182 40.1125 91.8759 39.9161H91.7617C91.7698 39.9063 91.77 39.8937 91.7781 39.8836L90.9141 39.8674C90.9254 40.0643 90.8827 40.2085 90.7023 40.503L90.1644 41.4484L89.6265 40.5193C89.5188 40.3335 89.425 40.1406 89.447 39.9H89.3493C89.3498 39.8892 89.3482 39.8782 89.3493 39.8674V39.8672ZM19.3403 39.9651H19.5685C19.6161 39.9651 19.6459 39.9731 19.6825 39.9814C19.6924 39.9839 19.7045 39.9783 19.715 39.9814C19.7433 39.9889 19.7779 40.0046 19.8129 40.014C19.9415 40.0634 20.0332 40.1239 20.1553 40.2258C20.3678 40.404 20.4592 40.5539 20.5628 40.8126C20.6331 40.9899 20.6461 41.097 20.6768 41.2855C20.6939 41.3871 20.7257 41.4594 20.7257 41.5626V42.0841C20.7257 42.2419 20.6943 42.3216 20.6607 42.4753C20.5099 43.1534 20.051 43.714 19.3564 43.714C19.2288 43.7129 19.1022 43.6909 18.9817 43.6489C18.5683 43.4685 18.2977 43.0495 18.1828 42.5567C18.1379 42.3619 18.1013 42.2511 18.1013 42.0516V41.6602C18.1013 41.4387 18.1242 41.3043 18.1828 41.0898C18.2683 40.7815 18.3524 40.6008 18.5578 40.3562C18.6967 40.1901 18.81 40.121 19.0142 40.0465C19.1381 40.0016 19.2085 39.9651 19.3403 39.9651ZM39.2754 40.2747L39.9437 41.8559H38.6558L39.2754 40.2747ZM69.7892 40.4543L70.4086 41.807H69.2024L69.7892 40.4543ZM58.7866 41.0736L59.2756 42.2309H58.3138L58.7866 41.0736ZM86.6109 41.1387L87.1001 42.2145H86.1383L86.6109 41.1387Z" fill="#002C6D"/>
<path d="M12.6615 47.4414H95.308H12.6615Z" fill="black"/>
<path d="M12.6615 47.4414H95.308" stroke="black" stroke-width="1.84013" stroke-miterlimit="3.864"/>
<path d="M34.4944 13.1797H43.9029L68.6172 35.4228H42.8812L34.4944 13.1797Z" fill="white"/>
<mask id="mask0_2015_126" style="mask-type:luminance" maskUnits="userSpaceOnUse" x="34" y="13" width="35" height="23">
<path d="M34.4935 13.1797H43.9021L68.6166 35.4231H42.8804L34.4935 13.1797Z" fill="white"/>
</mask>
<g mask="url(#mask0_2015_126)">
<g filter="url(#filter0_f_2015_126)">
<path d="M31.0337 12.1489L39.4376 36.114L45.0546 36.2001L36.1297 12.1689L31.0337 12.1489ZM40.5492 11.8906L66.0234 36.114H71.8861L46.2018 11.9107L40.5492 11.8906Z" fill="#8A8A8A"/>
</g>
</g>
<path d="M38.288 20.4222L51.2297 20.6758L43.7897 13.9954H35.9227L38.288 20.4222Z" fill="url(#paint0_linear_2015_126)"/>
<path d="M66.6834 34.6171L58.9799 27.6649L43.5098 34.6367L66.6834 34.6171Z" fill="url(#paint1_linear_2015_126)"/>
<path d="M52.4423 21.7821L57.6878 26.5027L43.3965 34.4004L38.4236 20.6756L52.4423 21.7821Z" fill="url(#paint2_linear_2015_126)"/>
<path d="M38.4236 20.6756L47.2668 26.7504L43.3965 34.4004L53.4628 24.9679L38.4236 20.6756Z" fill="url(#paint3_linear_2015_126)"/>
<path d="M39.5157 16.3923C40.0192 15.4847 41.2214 15.1894 42.202 15.7326C43.1826 16.2763 43.57 17.4532 43.0666 18.3608C42.5633 19.269 41.3603 19.5644 40.3797 19.0199C39.399 18.4769 39.0124 17.3 39.5157 16.3923Z" fill="url(#paint4_linear_2015_126)"/>
<path d="M38.4236 20.6756L47.2668 26.7504L43.3965 34.4004L38.4236 20.6756Z" fill="url(#paint5_linear_2015_126)"/>
<path d="M12.5666 47.4082H95.2131H12.5666Z" fill="black"/>
<path d="M12.5666 47.4082H95.2131" stroke="black" stroke-width="1.84013" stroke-miterlimit="3.864"/>
<path d="M19.1368 53.4375C18.5522 53.4375 17.9463 53.6794 17.9463 54.4213C17.9463 54.9693 18.3289 55.1926 19.0499 55.3218C19.6042 55.421 20.154 55.4866 20.154 56.0054C20.154 56.5446 19.6834 56.679 19.2301 56.679C18.6503 56.679 18.2309 56.5067 18.1763 55.792H17.8628C17.91 56.7087 18.4645 57.0026 19.2301 57.0026C19.8194 57.0026 20.4873 56.7744 20.4873 55.9421C20.4873 55.2904 19.9438 55.1504 19.3935 55.0449C18.6521 54.908 18.2798 54.7996 18.2798 54.358C18.2798 53.9725 18.6507 53.7577 19.1368 53.7577C19.6253 53.7577 20.0459 53.9168 20.0872 54.4983H20.4006C20.3813 53.6884 19.7557 53.4375 19.1368 53.4375ZM53.966 53.4375C52.8078 53.4375 52.4018 54.4489 52.4018 55.2251C52.4018 56.3157 53.0051 57.0024 53.966 57.0024C54.8113 57.0024 55.3627 56.3851 55.43 55.6219H55.1232C55.0207 56.2709 54.6677 56.679 53.966 56.679C53.0683 56.679 52.7288 55.982 52.7288 55.2249C52.7288 54.2353 53.2337 53.7577 53.966 53.7577C54.4978 53.7577 54.9998 54.0192 55.0932 54.6681H55.3999C55.309 53.7716 54.6102 53.4375 53.966 53.4375ZM14.0277 53.5243L12.7239 56.9158H13.0507L13.4375 55.8887H14.9516L15.3284 56.9158H15.6717L14.3679 53.5243H14.0277ZM21.3077 53.5243V53.8443H22.5451V56.9158H22.8718V53.8443H24.109V53.5243H21.3077ZM25.7765 53.5243L24.4157 56.9158H24.7559L25.1628 55.8887H26.7403L27.1371 56.9158H27.4973L26.1367 53.5243H25.7765ZM28.3208 53.5243V56.9158H28.6245V55.4186H29.8048C30.3091 55.4186 30.5021 55.6201 30.5119 56.2188C30.5119 56.4988 30.5205 56.7107 30.5485 56.8292C30.5582 56.8687 30.5761 56.8978 30.5887 56.9158H30.9087C30.8914 56.8965 30.8773 56.8622 30.8654 56.8092C30.8288 56.6499 30.8135 56.3682 30.8088 56.2089C30.8021 56.0698 30.7994 55.9538 30.7819 55.8454C30.7736 55.7911 30.7586 55.7419 30.7453 55.6953C30.7191 55.6021 30.6825 55.5249 30.632 55.4619C30.6057 55.4293 30.5755 55.4002 30.542 55.3752C30.4679 55.321 30.3823 55.2845 30.2918 55.2684V55.2583C30.6668 55.1609 30.8654 54.8064 30.8654 54.4446C30.8654 53.729 30.4069 53.5243 29.9116 53.5243H28.3208ZM34.4303 53.5243L33.1265 56.9158H33.4467L33.8435 55.8887H35.3542L35.7377 56.9158H36.0779L34.7741 53.5243H34.4303ZM37.0682 53.5243V56.9158H39.2725V56.5958H37.3718V53.5243H37.0682ZM40.1562 53.5243V56.9158H42.3606V56.5958H40.4666V53.5243H40.1562ZM43.3677 53.5243V56.9158H43.6846V53.5243H43.3677ZM45.939 53.5243L44.5784 56.9158H44.9186L45.3221 55.8887H46.9028L47.2962 56.9158H47.6563L46.3059 53.5243H45.939ZM48.56 53.5243V56.9158H48.867V54.0277H48.8737L50.9378 56.9158H51.2879V53.5243H50.9845V56.4223L48.9303 53.5243H48.56ZM56.5504 53.5243V56.9158H58.9314V56.5958H56.8572V55.3218H58.8183V55.0016H56.8572V53.8443H58.8948V53.5243H56.5504ZM61.6826 53.5243V56.9158H61.973V53.9846H61.9797L63.1935 56.9158H63.4536L64.6744 53.9846H64.6843V56.9158H64.961V53.5243H64.5608L63.3336 56.4757L62.1029 53.5243H61.6826ZM66.2448 53.5243V56.9158H68.626V56.5958H66.5518V55.3218H68.516V55.0016H66.5518V53.8443H68.5894V53.5243H66.2448ZM69.8198 53.5243V56.9158H70.1066V53.9846L71.3274 56.9158H71.5874L72.808 53.9846H72.8179V56.9158H73.0979V53.5243H72.6944L71.4674 56.4757L70.2367 53.5243H69.8198ZM74.5453 53.5243V56.9158H76.166C76.2221 56.9158 76.276 56.9144 76.3327 56.9057C76.7308 56.8465 77.1231 56.5736 77.1231 55.952C77.1231 55.8979 77.115 55.8425 77.1132 55.792C77.106 55.7413 77.1016 55.6883 77.0865 55.6418C77.0733 55.5956 77.0535 55.5566 77.0331 55.5151C76.9314 55.3079 76.749 55.1612 76.5096 55.1183V55.1084C76.8565 55.0126 77.0033 54.7106 77.0033 54.3814C77.0033 53.8993 76.7757 53.5241 76.2028 53.5241H74.5453V53.5243ZM78.297 53.5243V56.9158H80.5915V56.5958H78.5838V55.3218H80.4847V55.0016H78.584V53.8443H80.5581V53.5243H78.297ZM81.7921 53.5243V56.9158H82.1022V55.4186H83.2893C83.8003 55.4186 84.002 55.6201 84.0097 56.2188C84.0164 56.4988 84.0272 56.7107 84.0563 56.8292C84.066 56.8687 84.083 56.8978 84.0963 56.9158H84.4232C84.4062 56.8965 84.3887 56.8622 84.3766 56.8092C84.34 56.6499 84.3277 56.3682 84.3198 56.2089C84.3131 56.0698 84.3102 55.9538 84.2931 55.8454C84.2846 55.7911 84.2659 55.7419 84.2532 55.6953C84.2269 55.6021 84.1944 55.5249 84.1432 55.4619C84.1159 55.4291 84.0844 55.4 84.0496 55.3752C83.9744 55.3207 83.8876 55.2841 83.796 55.2684V55.2583C84.1791 55.1609 84.3665 54.8064 84.3665 54.4446C84.3665 53.729 83.9154 53.5243 83.4128 53.5243H81.7921ZM28.6245 53.8443H29.935C30.2139 53.8443 30.5319 53.9415 30.5319 54.4446C30.5319 54.9646 30.2384 55.1084 29.9049 55.1084H28.6245V53.8443ZM74.8386 53.8443H76.1494C76.4811 53.8443 76.7097 53.9761 76.7097 54.3915C76.7097 54.847 76.444 55.0018 76.0361 55.0018H74.8389L74.8386 53.8443ZM82.1022 53.8443H83.4294C83.7137 53.8443 84.0397 53.9415 84.0397 54.4446C84.0397 54.9646 83.7386 55.1084 83.4026 55.1084H82.1022V53.8443ZM14.2012 53.8778L14.8316 55.5685H13.5542L14.2012 53.8778ZM25.9565 53.8778L26.6068 55.5685H25.2862L25.9565 53.8778ZM34.6038 53.8778L35.2276 55.5685H33.9602L34.6038 53.8778ZM46.1158 53.8778L46.7794 55.5685H45.4455L46.1158 53.8778ZM74.8389 55.3218H76.1862C76.5385 55.3218 76.7997 55.4612 76.7997 55.952C76.7997 56.4201 76.5051 56.5958 76.1128 56.5958H74.8389V55.3218Z" fill="black"/>
<path d="M91.9153 53.7673C91.9086 53.7608 92.539 52.4691 91.2617 50.7969L90.5231 51.7739L89.4384 52.7892L90.5756 53.3771L91.5159 53.6235L91.7728 53.7813C91.7728 53.7813 91.9061 53.7602 91.9153 53.7673Z" fill="#89898A"/>
<path d="M89.3584 52.7682C89.3584 52.7682 90.725 53.8233 91.9404 53.7596L91.0069 52.4277L89.3584 52.7682Z" fill="#3F3F3F"/>
<path d="M91.2969 50.7754C91.2969 50.7754 89.6931 51.8463 89.3751 52.7654L91.0151 52.4266L91.2969 50.7754Z" fill="#D5D5D4"/>
<path d="M95.5267 54.1065C95.52 54.1045 95.0029 52.7648 92.9083 52.5586L93.1199 53.7657V55.2512L94.3255 54.8208L95.1468 54.3018L95.4372 54.221C95.4372 54.221 95.5128 54.1086 95.524 54.1065" fill="#89898A"/>
<path d="M93.0516 55.2983C93.0516 55.2983 94.7559 55.0189 95.5384 54.086L93.9274 53.8594L93.0516 55.298" fill="#3F3F3F"/>
<path d="M92.9172 52.5195C92.9172 52.5195 92.6057 54.4218 93.0617 55.282L93.9324 53.8507L92.9172 52.5195Z" fill="#D5D5D4"/>
<path d="M93.6802 58.8184C93.6802 58.8116 94.7446 57.8492 94.1869 55.8203L93.1356 56.4498L91.7499 56.9845L92.5844 57.9562L93.3631 58.5365L93.5422 58.7782C93.5422 58.7782 93.6744 58.8092 93.6802 58.8186" fill="#89898A"/>
<path d="M91.6831 56.9336C91.6831 56.9336 92.5542 58.4243 93.7055 58.8213L93.3394 57.2359L91.6831 56.9336Z" fill="#3F3F3F"/>
<path d="M94.2266 55.8125C94.2266 55.8125 92.3391 56.2041 91.6998 56.9372L93.3469 57.237L94.2266 55.8125Z" fill="#D5D5D4"/>
<path d="M91.6152 58.0615C91.6085 58.0581 91.5569 56.6226 89.644 55.7461L89.451 56.9556L88.9699 58.3611L90.2499 58.3461L91.1953 58.1232L91.4963 58.1412C91.4963 58.1412 91.6047 58.0595 91.6152 58.0615Z" fill="#89898A"/>
<path d="M88.8882 58.3794C88.8882 58.3794 90.5901 58.6697 91.634 58.043L90.1839 57.3047L88.8882 58.3796" fill="#3F3F3F"/>
<path d="M89.6649 55.7113C89.6649 55.7113 88.7509 57.4085 88.9019 58.3705L90.1904 57.3008L89.6649 55.7113ZM90.2064 54.1129C90.1997 54.1147 89.1144 53.1746 87.1682 53.9755L87.9213 54.9421L88.621 56.2521L89.4836 55.306L89.9645 54.4616L90.1833 54.254C90.1833 54.254 90.1979 54.1201 90.2064 54.1127" fill="#D5D5D4"/>
<path d="M88.5799 56.3239C88.5799 56.3239 89.9528 55.2773 90.206 54.0859L88.6771 54.6431L88.5797 56.3239" fill="#3F3F3F"/>
<path d="M87.1567 53.9355C87.1567 53.9355 87.7752 55.7615 88.5806 56.3075L88.6778 54.6352L87.1567 53.9355Z" fill="#8E9192"/>
<defs>
<filter id="filter0_f_2015_126" x="15.3725" y="-3.77059" width="72.1748" height="55.631" filterUnits="userSpaceOnUse" color-interpolation-filters="sRGB">
<feFlood flood-opacity="0" result="BackgroundImageFix"/>
<feBlend mode="normal" in="SourceGraphic" in2="BackgroundImageFix" result="shape"/>
<feGaussianBlur stdDeviation="7.83061" result="effect1_foregroundBlur_2015_126"/>
</filter>
<linearGradient id="paint0_linear_2015_126" x1="38.0778" y1="19.8151" x2="44.3527" y2="14.604" gradientUnits="userSpaceOnUse">
<stop stop-color="#820008"/>
<stop offset="0.346" stop-color="#C70D12"/>
<stop offset="0.451" stop-color="#E26A48"/>
<stop offset="0.575" stop-color="#EB9B7B"/>
<stop offset="0.746" stop-color="#E26B49"/>
<stop offset="0.839" stop-color="#CC221B"/>
<stop offset="1" stop-color="#940109"/>
</linearGradient>
<linearGradient id="paint1_linear_2015_126" x1="43.5098" y1="34.6367" x2="60.2933" y2="18.8405" gradientUnits="userSpaceOnUse">
<stop stop-color="#0B1838"/>
<stop offset="0.208" stop-color="#032F70"/>
<stop offset="0.355" stop-color="#585E97"/>
<stop offset="0.451" stop-color="#8182B2"/>
<stop offset="0.512" stop-color="#585E98"/>
<stop offset="0.618" stop-color="#032F70"/>
<stop offset="1" stop-color="#061C41"/>
</linearGradient>
<linearGradient id="paint2_linear_2015_126" x1="43.4154" y1="34.4004" x2="54.8274" y2="24.2517" gradientUnits="userSpaceOnUse">
<stop stop-color="#084C11"/>
<stop offset="0.391" stop-color="#027516"/>
<stop offset="0.6" stop-color="#64A378"/>
<stop offset="0.674" stop-color="#88B797"/>
<stop offset="0.753" stop-color="#64A279"/>
<stop offset="0.849" stop-color="#138437"/>
<stop offset="1" stop-color="#084C11"/>
</linearGradient>
<linearGradient id="paint3_linear_2015_126" x1="40.1853" y1="21.3857" x2="44.9293" y2="32.7847" gradientUnits="userSpaceOnUse">
<stop stop-color="#90600C"/>
<stop offset="0.076" stop-color="#C6891C"/>
<stop offset="0.263" stop-color="#F2C876"/>
<stop offset="0.496" stop-color="#FBF1D6"/>
<stop offset="0.692" stop-color="#FBF1D6"/>
<stop offset="0.845" stop-color="#F2C876"/>
<stop offset="0.947" stop-color="#C6891C"/>
<stop offset="1" stop-color="#90600C"/>
</linearGradient>
<linearGradient id="paint4_linear_2015_126" x1="40.9319" y1="16.1668" x2="41.5337" y2="18.7722" gradientUnits="userSpaceOnUse">
<stop stop-color="#FDE2A0"/>
<stop offset="1" stop-color="#CC770D"/>
</linearGradient>
<linearGradient id="paint5_linear_2015_126" x1="45.0577" y1="28.3289" x2="47.2674" y2="26.7015" gradientUnits="userSpaceOnUse">
<stop stop-color="#000002"/>
<stop offset="1" stop-color="#5A5A5A"/>
</linearGradient>
</defs>
</svg>
