<svg width="108" height="72" viewBox="0 0 108 72" fill="none" xmlns="http://www.w3.org/2000/svg">
<path d="M17.2583 36.1428C17.8043 34.0916 17.1815 31.9421 15.6921 30.803C13.6632 32.0874 12.4932 34.5024 12.9158 37.0184C13.0551 37.8502 13.3567 38.6146 13.7813 39.2844C15.3677 38.8428 16.7626 38.0065 17.2582 36.1428M19.9968 42.0624C23.3455 41.5001 25.6034 38.3297 25.0407 34.9822C24.5727 32.1958 22.301 30.1652 19.6221 29.8847C19.0814 29.8279 18.5228 29.8433 17.9593 29.9375C17.3103 30.0462 16.683 30.2589 16.1017 30.5675C19.053 31.5686 20.6398 33.0901 20.7498 34.6493C20.8038 35.6119 20.3565 36.3081 19.7686 36.8756L23.9418 36.5841C24.0599 36.576 24.0969 36.7136 23.954 36.7546L14.0001 39.6084C15.0133 41.0041 16.5868 41.9325 18.3344 42.1152C18.8884 42.1732 19.4476 42.1554 19.9968 42.0624M19.6607 29.5181C22.9387 29.8596 25.4954 32.6297 25.4966 35.9979C25.4978 39.5971 22.5807 42.5163 18.9811 42.5175C15.3816 42.5187 12.4628 39.6019 12.4615 36.0024C12.4603 32.4029 15.3771 29.4837 18.9767 29.4824C19.2072 29.4824 19.4357 29.495 19.6607 29.5181Z" fill="white"/>
<path d="M12.9157 37.0189C13.055 37.8503 13.3566 38.6147 13.7812 39.2845C15.3677 38.8428 16.7625 38.0066 17.2586 36.1429C17.8042 34.0916 17.1815 31.9421 15.6916 30.803C13.6631 32.0874 12.4932 34.5028 12.9157 37.0189ZM25.0406 34.9818C25.6033 38.3297 23.3454 41.5002 19.9967 42.0624C19.4474 42.1554 18.888 42.1732 18.334 42.1152C16.5871 41.9325 15.0128 41.0041 14 39.6084L23.9539 36.7546C24.0968 36.7132 24.0599 36.576 23.9418 36.5841L19.7686 36.8756C20.3564 36.3081 20.8038 35.6119 20.7498 34.6493C20.6397 33.0901 19.0529 31.5686 16.1016 30.5675C16.6829 30.2589 17.3102 30.0462 17.9593 29.9375C18.5227 29.8433 19.0813 29.8279 19.622 29.8847C22.3009 30.1652 24.5726 32.1958 25.0406 34.9818Z" fill="#C70A0C"/>
<path d="M59.2538 38.5567V36.4137H57.105V38.5567H55.9258V33.4522H57.1051V35.4856H59.2538V33.4522H60.442V38.5567H59.2538ZM33.8356 33.4522V36.6479C33.8356 37.0011 33.8875 37.3067 33.9903 37.5552C34.0922 37.8016 34.2399 38.0066 34.4295 38.1641C34.6207 38.3233 34.8517 38.4405 35.1152 38.5128C35.3831 38.5867 35.6855 38.6244 36.0139 38.6244C36.3419 38.6244 36.6415 38.5867 36.9038 38.5128C37.1619 38.4405 37.382 38.3236 37.5586 38.1657C37.7347 38.0082 37.8732 37.8032 37.9698 37.5564C38.0672 37.3088 38.116 37.0031 38.116 36.6479V33.4522H37.0126V36.6137C37.0126 36.9357 36.9326 37.1959 36.7751 37.3867C36.6139 37.5811 36.3578 37.6798 36.014 37.6798C35.6758 37.6798 35.4216 37.5815 35.2577 37.3875C35.0969 37.1971 35.0153 36.9369 35.0153 36.6138V33.4522H33.8356ZM30.4337 38.5574V34.4054H29.047V33.4523H33.0083V33.9094C33.0083 34.183 32.7862 34.4054 32.5126 34.4054H31.6134V38.5575L30.4337 38.5574ZM49.3904 33.4518H50.5701V38.5563H49.3904V33.4518ZM45.462 36.1762L45.5018 36.2269L47.0087 38.1686C47.2003 38.4158 47.4897 38.5579 47.8027 38.5579H48.7421L46.5833 35.812L46.5516 35.7714L46.5833 35.7312L48.3581 33.4502H47.1305L45.503 35.6504L45.462 35.7036L45.4616 35.6115V33.4502H44.2819V38.555H45.4616V36.2671L45.462 36.1762ZM40.3852 35.7885H41.0729C41.3205 35.7885 41.5093 35.7203 41.6335 35.5867C41.7565 35.4544 41.819 35.2823 41.819 35.0756C41.819 34.8637 41.7581 34.6896 41.6384 34.5572C41.5166 34.4224 41.3266 34.3546 41.0729 34.3546H40.3852V35.7885ZM42.7442 38.5558C42.3947 38.5558 42.0654 38.3703 41.8848 38.0715L40.9669 36.5561H40.3852V38.5558H39.2063V33.4522H41.3084C41.8483 33.4522 42.2713 33.5931 42.5652 33.8712C42.8583 34.1484 43.0068 34.5284 43.0068 35.0001C43.0068 35.2396 42.9431 35.4824 42.8173 35.7215C42.6931 35.9565 42.473 36.149 42.1625 36.2931L42.0942 36.3248L43.5264 38.5558H42.7442ZM51.5383 38.3399V37.3611C51.9138 37.5341 52.3977 37.7066 52.8978 37.7066C53.4734 37.7066 53.7653 37.5093 53.7653 37.131C53.7653 36.6869 53.3736 36.6377 52.5893 36.3004C52.0555 36.0621 51.5468 35.6919 51.5468 34.8369C51.5468 33.842 52.306 33.373 53.3569 33.373C53.9155 33.373 54.3913 33.5046 54.658 33.6033V34.5572C54.3913 34.4338 53.9156 34.2856 53.4402 34.2856C52.923 34.2856 52.6811 34.4748 52.6811 34.8036C52.6811 35.1491 52.9733 35.2563 53.4986 35.4536C54.1741 35.7905 54.9584 35.9387 54.9584 37.09C54.9584 38.0849 54.166 38.6277 53.1065 38.6277C52.4557 38.6277 51.9389 38.5124 51.5383 38.3399ZM87.9748 38.5563V33.4514H91.1712V33.9146C91.1712 34.1849 90.9512 34.4045 90.6813 34.4045H89.1545V35.5027H90.8688V36.3547H89.1545V37.6034H91.1712V38.5562L87.9748 38.5563ZM76.3126 38.5558V33.4515H76.8858C77.2199 33.4515 77.4919 33.7235 77.4919 34.0576V37.6364H79.3747V38.5559L76.3126 38.5558ZM69.0108 38.555V33.4538H70.1905L70.1901 38.555H69.0108ZM72.4512 35.7877H73.1389C73.3865 35.7877 73.5749 35.7199 73.6995 35.5863C73.8225 35.4536 73.885 35.2818 73.885 35.0748C73.885 34.8633 73.8241 34.6887 73.704 34.5564C73.5826 34.422 73.3922 34.3539 73.1389 34.3539H72.4513L72.4512 35.7877ZM74.8102 38.555C74.4607 38.555 74.1311 38.3695 73.9504 38.0711L73.033 36.5557H72.4512V38.555H71.2723V33.4518H73.374C73.9143 33.4518 74.3369 33.5927 74.6312 33.8708C74.9243 34.148 75.0728 34.528 75.0728 34.9997C75.0728 35.2392 75.0091 35.482 74.8829 35.7211C74.759 35.9557 74.5386 36.1481 74.2285 36.2927L74.1603 36.3243L75.5925 38.5551L74.8102 38.555ZM64.9566 36.6962L65.4198 35.4061C65.5225 35.1158 65.6256 34.8093 65.6942 34.5836H65.7112C65.7713 34.8174 65.8744 35.1077 65.9771 35.4061L66.4232 36.6962H64.9566ZM66.4139 33.451H65.0593L63.1342 38.5558H63.9839C64.1999 38.5558 64.3903 38.4182 64.4576 38.2136L64.6553 37.6144H66.7257L67.0285 38.5558H68.3064L66.4139 33.451ZM92.1187 38.3399V37.3616C92.4938 37.5341 92.9777 37.7066 93.4782 37.7066C94.0539 37.7066 94.3458 37.5093 94.3458 37.131C94.3458 36.6869 93.9536 36.6377 93.1697 36.3008C92.6359 36.0621 92.1268 35.6923 92.1268 34.8369C92.1268 33.842 92.8859 33.373 93.937 33.373C94.4959 33.373 94.9713 33.5046 95.2384 33.6033V34.5572C94.9713 34.4342 94.4959 34.2861 94.0206 34.2861C93.5034 34.2861 93.2614 34.4752 93.2614 34.804C93.2614 35.1491 93.5533 35.2563 94.0786 35.4536C94.7545 35.7905 95.5384 35.9387 95.5384 37.09C95.5384 38.0849 94.746 38.6277 93.6869 38.6277C93.0361 38.6277 92.519 38.5124 92.1187 38.3399ZM82.3934 33.4522H83.1245C83.4716 33.4522 83.7943 33.6313 83.9778 33.926L85.4015 36.2131C85.5622 36.4672 85.7485 36.8029 85.859 37.0405H85.8841C85.8671 36.8111 85.859 36.4916 85.859 36.2622V33.4523H86.8925V38.5563H85.5992L83.8677 35.795C83.7066 35.5413 83.5373 35.2381 83.4184 35.0087H83.4017C83.4102 35.23 83.4269 35.4922 83.4269 35.7378V38.5563H82.3934V33.4522ZM80.1338 38.555V33.4538H81.3131V38.555H80.1338Z" fill="black"/>
</svg>
