<svg width="108" height="72" viewBox="0 0 108 72" fill="none" xmlns="http://www.w3.org/2000/svg">
<mask id="mask0_2015_193" style="mask-type:luminance" maskUnits="userSpaceOnUse" x="4" y="20" width="98" height="32">
<path d="M4.51672 20.9599H101.729V51.041H4.51672V20.9599Z" fill="white"/>
</mask>
<g mask="url(#mask0_2015_193)">
<path d="M94.9156 42.276C94.5681 42.276 94.2935 42.5517 94.2935 42.897C94.2935 43.2424 94.5681 43.5176 94.9156 43.5176C95.2622 43.5176 95.5376 43.2424 95.5376 42.897C95.538 42.8152 95.5221 42.7342 95.491 42.6586C95.4599 42.583 95.4141 42.5144 95.3562 42.4566C95.2984 42.3988 95.2297 42.3531 95.1541 42.3221C95.0784 42.2911 94.9974 42.2754 94.9156 42.2759M94.9156 43.4226C94.631 43.4226 94.3878 43.19 94.3878 42.897C94.3878 42.6035 94.631 42.3722 94.9156 42.3722C95.1996 42.3722 95.4418 42.6035 95.4418 42.897C95.4418 43.1899 95.1996 43.4226 94.9156 43.4226Z" fill="#0033A0"/>
<path d="M95.2201 42.7337C95.2201 42.5875 95.1017 42.5542 94.9782 42.5542H94.6833V43.2334H94.7785V42.9198H94.8938L95.0962 43.2334H95.2108L95.0063 42.9198C95.127 42.9162 95.2201 42.868 95.2201 42.7338M94.8938 42.8253H94.7785V42.6503H94.9594C95.0334 42.6503 95.1249 42.6626 95.1249 42.7321C95.1249 42.8403 94.9763 42.8254 94.8938 42.8254M90.931 43.5273C91.0561 43.1873 91.1631 42.8409 91.2517 42.4896C91.4284 41.7558 91.5174 41.0037 91.517 40.2489C91.517 39.8074 91.4864 39.3707 91.4275 38.9408C91.3841 39.5672 91.2749 40.116 91.2749 40.116C91.3006 40.1988 91.3461 40.3346 91.3673 40.4185L91.3672 40.4188C91.3009 41.0542 91.1802 41.6827 91.0065 42.2975C90.9242 41.9941 90.8138 41.702 90.8066 41.6832L90.8063 41.6821C90.5847 42.2727 90.2534 42.9681 89.9526 43.5273H90.931Z" fill="#0033A0"/>
<path d="M88.8796 43.5273H89.4452C91.0554 41.1489 91.1364 39.0409 91.1364 38.637C91.1364 37.8741 91.0082 37.173 90.7939 36.618C90.7939 36.618 90.4597 35.7553 89.9395 34.9876C89.9963 35.1592 90.1054 35.507 90.1657 35.8176C90.1697 35.8383 90.173 35.8566 90.1758 35.8735C90.2783 36.0444 90.7406 36.8595 90.8024 37.7558L90.8026 37.7585C90.8026 37.7585 90.476 37.301 90.2338 37.0119C90.2251 37.5045 90.1611 37.9975 90.058 38.4737C90.058 38.4737 90.5419 39.0342 90.7584 39.3956C90.7584 39.3956 90.6112 40.184 90.2955 40.9394C89.9743 40.4723 89.5641 40.0186 89.5641 40.0186C89.3241 40.612 89.0201 41.209 88.6826 41.7612C88.6826 41.7612 89.2958 42.4787 89.4303 42.6833C89.2502 42.9865 89.0746 43.2504 88.8796 43.5273Z" fill="#0033A0"/>
<path d="M86.8641 43.5273C87.9327 42.3322 88.8433 40.9264 89.3902 39.421C89.8648 38.1151 90.1231 36.5202 89.703 35.1015C89.6745 35.006 89.6422 34.9116 89.6063 34.8186C89.472 34.4716 89.2978 34.1691 89.1081 33.9313C88.5966 33.3592 88.0179 32.8511 87.3844 32.4179C87.4762 32.5356 87.5605 32.6589 87.6365 32.7873C87.6365 32.7873 88.4086 33.3601 88.8568 33.942C88.2818 33.5324 87.9563 33.3666 87.9141 33.3456C87.9125 33.3448 87.9107 33.3441 87.9092 33.3433C88.1276 33.8816 88.1934 34.3275 88.1934 34.3282C88.1934 34.3282 88.8757 34.6842 89.4899 35.2161C89.575 35.6094 89.6101 36.0123 89.6044 36.4157C88.9853 35.8711 88.2689 35.4458 88.2689 35.4458C88.2557 35.907 88.192 36.3741 88.0905 36.8281C88.0905 36.8281 88.767 37.2565 89.4264 37.8571C89.4264 37.8571 89.2371 38.7081 88.9316 39.3773C88.2991 38.7885 87.6823 38.3302 87.6337 38.2944C87.6337 38.2944 87.3197 39.1133 86.8111 39.9351C87.4444 40.4859 88.0396 41.0571 88.0396 41.0571C87.676 41.6244 87.2645 42.1645 86.8207 42.6695L86.8205 42.6699L85.6877 41.5419C85.2271 42.1111 84.7255 42.6459 84.187 43.1419C84.2124 43.1706 84.4407 43.4237 84.5342 43.5273H86.8641Z" fill="#0033A0"/>
<path d="M87.1551 32.5439C87.0818 32.4437 86.9989 32.3415 86.9037 32.2506C86.8204 32.1711 86.7391 32.0993 86.6535 32.0348C85.7108 31.324 83.9762 30.9688 83.9762 30.9688C84.08 31.0243 84.1815 31.0841 84.2803 31.1481C84.2886 31.1502 84.9881 31.3255 85.6084 31.6289C85.6084 31.6289 85.0441 31.5007 84.6822 31.4508C84.8339 31.5849 84.9733 31.7324 85.0985 31.8916C85.0985 31.8916 86.2495 32.1016 86.7549 32.3787C86.7549 32.3787 86.9968 32.6275 87.1946 33.0641C86.4056 32.7439 85.5123 32.5769 85.5123 32.5769C85.6309 32.8426 85.7158 33.1272 85.7678 33.4233C85.7678 33.4233 86.75 33.6636 87.4881 34.018C87.5519 34.3685 87.5752 34.7308 87.5618 35.0973C86.69 34.6602 85.8248 34.3857 85.8248 34.3857C85.8072 34.7636 85.7466 35.1552 85.6446 35.5552C85.6446 35.5552 86.8347 36.0866 87.3695 36.4094C87.2514 36.8818 87.0856 37.3446 86.8863 37.7902C86.0718 37.2609 85.2096 36.7903 85.2096 36.7903C84.9931 37.3104 84.4603 38.1622 84.4603 38.1622L84.4609 38.1625C84.4743 38.1718 85.3609 38.7804 86.041 39.3205C85.7031 39.8325 85.3222 40.3242 84.9076 40.7917C84.7645 40.655 83.4575 39.4947 83.4575 39.4947C83.063 39.9521 82.6237 40.3977 82.1429 40.8242C82.1429 40.8242 82.1429 40.8244 82.1431 40.8245L83.403 42.2504C83.4032 42.2504 83.4033 42.2504 83.4034 42.2506L83.4033 42.2508C82.586 42.9236 81.7713 43.4336 81.7713 43.4336L80.7199 41.941C80.7199 41.941 79.9802 42.504 78.7316 43.0948V43.5273H82.8319C87.4086 40.0646 89.0327 35.1131 87.1551 32.5439Z" fill="#0033A0"/>
<path d="M84.8336 32.0231C83.6968 30.4931 81.9176 30.7117 81.387 30.7859C80.8042 30.8676 80.3636 30.9952 80.3636 30.9952C80.4939 31.0074 80.6711 31.0307 80.799 31.0561C80.8934 31.0339 81.7114 30.8474 82.306 30.9253L82.3077 30.9254C81.8708 30.9728 81.2747 31.153 81.2125 31.1721C81.2118 31.1723 81.2116 31.1726 81.211 31.1729L81.2128 31.1736C81.2343 31.1799 81.4061 31.2321 81.6265 31.3614C81.6909 31.3441 82.5004 31.1294 83.2723 31.1142V31.1144C83.2723 31.1144 83.5575 31.2409 83.8323 31.4296C82.8349 31.4258 82.0092 31.6173 81.9869 31.6225C82.1139 31.7348 82.2271 31.8617 82.3242 32.0006C83.4176 31.8369 84.361 31.9078 84.361 31.9078C84.361 31.9078 84.4893 32.0643 84.5469 32.1484C84.6198 32.2543 84.6943 32.3859 84.752 32.5016C83.6361 32.3711 82.5687 32.4644 82.568 32.4644C82.6417 32.6544 82.6915 32.8577 82.7187 33.0714C82.8421 33.0704 83.7872 33.0722 84.991 33.2889C85.0295 33.5649 85.0334 33.8605 85.0031 34.1726C84.7984 34.1193 83.8101 33.8725 82.7317 33.7654C82.71 34.0349 82.6587 34.3155 82.5798 34.6032C82.7005 34.6317 84.0329 34.9493 84.7792 35.2516C84.7646 35.2988 84.7495 35.3459 84.7339 35.3928C84.6271 35.7132 84.4935 36.035 84.3355 36.3557C83.7346 36.0598 82.261 35.4838 82.261 35.4838C82.1137 35.8133 81.9335 36.147 81.723 36.48C81.723 36.48 82.9864 37.201 83.5949 37.6001C83.3051 38.0127 82.9884 38.4057 82.6468 38.7765C82.2055 38.3806 81.1017 37.5254 81.0184 37.4608C80.6624 37.8847 80.214 38.3304 80.0797 38.4622L81.4043 39.9811C81.3921 39.9921 81.3794 40.0033 81.3664 40.0146C81.0797 40.2522 80.771 40.4758 80.51 40.6551C80.2834 40.809 80.0965 40.9282 80.0319 40.9698C80.0165 40.9465 79.1492 39.5617 79.0189 39.3414C78.9243 39.4111 78.8285 39.4793 78.7316 39.5459V42.3926C78.8874 42.3174 79.0436 42.2396 79.1993 42.1569C79.9461 41.7892 80.6709 41.3225 81.3454 40.7834C81.8161 40.4098 82.2615 40.0053 82.6786 39.5726C83.2104 39.0271 83.6723 38.4557 84.0578 37.8767C85.5188 35.7203 85.9101 33.4719 84.8336 32.0231Z" fill="#0033A0"/>
<path d="M81.8849 31.9081C81.3435 31.2868 80.4426 31.0741 79.3957 31.2237C79.3672 31.2279 79.3376 31.232 79.3109 31.2364C79.2298 31.2504 79.149 31.2663 79.0687 31.2842C78.907 31.3218 78.7963 31.3587 78.7316 31.3838V31.6971C78.8341 31.616 78.9398 31.5388 79.0483 31.4658C79.2569 31.4212 79.4596 31.3928 79.655 31.38C79.3527 31.5525 79.0037 31.7866 78.7317 32.0027V32.2439L78.741 32.2495C78.741 32.2495 79.5083 31.6421 80.1179 31.3803C80.2599 31.3902 80.4009 31.4109 80.5397 31.4423C79.6288 31.8287 78.9562 32.308 78.9097 32.3416C78.976 32.3819 79.0394 32.4267 79.0996 32.4756C79.1113 32.4682 79.9945 31.9158 80.9665 31.5848C81.0983 31.645 81.2258 31.7201 81.3359 31.805C80.2777 32.1024 79.2603 32.6335 79.2603 32.6335C79.3178 32.7004 79.3685 32.7727 79.4119 32.8495L79.4299 32.8423C80.5131 32.3787 81.6641 32.141 81.6641 32.141C81.7563 32.2678 81.8306 32.4067 81.885 32.5537C81.885 32.5537 80.852 32.6719 79.5232 33.0981C79.5819 33.2817 79.598 33.4197 79.598 33.4209C79.598 33.4209 80.8507 33.1407 82.006 33.1097C82.0221 33.2952 82.0163 33.5036 81.9897 33.7172C81.3055 33.6812 79.6758 33.768 79.6118 33.773C79.6118 33.773 79.6059 34.0077 79.5449 34.2286C79.5449 34.2286 80.7356 34.2669 81.8188 34.4689C81.7332 34.7318 81.6271 34.9876 81.5014 35.2338C80.7795 35.017 79.684 34.7537 79.3957 34.6875C79.3173 34.8793 79.2222 35.0639 79.1115 35.2392C79.1115 35.2392 80.4501 35.8233 80.9637 36.109H80.9649L80.9646 36.1096C80.7417 36.4434 80.2997 36.9107 80.2997 36.9107C80.1789 36.8203 80.0576 36.7306 79.9359 36.6414C79.581 36.393 79.0543 36.0243 78.7342 35.8014L78.7316 35.7996V36.9065L79.4257 37.7175C79.2032 37.8969 78.9715 38.0648 78.7317 38.2204V38.8809L78.7571 38.8642C79.0829 38.6422 79.3953 38.4011 79.6927 38.1422C82.0879 36.0581 83.0693 33.267 81.8849 31.9082" fill="#0033A0"/>
<path d="M78.7315 35.0813C79.3433 34.2101 79.4319 33.2103 78.8946 32.7222C78.8441 32.6763 78.7893 32.6371 78.7315 32.6031V35.0813ZM82.0722 30.3978C87.5003 30.3978 91.9165 34.8306 91.9165 40.2793C91.9165 41.3844 91.7296 42.4839 91.3681 43.5273H93.7845V28.474H78.7312V30.9847L78.743 30.9805C79.8103 30.594 80.937 30.3968 82.0722 30.3977M72.4327 33.2736C72.0652 32.9464 71.5961 32.6925 71.0251 32.5122C70.4539 32.332 69.7679 32.2418 68.9663 32.2418H64.9086V39.7557H68.9663C70.4088 39.7557 71.5261 39.4435 72.3174 38.8189C73.109 38.1946 73.5048 37.2546 73.5048 35.9988C73.5048 35.4378 73.4179 34.9251 73.2441 34.4609C73.0704 33.9966 72.7999 33.6009 72.4327 33.2736ZM71.0752 36.9405C70.9915 37.1944 70.8564 37.398 70.6693 37.5515C70.4823 37.7055 70.24 37.8156 69.9429 37.8822C69.6458 37.9491 69.2867 37.9824 68.8661 37.9824H67.0928V34.015H68.866C69.3 34.015 69.6656 34.052 69.963 34.1252C70.26 34.1989 70.5006 34.3155 70.6842 34.4759C70.8679 34.6362 70.9999 34.8415 71.0802 35.092C71.1603 35.3426 71.2002 35.6448 71.2002 35.9988C71.2002 36.3728 71.1583 36.6866 71.0751 36.9406M56.2826 36.67H60.3902V35.1973H56.2826V33.9551H61.1615L61.1216 32.2416H54.0982V39.7557H61.3219L61.362 38.0625H56.2825L56.2826 36.67ZM43.0079 32.2417L42.948 34.015H45.8232V39.7556H48.0173V34.0149H50.8926L50.8427 32.2417H43.0079ZM37.3976 39.7557H39.6217V32.2417H37.3976V39.7557ZM31.226 35.9786L31.2462 36.7802L31.226 36.8001L30.6548 36.2191L26.5875 32.2417H24.7841V39.7557H26.7677V35.8085L26.7479 34.9969L26.7777 34.9869L27.3489 35.5579L31.777 39.7557H33.2098V32.2418H31.226V35.9786ZM18.7428 36.4797C18.7428 37.0474 18.5825 37.4699 18.262 37.7471C17.9414 38.0243 17.4269 38.1628 16.7191 38.1628C16.0044 38.1628 15.4801 38.0243 15.1461 37.7471C14.812 37.4698 14.6451 37.0474 14.6451 36.4797V32.2418H12.4612V36.4597C12.4612 37.6218 12.8268 38.4884 13.5582 39.0596C14.2896 39.6306 15.3431 39.916 16.7191 39.916C18.1015 39.916 19.1469 39.6322 19.8549 39.0646C20.5628 38.4968 20.917 37.6283 20.917 36.4597V32.2418H18.7428V36.4797Z" fill="#0033A0"/>
</g>
</svg>
