<svg width="222" height="55" viewBox="0 0 222 55" fill="none" xmlns="http://www.w3.org/2000/svg">
<path d="M75.3274 34.9293C75.003 35.0807 74.2244 35.2754 73.2512 35.2754C70.5477 35.2754 69.142 33.7181 69.142 31.6633C69.142 29.3057 70.9803 27.8565 73.4025 27.8565C74.3541 27.8565 75.1111 28.0511 75.4355 28.2242L75.0678 29.5436C74.7002 29.3922 74.1379 29.2408 73.4674 29.2408C72.0184 29.2408 70.937 30.0411 70.937 31.5767C70.937 32.9178 71.8454 33.9127 73.4891 33.9127C74.073 33.9127 74.7002 33.8046 75.0678 33.6315L75.3274 34.9293Z" fill="#19325C"/>
<path d="M80.4764 32.0017L79.9573 30.466C79.8059 30.0551 79.6761 29.5792 79.5464 29.1683H79.5248C79.4166 29.5792 79.3085 30.0551 79.1787 30.466L78.7029 32.0017H80.4764ZM78.4218 33.2346L77.8595 35.138H76.0644L78.465 27.957H80.7359L83.2447 35.138H81.3631L80.7359 33.2346H78.4218Z" fill="#19325C"/>
<path d="M85.95 31.1452H86.7069C87.572 31.1452 88.1127 30.7559 88.1127 30.1502C88.1127 29.4797 87.5937 29.1769 86.8151 29.1769C86.3393 29.1769 86.0798 29.1985 85.95 29.2418V31.1452ZM84.2631 28.0738C84.8037 27.9873 85.6472 27.9224 86.6204 27.9224C87.7883 27.9224 88.5453 28.0954 89.0859 28.5064C89.5185 28.8308 89.778 29.35 89.778 30.0205C89.778 30.9722 89.0427 31.5994 88.4588 31.7725V31.8157C88.9562 32.0104 89.259 32.5078 89.4536 33.1135C89.7131 33.9354 89.9294 34.8871 90.0808 35.1683H88.3506C88.2425 34.952 88.0478 34.4329 87.8099 33.5028C87.5937 32.616 87.2693 32.3781 86.5339 32.3564H85.95V35.1683H84.2631V28.0738Z" fill="#19325C"/>
<path d="M97.6147 34.7823C97.0524 34.977 95.9927 35.2365 94.9113 35.2365C93.4406 35.2365 92.3809 34.8688 91.6672 34.1983C90.9968 33.571 90.6291 32.6842 90.6291 31.6893C90.6291 29.3749 92.4458 27.9258 95.0843 27.9258C96.144 27.9258 96.9443 28.1204 97.3552 28.3151L96.9875 29.6561C96.5333 29.4615 95.971 29.31 95.0411 29.31C93.5488 29.31 92.4242 30.1103 92.4242 31.5595C92.4242 32.9654 93.4406 33.9171 94.9978 33.9171C95.452 33.9171 95.8196 33.8739 95.971 33.7873V32.3598H94.7166V31.062H97.6147V34.7823Z" fill="#19325C"/>
<path d="M100.415 31.5897C100.415 32.9307 101.194 33.9689 102.448 33.9689C103.702 33.9689 104.481 32.9523 104.481 31.568C104.481 30.2703 103.724 29.1672 102.448 29.1672C101.172 29.1672 100.415 30.2486 100.415 31.5897ZM106.276 31.5031C106.276 33.731 104.697 35.2667 102.362 35.2667C100.069 35.2667 98.6201 33.6877 98.6201 31.6329C98.6201 29.4267 100.199 27.8478 102.491 27.8478C104.849 27.8478 106.276 29.4051 106.276 31.5031Z" fill="#19325C"/>
<path d="M112.852 29.6012C112.852 29.9473 113.025 30.2717 113.393 30.6178C113.934 30.2717 114.236 30.0122 114.236 29.6012C114.236 29.2551 113.999 28.9091 113.566 28.9091C113.09 28.8874 112.852 29.2551 112.852 29.6012ZM114.388 33.6892C113.912 33.2566 113.306 32.6293 112.679 31.9372C112.355 32.1535 112.052 32.4563 112.052 32.9321C112.052 33.5378 112.528 34.0569 113.328 34.0569C113.782 34.0569 114.172 33.8838 114.388 33.6892ZM115.729 35.16C115.556 35.0086 115.383 34.8355 115.21 34.6409C114.712 35.0086 114.042 35.2897 113.112 35.2897C111.209 35.2897 110.43 34.2083 110.43 33.2566C110.43 32.2833 111.014 31.5911 111.879 31.1585V31.1153C111.598 30.8341 111.317 30.315 111.317 29.7959C111.317 28.9091 112.052 27.8709 113.588 27.8709C114.756 27.8709 115.642 28.5197 115.642 29.5796C115.642 30.3366 115.145 30.9639 114.172 31.3964V31.4397C114.604 31.8939 115.037 32.3698 115.404 32.7158C115.707 32.2616 115.988 31.6127 116.118 30.9422H117.654C117.437 32.067 117.07 32.9754 116.356 33.7324C116.832 34.2515 117.264 34.7274 117.697 35.1816H115.729V35.16Z" fill="#19325C"/>
<path d="M127.77 34.9293C127.445 35.0807 126.667 35.2754 125.693 35.2754C122.99 35.2754 121.584 33.7181 121.584 31.6633C121.584 29.3057 123.423 27.8565 125.845 27.8565C126.796 27.8565 127.553 28.0511 127.878 28.2242L127.51 29.5436C127.143 29.3922 126.58 29.2408 125.91 29.2408C124.461 29.2408 123.379 30.0411 123.379 31.5767C123.379 32.9178 124.288 33.9127 125.931 33.9127C126.515 33.9127 127.143 33.8046 127.51 33.6315L127.77 34.9293Z" fill="#19325C"/>
<path d="M130.656 27.9815V30.7069H133.727V27.9815H135.414V35.1625H133.727V32.156H130.656V35.1625H128.969V27.9815H130.656Z" fill="#19325C"/>
<path d="M140.775 32.0017L140.256 30.466C140.104 30.0551 139.974 29.5792 139.845 29.1683H139.823C139.715 29.5792 139.607 30.0551 139.477 30.466L139.001 32.0017H140.775ZM138.72 33.2346L138.158 35.138H136.363L138.763 27.957H141.034L143.543 35.138H141.661L141.034 33.2346H138.72Z" fill="#19325C"/>
<path d="M146.248 31.1452H147.005C147.87 31.1452 148.411 30.7559 148.411 30.1502C148.411 29.4797 147.892 29.1769 147.113 29.1769C146.638 29.1769 146.378 29.1985 146.248 29.2418V31.1452ZM144.561 28.0738C145.102 27.9873 145.946 27.9224 146.919 27.9224C148.087 27.9224 148.844 28.0954 149.384 28.5064C149.817 28.8308 150.076 29.35 150.076 30.0205C150.076 30.9722 149.341 31.5994 148.757 31.7725V31.8157C149.255 32.0104 149.557 32.5078 149.752 33.1135C150.011 33.9354 150.228 34.8871 150.379 35.1683H148.649C148.541 34.952 148.346 34.4329 148.108 33.5028C147.892 32.616 147.568 32.3781 146.832 32.3564H146.27V35.1683H144.583V28.0738H144.561Z" fill="#19325C"/>
<path d="M152.919 29.3655H150.757V27.9813H156.812V29.3655H154.628V35.1622H152.941V29.3655H152.919Z" fill="#19325C"/>
<path d="M162.367 32.1587H159.404V33.7809H162.713V35.1435H157.696V27.9626H162.54V29.3252H159.404V30.7744H162.389V32.1587H162.367Z" fill="#19325C"/>
<path d="M165.551 31.1452H166.308C167.173 31.1452 167.714 30.7559 167.714 30.1502C167.714 29.4797 167.195 29.1769 166.416 29.1769C165.941 29.1769 165.681 29.1985 165.551 29.2418V31.1452ZM163.864 28.0738C164.405 27.9873 165.249 27.9224 166.222 27.9224C167.39 27.9224 168.147 28.0954 168.687 28.5064C169.12 28.8308 169.379 29.35 169.379 30.0205C169.379 30.9722 168.644 31.5994 168.06 31.7725V31.8157C168.558 32.0104 168.86 32.5078 169.055 33.1135C169.314 33.9354 169.531 34.8871 169.682 35.1683H167.952C167.844 34.952 167.649 34.4329 167.411 33.5028C167.195 32.616 166.871 32.3781 166.135 32.3564H165.551V35.1683H163.864V28.0738Z" fill="#19325C"/>
<path d="M174.119 33.3922C174.595 33.6518 175.33 33.8897 176.131 33.8897C176.909 33.8897 177.32 33.5869 177.32 33.111C177.32 32.7001 176.974 32.4405 176.022 32.1593C174.746 31.7916 173.838 31.186 173.838 29.9964C173.838 28.7419 174.963 27.8335 176.693 27.8335C177.623 27.8335 178.272 28.0065 178.769 28.2228L178.358 29.5638C178.055 29.434 177.471 29.1961 176.671 29.1961C175.936 29.1961 175.568 29.5205 175.568 29.8666C175.568 30.3208 176.022 30.5155 177.017 30.8399C178.401 31.2725 179.072 31.9214 179.072 33.0245C179.072 34.1925 178.163 35.274 176.001 35.274C175.114 35.274 174.206 35.036 173.752 34.7765L174.119 33.3922Z" fill="black"/>
<path d="M184.931 32.1587H181.968V33.7809H185.277V35.1435H180.259V27.9626H185.104V29.3252H181.968V30.7744H184.953V32.1587H184.931Z" fill="black"/>
<path d="M188.115 31.1452H188.872C189.737 31.1452 190.278 30.7559 190.278 30.1502C190.278 29.4797 189.759 29.1769 188.98 29.1769C188.505 29.1769 188.245 29.1985 188.115 29.2418V31.1452ZM186.428 28.0738C186.969 27.9873 187.812 27.9224 188.786 27.9224C189.954 27.9224 190.71 28.0954 191.251 28.5064C191.684 28.8308 191.943 29.35 191.943 30.0205C191.943 30.9722 191.208 31.5994 190.624 31.7725V31.8157C191.121 32.0104 191.424 32.5078 191.619 33.1135C191.878 33.9354 192.095 34.8871 192.246 35.1683H190.516C190.408 34.952 190.213 34.4329 189.975 33.5028C189.759 32.616 189.434 32.3781 188.699 32.3564H188.137V35.1683H186.45V28.0738H186.428Z" fill="black"/>
<path d="M195.03 35.1472L192.5 27.9662H194.36L195.355 30.9727C195.658 31.8595 195.895 32.6382 196.09 33.5466H196.112C196.328 32.6814 196.587 31.8379 196.869 31.016L197.928 27.9446H199.723L197.063 35.1256H195.03V35.1472Z" fill="black"/>
<path d="M202.215 35.1595H200.528V27.9786H202.215V35.1595Z" fill="black"/>
<path d="M209.57 34.9293C209.246 35.0807 208.467 35.2754 207.494 35.2754C204.791 35.2754 203.385 33.7181 203.385 31.6633C203.385 29.3057 205.223 27.8565 207.646 27.8565C208.597 27.8565 209.354 28.0511 209.678 28.2242L209.311 29.5436C208.943 29.3922 208.381 29.2408 207.71 29.2408C206.261 29.2408 205.18 30.0411 205.18 31.5767C205.18 32.9178 206.088 33.9127 207.732 33.9127C208.316 33.9127 208.943 33.8046 209.311 33.6315L209.57 34.9293Z" fill="black"/>
<path d="M215.401 32.1587H212.416V33.7809H215.725V35.1435H210.729V27.9626H215.574V29.3252H212.416V30.7744H215.401V32.1587Z" fill="black"/>
<path d="M217.029 33.3922C217.505 33.6518 218.241 33.8897 219.041 33.8897C219.819 33.8897 220.23 33.5869 220.23 33.111C220.23 32.7001 219.884 32.4405 218.933 32.1593C217.657 31.7916 216.748 31.186 216.748 29.9964C216.748 28.7419 217.873 27.8335 219.603 27.8335C220.533 27.8335 221.182 28.0065 221.679 28.2228L221.268 29.5638C220.966 29.434 220.382 29.1961 219.581 29.1961C218.846 29.1961 218.478 29.5205 218.478 29.8666C218.478 30.3208 218.933 30.5155 219.928 30.8399C221.312 31.2725 221.982 31.9214 221.982 33.0245C221.982 34.1925 221.074 35.274 218.911 35.274C218.024 35.274 217.116 35.036 216.662 34.7765L217.029 33.3922Z" fill="black"/>
<path d="M73.9005 17.7719H78.1611C78.7017 17.7719 79.6317 17.2312 79.7182 16.6256C79.8696 15.6522 79.4803 15.0466 78.5503 14.7871C78.4422 14.7654 77.7934 14.6357 77.7285 14.6357H73.8789V17.7719H73.9005ZM73.9005 11.2831H77.1013C77.1446 11.2831 77.815 11.1533 77.9232 11.1317C79.4154 10.7424 79.5236 8.94712 78.1827 8.47127C78.0745 8.42801 77.3825 8.25498 77.3176 8.25498H73.9005V11.2831ZM79.1343 4.36168C83.1353 4.72938 85.4711 8.38476 82.7028 11.7157L81.3403 12.689C85.7739 13.9003 85.7955 19.5672 81.5565 21.1677C81.2105 21.2975 79.9777 21.6652 79.675 21.6652H69.1208V4.36168H79.1343Z" fill="#285D80"/>
<path d="M175.571 12.6926H178.88C178.967 12.6926 179.659 12.5412 179.788 12.5196C181.519 12.0221 181.756 9.55633 180.134 8.86419C180.005 8.7993 179.313 8.60464 179.204 8.60464H175.571V12.6926ZM180.156 4.36528C182.968 4.6032 185.779 6.37681 186.06 9.3833C186.32 12.26 185.282 14.4878 182.6 15.6558L186.601 21.6472H181.021L177.604 16.4561H175.549V21.6472H170.705V4.34364H180.156V4.36528Z" fill="#285D80"/>
<path d="M193.309 12.6926H196.618C196.705 12.6926 197.397 12.5412 197.527 12.5196C199.257 12.0005 199.473 9.55633 197.873 8.86419C197.743 8.7993 197.051 8.60464 196.943 8.60464H193.309V12.6926ZM197.894 4.36528C200.814 4.62483 203.517 6.39844 203.799 9.49144C204.058 12.3465 202.955 14.4662 200.338 15.6558L204.339 21.6472H198.759L195.342 16.4561H193.288V21.6472H188.443V4.34364H197.894V4.36528Z" fill="#285D80"/>
<path d="M141.393 17.7719H145.675C145.718 17.7719 146.475 17.5124 146.561 17.4691C147.47 16.9933 147.513 15.5657 146.583 15.025C146.302 14.8519 145.545 14.6357 145.242 14.6357H141.393V17.7719ZM141.393 11.2831H144.593C144.637 11.2831 145.329 11.1533 145.415 11.1317C146.907 10.7207 146.972 8.8606 145.523 8.42801C145.437 8.40638 144.745 8.27661 144.702 8.27661H141.393V11.2831ZM146.626 4.36168C149.719 4.64287 152.293 7.06536 151.082 10.3314C150.649 11.521 149.806 11.9752 148.832 12.689C151.363 13.446 152.444 15.2629 152.033 17.8801C151.709 19.9781 149.07 21.6652 147.059 21.6652H136.635V4.36168H146.626Z" fill="#285D80"/>
<path d="M134.14 4.35688V8.46647H124.949V11.062H133.275V14.8471H124.949V17.5508H134.248V21.6604H120.191V4.35688H134.14Z" fill="#285D80"/>
<path d="M168.216 4.35688V8.46647H159.025V11.062H167.351V14.8471H159.025V17.5508H168.324V21.6604H154.267V4.35688H168.216Z" fill="#285D80"/>
<path d="M106.224 4.35688V14.8904C106.224 15.15 106.592 16.0584 106.743 16.3179C107.868 18.0916 111.069 18.0699 112.02 16.1449C112.107 15.9719 112.388 15.2365 112.388 15.1067V4.35688H117.362V15.5393C117.362 16.664 116.346 18.8486 115.589 19.6921C112.734 22.8933 105.489 22.8068 102.764 19.411C102.115 18.589 101.25 16.5342 101.25 15.5177V4.33526H106.224V4.35688Z" fill="#285D80"/>
<path d="M209.523 4.35688L212.94 10.5213L216.443 4.35688H221.958L215.362 15.2149V21.6388H210.496V15.2149C208.571 11.7325 206.106 8.40158 204.246 4.91924C204.159 4.74621 203.986 4.57318 204.008 4.35688H209.523Z" fill="#285D80"/>
<path d="M91.6388 4.35688V17.4427H99.9653V21.6604H86.7726V4.35688H91.6388Z" fill="#285D80"/>
<path d="M45.7417 8.91132L45.7201 8.86807L45.6985 8.84644L43.6006 7.78659L43.9683 7.4189L46.0878 7.87311C46.8015 6.74838 47.7098 5.77506 48.51 4.80173L44.7685 2.68205L45.5038 1.92502L50.1969 2.94161C51.1485 2.03317 51.9704 1.36266 52.6624 1.21126C52.6624 1.21126 52.8138 1.16799 52.9436 1.16799C52.165 0.454223 51.1053 0 49.959 0H4.43359C1.98971 0 0 1.98991 0 4.43403V27.5343L45.7417 8.91132Z" fill="#285D80"/>
<path d="M53.181 1.59069C53.0945 2.30446 52.4673 3.12638 51.6022 4.12134L52.8133 9.00958L52.078 9.76661L49.7639 5.93821C48.8123 6.78175 47.839 7.73345 46.7144 8.49048L47.2119 10.5669L46.8658 10.9346L45.7628 8.92307L26.8822 54.3665H27.7257H28.5691H29.4126H30.2561H31.0995H31.943H32.7865H33.6299H34.4734H35.3168H36.1603H37.0038H37.8472H38.6907H39.5342H40.3776H41.2211H42.0646H42.908H43.7515H44.595H45.4384H46.2819H47.1253H47.9688H48.8123H49.6557H50.2397C52.6836 54.3665 54.6733 52.3766 54.6733 49.9324V4.40252C54.6733 3.23453 54.2191 2.15306 53.4621 1.35277C53.181 1.43929 53.181 1.52581 53.181 1.59069Z" fill="url(#paint0_linear_458_5319)"/>
<path d="M26.8605 27.5027H0.0210571V54.3665H26.8821V27.5027H26.8605Z" fill="#19325C"/>
<path d="M26.8692 27.501L45.7498 8.89971L26.8692 54.3431V27.501Z" fill="#285D80"/>
<path d="M71.3498 46.6921L71.9121 44.9185C72.0419 44.4859 72.15 43.9885 72.2582 43.5775H72.2798C72.3879 43.9885 72.5177 44.4859 72.6475 44.9402L73.2098 46.7138H71.3498V46.6921ZM71.4796 42.5177L69.1655 49.7203H70.528L71.1335 47.6871H73.426L74.0749 49.7203H75.4806L73.1449 42.5177H71.4796Z" fill="black"/>
<path d="M77.4562 42.5279C77.0021 42.9605 76.8291 43.631 76.8291 44.3015V44.5178H76.1154V45.4911H76.8291V49.7089H78.1483V45.4911H79.2729V44.5178H78.1267V44.2366C78.1267 43.6094 78.343 43.047 78.9918 43.047C79.2297 43.047 79.4027 43.0903 79.5541 43.1335L79.6406 42.1169C79.446 42.052 79.1648 41.9872 78.7971 41.9872C78.343 42.0304 77.8239 42.1602 77.4562 42.5279Z" fill="black"/>
<path d="M81.6062 45.5235H81.563L81.5197 44.5286H80.3735C80.3951 44.9828 80.4167 45.5019 80.4167 46.1941V49.7196H81.736V47.016C81.736 46.8646 81.7576 46.7348 81.7792 46.6266C81.8874 46.021 82.3416 45.6317 82.9471 45.6317C83.0985 45.6317 83.2283 45.6533 83.3364 45.6749V44.4421C83.2283 44.4204 83.1634 44.4204 83.0336 44.4204C82.4497 44.3988 81.8441 44.7881 81.6062 45.5235Z" fill="black"/>
<path d="M85.2365 42.3716C84.804 42.3716 84.5012 42.6744 84.5012 43.0853C84.5012 43.4747 84.7824 43.7991 85.2149 43.7991C85.6907 43.7991 85.9719 43.4747 85.9719 43.0853C85.9502 42.6744 85.6691 42.3716 85.2365 42.3716Z" fill="black"/>
<path d="M84.5621 49.7161H85.8814V44.5251H84.5621V49.7161Z" fill="black"/>
<path d="M90.2508 45.4321C90.7266 45.4321 91.0294 45.5403 91.2457 45.6268L91.4836 44.6318C91.1808 44.5021 90.705 44.3939 90.2076 44.3939C88.3909 44.3939 87.3095 45.6052 87.3095 47.1625C87.3095 48.7847 88.3692 49.8229 89.9913 49.8229C90.6401 49.8229 91.1808 49.6931 91.4619 49.5634L91.2889 48.59C91.0294 48.6982 90.705 48.7847 90.2508 48.7847C89.3641 48.7847 88.6504 48.1791 88.6504 47.0976C88.6504 46.1675 89.2343 45.4321 90.2508 45.4321Z" fill="black"/>
<path d="M95.5473 47.8903C95.5473 47.9768 95.5473 48.0849 95.504 48.1715C95.3743 48.5608 95.0066 48.8852 94.4659 48.8852C94.055 48.8852 93.709 48.6473 93.709 48.1282C93.709 47.3279 94.5957 47.1333 95.5257 47.1549V47.8903H95.5473ZM96.8233 46.5925C96.8233 45.4462 96.3475 44.4079 94.6822 44.4079C93.8604 44.4079 93.1899 44.6242 92.8006 44.8622L93.0602 45.7057C93.4062 45.4894 93.9469 45.3164 94.4659 45.3164C95.3959 45.3164 95.5257 45.8787 95.5257 46.2248V46.3113C93.6225 46.3113 92.4546 46.9602 92.4546 48.2796C92.4546 49.0799 93.0385 49.8153 94.0983 49.8153C94.7687 49.8153 95.3094 49.5341 95.6338 49.1232H95.6554L95.7419 49.7072H96.9314C96.8666 49.3827 96.8449 48.9285 96.8449 48.4526V46.5925H96.8233Z" fill="black"/>
<path d="M98.3927 45.1441H99.1712L99.3875 42.3971H98.1764L98.3927 45.1441Z" fill="black"/>
<path d="M102.844 46.6184C102.195 46.3805 101.936 46.2291 101.936 45.883C101.936 45.5586 102.195 45.3423 102.671 45.3423C103.125 45.3423 103.558 45.5153 103.774 45.6451L104.034 44.7151C103.731 44.542 103.234 44.4122 102.65 44.4122C101.438 44.4122 100.682 45.126 100.682 46.0345C100.682 46.6401 101.092 47.2024 102.109 47.5485C102.758 47.7648 102.952 47.9595 102.952 48.3055C102.952 48.6516 102.693 48.8895 102.109 48.8895C101.633 48.8895 101.071 48.6949 100.79 48.5002L100.53 49.4519C100.919 49.6682 101.482 49.8196 102.109 49.8196C103.471 49.8196 104.228 49.1275 104.228 48.1974C104.228 47.4404 103.796 46.9645 102.844 46.6184Z" fill="black"/>
<path d="M107.665 43.6248H109.719V49.7027H111.039V43.6248H113.115V42.5217H107.665V43.6248Z" fill="black"/>
<path d="M114.872 45.5235H114.829L114.785 44.5286H113.639C113.661 44.9828 113.682 45.5019 113.682 46.1941V49.7196H115.002V47.016C115.002 46.8646 115.023 46.7348 115.045 46.6266C115.153 46.021 115.607 45.6317 116.213 45.6317C116.364 45.6317 116.494 45.6533 116.602 45.6749V44.4421C116.494 44.4204 116.429 44.4204 116.299 44.4204C115.737 44.3988 115.131 44.7881 114.872 45.5235Z" fill="black"/>
<path d="M122.465 44.5337H121.145V47.67C121.145 47.8214 121.124 47.9728 121.08 48.081C120.951 48.4054 120.605 48.7731 120.086 48.7731C119.394 48.7731 119.112 48.2107 119.112 47.3672V44.5337H117.793V47.5835C117.793 49.2706 118.658 49.8546 119.61 49.8546C120.54 49.8546 121.059 49.3138 121.275 48.9461H121.297L121.362 49.7248H122.508C122.486 49.2922 122.465 48.7947 122.465 48.1675V44.5337Z" fill="black"/>
<path d="M126.203 46.6184C125.554 46.3805 125.294 46.2291 125.294 45.883C125.294 45.5586 125.554 45.3423 126.03 45.3423C126.484 45.3423 126.916 45.5153 127.133 45.6451L127.392 44.7151C127.089 44.542 126.592 44.4122 126.008 44.4122C124.797 44.4122 124.04 45.126 124.04 46.0345C124.04 46.6401 124.451 47.2024 125.467 47.5485C126.116 47.7648 126.311 47.9595 126.311 48.3055C126.311 48.6516 126.051 48.8895 125.467 48.8895C124.991 48.8895 124.429 48.6949 124.148 48.5002L123.888 49.4519C124.278 49.6682 124.84 49.8196 125.467 49.8196C126.83 49.8196 127.587 49.1275 127.587 48.1974C127.587 47.4404 127.154 46.9645 126.203 46.6184Z" fill="black"/>
<path d="M130.52 43.0324L129.223 43.3352V44.5032H128.487V45.4765H129.223V47.9206C129.223 48.5911 129.352 49.0886 129.633 49.3698C129.871 49.6293 130.282 49.8024 130.758 49.8024C131.169 49.8024 131.515 49.7375 131.71 49.6726L131.688 48.6777C131.58 48.6993 131.407 48.7425 131.169 48.7425C130.672 48.7425 130.499 48.4181 130.499 47.7908V45.4981H131.753V44.5248H130.499V43.0324H130.52Z" fill="black"/>
<path d="M133.966 46.5686C134.031 46.0279 134.356 45.2925 135.178 45.2925C136.064 45.2925 136.259 46.0711 136.259 46.5686H133.966ZM135.242 44.4057C133.577 44.4057 132.712 45.7683 132.712 47.1959C132.712 48.7964 133.707 49.8346 135.394 49.8346C136.151 49.8346 136.756 49.6832 137.211 49.5102L137.016 48.6018C136.627 48.7532 136.194 48.8397 135.588 48.8397C134.745 48.8397 134.01 48.4287 133.988 47.477H137.47C137.492 47.3689 137.513 47.1742 137.513 46.9147C137.492 45.7899 136.929 44.4057 135.242 44.4057Z" fill="black"/>
<path d="M142.362 47.4745C142.362 47.6042 142.362 47.734 142.319 47.8638C142.189 48.4262 141.714 48.7938 141.194 48.7938C140.373 48.7938 139.897 48.1017 139.897 47.15C139.897 46.1767 140.373 45.4413 141.216 45.4413C141.8 45.4413 142.233 45.8523 142.341 46.3714C142.362 46.4795 142.362 46.6093 142.362 46.7174V47.4745ZM143.682 42.1536H142.362V45.0952H142.341C142.103 44.7059 141.605 44.4247 140.892 44.4247C139.637 44.4247 138.556 45.4629 138.556 47.1933C138.556 48.7939 139.529 49.8537 140.784 49.8537C141.541 49.8537 142.168 49.486 142.471 48.9236H142.492L142.557 49.7455H143.725C143.703 49.3995 143.682 48.8155 143.682 48.2964V42.1536Z" fill="black"/>
<path d="M154.467 45.7791C154.272 46.6659 154.099 47.4662 153.969 48.2665H153.948C153.84 47.4878 153.688 46.6876 153.515 45.844L152.802 42.5347H151.417L150.639 45.7791C150.423 46.6876 150.228 47.5527 150.12 48.2881H150.098C149.968 47.5744 149.817 46.6659 149.622 45.7791L148.93 42.5131H147.525L149.276 49.7157H150.704L151.547 46.3199C151.763 45.4979 151.893 44.8058 152.023 44.0488H152.045C152.131 44.8274 152.261 45.5196 152.456 46.3199L153.191 49.7157H154.597L156.543 42.5131H155.202L154.467 45.7791Z" fill="black"/>
<path d="M158.13 42.3716C157.697 42.3716 157.394 42.6744 157.394 43.0853C157.394 43.4747 157.676 43.7991 158.108 43.7991C158.584 43.7991 158.865 43.4747 158.865 43.0853C158.865 42.6744 158.584 42.3716 158.13 42.3716Z" fill="black"/>
<path d="M157.489 49.7161H158.809V44.5251H157.489V49.7161Z" fill="black"/>
<path d="M163.402 44.4054C162.537 44.4054 161.974 44.9029 161.736 45.2922H161.715L161.65 44.5136H160.504C160.525 44.9678 160.547 45.4653 160.547 46.0493V49.7046H161.866V46.6549C161.866 46.5035 161.888 46.3521 161.931 46.2439C162.061 45.833 162.428 45.4653 162.948 45.4653C163.661 45.4653 163.942 46.0276 163.942 46.7847V49.7263H165.262V46.6333C165.262 44.9894 164.31 44.4054 163.402 44.4054Z" fill="black"/>
<path d="M170.387 47.444C170.387 47.5954 170.365 47.7684 170.322 47.8982C170.171 48.374 169.76 48.6985 169.262 48.6985C168.441 48.6985 167.986 47.9847 167.986 47.0979C167.986 46.0381 168.527 45.3892 169.262 45.3892C169.825 45.3892 170.192 45.7569 170.344 46.2327C170.365 46.3409 170.387 46.4707 170.387 46.5788V47.444ZM170.538 45.2162C170.257 44.7836 169.803 44.4159 169.003 44.4159C167.77 44.4159 166.645 45.4541 166.645 47.1628C166.645 48.6336 167.554 49.6934 168.851 49.6934C169.544 49.6934 170.063 49.3906 170.365 48.9364H170.387V49.3906C170.387 50.5154 169.738 50.9696 168.895 50.9696C168.267 50.9696 167.705 50.7749 167.381 50.5586L167.1 51.5536C167.554 51.8131 168.246 51.9645 168.916 51.9645C169.63 51.9645 170.387 51.8131 170.928 51.3373C171.468 50.8398 171.706 50.0611 171.706 48.9797V46.0381C171.706 45.3243 171.728 44.8917 171.749 44.5456H170.603L170.538 45.2162Z" fill="black"/>
<path d="M177.289 42.5279C176.835 42.9605 176.662 43.631 176.662 44.3015V44.5178H175.948V45.4911H176.662V49.7089H177.981V45.4911H179.105V44.5178H177.959V44.2366C177.959 43.6094 178.175 43.047 178.824 43.047C179.062 43.047 179.235 43.0903 179.387 43.1335L179.473 42.1169C179.278 42.052 178.997 41.9872 178.63 41.9872C178.175 42.0304 177.656 42.1602 177.289 42.5279Z" fill="black"/>
<path d="M182.435 48.8787C181.635 48.8787 181.138 48.1217 181.138 47.1267C181.138 46.2615 181.505 45.3531 182.435 45.3531C183.344 45.3531 183.711 46.2832 183.711 47.1051C183.711 48.1649 183.192 48.8787 182.435 48.8787ZM182.479 44.4014C180.921 44.4014 179.797 45.4612 179.797 47.1483C179.797 48.8138 180.921 49.8304 182.392 49.8304C183.711 49.8304 185.052 48.9652 185.052 47.0618C185.074 45.5045 184.036 44.4014 182.479 44.4014Z" fill="black"/>
<path d="M187.677 45.5235H187.634L187.59 44.5286H186.444C186.466 44.9828 186.487 45.5019 186.487 46.1941V49.7196H187.807V47.016C187.807 46.8646 187.828 46.7348 187.85 46.6266C187.958 46.021 188.412 45.6317 189.018 45.6317C189.169 45.6317 189.299 45.6533 189.407 45.6749V44.4421C189.299 44.4204 189.234 44.4204 189.104 44.4204C188.542 44.3988 187.936 44.7881 187.677 45.5235Z" fill="black"/>
<path d="M197.27 43.5079C197.853 43.5079 198.329 43.6377 198.675 43.7891L198.956 42.7509C198.697 42.5995 198.07 42.4264 197.205 42.4264C194.999 42.4264 193.355 43.854 193.355 46.2116C193.355 48.3961 194.739 49.8453 197.032 49.8453C197.897 49.8453 198.589 49.6723 198.892 49.5209L198.675 48.4827C198.329 48.6341 197.767 48.7422 197.248 48.7422C195.669 48.7422 194.739 47.7473 194.739 46.1467C194.739 44.4163 195.799 43.5079 197.27 43.5079Z" fill="black"/>
<path d="M202.945 47.8903C202.945 47.9768 202.945 48.0849 202.902 48.1715C202.772 48.5608 202.404 48.8852 201.864 48.8852C201.453 48.8852 201.107 48.6473 201.107 48.1282C201.107 47.3279 201.993 47.1333 202.923 47.1549V47.8903H202.945ZM204.243 46.5925C204.243 45.4462 203.767 44.4079 202.102 44.4079C201.28 44.4079 200.609 44.6242 200.22 44.8622L200.479 45.7057C200.826 45.4894 201.366 45.3164 201.885 45.3164C202.815 45.3164 202.945 45.8787 202.945 46.2248V46.3113C201.042 46.3113 199.874 46.9602 199.874 48.2796C199.874 49.0799 200.458 49.8153 201.518 49.8153C202.188 49.8153 202.729 49.5341 203.053 49.1232H203.075L203.161 49.7072H204.351C204.286 49.3827 204.264 48.9285 204.264 48.4526L204.243 46.5925Z" fill="black"/>
<path d="M207.149 45.5235H207.106L207.063 44.5286H205.917C205.938 44.9828 205.96 45.5019 205.96 46.1941V49.7196H207.279V47.016C207.279 46.8646 207.301 46.7348 207.322 46.6266C207.431 46.021 207.885 45.6317 208.49 45.6317C208.642 45.6317 208.771 45.6533 208.88 45.6749V44.4421C208.771 44.4204 208.707 44.4204 208.577 44.4204C208.014 44.3988 207.409 44.7881 207.149 45.5235Z" fill="black"/>
<path d="M213.405 47.444C213.405 47.5954 213.383 47.7684 213.34 47.8982C213.188 48.374 212.778 48.6985 212.28 48.6985C211.458 48.6985 211.004 47.9847 211.004 47.0979C211.004 46.0381 211.545 45.3892 212.28 45.3892C212.842 45.3892 213.21 45.7569 213.361 46.2327C213.383 46.3409 213.405 46.4707 213.405 46.5788V47.444ZM213.578 45.2162C213.297 44.7836 212.842 44.4159 212.042 44.4159C210.809 44.4159 209.685 45.4541 209.685 47.1628C209.685 48.6336 210.593 49.6934 211.891 49.6934C212.583 49.6934 213.102 49.3906 213.405 48.9364H213.426V49.3906C213.426 50.5154 212.778 50.9696 211.934 50.9696C211.307 50.9696 210.745 50.7749 210.42 50.5586L210.139 51.5536C210.593 51.8131 211.285 51.9645 211.956 51.9645C212.669 51.9645 213.426 51.8131 213.967 51.3373C214.508 50.8398 214.746 50.0611 214.746 48.9797V46.0381C214.746 45.3243 214.767 44.8917 214.789 44.5456H213.643L213.578 45.2162Z" fill="black"/>
<path d="M218.776 48.8787C217.976 48.8787 217.479 48.1217 217.479 47.1267C217.479 46.2615 217.846 45.3531 218.776 45.3531C219.685 45.3531 220.052 46.2832 220.052 47.1051C220.052 48.1649 219.533 48.8787 218.776 48.8787ZM218.841 44.4014C217.284 44.4014 216.159 45.4612 216.159 47.1483C216.159 48.8138 217.284 49.8304 218.755 49.8304C220.074 49.8304 221.415 48.9652 221.415 47.0618C221.415 45.5045 220.377 44.4014 218.841 44.4014Z" fill="black"/>
<defs>
<linearGradient id="paint0_linear_458_5319" x1="40.6364" y1="1.36591" x2="40.6364" y2="54.3549" gradientUnits="userSpaceOnUse">
<stop stop-color="#EEA146"/>
<stop offset="1" stop-color="#EE8D46"/>
</linearGradient>
</defs>
</svg>
