<svg width="30" height="36" viewBox="0 0 30 36" fill="none" xmlns="http://www.w3.org/2000/svg">
<path d="M12.2419 17.8252V14.354C12.2419 13.1421 11.2389 9 10.0024 9C8.76596 9 7.7617 13.1421 7.7617 14.354V17.8252L7.73495 17.7609L0 22.1973V25.2956L7.7617 22.2092V30.7652L3.72644 34.0541V36L10.0729 33.8717L16.2736 36V34.0541L12.2383 30.7687V22.2128L20 25.2991V22.2009L12.265 17.7645L12.2419 17.8252Z" fill="#285D80"/>
<path d="M22.0005 16.0001C21.4302 16.0001 20.8584 15.9389 20.3014 15.8185C20.1074 15.7766 19.9842 15.5852 20.0261 15.3912C20.0681 15.1973 20.2592 15.0753 20.4532 15.1159C20.9605 15.2257 21.481 15.2814 22.0005 15.2814C23.9383 15.2814 25.7623 14.5286 27.1361 13.1615C28.5195 11.7848 29.2816 9.95187 29.2816 8.00003C29.2816 6.06218 28.5288 4.23827 27.1617 2.86444C25.7853 1.48104 23.9523 0.718895 22.0005 0.718895C20.0624 0.718895 18.2385 1.47171 16.8646 2.8388C15.4812 4.21548 14.7194 6.04845 14.7194 8.00055C14.7194 9.9384 15.4722 11.7623 16.8393 13.1361C16.9807 13.2755 16.9895 13.5096 16.8501 13.651C16.7108 13.7926 16.4902 13.8009 16.3488 13.6618L16.3286 13.6414C14.8281 12.1334 14.001 10.1295 14.001 8.00029C14.001 5.85578 14.8382 3.84153 16.3581 2.32916C17.8676 0.827143 19.8715 0 22.0007 0C24.1453 0 26.1593 0.837242 27.6716 2.35712C29.1736 3.86665 30.0008 5.87054 30.0008 7.99951C30.0008 10.144 29.1638 12.1578 27.6437 13.6704C26.1336 15.1727 24.1297 16.0001 22.0005 16.0001Z" fill="#285D80"/>
<path d="M16.9314 14.0509C16.9156 14.0509 16.9001 14.0496 16.8843 14.0468L15.4993 13.8008C15.3528 13.7749 15.2551 13.635 15.281 13.4882C15.3072 13.3416 15.4483 13.2443 15.5936 13.2702L16.6409 13.4561L16.5709 12.3472C16.5616 12.1985 16.6743 12.0706 16.8229 12.0613C16.9679 12.0502 17.0995 12.1649 17.1088 12.3133L17.2005 13.7645C17.2057 13.8471 17.1728 13.9274 17.1109 13.9826C17.0612 14.0269 16.9972 14.0509 16.9314 14.0509Z" fill="#285D80"/>
<path d="M22.0004 2.27539C18.8436 2.27539 16.2754 4.84357 16.2754 8.00039C16.2754 11.1572 18.8438 13.7256 22.0004 13.7256C25.1572 13.7256 27.7256 11.1575 27.7256 8.00039C27.7254 4.84357 25.1572 2.27539 22.0004 2.27539ZM22.568 8.44219C22.568 8.54914 22.5142 8.64885 22.4246 8.70737C22.3723 8.74156 22.3117 8.75917 22.2511 8.75917C22.2078 8.75917 22.1648 8.75062 22.1242 8.73275L18.7651 7.2657C18.6048 7.19552 18.5315 7.0088 18.6014 6.84824C18.6714 6.68794 18.8586 6.61465 19.0189 6.68458L21.9338 7.95766V5.123C21.9338 4.94794 22.0757 4.80602 22.2508 4.80602C22.4259 4.80602 22.5678 4.94794 22.5678 5.123L22.568 8.44219Z" fill="#285D80"/>
</svg>
